<?xml version="1.0" encoding="utf-8"?>
<!-- Generator: Adobe Illustrator 26.4.1, SVG Export Plug-In . SVG Version: 6.00 Build 0)  -->
<svg version="1.1" id="Слой_1" xmlns="http://www.w3.org/2000/svg" xmlns:xlink="http://www.w3.org/1999/xlink" x="0px" y="0px"
	 viewBox="0 0 256 256" style="enable-background:new 0 0 256 256;" xml:space="preserve">
<style type="text/css">
	.st0{fill:#FFFBEF;}
</style>
<path class="st0" d="M249.5,3.2c4,3,6.4,7.8,6.4,12.8v36v132c0,22.1-21.5,40-48,40s-48-17.9-48-40s21.5-40,48-40
	c5.6,0,11,0.8,16,2.3V73.5L96,111.9V216c0,22.1-21.5,40-48,40S0,238.1,0,216s21.5-40,48-40c5.6,0,11,0.8,16,2.3V100V64
	c0-7,4.6-13.3,11.4-15.3l159.9-48C240.2-0.8,245.5,0.1,249.5,3.2L249.5,3.2z"/>
</svg>
