<?xml version="1.0" encoding="utf-8"?>
<!-- Generator: Adobe Illustrator 26.4.1, SVG Export Plug-In . SVG Version: 6.00 Build 0)  -->
<svg version="1.1" id="Слой_1" xmlns="http://www.w3.org/2000/svg" xmlns:xlink="http://www.w3.org/1999/xlink" x="0px" y="0px"
	 viewBox="0 0 256 256" style="enable-background:new 0 0 256 256;" xml:space="preserve">
<style type="text/css">
	.st0{fill:#2F2F2C;}
</style>
<path class="st0" d="M201.1,109.7c30.3,0,54.9-24.6,54.9-54.9S231.4,0,201.1,0s-54.9,24.6-54.9,54.9c0,2.3,0.1,4.6,0.4,6.8
	L92.9,88.5C83.1,79,69.7,73.1,54.9,73.1C24.6,73.1,0,97.7,0,128s24.6,54.9,54.9,54.9c14.8,0,28.2-5.8,38.1-15.4l53.8,26.9
	c-0.3,2.2-0.4,4.5-0.4,6.8c0,30.3,24.6,54.9,54.9,54.9s54.9-24.6,54.9-54.9s-24.6-54.9-54.9-54.9c-14.8,0-28.2,5.8-38.1,15.4
	l-53.8-26.9c0.3-2.2,0.4-4.5,0.4-6.8c0-2.3-0.1-4.6-0.4-6.8l53.8-26.9C172.9,103.9,186.3,109.7,201.1,109.7z"/>
</svg>
