<?xml version="1.0" encoding="utf-8"?>
<!-- Generator: Adobe Illustrator 26.4.1, SVG Export Plug-In . SVG Version: 6.00 Build 0)  -->
<svg version="1.1" id="Слой_1" xmlns="http://www.w3.org/2000/svg" xmlns:xlink="http://www.w3.org/1999/xlink" x="0px" y="0px"
	 viewBox="0 0 132.7 512" style="enable-background:new 0 0 132.7 512;" xml:space="preserve">
<style type="text/css">
	.st0{fill:#2F2F2C;}
</style>
<path class="st0" d="M66.4,379.3C29.7,379.3,0,409,0,445.6S29.7,512,66.4,512s66.4-29.7,66.4-66.4S103,379.3,66.4,379.3z
	 M66.4,189.6C29.7,189.6,0,219.3,0,256s29.7,66.4,66.4,66.4s66.4-29.7,66.4-66.4S103,189.6,66.4,189.6z M132.7,66.4
	C132.7,29.7,103,0,66.4,0S0,29.7,0,66.4s29.7,66.4,66.4,66.4S132.7,103,132.7,66.4z"/>
</svg>
