<?xml version="1.0" encoding="utf-8"?>
<!-- Generator: Adobe Illustrator 26.4.1, SVG Export Plug-In . SVG Version: 6.00 Build 0)  -->
<svg version="1.1" id="Слой_1" xmlns="http://www.w3.org/2000/svg" xmlns:xlink="http://www.w3.org/1999/xlink" x="0px" y="0px"
	 viewBox="0 0 256 256" style="enable-background:new 0 0 256 256;" xml:space="preserve">
<style type="text/css">
	.st0{fill:#FFFBEF;}
</style>
<path class="st0" d="M128,256c70.7,0,128-57.3,128-128S198.7,0,128,0S0,57.3,0,128S57.3,256,128,256z M82.1,162.8
	C91,173.1,106.3,184,128,184s37-10.9,45.9-21.2c2.9-3.4,7.9-3.7,11.3-0.8s3.7,7.9,0.8,11.3c-11.1,12.8-30.4,26.7-58,26.7
	s-46.9-13.9-58.1-26.8c-2.9-3.4-2.6-8.4,0.8-11.3S79.2,159.4,82.1,162.8z M72.2,104c0-8.8,7.2-16,16-16s16,7.2,16,16s-7.2,16-16,16
	S72.2,112.8,72.2,104z M168.2,88c8.8,0,16,7.2,16,16s-7.2,16-16,16s-16-7.2-16-16S159.4,88,168.2,88z"/>
</svg>
