<?xml version="1.0" encoding="utf-8"?>
<!-- Generator: Adobe Illustrator 26.4.1, SVG Export Plug-In . SVG Version: 6.00 Build 0)  -->
<svg version="1.1" id="a" xmlns="http://www.w3.org/2000/svg" xmlns:xlink="http://www.w3.org/1999/xlink" x="0px" y="0px"
	 viewBox="0 0 994.4 999.8" style="enable-background:new 0 0 994.4 999.8;" xml:space="preserve">
<style type="text/css">
	.st0{fill:#FFC961;}
	.st1{fill:#D2DDFF;}
	.st2{fill:none;stroke:#53A2FF;stroke-width:70;stroke-linecap:round;stroke-linejoin:round;}
	.st3{fill:none;stroke:#FFFBEF;stroke-width:70;stroke-linecap:round;stroke-linejoin:round;}
	.st4{fill:#EF6355;}
</style>
<path class="st0" d="M53.8,255.1l611.4-125c36.4-7.4,72,16,79.4,52.5l125,611.4c7.4,36.4-16,72-52.5,79.4l-611.4,125
	c-36.4,7.4-72-16-79.4-52.5L1.4,334.5C-6.1,298.1,17.4,262.5,53.8,255.1z"/>
<path class="st1" d="M303,125.1H927c37.2,0,67.3,30.1,67.3,67.3v624.1c0,37.2-30.1,67.3-67.3,67.3H303c-37.2,0-67.3-30.1-67.3-67.3
	V192.4C235.7,155.2,265.8,125.1,303,125.1z"/>
<line class="st2" x1="382.5" y1="386.1" x2="848.9" y2="386.1"/>
<line class="st2" x1="382.5" y1="618.7" x2="615" y2="618.7"/>
<line class="st3" x1="757.8" y1="618.7" x2="848.9" y2="618.7"/>
<circle class="st4" cx="615.7" cy="125.8" r="125.8"/>
</svg>
