<?xml version="1.0" encoding="utf-8"?>
<!-- Generator: Adobe Illustrator 26.4.1, SVG Export Plug-In . SVG Version: 6.00 Build 0)  -->
<svg version="1.1" id="Capa_1" xmlns="http://www.w3.org/2000/svg" xmlns:xlink="http://www.w3.org/1999/xlink" x="0px" y="0px"
	 viewBox="0 0 64 64" style="enable-background:new 0 0 64 64;" xml:space="preserve">
<style type="text/css">
	.st0{fill:#2F2F2C;}
</style>
<g>
	<path class="st0" d="M32,0C14.4,0,0,14.4,0,32s14.4,32,32,32s32-14.4,32-32S49.6,0,32,0z M32,57.3C18.1,57.3,6.7,45.9,6.7,32
		S18.1,6.7,32,6.7S57.3,18.1,57.3,32S45.9,57.3,32,57.3z"/>
	<path class="st0" d="M45.3,32.4H32.2V21c0-1.9-1.5-3.4-3.4-3.4c-1.9,0-3.4,1.5-3.4,3.4v14.7c0,1.9,1.5,3.4,3.4,3.4h16.5
		c1.9,0,3.4-1.5,3.4-3.4C48.7,33.9,47.2,32.4,45.3,32.4z"/>
</g>
</svg>
