<?xml version="1.0" encoding="utf-8"?>
<!-- Generator: Adobe Illustrator 26.4.1, SVG Export Plug-In . SVG Version: 6.00 Build 0)  -->
<svg version="1.1" id="Слой_1" xmlns="http://www.w3.org/2000/svg" xmlns:xlink="http://www.w3.org/1999/xlink" x="0px" y="0px"
	 viewBox="0 0 256 256" style="enable-background:new 0 0 256 256;" xml:space="preserve">
<style type="text/css">
	.st0{fill:#E2D9C5;}
</style>
<path class="st0" d="M232,128c0-57.4-46.6-104-104-104S24,70.6,24,128s46.6,104,104,104S232,185.4,232,128z M0,128
	C0,57.3,57.3,0,128,0s128,57.3,128,128s-57.3,128-128,128S0,198.7,0,128z M88.8,159.1c7.6,8.2,20.6,16.9,39.2,16.9
	s31.6-8.8,39.2-16.9c4.5-4.9,12.1-5.2,16.9-0.7s5.2,12.1,0.7,16.9c-11,11.9-30,24.7-56.8,24.7s-45.8-12.8-56.8-24.7
	c-4.5-4.9-4.2-12.4,0.7-16.9S84.4,154.2,88.8,159.1L88.8,159.1z M72.2,104c0-8.8,7.2-16,16-16s16,7.2,16,16s-7.2,16-16,16
	S72.2,112.8,72.2,104z M168.2,88c8.8,0,16,7.2,16,16s-7.2,16-16,16s-16-7.2-16-16S159.4,88,168.2,88z"/>
</svg>
