<?xml version="1.0" encoding="utf-8"?>
<!-- Generator: Adobe Illustrator 26.4.1, SVG Export Plug-In . SVG Version: 6.00 Build 0)  -->
<svg version="1.1" id="Слой_1" xmlns="http://www.w3.org/2000/svg" xmlns:xlink="http://www.w3.org/1999/xlink" x="0px" y="0px"
	 viewBox="0 0 224 256" style="enable-background:new 0 0 224 256;" xml:space="preserve">
<style type="text/css">
	.st0{fill:#2F2F2C;}
</style>
<path class="st0" d="M67.6,8.9L64,16H16C7.2,16,0,23.1,0,32s7.2,16,16,16h192c8.9,0,16-7.2,16-16s-7.1-16-16-16h-48l-3.6-7.1
	c-2.7-5.5-8.2-8.9-14.3-8.9H81.9C75.8,0,70.3,3.4,67.6,8.9z M208,64H16l10.6,169.5c0.8,12.6,11.3,22.5,24,22.5h122.9
	c12.6,0,23.1-9.9,23.9-22.5L208,64z"/>
</svg>
