<?xml version="1.0" encoding="utf-8"?>
<!-- Generator: Adobe Illustrator 26.4.1, SVG Export Plug-In . SVG Version: 6.00 Build 0)  -->
<svg version="1.1" id="Слой_1" xmlns="http://www.w3.org/2000/svg" xmlns:xlink="http://www.w3.org/1999/xlink" x="0px" y="0px"
	 viewBox="0 0 256 256" style="enable-background:new 0 0 256 256;" xml:space="preserve">
<style type="text/css">
	.st0{fill:#E2D9C5;}
</style>
<path class="st0" d="M208,104c0,23-7.5,44.2-20,61.4l63.3,63.4c6.3,6.3,6.3,16.4,0,22.7s-16.4,6.3-22.7,0L165.3,188
	c-17.2,12.6-38.4,20-61.4,20C46.5,208,0,161.5,0,104S46.5,0,104,0S208,46.6,208,104z M104,176c39.8,0,72-32.2,72-72s-32.2-72-72-72
	s-72,32.2-72,72S64.2,176,104,176z"/>
</svg>
