<?xml version="1.0" encoding="utf-8"?>
<!-- Generator: Adobe Illustrator 26.4.1, SVG Export Plug-In . SVG Version: 6.00 Build 0)  -->
<svg version="1.1" id="Слой_1" xmlns="http://www.w3.org/2000/svg" xmlns:xlink="http://www.w3.org/1999/xlink" x="0px" y="0px"
	 viewBox="0 0 256 256" style="enable-background:new 0 0 256 256;" xml:space="preserve">
<style type="text/css">
	.st0{fill:#FFFBEF;}
</style>
<path class="st0" d="M15.5,27.6C11.4,24.4,5.3,25.1,2,29.3s-2.5,10.2,1.6,13.5l236.8,185.6c4.2,3.3,10.2,2.5,13.5-1.6
	c3.3-4.2,2.5-10.2-1.6-13.5l-111-87c21.8-5.8,37.9-25.8,37.9-49.4c0-28.4-22.9-51.3-51.2-51.3c-27.9,0-50.6,22.3-51.2,50.1
	L15.5,27.6z M105.7,147.3c-37.5,2-67.3,33.2-67.3,71.2c0,6.6,5.3,11.9,11.9,11.9h155.4c1.6,0,3-0.3,4.4-0.8L105.7,147.3z"/>
</svg>
