<?xml version="1.0" encoding="utf-8"?>
<!-- Generator: Adobe Illustrator 26.4.1, SVG Export Plug-In . SVG Version: 6.00 Build 0)  -->
<svg version="1.1" id="Слой_1" xmlns="http://www.w3.org/2000/svg" xmlns:xlink="http://www.w3.org/1999/xlink" x="0px" y="0px"
	 viewBox="0 0 256 256" style="enable-background:new 0 0 256 256;" xml:space="preserve">
<style type="text/css">
	.st0{fill:#FFFBEF;}
</style>
<path class="st0" d="M19.6,108.4C8.8,108.4,0,117.1,0,128s8.8,19.6,19.8,19.8h88.7v88.7c0,10.9,8.8,19.6,19.8,19.8
	c10.9,0,19.6-8.8,19.8-19.8v-88.7h88.7c10.9,0,19.6-8.8,19.8-19.8c0-10.9-8.8-19.6-19.8-19.8H148V19.6c0-10.9-8.8-19.6-19.8-19.8
	c-10.9,0-19.6,8.8-19.8,19.8l0.1,88.7L19.6,108.4z"/>
</svg>
