<?xml version="1.0" encoding="utf-8"?>
<!-- Generator: Adobe Illustrator 26.4.1, SVG Export Plug-In . SVG Version: 6.00 Build 0)  -->
<svg version="1.1" id="Слой_1" xmlns="http://www.w3.org/2000/svg" xmlns:xlink="http://www.w3.org/1999/xlink" x="0px" y="0px"
	 viewBox="0 0 256 256" style="enable-background:new 0 0 256 256;" xml:space="preserve">
<style type="text/css">
	.st0{fill:#E2D9C5;}
</style>
<g>
	<path class="st0" d="M242.5,24.6L242.5,24.6L242.5,24.6 M230.9,28.1v17.2l-14.2,4.2L89,87.9V70.7L230.9,28.1 M208,169
		c3.1,0,6,0.4,8.8,1.2l14.2,4.2v9.5c0,4.2-3.1,7.5-5,9.1c-4.5,3.7-11,5.9-17.9,5.9s-13.4-2.1-17.9-5.9c-1.9-1.6-5-4.8-5-9.1
		c0-4.2,3.1-7.5,5-9.1C194.6,171.1,201.1,169,208,169 M48,200.9c3.1,0,6,0.4,8.8,1.2l14.2,4.2v9.5c0,4.2-3.1,7.5-5,9.1
		c-4.5,3.7-11,5.9-17.9,5.9s-13.4-2.1-17.9-5.9c-1.9-1.6-5-4.8-5-9.1s3.1-7.5,5-9.1C34.7,203.1,41.2,200.9,48,200.9 M239.9,0
		c-1.5,0-3.1,0.2-4.6,0.7l-159.9,48C68.7,50.7,64,57,64,64v36v78.3c-5-1.5-10.4-2.3-16-2.3c-26.5,0-48,17.9-48,40s21.5,40,48,40
		s48-17.9,48-40V112l127.9-38.4v72.8c-5-1.5-10.4-2.3-16-2.3c-26.5,0-48,17.9-48,40s21.5,40,48,40s48-17.9,48-40V52V16
		c0-5-2.4-9.8-6.4-12.8C246.7,1.1,243.3,0,239.9,0L239.9,0z"/>
</g>
</svg>
