<?xml version="1.0" encoding="UTF-8"?><svg id="a" xmlns="http://www.w3.org/2000/svg" viewBox="0 0 999.56 999.56"><defs><style>.b{fill:#fffbef;}.c{fill:#d2ddff;}.d{fill:#ef6355;}.e{fill:#53a2ff;}.f{fill:#ffc961;}</style></defs><path class="c" d="M999.56,230.67V910.88c0,48.97-39.7,88.68-88.68,88.68H88.68c-48.97,0-88.68-39.71-88.68-88.68V88.68C0,39.7,39.71,0,88.68,0H769l230.56,230.67Z"/><path class="b" d="M768.56,499.5c0,148.29-120.21,268.5-268.5,268.5-75.5,0-143.72-31.16-192.49-81.32-46.97-48.28-75.91-114.16-76.01-186.81v-.37c0-39.75,8.64-77.49,24.15-111.43,42.32-92.67,135.81-157.07,244.35-157.07,148.29,0,268.5,120.21,268.5,268.5Z"/><path class="e" d="M999.12,231h-141.88c-48.97,0-88.68-39.71-88.68-88.68V.33l230.56,230.67Z"/><path class="f" d="M500.06,499.5l-192.49,187.18c-46.97-48.28-75.91-114.16-76.01-186.81v-.37c0-39.75,8.64-77.49,24.15-111.43l244.35,111.43Z"/><path class="d" d="M500.06,231V499.5l-268.5,.37v-.37c0-148.29,120.21-268.5,268.5-268.5Z"/></svg>