<?xml version="1.0" encoding="utf-8"?>
<!-- Generator: Adobe Illustrator 26.4.1, SVG Export Plug-In . SVG Version: 6.00 Build 0)  -->
<svg version="1.1" id="Слой_1" xmlns="http://www.w3.org/2000/svg" xmlns:xlink="http://www.w3.org/1999/xlink" x="0px" y="0px"
	 viewBox="0 0 256.1 256" style="enable-background:new 0 0 256.1 256;" xml:space="preserve">
<style type="text/css">
	.st0{fill:#E2D9C5;}
</style>
<path class="st0" d="M36.6,27.4c-5,0-9.1,4.1-9.1,9.1v182.9c0,5,4.1,9.1,9.1,9.1h128v-45.7c0-10.1,8.2-18.3,18.3-18.3h45.7v-128
	c0-5-4.1-9.1-9.1-9.1C219.5,27.4,36.6,27.4,36.6,27.4z M164.6,256h-128C16.4,256,0,239.6,0,219.4V36.6C0,16.4,16.4,0,36.6,0h182.9
	c20.2,0,36.6,16.4,36.6,36.6v128v3.1c0,9.7-3.8,19-10.7,25.9l-51.7,51.7c-6.9,6.9-16.2,10.7-25.9,10.7L164.6,256L164.6,256z"/>
</svg>
