<?xml version="1.0" encoding="utf-8"?>
<!-- Generator: Adobe Illustrator 26.4.1, SVG Export Plug-In . SVG Version: 6.00 Build 0)  -->
<svg version="1.1" xmlns="http://www.w3.org/2000/svg" xmlns:xlink="http://www.w3.org/1999/xlink" x="0px" y="0px"
	 viewBox="0 0 1000 1000" style="enable-background:new 0 0 1000 1000;" xml:space="preserve">
<style type="text/css">
	.st0{fill:#FFC961;}
	.st1{fill:#FFAD61;}
	.st2{fill:#EF6355;}
	.st3{fill:#D9564F;}
	.st4{fill:#D2DDFF;}
	.st5{fill:none;stroke:#4C4C4C;stroke-width:30;stroke-linecap:round;stroke-linejoin:round;}
	.st6{fill:none;stroke:#53A2FF;stroke-width:30;stroke-linecap:round;stroke-linejoin:round;}
</style>
<g id="Слой_1">
	<g id="b">
		<circle class="st0" cx="500" cy="500" r="500"/>
	</g>
	<g id="e">
		<path class="st1" d="M999.7,497.5c-0.1-30.8-3-61-8.4-90.2l-1.5-7.7c-1-5-2.1-9.9-3.2-14.8c-5.3-1.5-10.9-2.3-16.7-2.4
			c-1.7,0-3.2,0-4.8,0.1c-1.5,0-3.1,0.3-4.5,0.6c0,0,0,0-0.1,0c-11.7,2.4-20.6,12.7-20.6,25.1c0,1.6,0.1,3.1,0.4,4.6h-0.1
			c5.5,28.4,8.4,57.8,8.3,87.9c0,0.3,0,0.6,0,0.9C947.2,749,745.8,948.8,498.2,947.9c-98.4-0.3-189.4-32.3-263.2-86.3
			c-23.1-16.9-44.4-35.9-63.9-56.8c-0.3-0.3-0.6-0.6-0.9-1c-4.6-4.7-11.1-7.6-18.2-7.6c-5.3,0-10.3,1.6-14.4,4.3l-1,0.8l-1.3,1
			c0,0-1.5,1.2-1.6,1.2c-6.2,5.5-11.2,12.1-14.8,19.7c3.9,4.6,7.9,9.1,11.9,13.5c2.7,2.9,2.7,3,0,0c-4-4.4,4.6,4.9,4.5,4.9
			c0,0,0,0,0.1,0c21.2,22.5,44.4,43,69.4,61.3c82.2,60.1,183.4,95.6,293,96c276.4,1.1,501-221.9,501.9-498.1
			C999.7,499.7,999.7,498.5,999.7,497.5L999.7,497.5z"/>
	</g>
	<path class="st2" d="M596.9,602.5v-43c0-1.7-0.1-3.4-0.3-5.1c0,0,0,0,0,0c-2.6-25.1-23.8-44.8-49.6-44.8h-94.2
		c-3.1,0-6.2,0.3-9.1,0.9c-1,0.2-2,0.4-3,0.6c-20.3,5-35.6,22.5-37.5,43.8c-0.1,1.5-0.2,3-0.2,4.6v21.9h0v93.8c0,0.4,0,0.7,0,1.1
		v42.9c0,24.4,17.5,44.7,40.7,49c2.9,0.6,6,0.9,9.1,0.9H547c27.6,0,49.9-22.4,49.9-49.9v-22.1h0.1v-93.7
		C597,603.2,596.9,602.9,596.9,602.5z"/>
	<path class="st3" d="M579.9,456.2c-25.9,0-54.6,0.1-86.4,0.1c-18.7,0-36.2-0.1-52.7-0.1v125.7c0,6,1.1,11.7,3,17c0,0,0,0.1,0,0.1
		c7,19.1,25.3,32.7,46.8,32.7h94.2c4.2,0,8.3-0.5,12.1-1.5v-70.7c0-1.7-0.1-3.4-0.3-5.1v0c0.1-1.5,0.2-3,0.2-4.5v-30.5v-27.9
		L579.9,456.2z"/>
	<path class="st4" d="M596.7,489.3L596.7,489.3c-2.3-25.4-23.6-45.4-49.7-45.4h-94.2c-3.1,0-6.1,0.3-9,0.9c0,0,0,0-0.1,0
		c-21.6,4-38.2,21.9-40.5,44c-0.2,1.7-0.2,3.3-0.2,5v25.6h0v30.5c0,1.7,0.1,3.4,0.2,5c2.2,22.1,18.9,40,40.5,44c0,0,0,0,0.1,0
		c2.9,0.6,5.9,0.9,9,0.9H547c26.1,0,47.4-20,49.7-45.4v0c0.1-1.5,0.2-3,0.2-4.5v-30.5h0.1v-25.6
		C596.9,492.3,596.9,490.8,596.7,489.3z"/>
	<path class="st5" d="M419.3,245.8c0,96.6-138.7,96.6-138.7,0"/>
	<path class="st5" d="M719.3,245.8c0,96.6-138.7,96.6-138.7,0"/>
</g>
<g id="Слой_2">
	<line class="st6" x1="670.4" y1="496" x2="735.7" y2="496"/>
	<line class="st6" x1="670.4" y1="441.3" x2="735.7" y2="441.3"/>
	<line class="st6" x1="670.4" y1="496" x2="735.7" y2="441.3"/>
</g>
<g id="Слой_2__x28_копия_x29_">
	<line class="st6" x1="796.3" y1="390.5" x2="910.4" y2="390.5"/>
	<line class="st6" x1="796.3" y1="295" x2="910.4" y2="295"/>
	<line class="st6" x1="796.3" y1="390.5" x2="910.4" y2="295"/>
</g>
</svg>
