<?xml version="1.0" encoding="utf-8"?>
<!-- Generator: Adobe Illustrator 26.4.1, SVG Export Plug-In . SVG Version: 6.00 Build 0)  -->
<svg version="1.1" xmlns="http://www.w3.org/2000/svg" xmlns:xlink="http://www.w3.org/1999/xlink" x="0px" y="0px"
	 viewBox="0 0 1000 1000" style="enable-background:new 0 0 1000 1000;" xml:space="preserve">
<style type="text/css">
	.st0{fill:#FFC961;}
	.st1{fill:#EF6355;}
	.st2{fill:#FFAD61;}
	.st3{fill:#D9564F;}
	.st4{fill:#D2DDFF;}
	.st5{fill:#53A2FF;}
	.st6{fill:none;stroke:#4C4C4C;stroke-width:30;stroke-linecap:round;stroke-linejoin:round;}
</style>
<g id="Слой_1">
	<g id="b">
		<circle class="st0" cx="500" cy="500" r="500"/>
	</g>
	<g id="d">
		<path class="st1" d="M421.5,791c-191.7-55-254.9-333.4-208.1-380.3c22.5-22.5,67.2-10.9,203.1,28.5c11.4,3.3,23.4,6.8,36.2,10.5
			c15.9,4.6,32.7,9.5,50.7,14.7c37.4,10.7,70.4,20.1,99.4,28.4c12.9,3.7,24.9,7.1,36.2,10.5c103.5,30.5,143.9,47.1,150.5,74.8
			C805,642.5,604.8,843.6,421.5,791z"/>
	</g>
	<g id="e">
		<path class="st2" d="M999.7,497.5c-0.1-30.8-3-61-8.4-90.2l-1.5-7.7c-1-5-2.1-9.9-3.2-14.8c-5.3-1.5-10.9-2.3-16.7-2.4
			c-1.7,0-3.2,0-4.8,0.1c-1.5,0-3.1,0.3-4.5,0.6c0,0,0,0-0.1,0c-11.7,2.4-20.6,12.7-20.6,25.1c0,1.6,0.1,3.1,0.4,4.6h-0.1
			c5.5,28.4,8.4,57.8,8.3,87.9c0,0.3,0,0.6,0,0.9C947.2,749,745.8,948.8,498.2,947.9c-98.4-0.3-189.4-32.3-263.2-86.3
			c-23.1-16.9-44.4-35.9-63.9-56.8c-0.3-0.3-0.6-0.6-0.9-1c-4.6-4.7-11.1-7.6-18.2-7.6c-5.3,0-10.3,1.6-14.4,4.3l-1,0.8l-1.3,1
			c0,0-1.5,1.2-1.6,1.2c-6.2,5.5-11.2,12.1-14.8,19.7c3.9,4.6,7.9,9.1,11.9,13.5c2.7,2.9,2.7,3,0,0c-4-4.4,4.6,4.9,4.5,4.9
			c0,0,0,0,0.1,0c21.2,22.5,44.4,43,69.4,61.3c82.2,60.1,183.4,95.6,293,96c276.4,1.1,501-221.9,501.9-498.1
			C999.7,499.7,999.7,498.5,999.7,497.5L999.7,497.5z"/>
	</g>
	<path class="st3" d="M639.1,503.3l-34.6,120.5c-7.6,26.4-35.2,41.8-61.6,34.2l-90.5-26c-20.7-5.9-34.5-24.1-36-44.3
		c-0.4-5.6,0.2-11.5,1.8-17.3l34.7-120.8c15.9,4.6,32.7,9.5,50.7,14.7c37.4,10.7,70.4,20.1,99.4,28.4
		C615.8,496.4,627.8,500,639.1,503.3z"/>
	<path class="st4" d="M602.9,492.7l-25.9,90.1c-7.6,26.4-35.2,41.8-61.7,34.2l-90.5-26c-3-0.9-5.9-2-8.5-3.4
		c-21.1-10.5-32.3-34.9-25.6-58.3l25.9-90.2c11.4,3.3,23.4,6.8,36.2,10.5c15.9,4.6,32.7,9.5,50.7,14.7
		C541,475.1,574,484.4,602.9,492.7z"/>
	<path class="st5" d="M793.7,511.7c-6.9,54.5,57.5,81.4,119.1,49.8l0,0c61.6-31.6,77.3-99.6,29.1-125.8l-111.1-60.5
		c-8.4-4.6-20.1,1.4-21.3,10.9L793.7,511.7z"/>
	<path class="st5" d="M170.2,147.3c-49.9-22.9-94.9,30.5-83.3,98.7l0,0c11.6,68.2,71.8,103.6,111.3,65.5l91-87.9
		c6.9-6.6,4.6-19.6-4-23.5L170.2,147.3z"/>
</g>
<g id="Слой_2">
	<line class="st6" x1="343.6" y1="274.9" x2="475.1" y2="273"/>
	<line class="st6" x1="407.7" y1="160" x2="475.1" y2="273"/>
</g>
<g id="Слой_2__x28_копия_x29_">
	<line class="st6" x1="753" y1="392.4" x2="642.5" y2="321"/>
	<line class="st6" x1="759.5" y1="261" x2="642.5" y2="321"/>
</g>
</svg>
