<?xml version="1.0" encoding="utf-8"?>
<!-- Generator: Adobe Illustrator 26.4.1, SVG Export Plug-In . SVG Version: 6.00 Build 0)  -->
<svg version="1.1" xmlns="http://www.w3.org/2000/svg" xmlns:xlink="http://www.w3.org/1999/xlink" x="0px" y="0px"
	 viewBox="0 0 1000 1000" style="enable-background:new 0 0 1000 1000;" xml:space="preserve">
<style type="text/css">
	.st0{fill:#FFC961;}
	.st1{fill:#FFAD61;}
	.st2{fill:#666666;}
	.st3{fill:#4C4C4C;}
	.st4{fill:#666666;stroke:#666666;stroke-width:80;stroke-linecap:round;stroke-linejoin:round;}
	.st5{fill:none;stroke:#4C4C4C;stroke-width:30;stroke-linecap:round;stroke-linejoin:round;}
</style>
<g id="Слой_1">
	<g id="b">
		<circle class="st0" cx="500" cy="500" r="500"/>
	</g>
	<g id="e">
		<path class="st1" d="M999.7,497.5c-0.1-30.8-3-61-8.4-90.2l-1.5-7.7c-1-5-2.1-9.9-3.2-14.8c-5.3-1.5-10.9-2.3-16.7-2.4
			c-1.7,0-3.2,0-4.8,0.1c-1.5,0-3.1,0.3-4.5,0.6c0,0,0,0-0.1,0c-11.7,2.4-20.6,12.7-20.6,25.1c0,1.6,0.1,3.1,0.4,4.6h-0.1
			c5.5,28.4,8.4,57.8,8.3,87.9c0,0.3,0,0.6,0,0.9C947.2,749,745.8,948.8,498.2,947.9c-98.4-0.3-189.4-32.3-263.2-86.3
			c-23.1-16.9-44.4-35.9-63.9-56.8c-0.3-0.3-0.6-0.6-0.9-1c-4.6-4.7-11.1-7.6-18.2-7.6c-5.3,0-10.3,1.6-14.4,4.3l-1,0.8l-1.3,1
			c0,0-1.5,1.2-1.6,1.2c-6.2,5.5-11.2,12.1-14.8,19.7c3.9,4.6,7.9,9.1,11.9,13.5c2.7,2.9,2.7,3,0,0c-4-4.4,4.6,4.9,4.5,4.9
			c0,0,0,0,0.1,0c21.2,22.5,44.4,43,69.4,61.3c82.2,60.1,183.4,95.6,293,96c276.4,1.1,501-221.9,501.9-498.1
			C999.7,499.7,999.7,498.5,999.7,497.5L999.7,497.5z"/>
	</g>
</g>
<g id="Слой_2">
	<path class="st2" d="M713,535.8L713,535.8c-117.6,0-213-75.9-213-169.7v-98.5c0-39.2,40-71.1,89.2-71.1h247.5
		c49.2,0,89.2,31.8,89.2,71.1v98.6C926.1,459.9,830.6,535.8,713,535.8z"/>
	<path class="st3" d="M901.8,368.6c-0.4-0.1-0.9-0.2-1.3-0.3c-0.4-0.1-0.9-0.1-1.3-0.2c-0.1,0-0.1,0-0.2,0
		c-12.2-1.4-23.5,7.9-26.5,21.7c-5.6,24.4-19.9,46.5-40.2,64c-24.4,21.1-57.6,35.7-95,40.1c-7.9,0.9-16,1.4-24.2,1.4
		c-12,0-23.7-1-34.9-3c0,0,0,0,0,0c-1.9-0.8-4-1.3-6.2-1.3c-0.2,0-0.4,0-0.5,0c0,0,0,0,0,0c-9.5,0.3-17.1,9.4-17.1,20.6
		c0,6.5,1.1,12.6,3,18.3c17.8,3.8,36.6,5.9,55.9,5.9c7.4,0,14.8-0.3,22-0.9c45.4-3.7,86.6-18.8,119-41.6c31.2-21.9,54.2-51,65-84.1
		c0,0,0,0,0,0c0.6-1.6,1.2-3.3,1.6-5c0,0,0,0,0-0.1c2.2-7.8,3.8-15.9,4.6-24.1C918.4,374.4,910.5,370.5,901.8,368.6z"/>
	<path class="st2" d="M287.4,535.8L287.4,535.8c-117.6,0-213-75.9-213-169.7v-98.5c0-39.2,40-71.1,89.2-71.1h247.5
		c49.2,0,89.2,31.8,89.2,71.1v98.6C500.5,459.9,405,535.8,287.4,535.8z"/>
	<path class="st3" d="M476.2,368.6c-0.4-0.1-0.9-0.2-1.3-0.3c-0.4-0.1-0.9-0.1-1.3-0.2c-0.1,0-0.1,0-0.2,0
		c-12.2-1.4-23.5,7.9-26.5,21.7c-5.6,24.4-19.9,46.5-40.2,64c-24.4,21.1-57.6,35.7-95,40.1c-7.9,0.9-16,1.4-24.2,1.4
		c-12,0-23.7-1-34.9-3c0,0,0,0,0,0c-1.9-0.8-4-1.3-6.2-1.3c-0.2,0-0.4,0-0.5,0c0,0,0,0,0,0c-9.5,0.3-17.1,9.4-17.1,20.6
		c0,6.5,1.1,12.6,3,18.3c17.8,3.8,36.6,5.9,55.9,5.9c7.4,0,14.8-0.3,22-0.9c45.4-3.7,86.6-18.8,119-41.6c31.2-21.9,54.2-51,65-84.1
		c0,0,0,0,0,0c0.6-1.6,1.2-3.3,1.6-5c0,0,0,0,0-0.1c2.2-7.8,3.8-15.9,4.6-24.1C492.8,374.4,484.9,370.5,476.2,368.6z"/>
	<line class="st4" x1="939.4" y1="232" x2="60.6" y2="232"/>
	<path class="st5" d="M405.9,607.1c0,62.4,33.9,58.4,187.6,58.4"/>
</g>
<g id="Слой_3">
</g>
</svg>
