<?xml version="1.0" encoding="utf-8"?>
<!-- Generator: Adobe Illustrator 26.4.1, SVG Export Plug-In . SVG Version: 6.00 Build 0)  -->
<svg version="1.1" id="Слой_1" xmlns="http://www.w3.org/2000/svg" xmlns:xlink="http://www.w3.org/1999/xlink" x="0px" y="0px"
	 viewBox="0 0 1000 1000" style="enable-background:new 0 0 1000 1000;" xml:space="preserve">
<style type="text/css">
	.st0{fill:#FFC961;}
	.st1{fill:none;stroke:#4C4C4C;stroke-width:30;stroke-linecap:round;stroke-linejoin:round;}
	.st2{fill:#FFAD61;}
	.st3{fill:#EF6355;}
	.st4{fill:#D9564F;}
</style>
<g id="b">
	<circle class="st0" cx="500" cy="500" r="500"/>
</g>
<g id="d">
	<path class="st1" d="M269.3,660.6c117.2,135.2,343.3,135,460.4,0"/>
</g>
<g id="e">
	<path class="st2" d="M999.7,497.5c-0.1-30.8-3-61-8.4-90.2l-1.5-7.7c-1-5-2.1-9.9-3.2-14.8c-5.3-1.5-10.9-2.3-16.7-2.4
		c-1.7,0-3.2,0-4.8,0.1c-1.5,0-3.1,0.3-4.5,0.6c0,0,0,0-0.1,0c-11.7,2.4-20.6,12.7-20.6,25.1c0,1.6,0.1,3.1,0.4,4.6h-0.1
		c5.5,28.4,8.4,57.8,8.3,87.9c0,0.3,0,0.6,0,0.9C947.2,749,745.8,948.8,498.2,947.9c-98.4-0.3-189.4-32.3-263.2-86.3
		c-23.1-16.9-44.4-35.9-63.9-56.8c-0.3-0.3-0.6-0.6-0.9-1c-4.6-4.7-11.1-7.6-18.2-7.6c-5.3,0-10.3,1.6-14.4,4.3l-1,0.8l-1.3,1
		c0,0-1.5,1.2-1.6,1.2c-6.2,5.5-11.2,12.1-14.8,19.7c3.9,4.6,7.9,9.1,11.9,13.5c2.7,2.9,2.7,3,0,0c-4-4.4,4.6,4.9,4.5,4.9
		c0,0,0,0,0.1,0c21.2,22.5,44.4,43,69.4,61.3c82.2,60.1,183.4,95.6,293,96c276.4,1.1,501-221.9,501.9-498.1
		C999.7,499.7,999.7,498.5,999.7,497.5L999.7,497.5z"/>
</g>
<path class="st3" d="M273.6,116.2c-0.9,15.9-6.8,32.5-19.2,47.9L201,230.4c-12,14.9-31.7,14.7-43.9-0.4l-0.1-0.1l-54.2-67.3
	C46.4,92.6,121.6-0.7,178,69.3C221.2,15.8,276.9,61,273.6,116.2z"/>
<path class="st3" d="M999.9,282.6c-0.9,15.9-6.8,32.5-19.2,47.9l-53.4,66.3c-12,14.9-31.7,14.7-43.9-0.4l-0.1-0.1L829.1,329
	c-56.4-70,18.8-163.3,75.2-93.3C947.5,182.2,1003.2,227.4,999.9,282.6z"/>
<path class="st4" d="M273.6,116.2c-0.9,15.9-6.8,32.5-19.2,47.9L201,230.4c-12,14.9-31.7,14.7-43.9-0.4l-0.1-0.1c1-3.1,2.3-6,4-8.8
	l45.7-76.5C226.5,111.3,253,105.7,273.6,116.2z"/>
<path class="st4" d="M999.9,282.6c-0.9,15.9-6.8,32.5-19.2,47.9l-53.4,66.3c-12,14.9-31.7,14.7-43.9-0.4l-0.1-0.1c1-3.1,2.3-6,4-8.8
	L933,311C952.8,277.7,979.3,272.1,999.9,282.6z"/>
<path class="st1" d="M280.4,310.6c0-96.6,138.7-96.6,138.7,0"/>
<path class="st1" d="M580.4,310.6c0-96.6,138.7-96.6,138.7,0"/>
<circle class="st3" cx="183.1" cy="549.1" r="66.7"/>
<circle class="st3" cx="816.6" cy="549.1" r="66.7"/>
</svg>
