<?xml version="1.0" encoding="utf-8"?>
<!-- Generator: Adobe Illustrator 26.4.1, SVG Export Plug-In . SVG Version: 6.00 Build 0)  -->
<svg version="1.1" xmlns="http://www.w3.org/2000/svg" xmlns:xlink="http://www.w3.org/1999/xlink" x="0px" y="0px"
	 viewBox="0 0 1000 1000" style="enable-background:new 0 0 1000 1000;" xml:space="preserve">
<style type="text/css">
	.st0{fill:#FFC961;}
	.st1{fill:#4C4C4C;}
	.st2{fill:#FFAD61;}
	.st3{fill:none;stroke:#4C4C4C;stroke-width:30;stroke-linecap:round;stroke-linejoin:round;}
	.st4{fill:none;stroke:#EF6355;stroke-width:30;stroke-linecap:round;stroke-linejoin:round;}
</style>
<g id="Слой_1">
	<g id="b">
		<circle class="st0" cx="500" cy="500" r="500"/>
	</g>
	<g id="c">
		<g>
			<circle class="st1" cx="350.3" cy="512.1" r="45"/>
			<circle class="st1" cx="650.3" cy="513.1" r="45"/>
		</g>
	</g>
	<g id="e">
		<path class="st2" d="M999.7,497.5c-0.1-30.8-3-61-8.4-90.2l-1.5-7.7c-1-5-2.1-9.9-3.2-14.8c-5.3-1.5-10.9-2.3-16.7-2.4
			c-1.7,0-3.2,0-4.8,0.1c-1.5,0-3.1,0.3-4.5,0.6c0,0,0,0-0.1,0c-11.7,2.4-20.6,12.7-20.6,25.1c0,1.6,0.1,3.1,0.4,4.6h-0.1
			c5.5,28.4,8.4,57.8,8.3,87.9c0,0.3,0,0.6,0,0.9C947.2,749,745.8,948.8,498.2,947.9c-98.4-0.3-189.4-32.3-263.2-86.3
			c-23.1-16.9-44.4-35.9-63.9-56.8c-0.3-0.3-0.6-0.6-0.9-1c-4.6-4.7-11.1-7.6-18.2-7.6c-5.3,0-10.3,1.6-14.4,4.3l-1,0.8l-1.3,1
			c0,0-1.5,1.2-1.6,1.2c-6.2,5.5-11.2,12.1-14.8,19.7c3.9,4.6,7.9,9.1,11.9,13.5c2.7,2.9,2.7,3,0,0c-4-4.4,4.6,4.9,4.5,4.9
			c0,0,0,0,0.1,0c21.2,22.5,44.4,43,69.4,61.3c82.2,60.1,183.4,95.6,293,96c276.4,1.1,501-221.9,501.9-498.1
			C999.7,499.7,999.7,498.5,999.7,497.5L999.7,497.5z"/>
	</g>
	<line class="st3" x1="241.7" y1="479.8" x2="757.7" y2="479.8"/>
	<path class="st3" d="M350.3,703.3c93.2-74.3,157.2-102.1,255-46.3"/>
</g>
<g id="Слой_2">
	<path class="st4" d="M678.1,317.3c39.4-25.3,39.5-25,84.4-12.3"/>
	<path class="st4" d="M740.8,155.6c-39.4,25.3-39.5,25-84.4,12.3"/>
	<path class="st4" d="M794,265.8c-25.3-39.4-25-39.5-12.3-84.4"/>
	<path class="st4" d="M620.7,204.7c25.3,39.4,25,39.5,12.3,84.4"/>
</g>
</svg>
