<?xml version="1.0" encoding="utf-8"?>
<!-- Generator: Adobe Illustrator 26.4.1, SVG Export Plug-In . SVG Version: 6.00 Build 0)  -->
<svg version="1.1" id="Слой_1" xmlns="http://www.w3.org/2000/svg" xmlns:xlink="http://www.w3.org/1999/xlink" x="0px" y="0px"
	 viewBox="0 0 1000 1000" style="enable-background:new 0 0 1000 1000;" xml:space="preserve">
<style type="text/css">
	.st0{fill:#FFC961;}
	.st1{fill:#FFAD61;}
	.st2{fill:#53A2FF;}
	.st3{fill:none;stroke:#4C4C4C;stroke-width:30;stroke-linecap:round;stroke-linejoin:round;}
</style>
<g id="b">
	<path class="st0" d="M1000,500c0,144.3-61.1,274.3-158.9,365.6c-56.8,53.1-126.1,93-202.9,115.1c-43.9,12.6-90.2,19.3-138.2,19.3
		c-48.4,0-95.2-6.9-139.4-19.7c-76.9-22.3-146.1-62.5-202.9-115.9C60.6,773.2,0,643.7,0,500C0,223.9,223.9,0,500,0
		S1000,223.9,1000,500z"/>
</g>
<g id="e">
	<path class="st1" d="M999.7,497.5c-0.1-30.8-3-61-8.4-90.2l-1.5-7.7c-1-5-2.1-9.9-3.2-14.8c-5.3-1.5-10.9-2.3-16.7-2.4
		c-1.7,0-3.2,0-4.8,0.1c-1.5,0-3.1,0.3-4.5,0.6c0,0,0,0-0.1,0c-11.7,2.4-20.6,12.7-20.6,25.1c0,1.6,0.1,3.1,0.4,4.6h-0.1
		c5.5,28.4,8.4,57.8,8.3,87.9c0,0.3,0,0.6,0,0.9C947.2,749,745.8,948.8,498.2,947.9c-98.4-0.3-189.4-32.3-263.2-86.3
		c-23.1-16.9-44.4-35.9-63.9-56.8c-0.3-0.3-0.6-0.6-0.9-1c-4.6-4.7-11.1-7.6-18.2-7.6c-5.3,0-10.3,1.6-14.4,4.3l-1,0.8l-1.3,1
		c0,0-1.5,1.2-1.6,1.2c-6.2,5.5-11.2,12.1-14.8,19.7c3.9,4.6,7.9,9.1,11.9,13.5c2.7,2.9,2.7,3,0,0c-4-4.4,4.6,4.9,4.5,4.9
		c0,0,0,0,0.1,0c21.2,22.5,44.4,43,69.4,61.3c82.2,60.1,183.4,95.6,293,96c276.4,1.1,501-221.9,501.9-498.1
		C999.7,499.7,999.7,498.5,999.7,497.5L999.7,497.5z"/>
</g>
<path class="st2" d="M841.1,308.2v557.3c-56.8,53.1-126.1,93-202.9,115.1V308.2H841.1z"/>
<path class="st2" d="M360.6,309.2v671.1c-76.9-22.3-146.1-62.5-202.9-115.9V309.2H360.6z"/>
<line class="st3" x1="128" y1="308.2" x2="390.3" y2="308.2"/>
<line class="st3" x1="608.6" y1="309.2" x2="870.7" y2="309.2"/>
<g>
	<path class="st3" d="M419,456.6c44.3-45.7,117.7-45.7,162,0"/>
</g>
</svg>
