<?xml version="1.0" encoding="utf-8"?>
<!-- Generator: Adobe Illustrator 26.4.1, SVG Export Plug-In . SVG Version: 6.00 Build 0)  -->
<svg version="1.1" xmlns="http://www.w3.org/2000/svg" xmlns:xlink="http://www.w3.org/1999/xlink" x="0px" y="0px"
	 viewBox="0 0 1000 1000" style="enable-background:new 0 0 1000 1000;" xml:space="preserve">
<style type="text/css">
	.st0{fill:#FFC961;}
	.st1{fill:#EF6355;}
	.st2{fill:#FFAD61;}
	.st3{fill:#4C4C4C;}
	.st4{fill:#D9564F;}
	.st5{fill:#D2DDFF;}
	.st6{fill:none;stroke:#4C4C4C;stroke-width:30;stroke-miterlimit:10;}
	.st7{fill:none;stroke:#4C4C4C;stroke-width:30;stroke-linecap:round;stroke-linejoin:round;}
</style>
<g id="Слой_1">
	<g id="b">
		<circle class="st0" cx="500" cy="500" r="500"/>
	</g>
	<g id="d">
		<path class="st1" d="M504.6,829c-199.4,0-337-250.1-304.9-308.1c15.4-27.8,61.6-29,203.1-28.6c11.9,0,24.4,0.1,37.7,0.1
			c16.5,0,34.1,0.1,52.8,0.1c38.9,0,73.2-0.1,103.4-0.1c13.4,0,25.9,0,37.7,0.1c107.9,0.8,151.3,5.6,165.3,30.4
			C832.3,580.5,695.3,829,504.6,829z"/>
	</g>
	<g id="e">
		<path class="st2" d="M999.7,497.5c-0.1-30.8-3-61-8.4-90.2l-1.5-7.7c-1-5-2.1-9.9-3.2-14.8c-5.3-1.5-10.9-2.3-16.7-2.4
			c-1.7,0-3.2,0-4.8,0.1c-1.5,0-3.1,0.3-4.5,0.6c0,0,0,0-0.1,0c-11.7,2.4-20.6,12.7-20.6,25.1c0,1.6,0.1,3.1,0.4,4.6h-0.1
			c5.5,28.4,8.4,57.8,8.3,87.9c0,0.3,0,0.6,0,0.9C947.2,749,745.8,948.8,498.2,947.9c-98.4-0.3-189.4-32.3-263.2-86.3
			c-23.1-16.9-44.4-35.9-63.9-56.8c-0.3-0.3-0.6-0.6-0.9-1c-4.6-4.7-11.1-7.6-18.2-7.6c-5.3,0-10.3,1.6-14.4,4.3l-1,0.8l-1.3,1
			c0,0-1.5,1.2-1.6,1.2c-6.2,5.5-11.2,12.1-14.8,19.7c3.9,4.6,7.9,9.1,11.9,13.5c2.7,2.9,2.7,3,0,0c-4-4.4,4.6,4.9,4.5,4.9
			c0,0,0,0,0.1,0c21.2,22.5,44.4,43,69.4,61.3c82.2,60.1,183.4,95.6,293,96c276.4,1.1,501-221.9,501.9-498.1
			C999.7,499.7,999.7,498.5,999.7,497.5L999.7,497.5z"/>
	</g>
	<g id="c">
		<g>
			<circle class="st3" cx="350.3" cy="290.4" r="45"/>
			<circle class="st3" cx="650.3" cy="291.4" r="45"/>
		</g>
	</g>
	<path class="st4" d="M634.4,492.5v125.4c0,27.5-22.3,49.9-49.8,49.9h-94.2c-21.5,0-39.8-13.6-46.8-32.7c-1.9-5.3-3-11.1-3-17.1
		V492.3c16.5,0,34.1,0.1,52.8,0.1c38.9,0,73.2-0.1,103.4-0.1C610.1,492.3,622.6,492.4,634.4,492.5z"/>
	<path class="st5" d="M596.7,492.3V586c0,27.5-22.3,49.9-49.9,49.9h-94.2c-3.1,0-6.2-0.3-9.1-0.9c-23.2-4.3-40.7-24.6-40.7-49v-93.8
		c11.9,0,24.4,0.1,37.7,0.1c16.5,0,34.1,0.1,52.8,0.1C532.3,492.4,566.6,492.3,596.7,492.3z"/>
</g>
<g id="Слой_2">
	<path class="st6" d="M350.3,409.7L350.3,409.7c-65.9,0-119.4-53.4-119.4-119.4V221c0-27.6,22.4-50,50-50h138.7
		c27.6,0,50,22.4,50,50v69.4C469.7,356.3,416.2,409.7,350.3,409.7z"/>
	<path class="st6" d="M650.3,409.7L650.3,409.7c-65.9,0-119.4-53.4-119.4-119.4V221c0-27.6,22.4-50,50-50h138.7
		c27.6,0,50,22.4,50,50v69.4C769.7,356.3,716.2,409.7,650.3,409.7z"/>
	<line class="st7" x1="839.3" y1="290.4" x2="769.7" y2="290.4"/>
	<line class="st7" x1="530.9" y1="290.4" x2="469.7" y2="290.4"/>
	<line class="st7" x1="230.9" y1="290.4" x2="160.7" y2="290.4"/>
</g>
</svg>
