<?xml version="1.0" encoding="UTF-8"?><svg xmlns="http://www.w3.org/2000/svg" xmlns:xlink="http://www.w3.org/1999/xlink" viewBox="0 0 1000 1000"><defs><style>.by{fill:url(#bi);}.by,.bz,.ca,.cb,.cc,.cd,.ce,.cf,.cg,.ch,.ci,.cj,.ck,.cl,.cm,.cn,.co{opacity:.5;}.by,.ca,.cb,.cl{mix-blend-mode:multiply;}.cp{fill:url(#j);}.cq{fill:url(#am);}.cr{fill:url(#aq);}.cr,.cs,.ct,.cu,.cv,.cw,.cx,.cy,.cz,.da,.bz,.db,.dc,.dd,.de,.cc,.df,.cd,.ce,.dg,.dh,.cf,.di,.dj,.dk,.dl,.cg,.ch,.dm,.ci,.cj,.dn,.ck,.do,.dp,.cm,.dq,.dr,.ds,.dt,.du,.dv,.dw,.dx,.cn,.co,.dy,.dz,.ea,.eb,.ec,.ed,.ee{mix-blend-mode:screen;}.cr,.cw,.cz,.dx,.eb{opacity:.6;}.cs{fill:url(#bq);}.cs,.ct,.cx,.da,.db,.dc,.dd,.df,.di,.dj,.dl,.dm,.dn,.do,.dq,.ds,.dt,.dv,.dy,.dz,.ec,.ed{opacity:.4;}.ct{fill:url(#aa);}.cu{fill:url(#u);}.cu,.cv,.ea{opacity:.2;}.cv{fill:url(#az);}.cw{fill:url(#y);}.cx{fill:url(#bw);}.cy{fill:url(#ba);}.cy,.de,.dg,.dh,.dp,.du,.dw,.ee{opacity:.1;}.cz{fill:url(#z);}.da{fill:url(#r);}.bz{fill:url(#bs);}.ef{isolation:isolate;}.db{fill:url(#ac);}.dc{fill:url(#ah);}.dd{fill:url(#ax);}.ca{fill:url(#af);}.eg{fill:url(#g);}.cb{fill:url(#l);}.de{fill:url(#f);}.cc{fill:url(#bo);}.df{fill:url(#ab);}.eh{fill:url(#au);}.cd{fill:url(#bn);}.ce{fill:url(#bl);}.dg{fill:url(#bb);}.dh{fill:url(#as);}.cf{fill:url(#o);}.di{fill:url(#bu);}.ei{fill:url(#bc);}.ej{fill:#2f2f2c;}.dj{fill:url(#ap);}.dk{fill:url(#i);}.dk,.dr{opacity:.3;}.ek{fill:url(#av);}.dl{fill:url(#bg);}.cg{fill:url(#m);}.ch{fill:url(#bm);}.dm{fill:url(#k);}.ci{fill:url(#bd);}.el{fill:url(#ai);}.cj{fill:url(#ae);}.em{fill:url(#bh);}.en{fill:url(#aj);}.dn{fill:url(#bt);}.ck{fill:url(#n);}.eo{fill:url(#d);}.ep{fill:url(#x);}.do{fill:url(#bx);}.dp{fill:url(#ak);}.cm{fill:url(#br);}.dq{fill:url(#bv);}.eq{fill:none;}.er{fill:url(#bj);}.dr{fill:url(#h);}.ds{fill:url(#s);}.dt{fill:url(#ad);}.du{fill:url(#al);}.dv{fill:url(#t);}.dw{fill:url(#e);}.es{fill:url(#an);}.dx{fill:url(#ar);}.cn{fill:url(#p);}.et{fill:url(#c);}.co{fill:url(#bk);}.dy{fill:url(#bp);}.dz{fill:url(#q);}.eu{fill:url(#w);}.ea{fill:url(#ay);}.ev{fill:url(#ao);}.eb{fill:url(#be);}.ec{fill:url(#ag);}.ew{fill:url(#bf);}.ex{fill:url(#aw);}.ed{fill:url(#v);}.ee{fill:url(#at);}</style><radialGradient id="c" cx="685.97" cy="766.07" fx="685.97" fy="766.07" r="220.22" gradientTransform="translate(263.3 -148.53) rotate(23.08)" gradientUnits="userSpaceOnUse"><stop offset="0" stop-color="#14552f"/><stop offset=".54" stop-color="#073114"/><stop offset="1" stop-color="#001502"/></radialGradient><radialGradient id="d" cx="1214.13" cy="791.48" fx="1214.13" fy="791.48" r="274.24" gradientTransform="translate(1780.53 551.99) rotate(-156.92) scale(.73 -.84)" xlink:href="#c"/><radialGradient id="e" cx="880.18" cy="960.69" fx="880.18" fy="960.69" r="385.44" gradientTransform="translate(1780.53 551.99) rotate(-156.92) scale(.73 -.84)" gradientUnits="userSpaceOnUse"><stop offset=".64" stop-color="#000"/><stop offset=".9" stop-color="#ffec74"/><stop offset="1" stop-color="#000"/></radialGradient><radialGradient id="f" cx="976.85" cy="941.21" fx="976.85" fy="941.21" r="378.35" xlink:href="#e"/><linearGradient id="g" x1="1008.99" y1="104.65" x2="710.56" y2="748.82" gradientTransform="translate(263.3 -148.53) rotate(23.08)" gradientUnits="userSpaceOnUse"><stop offset="0" stop-color="#566b2d"/><stop offset=".31" stop-color="#3e5c28"/><stop offset=".41" stop-color="#315123"/><stop offset=".51" stop-color="#294b21"/><stop offset=".56" stop-color="#2b4e22"/><stop offset=".78" stop-color="#183917"/><stop offset="1" stop-color="#0b2c0d"/></linearGradient><radialGradient id="h" cx="373.25" cy="876.66" fx="373.25" fy="876.66" r="790.75" gradientTransform="translate(254.57 -143.12) rotate(23.08) scale(1.01 .98)" xlink:href="#e"/><radialGradient id="i" cx="624.1" cy="654.96" fx="624.1" fy="654.96" r="552.35" gradientTransform="translate(254.57 -143.12) rotate(23.08) scale(1.01 .98)" gradientUnits="userSpaceOnUse"><stop offset=".74" stop-color="#000"/><stop offset=".9" stop-color="#ffec74"/><stop offset="1" stop-color="#000"/></radialGradient><linearGradient id="j" x1="675.36" y1="473.13" x2="1120.44" y2="473.13" gradientTransform="translate(263.3 -148.53) rotate(23.08)" gradientUnits="userSpaceOnUse"><stop offset="0" stop-color="#14552f"/><stop offset="1" stop-color="#073114"/></linearGradient><radialGradient id="k" cx="1019.36" cy="140.09" fx="1019.36" fy="140.09" r="549.04" gradientTransform="translate(254.57 -143.12) rotate(23.08) scale(1.01 .98)" gradientUnits="userSpaceOnUse"><stop offset=".15" stop-color="#ffec74"/><stop offset="1" stop-color="#000"/></radialGradient><radialGradient id="l" cx="893.23" cy="417.29" fx="893.23" fy="417.29" r="239.68" gradientTransform="translate(254.57 -143.12) rotate(23.08) scale(1.01 .98)" gradientUnits="userSpaceOnUse"><stop offset=".15" stop-color="#4382c2"/><stop offset="1" stop-color="#000"/></radialGradient><radialGradient id="m" cx="1051.94" cy="560.64" fx="1051.94" fy="560.64" r="276.15" xlink:href="#l"/><radialGradient id="n" cx="900.96" cy="595.03" fx="900.96" fy="595.03" r="121.28" xlink:href="#l"/><radialGradient id="o" cx="784.57" cy="514.49" fx="784.57" fy="514.49" r="116.12" xlink:href="#l"/><radialGradient id="p" cx="918.79" cy="143.93" fx="918.79" fy="143.93" r="66.27" xlink:href="#l"/><radialGradient id="q" cx="814.7" cy="379.79" fx="814.7" fy="379.79" r="352.89" xlink:href="#k"/><radialGradient id="r" cx="1060.85" cy="648.94" fx="1060.85" fy="648.94" r="108.79" xlink:href="#k"/><radialGradient id="s" cx="576.43" cy="190.96" fx="576.43" fy="190.96" r="88.65" xlink:href="#k"/><radialGradient id="t" cx="895.64" cy="445.19" fx="895.64" fy="445.19" r="47.07" xlink:href="#k"/><radialGradient id="u" cx="678.26" cy="393.2" fx="678.26" fy="393.2" r="116.32" xlink:href="#k"/><radialGradient id="v" cx="808.45" cy="546.74" fx="808.45" fy="546.74" r="76.48" xlink:href="#k"/><linearGradient id="w" x1="824.45" y1="-208.67" x2="871.04" y2="124.4" gradientTransform="translate(263.3 -148.53) rotate(23.08)" gradientUnits="userSpaceOnUse"><stop offset="0" stop-color="#84a945"/><stop offset=".05" stop-color="#7aa142"/><stop offset=".21" stop-color="#61903d"/><stop offset=".31" stop-color="#598a3c"/><stop offset=".36" stop-color="#508139"/><stop offset=".56" stop-color="#376831"/><stop offset=".78" stop-color="#225228"/><stop offset="1" stop-color="#1d4d25"/></linearGradient><linearGradient id="x" x1="781.71" y1="-257.2" x2="916.81" y2="429.97" gradientTransform="translate(263.3 -148.53) rotate(23.08)" gradientUnits="userSpaceOnUse"><stop offset="0" stop-color="#84a945"/><stop offset=".05" stop-color="#7aa142"/><stop offset=".21" stop-color="#61903d"/><stop offset=".31" stop-color="#598a3c"/><stop offset=".32" stop-color="#56873b"/><stop offset=".47" stop-color="#3f7033"/><stop offset=".56" stop-color="#376831"/><stop offset=".78" stop-color="#225228"/><stop offset="1" stop-color="#1d4d25"/></linearGradient><radialGradient id="y" cx="902.55" cy="266.28" fx="902.55" fy="266.28" r="504.07" gradientTransform="translate(254.57 -143.12) rotate(23.08) scale(1.01 .98)" xlink:href="#e"/><radialGradient id="z" cx="952.14" cy="444.86" fx="952.14" fy="444.86" r="589.29" gradientTransform="translate(254.57 -143.12) rotate(23.08) scale(1.01 .98)" xlink:href="#e"/><radialGradient id="aa" cx="685.96" cy="-5.73" fx="685.96" fy="-5.73" r="127.88" xlink:href="#k"/><radialGradient id="ab" cx="788.05" cy="-111.93" fx="788.05" fy="-111.93" r="112.44" xlink:href="#k"/><radialGradient id="ac" cx="782.18" cy="3.97" fx="782.18" fy="3.97" r="59.09" xlink:href="#k"/><radialGradient id="ad" cx="635.26" cy="77.4" fx="635.26" fy="77.4" r="57.03" xlink:href="#k"/><radialGradient id="ae" cx="800.16" cy="16.72" fx="800.16" fy="16.72" r="104.5" xlink:href="#l"/><radialGradient id="af" cx="857.55" cy="109.46" fx="857.55" fy="109.46" r="318.26" xlink:href="#l"/><radialGradient id="ag" cx="782.9" cy="-97.4" fx="782.9" fy="-97.4" r="113.92" xlink:href="#k"/><radialGradient id="ah" cx="731.48" cy="-169.59" fx="731.48" fy="-169.59" r="40.96" xlink:href="#k"/><radialGradient id="ai" cx="-13.57" cy="725.44" fx="-13.57" fy="725.44" r="248.43" gradientTransform="translate(263.3 -148.53) rotate(23.08)" gradientUnits="userSpaceOnUse"><stop offset="0" stop-color="#6e8a3a"/><stop offset=".16" stop-color="#597c35"/><stop offset=".31" stop-color="#4c7432"/><stop offset=".45" stop-color="#39622d"/><stop offset=".56" stop-color="#315b2b"/><stop offset=".78" stop-color="#1e4620"/><stop offset=".89" stop-color="#153d1a"/><stop offset=".99" stop-color="#152218"/></radialGradient><linearGradient id="aj" x1="255.06" y1="415.71" x2="92.03" y2="704.51" gradientTransform="translate(263.3 -148.53) rotate(23.08)" gradientUnits="userSpaceOnUse"><stop offset="0" stop-color="#6e8a3a"/><stop offset=".16" stop-color="#597c35"/><stop offset=".31" stop-color="#4c7432"/><stop offset=".45" stop-color="#39622d"/><stop offset=".56" stop-color="#315b2b"/><stop offset=".78" stop-color="#1e4620"/><stop offset="1" stop-color="#153d1a"/></linearGradient><radialGradient id="ak" cx="-126.48" cy="1087.56" fx="-126.48" fy="1087.56" r="385.59" gradientTransform="translate(489.71 -342.09) rotate(41.41) scale(1.01 .98)" xlink:href="#e"/><radialGradient id="al" cx="-29.62" cy="1068.11" fx="-29.62" fy="1068.11" r="378.25" gradientTransform="translate(489.71 -342.09) rotate(41.41) scale(1.01 .98)" xlink:href="#e"/><linearGradient id="am" x1="-15.12" y1="34.2" x2="327.26" y2="632.79" xlink:href="#w"/><linearGradient id="an" x1="-66.93" y1="465.87" x2="386.11" y2="-12.79" xlink:href="#w"/><radialGradient id="ao" cx="158.69" cy="250.54" fx="158.69" fy="250.54" r="209.52" xlink:href="#l"/><radialGradient id="ap" cx="158.77" cy="217.48" fx="158.77" fy="217.48" r="160.84" xlink:href="#k"/><radialGradient id="aq" cx="607.52" cy="524.46" fx="607.52" fy="524.46" r="561.06" gradientTransform="translate(254.57 -143.12) rotate(23.08) scale(1.01 .98)" xlink:href="#e"/><radialGradient id="ar" cx="449.53" cy="494.34" fx="449.53" fy="494.34" r="536.72" gradientTransform="translate(254.57 -143.12) rotate(23.08) scale(1.01 .98)" xlink:href="#e"/><radialGradient id="as" cx="331.61" cy="291.21" fx="331.61" fy="291.21" r="199.23" gradientTransform="translate(254.57 -143.12) rotate(23.08) scale(1.01 .98)" xlink:href="#e"/><radialGradient id="at" cx="137.5" cy="394.48" fx="137.5" fy="394.48" r="147.5" gradientTransform="translate(254.57 -143.12) rotate(23.08) scale(1.01 .98)" xlink:href="#e"/><radialGradient id="au" cx="175.32" cy="886.93" fx="175.32" fy="886.93" r="247.61" xlink:href="#c"/><linearGradient id="av" x1="67.9" y1="183.37" x2="-99.01" y2="397.64" gradientTransform="translate(-24.86 571.61) rotate(-21.86)" xlink:href="#j"/><radialGradient id="aw" cx="-591.39" cy="191.93" fx="-591.39" fy="191.93" r="209.49" gradientTransform="translate(372.65 595.3) rotate(-21.86) scale(.61 .56)" xlink:href="#l"/><radialGradient id="ax" cx="-591.28" cy="158.89" fx="-591.28" fy="158.89" r="160.82" gradientTransform="translate(372.65 595.3) rotate(-21.86) scale(.61 .56)" xlink:href="#k"/><radialGradient id="ay" cx="-142.48" cy="465.84" fx="-142.48" fy="465.84" r="561.13" gradientTransform="translate(372.65 595.3) rotate(-21.86) scale(.61 .56)" xlink:href="#e"/><radialGradient id="az" cx="-300.47" cy="435.71" fx="-300.47" fy="435.71" r="536.78" gradientTransform="translate(372.65 595.3) rotate(-21.86) scale(.61 .56)" xlink:href="#e"/><radialGradient id="ba" cx="-418.41" cy="232.62" fx="-418.41" fy="232.62" r="199.21" gradientTransform="translate(372.65 595.3) rotate(-21.86) scale(.61 .56)" xlink:href="#e"/><radialGradient id="bb" cx="-612.55" cy="335.85" fx="-612.55" fy="335.85" r="147.49" gradientTransform="translate(372.65 595.3) rotate(-21.86) scale(.61 .56)" xlink:href="#e"/><linearGradient id="bc" x1="320" y1="343.27" x2="594.85" y2="1002.45" xlink:href="#w"/><radialGradient id="bd" cx="-7.2" cy="529.62" fx="-7.2" fy="529.62" r="702.75" gradientTransform="translate(178.66 -242.62) rotate(23.08) scale(1.12 1.15)" gradientUnits="userSpaceOnUse"><stop offset=".74" stop-color="#000"/><stop offset=".85" stop-color="#ffec74"/><stop offset="1" stop-color="#000"/></radialGradient><radialGradient id="be" cx="-102.91" cy="547.13" fx="-102.91" fy="547.13" r="630.16" gradientTransform="translate(178.66 -242.62) rotate(23.08) scale(1.12 1.15)" xlink:href="#e"/><linearGradient id="bf" x1="412.47" y1="158.57" x2="480.8" y2="792.11" xlink:href="#aj"/><radialGradient id="bg" cx="312.68" cy="532.03" fx="312.68" fy="532.03" r="417" gradientTransform="translate(178.66 -242.62) rotate(23.08) scale(1.12 1.15)" xlink:href="#k"/><linearGradient id="bh" x1="419.38" y1="722.85" x2="496.55" y2="722.85" xlink:href="#j"/><radialGradient id="bi" cx="528.54" cy="481.07" fx="528.54" fy="481.07" r="132.87" gradientTransform="translate(178.66 -242.62) rotate(23.08) scale(1.12 1.15)" xlink:href="#l"/><linearGradient id="bj" x1="419.14" y1="813.99" x2="496.72" y2="813.99" xlink:href="#j"/><radialGradient id="bk" cx="210.62" cy="735.6" fx="210.62" fy="735.6" r="121.53" gradientTransform="translate(178.66 -242.62) rotate(23.08) scale(1.12 1.15)" xlink:href="#l"/><radialGradient id="bl" cx="207.17" cy="594.05" fx="207.17" fy="594.05" r="101.96" gradientTransform="translate(178.66 -242.62) rotate(23.08) scale(1.12 1.15)" xlink:href="#l"/><radialGradient id="bm" cx="305.65" cy="855.58" fx="305.65" fy="855.58" r="114.12" gradientTransform="translate(178.66 -242.62) rotate(23.08) scale(1.12 1.15)" xlink:href="#l"/><radialGradient id="bn" cx="651.25" cy="648.68" fx="651.25" fy="648.68" r="80.89" gradientTransform="translate(178.66 -242.62) rotate(23.08) scale(1.12 1.15)" xlink:href="#l"/><radialGradient id="bo" cx="173.18" cy="446.38" fx="173.18" fy="446.38" r="112.47" gradientTransform="translate(178.66 -242.62) rotate(23.08) scale(1.12 1.15)" xlink:href="#l"/><radialGradient id="bp" cx="386.86" cy="531.14" fx="386.86" fy="531.14" r="242.32" gradientTransform="translate(178.66 -242.62) rotate(23.08) scale(1.12 1.15)" xlink:href="#k"/><radialGradient id="bq" cx="448.48" cy="692.79" fx="448.48" fy="692.79" r="169.59" gradientTransform="translate(178.66 -242.62) rotate(23.08) scale(1.12 1.15)" xlink:href="#k"/><radialGradient id="br" cx="700.16" cy="480.95" fx="700.16" fy="480.95" r="70.46" gradientTransform="translate(178.66 -242.62) rotate(23.08) scale(1.12 1.15)" xlink:href="#l"/><radialGradient id="bs" cx="517.38" cy="809.99" fx="517.38" fy="809.99" r="204.17" gradientTransform="translate(178.66 -242.62) rotate(23.08) scale(1.12 1.15)" xlink:href="#l"/><radialGradient id="bt" cx="259.17" cy="737.19" fx="259.17" fy="737.19" r="204.08" gradientTransform="translate(178.66 -242.62) rotate(23.08) scale(1.12 1.15)" xlink:href="#k"/><radialGradient id="bu" cx="389.11" cy="845.36" fx="389.11" fy="845.36" r="232.58" gradientTransform="translate(178.66 -242.62) rotate(23.08) scale(1.12 1.15)" xlink:href="#k"/><radialGradient id="bv" cx="184.13" cy="510.63" fx="184.13" fy="510.63" r="299.24" gradientTransform="translate(178.66 -242.62) rotate(23.08) scale(1.12 1.15)" xlink:href="#k"/><radialGradient id="bw" cx="606.61" cy="730.35" fx="606.61" fy="730.35" r="86.63" gradientTransform="translate(178.66 -242.62) rotate(23.08) scale(1.12 1.15)" xlink:href="#k"/><radialGradient id="bx" cx="309.61" cy="350.5" fx="309.61" fy="350.5" r="113.56" gradientTransform="translate(178.66 -242.62) rotate(23.08) scale(1.12 1.15)" xlink:href="#k"/></defs><g class="ef"><g id="a"><rect class="ej" x="-85.74" y="-53.76" width="1206.79" height="1145.47"/></g><g id="b"><g><g><g><path class="et" d="M598.55,677.15c44.84-67.34,69.96-99.2,72.69-130,36.46-12.41,84.75,6.86,132.04,90.85,0,0,53.18,99.8,17.6,169.77-7.87-19.33-11.26-14.12-11.26-14.12,0,0-2.63-29.03-11.45-35.47,4.76,53.91,.41,56.04,4.48,89.7,4.15,33.67-15.69,58.51-33.1,77.69-3.59-34.79-20.22-41.87-13.73-16.49,6.5,25.37-6.6,31.77-20.63,45.72-14,13.99-39.72,33.63-39.72,33.63,0,0,6.6-31.76-.78-49.55-7.99,45.81-12.77,65.07-45.28,76.49-32.51,11.4-31.2-5.35-50.5,15.71-19.36,21.03-29.01,35.52-32.64,.75-3.64-34.84-6.97-102.76,7.36-139.19-22.69,23.58-28.41,39.72-28.41,39.72,0,0-20.58-16.72-2.82-53.02,13.97-24.66-.64-22.9-11.26-8.77-10.6,14.05-10.79-17.97,1.67-47.2s20.91-78.87,65.75-146.23Zm163.18,104.28c6.4-2.62,9.58-12.54,7.15-22.26-2.41-9.7-9.56-15.5-15.95-12.88-6.39,2.55-9.58,12.54-7.16,22.26,2.4,9.71,9.57,15.47,15.96,12.87Zm-44.86,46.01c1.28,6.02,3.88,10.41,5.82,9.67,1.96-.67,2.51-6.15,1.24-12.22-1.25-6.12-3.91-10.45-5.83-9.77-1.93,.71-2.51,6.22-1.24,12.32Zm27.12-173.8c.3,6.78,3.34,11.77,6.77,11.22,3.39-.57,5.86-6.57,5.55-13.35-.35-6.77-3.41-11.74-6.78-11.13-3.4,.55-5.9,6.5-5.54,13.26Zm-99.56,196.46c4.14,1.76,9.07-.49,11.03-5.08,1.94-4.56,.15-9.68-3.99-11.44-4.09-1.74-9.04,.5-10.98,5.06s-.14,9.72,3.94,11.46Zm-9.1-105.84c-3.41,26.01,18.83,47.86,31.36,29.32,12.52-18.62-3.9-45.12-3.9-45.12-11.14-22.51-24.06-10.25-27.46,15.8Z"/><path class="eo" d="M653.67,918.74c7.06-35.54,74.43-157.58,72.44-239.57-7.02-105.42-54.88-132.02-54.88-132.02,0,0,58.52-6.51,69.22,130.98,5.62,76.92-86.78,240.6-86.78,240.6Z"/></g><path class="dw" d="M639.08,996.33s-8.9-19.74,12.27-61.27c21.13-41.55,50.46-99.54,55.7-119.91,5.21-20.41-2.26,34.96,11.91,34.29,14.08-.61,14.91-24.17,4.53-43.23-10.34-19.06-5.66-54.29,13.95-27.32,19.68,26.99,54.17,16.42,40.3-21.43-13.9-37.81-24.71-53.05-21.85-65.14,2.82-12.1,27.34,14.3,35.14,88.11,7.78,73.83-3.75,98.12-13.9,113.77-10.11,15.65-5.43-11.58-24.95-17.22-19.5-5.68,4.96,15.39-6.51,45.06-11.53,29.71-34.33,39.92-34.33,39.92,0,0-5.57-38.24-19.75-45.63-14.15-7.39-7.49,44.68-21.95,67.77-14.48,23.12-24.65,25.41-30.58,12.25Z"/><path class="de" d="M707.46,708.46s-4.71,65.36-20.07,101.41c-15.35,36.04-25.35-1.94-44.71,14.65-19.39,16.58-16.71,28.34,2.83,36.66,19.52,8.32,5.53,55.58-12.39,90.47-17.96,34.9-29.68,37.05-37.93,60.1-8.29,23.08-24.34-47.58,1.18-118.28,25.52-70.73-31.21-9.77-31.21-9.77,0,0-10.43-4.44,8.23-33.72,18.64-29.36,5-29.81-17.63-12.87-22.6,17.01,45.52-85.18,66.48-58.59,20.95,26.7,68.4,34.49,55.71-18.78-12.68-53.3,22.64-114.49,29.5-51.28Z"/></g><g><path class="eg" d="M1086.45,886.48s4.21-39.97,28.56-74.54c24.29-34.55-21.69-99.05-21.69-99.05l32,26.04s-.27-21.81,9.86-53.08c10.14-31.32-1.74-59.57-15.4-76.27-13.63-16.65-30.68-25.43-30.68-25.43l31.1,13.25s4.8-15-10.11-39.93c-14.94-24.94-18.15-51.1-19.79-73.48-2.12-28.78-42.67-64.65-42.67-64.65l28.2,1.2s-3.53-21.63-25.87-40.48c-22.33-18.75-66.1-62.2-97.78-92.71-31.68-30.53-135.89-14.53-135.89-14.53-79.57-68.01-155.64-43.12-213.55,59.17-56.62,102.89,32.77,170.34,39.95,232.23,7.13,61.95,11.93,46.91,41.75,96.78,5.52-31.7,21.49-72.91,53.61-80.9,32.17-7.98,43.58-12.4,43.58-12.4,0,0-2.8,6.58-43.01,37.39-40.33,30.88-31.58,96.53-31.58,96.53,0,0,32.67,17.05,58.72,68.35,11.01-63.42,30.76-79.8,60.43-85.74-49.76,26.86-43.55,102.21-43.55,102.21,0,0,14.08,4.46,30.26,37.69,16.15,33.19,50.86,60.38,50.86,60.38,0,0,6.06-51.62,26.55-66.09-26.55,66.09,28.64,86.48,32.57,122.2,3.89,35.78,32.99,57.43,13.38,66.1-19.65,8.68-30.78,53.5-11.6,38.44,19.16-15.08,23.46-10.14,80.16-49.46,80.35-46.29,62.23-123.7,62.23-123.7l19.42,14.47ZM719.83,367.41c-7.1,9.43-16.54,14.38-21.13,11.07-4.56-3.35-2.54-13.72,4.52-23.21,7.09-9.43,16.56-14.41,21.17-11.03,4.54,3.3,2.55,13.67-4.56,23.17Zm-17.3-48.62c-29.95-15.86,14.05-40.49,39-39.1,25.01,1.32,42.46,16.52,28.23,27.49,0,0-37.3,27.47-67.23,11.61Zm116.33,86.74s-29.93,2.74-51.9,24.34c-21.92,21.58-59.34,11.89-40.66-28.2,18.67-40.03,49.43-48.59,73.84-45.95,24.4,2.63,37.8,42.43,18.73,49.81Zm.08,108.39c-14.66-3.15,33.06-40.1,29.84-21.33,0,0-15.21,24.48-29.84,21.33Zm127.87-161.54c2.62-6.15,12.02-8.02,20.96-4.22s14.12,11.9,11.5,18.05c-2.64,6.2-12.04,8.06-21,4.25s-14.1-11.87-11.46-18.07Zm-41.14,246.49c-18.91,36.86-49.06,36.37-57.47,11.16-8.35-25.29,44.47-63.14,44.47-63.14,17.53-11.13,31.88,15.12,12.99,51.98Zm57.33-190.81s45.74,16.38,46.54,36.87c.86,20.48-91.61-35.94-46.54-36.87Zm-95.33,351.1c-7.48-3.18-8.89-16.57-3.18-29.97,5.69-13.36,16.35-21.67,23.83-18.49s8.87,16.64,3.18,30c-5.71,13.4-16.33,21.66-23.83,18.47Zm59.92-75.06c-4.1-1.75-4.8-9.33-1.57-16.93s9.19-12.35,13.29-10.6c4.1,1.75,4.81,9.34,1.57,16.93s-9.2,12.34-13.3,10.6Zm39.55,128.33c-6.36-2.71-6.99-15.49-1.45-28.51,5.55-13.02,15.19-21.4,21.55-18.69,6.32,2.69,6.94,15.45,1.4,28.47-5.55,13.02-15.18,21.42-21.5,18.73Z"/><g><path class="dr" d="M1049.36,778.66c-7.41-47.33-36.67-206.56-109.91-334.15-87.02-151.67-170.55-229.09-242.73-187.05-56.65,39.38-15.33,32.22,6.24,22.8,21.58-9.38,70.83-16.3,82.71,12,11.88,28.3-33.89,19.64-49.86,60.86-15.96,41.22,31.38-36.19,87.36,4.66,56.02,40.93,15.72,53.13-12.37,62.87-28.1,9.7-41.05,47.59-69.41,35.51-28.37-12.09-33.89,19.59-38,70.46-4.16,50.93-.65,53.96,27.23,41.06,27.81-12.95,53.44-20.6,68.42-48.27,14.96-27.7,42.94-48.31,59.94-39.53,16.97,8.81,5.02,33.12-24.94,43.58-29.99,10.45-6.67,34.34-52.11,66.08-45.43,31.74-65.26,55.84-24.85,107.07,18.71,23.43,44.52-25.91,67.92-28.35,23.38-2.4,43.94-16.87,18.37-35.54-25.62-18.64-18.22-43.35,11.38-67.9,29.58-24.52,66.53-47.51,69.89-10.44,3.36,36.99-7.01,65.11-34.6,81.22-27.63,16.1-.59,30.45-38.34,48.72-22.11,10.7-35.09,29.95-41.09,55.25-5.98,25.32,33.28,79.24,35.07,41.27,1.82-37.91,17.62-90,49.23-78.1,31.66,11.95-2.18-21.07,27.86-57.86,30-36.71,51.35,21.88,29.12,40.33-22.22,18.38-44.29,74-36.78,105.09,7.52,31.06,12.67,30.18,41.2-18.04,28.55-48.24,55.73-25.85,50.99,7.74-4.73,33.64-74.7,70.37-54.62,120.75,20.03,50.32,30.09,71.65,15.01,107.05-.8,1.89-1.23,3.4-1.49,4.6,73.13-71.62,85.73-166.08,83.17-233.72Z"/><path class="dk" d="M1100.59,811.99c13.95-32.74-1.69-40.97-12.69-75.1-11-34.1-11.93-46.89,5.29-34.88,17.24,11.98,17.96-4.76,23.42-28.75,5.44-24.01-16.04-67.23-39.81-78.88-23.79-11.71-13.5-32.08,13.53-20.56,27.05,11.52-19.25-22.16-18.7-49.79,.58-27.59,13.09-26.94-24.73-69.36-37.79-42.4-15.75,25.81-62.96-2.08-47.22-27.79-54.72-58.9-13.51-50.63,41.15,8.25,50.69,4.57-.63-17.29-51.35-21.88-55.32-31.29-29.72-38.98,25.63-7.67,49.71-.48,12.14-39.74-37.52-39.25-115.24-36.7-91.66-9.64,23.55,27.1,198.79,282.89,190.84,496.28,0,0-.65-4.97-2.04-13.92,2.56,67.63-10.04,162.1-83.17,233.72-4,21.29,77.44-60.52,87.99-110.23,11.2-52.48,2.09-61.05,16.28-45.68,14.21,15.31,16.15-11.68,30.12-44.48Z"/></g><path class="cp" d="M817.64,273.41s379.62,437.83,150.05,734.37c0,0,170.84-133.67,24.13-503.8-67.26-131.87-142.67-268.32-174.18-230.57Z"/><path class="dm" d="M886.21,333.55s280.48,389.47,94.08,667.19c0,0,212.24-240.95-94.08-667.19Z"/><path class="cb" d="M839.74,288.98c-8.98-10.34-12.13-17.19-12.15-21.74-3.67,.62-7,2.61-9.95,6.17,0,0,299.59,345.65,205.47,630.7,97.07-273.93-157.33-585.24-183.37-615.13Z"/><path class="cg" d="M903.74,825.71s-20.39,42.93,13.91,82.26c34.3,39.44,15.38,43.77,26.27,73.17,10.92,29.41-7.09,21.73-18.61,43.68-11.45,21.97,12.31,1.15,29.53-14.27,17.2-15.36,10.28-14.17-3.01-52.89-13.32-38.67-13.03-34.41-31.85-65.18-18.82-30.72-7.71-81.75-16.24-66.77Z"/><path class="ck" d="M797.71,759.87s11.96,38.11,51.02,62.51c26.65,16.62,6.04,13.43,10.74,42.25,4.76,28.85-30.81-27.54-42.42-55.23-11.62-27.67-34.53-18.86-19.33-49.53Z"/><path class="cf" d="M724.49,641.98s12.75,54.92,31.06,66.9c18.33,11.91,8.65,34.63,8.65,34.63,0,0-3.46-11.81-36.82-38.4-33.34-26.62-2.88-63.13-2.88-63.13Z"/><path class="cn" d="M1001.95,350.38s40.13,29.44,51.31,48.16c11.21,18.73,.5,6.38-13.16,8.35-13.57,1.93,17.14,1.07-20.29-27.25-37.41-28.36-40.71-46.8-17.86-29.26Z"/><path class="dz" d="M867.14,362.1s134.06,209.88,144.48,340.26c10.44,130.4,28.18-151.09-144.48-340.26Z"/><path class="da" d="M1026.73,813.05s4.27,76.1-36.15,140.98c-22.05,29.31,38.67-79.51,36.15-140.98Z"/><path class="ds" d="M692.26,267.95s38.97-33.98,83.58-8.77c25.51,14.97-34.51-23.97-83.58,8.77Z"/><path class="dv" d="M928.88,579.32s2.57,28.97-24.89,53.44c-24.13,21.74,38.32-12.56,24.89-53.44Z"/><path class="cu" d="M798.11,435.36s-9.86,34.5-46.22,29.87c-36.35-4.64-39.69,3.21-36.12,43.51,3.62,40.22,30.63,51.73,55.43,23.61,24.79-28.22-10.78,13.96-33.97,.98-23.18-12.99-19.71-54.88,2.55-54.64,22.27,.12,63.55,.68,58.34-43.34Z"/><path class="ed" d="M818.69,626.88s36.17,20.08,16.85,24.21c-19.32,4.15-49.67,19.1-60.04,47.2-10.37,28.09-5.59-31.79,35.87-46.65,27.21-3.95,7.33-24.76,7.33-24.76Z"/></g><g><g><path class="eu" d="M1430.32,352.46s21.57-35.68,6.77-94.64c-14.75-58.98-26.13-88.55-43.87-125.52-17.77-36.99-56.61-58.19-56.61-58.19l-40.01,7.73,33.56-15.14s-23.69-37.97-80.78-57.66c-35.2,11.37-44.33,29.18-53.78,25.15s35.77-39.03,35.77-39.03c0,0-68.34-30.61-108.27-30.6l-54.86,46.32,28.28-51.46-45.47-13.17s-29.74,13.69-79,1.93c0,0-21.85,6.23-34.88,6.86l-9.91,34.46-13.82-1.2,2.59-36.08s-15.07,9.03-45.3-2.26c-30.32-11.39-62.33,7.47-62.33,7.47l2.91,30.72-16.66-13.36s-38.88,5.16-88.94,36.43c-50.08,31.36-90.1,110.33-74.24,192.94,0,0-12.09,58.34,23.54,79.69,35.58,21.36,50.16,5.86,64.28-15.93,14.08-21.92,81.38-14.92,116.7,3.23,34.04,17.62,29.47-35.45,.07-52.6,41.55,22.33,37.48,46.91,52.92,51.96,15.42,4.99,53.63,8.92,67.76-12.96,14.1-21.81,20.36-25.35,39.87-18.62,19.48,6.72,36.86,3.36,31.66-14.39-5.26-17.73,7.57-21.49,21.97,4.75,14.32,26.25,36.32,4.6,69.29,17.07,32.98,12.51,84.06-13.69,117.4,12.91,4.75-33.61-18.93-52.97-32.9-65.1-13.97-12.17,32.96-6.08,59.43,51.63,52.94,25.62,169.45,115.53,126,165.19,55.01-16.83,40.85-58.52,40.85-58.52ZM799.04,44.28c-4.6,4.59-10.76,5.91-13.87,3.01-3.12-2.96-1.93-9.08,2.6-13.7,4.56-4.62,10.77-5.92,13.89-3.04,3.09,2.97,1.91,9.11-2.62,13.73Zm78.69,121.54c-7.55-3.22-11.98-9.61-9.98-14.29s9.68-5.94,17.24-2.73c7.48,3.19,11.95,9.6,9.95,14.31-1.99,4.68-9.72,5.9-17.2,2.71Zm221.19,4.71c-15.32-6.53-25.57-16.79-22.95-22.96,2.62-6.14,17.11-5.82,32.43,.71,15.3,6.52,25.59,16.76,22.97,22.9s-17.16,5.87-32.45-.64Zm144.86,2.81c-7.48-3.18-11.79-9.82-9.63-14.87s9.96-6.63,17.43-3.44,11.76,9.88,9.6,14.96c-2.15,5.05-9.94,6.53-17.4,3.35Z"/><path class="ep" d="M707.75,137.58c83.15-106.91,215.33-85.84,375.61-42.36,160.23,43.54,276.56,70.32,316.69,165.92,28.39,67.58,30.27,91.31,30.27,91.31,0,0-10.92-41.78-13.91-64.75-2.98-22.92-5.66-50.44-30.59-78.05-24.96-27.64-94.31-63.4-94.31-63.4-80.14-36.74-160.34-53.36-307.69-90.87-237.16-60.32-310.16,98.61-310.16,98.61,0,0-90.17,169.09-108.43,181.94-18.24,12.86-12.98,25.46,7.62,32.15,20.52,6.69,87.88-170.06,134.9-230.5Z"/></g><path class="cw" d="M673.66,153.99s14.55-60.38,111.9-97.89c-26.79-8.32-7.19-35.61,15.63-36.7,22.8-1.12-5.51,31.72,18.98,26.67,24.49-5.02,110.99-20.81,351,56.66,138.55,41.93,215.62,93.38,233.84,136.78,18.26,43.37,1.72-56.55-31.65-101.8-33.45-45.16-46.24-41.36-91.66-35.9-45.42,5.41-26.71-16.06,17.8-34.26,0,0-22.84-25.19-53.32-39.74,0,0-52.75,30.2-70.11,25.84-17.33-4.23,27.55-53.27,27.55-53.27l-70.39-22.23s-61.68,51.09-88.12,56.91c-26.38,5.77,26.57-66.08,26.57-66.08,0,0-29.2,12.31-68.19,6.53-39.08-5.79-50.6-19.97-58.5,6.07l-7.86,26.06S916.28,.31,900.54-.19c-22.78-.74,15.45-21.29-18.97-26.67-34.4-5.39-56.04-14.61-52.59,14.73,3.46,29.38-.14,34.03-21.89,13.93-21.76-20.09-159.28,59.1-133.43,152.18Z"/><path class="cz" d="M1368.85,290.68c54.5,35.6,48.05,93.25,48.05,93.25,16.72-13,12.47-44.26,3.73-65.02-18.21-43.38-13.38-84.67-87.22-136.23-110.67-54.92-250.56-97.48-446.88-123.79-180.46-7.24-222.61,159.1-222.61,159.1,39.42-51.35,90.38,1.34,121.44,14.57,31.1,13.25,39.55,5.37,24.26-26.82-19.34-40.8,31.46-13.34,62.98,13.97,31.43,27.34-47.32-77.01-.81-85.04,46.54-8.05,29.16,40.27,59.98,50.33,30.83,10.02,75.04,41.23,84.48,.33,9.43-40.86,66.29,65.41,51.86,2-14.49-63.48,21.83-58.83,58.85-44.59,37.05,14.24-10.32,46.66,18.86,60.68,29.17,13.96,66.85,19.19,45.98-6.79-20.89-25.89-3.14-33.82,19.03-25.93,22.21,7.89-.9-39.08,40.99-21.23s42.86,49.25,11.48,40.48c0,0,30.63,51.74,105.55,100.73Z"/><path class="ct" d="M712.84,144.35s98.78-134.42,358.69-43.8c-116.13-30.9-246.56-50.86-358.69,43.8Z"/><path class="df" d="M1183.99,98.87s-204.76-70.2-313.49-62.31c119.39-14.17,246.24,29.03,313.49,62.31Z"/><path class="db" d="M907.87,135.05s6.2,25.35,18.9,38.01c12.69,12.66,33.1,17.18,54.92,23.4,21.86,6.24,18.37-5.59,28.17-21.02,9.77-15.47,17.12-10.27,39.13,10.46,22.03,20.75-18.55-51.3-43.44-15.38-14.91,22.51-16.55,23.89-49.22,13.03-32.62-10.8-50.97-70.19-48.46-48.49Z"/><path class="dt" d="M846.66,133.76s-7.97,16.2,11.53,50.34c19.53,34.14,5.59,16.81-20.31,2.66-25.88-14.13-49.19-21.91-37.06,12.12,12.08,34.05-2.6,36.07-55.24,2.25-24.65-14.57,34.93,18,46.47,15.73,11.66-2.29-39.66-56.71-6.3-59.99,33.31-3.41,78.88,49.56,60.57,20.11-18.3-29.48-11.16-51.24,.34-43.22Z"/><path class="cj" d="M893.05,254.69s34.33,21.83,51.79-1.69c17.47-23.55,34.03-29.91,53.86-21.46,19.82,8.44-12.39-27.84-46.58,1.86-28.71,24.92-28.56,27.05-59.07,21.3Z"/><path class="ca" d="M1229.58,131.71c-61.46-23.08-170.12-52.84-304.49-77.07-198.85-27.97-258.78,125.17-275.5,164.42-6.58,15.46-77.78,141.27-86.33,143.18,2.76,1.69,6.12,3.22,10.15,4.49,20.52,6.7,87.31-168.72,134.33-229.16,83.15-106.91,215.33-85.84,375.61-42.36,160.23,43.54,276.56,70.32,316.69,165.92,7.21,17.19,12.73,31.53,16.92,43.42-.13-.78-.25-1.53-.36-2.3-18.87-108.15-125.61-147.44-187.03-170.55Z"/><path class="ec" d="M858.18,46.81s119.64,1.43,312.11,61.72c45.96,14.45-201.3-79.55-312.11-61.72Z"/><path class="dc" d="M948.59,6.87s-1.06-32.47,28.17-26.23c29.3,6.31,43.58,10.28,70.57,4.3,27.05-6.06-34.99,4.69-72.29-10.21-21.08-7.92-33.42,8.54-26.45,32.14Z"/></g><g><g><path class="el" d="M279.9,535.89c45.8-83.03,64.91-126.94,97.47-143.85-9.96-48.67-62.97-97.37-187.5-115.99,0,0-146.06-18.68-200.88,54.53,26.74,.8,23.1,7.16,23.1,7.16,0,0,34.13-9.85,47.04-2.23-63.19,18.31-62.72,24.45-102.96,34.54-40.22,10.1-55,44.57-65.03,73.72,41.17-11.17,59.91,5.35,27.37,8.93-32.54,3.59-31.1,21.93-37.54,44.81-6.4,22.81-11.53,61.93-11.53,61.93,0,0,31.07-21.93,55.76-21.12-45.87,29.87-64.27,44.05-55.71,87.66,8.5,43.62,26.28,34.57,15.45,66.8-10.82,32.27-20.66,50.13,20.51,38.95,41.15-11.12,119.1-37.35,150.34-70.56-11.43,37.33-25.72,51.34-25.72,51.34,0,0,32.07,16.91,60.99-20.28,18.35-27.5,25.92-9.43,17.12,9.41-8.76,18.83,27.08,4.88,51.57-22.93,24.5-27.77,74.32-59.78,120.16-142.85ZM57.06,388.95c-1.29-8.68,7.71-16.9,20.11-18.34,12.41-1.45,23.52,4.45,24.78,13.18,1.26,8.67-7.74,16.93-20.13,18.35-12.4,1.44-23.51-4.46-24.77-13.19Zm-22.03,73.61c-7.59,1.17-14.17,0-14.67-2.57-.49-2.67,5.28-5.76,12.88-6.97,7.6-1.17,14.14-.02,14.65,2.55,.48,2.71-5.27,5.78-12.86,6.98Zm176.08-109.37c-7.75,2.63-15.33,1.25-16.88-3.02-1.62-4.26,3.43-9.85,11.2-12.47,7.79-2.59,15.3-1.27,16.89,3.02,1.59,4.27-3.49,9.9-11.21,12.47ZM57.04,558.39c-4.69-4.09-5.34-10.97-1.57-15.25,3.82-4.36,10.67-4.53,15.38-.45,4.64,4.13,5.34,10.96,1.52,15.32-3.83,4.34-10.7,4.49-15.34,.38Zm123.99-36.26c-26.85,15.57-65.7-.98-53.14-24.11,12.54-23.1,52.77-15.46,52.77-15.46,32.42,3.26,27.21,23.96,.37,39.57Z"/><path class="en" d="M-25.54,578c35.02-24.17,127.13-158.18,219.83-192.3,122.12-38.51,183.07,6.35,183.07,6.35,0,0-30.94-72.28-191.29-23.69-89.43,27.46-211.62,209.64-211.62,209.64Z"/></g><path class="dp" d="M-102.54,629.78s27.8,1.73,60.35-41.74c32.51-43.55,78.02-104.05,97.33-119.26,19.31-15.27-37.55,18.12-46.05,1.15-8.53-17.07,17.27-28.47,45.24-24.66,27.99,3.75,64.32-17.4,21.35-28.67-42.91-11.3-53.66-56.82-2.42-57.22,51.29-.43,75.36,5.62,86.96-3.13,11.63-8.72-33.82-26.04-121.21-2.42-87.41,23.6-107.02,48.06-117.83,67.01-10.86,18.96,16.49,1.33,35.52,21.85,19.06,20.6-20.4,.95-46,27.78-25.61,26.82-22.11,58.37-22.11,58.37,0,0,46.34-10.4,63.81,3.12,17.43,13.51-44.94,28.73-61.23,56.11-16.34,27.44-12.24,40.57,6.3,41.7Z"/><path class="du" d="M173.8,420.82s-69.8,34.68-99.94,68.84c-30.16,34.21,18.69,29.17,12.84,59.51-5.86,30.25-20.69,32.32-42.73,12.91-22.02-19.4-65.59,18.14-92.8,54.94-27.25,36.77-22,51.54-42.31,71.59-20.29,20.07,68.99,7.62,131.21-54,62.2-61.65,31.22,32.65,31.22,32.65,0,0,11.74,10.35,32.29-24.73,20.49-35.1,29.95-19.16,25.75,15.14-4.1,34.35,65.35-91.8,21.96-104.77-43.39-12.97-83.1-65.66-15.37-74.34,67.66-8.69,112.89-77.69,37.88-57.74Z"/></g><g><path class="cq" d="M667.23,75.43c-30.72-17.72-83.66-61.98-127.28-49.6,0,0,24.45-68.53-6.66-81.79-31.06-13.23-25.22-23.16-46.47-44.57-21.17-21.41-21.34-32.31-69.12-32.54-47.8-.24-104.09,8.26-134.53,12.34-30.51,4.07-50.63,32.63-63.22,39.64-12.56,7.02,32.94-6.07,54.13-10.98,21.29-4.89,46.73,2.85,69.47,28.08,22.84,25.18,74.39,50.23,53.12,81.46-21.27,31.18-24.2,26.82-24.34-10.37-.07-37.22-14.79-58.98-43.23-63.37-28.45-4.35-68.5-15.26-106.74-.52-38.17,14.69-81.18,25.79-66.97,41.09,14.18,15.36,47.8,.26,76.31-3.08,28.59-3.32,13.39,13.49,41.96,36.43,28.54,23.02,35.85,43.19,14.57,55.81-21.35,12.55-5.66-5.53-21.93-31.03-16.27-25.49-27.73-47.4-57.68-37.03-29.99,10.48-44.48,18.26-68.56,11.11-24.1-7.21-22.72-6.63-55.5,29.04-32.7,35.57-24.66,46.74,5.91,34.98,30.53-11.79,79.82-.03,85.94,11.82,6.06,11.92,2.38,24.25-27.06,14.81-29.52-9.45-45.26-9.96-72.28,4.82-27.11,14.79-37.27,27.49-57.95,31.04-20.69,3.61-31.25,2.17-39.39,25.02-8.16,22.88,4.18,12.68,32.06-.23,27.81-12.97,46.77-4.89,57.23,4.25,10.48,9.1-22.05,3-46.75,23.45-24.62,20.43-15.19,24.45-42.6,25.21-27.45,.66-47.01,1.6-85.81,70.23-38.84,68.64-36.33,111.5-3.72,83.6,32.64-27.92,95.52-63.07,129.45-64.07,33.96-1.03,54.52-15.5,71.64-40.73,17.11-25.24,32.63,43.31-42.88,66.86-48.99,10.14-54.47,15.53-59.03,33.71-4.56,18.2,30.15,.5,62.63,6.55,32.53,6.14,66.24,1.9,112.16-23.44,45.94-25.33,39.29-35.9,51.19-60.25,11.97-24.31,16.57-23.92,5.01,14.47-11.58,38.45-28.5,66.89-41.09,81.58-12.67,14.78,9.81-8.16,51.89-5.7,42.05,2.38,87.48-2.98,112.33-38.88,24.87-35.85,9.19-88.97,29.04-94.47,19.95-5.46-.44,64.82-20.59,93.4-20.18,28.6-.05,26.32,33.76,14.38,33.79-11.88,108.76-60.47,123.21-86.82,14.43-26.38-2.05-55.11-4.3-76.2-2.18-21.07,3.33-26.42,14.83-12.24,11.52,14.19,21.46,43.24,8.07,74.68-13.42,31.5-17.22,32.94,27.07,11.53,44.23-21.42,27.29-37.94,58.19-54.18,30.86-16.28,35.53-42.2,16.28-72.04-19.16-29.83-35.66-39.93-46.21-41.35-10.57-1.41,39.58-14.13,54.76,6.29,15.26,20.46,38.39,41.1,47.31,20.16,8.93-20.97,13.16-34.67-17.64-52.42ZM223.93,221.04c-5.66-.22-10.14-9.06-10.08-19.86,.11-10.8,4.75-19.4,10.4-19.27,5.64,.17,10.15,9.03,10.08,19.86-.1,10.8-4.75,19.4-10.4,19.27Zm99.34-26.36c-3.97-1.69-3.78-11.09,.44-20.98s10.85-16.52,14.82-14.83,3.82,11.08-.4,20.97c-4.21,9.89-10.89,16.53-14.86,14.83Zm-4.28,78.71c-3.7-1.58-4.07-9.15-.78-16.87,3.28-7.71,9-12.69,12.7-11.12s4.1,9.17,.81,16.87-9,12.71-12.74,11.11Zm96.6-123c8.31-47.01,42.43-39.68,42.43-39.68,7.43,.05,2.75,13.51-11.4,46.71-14.16,33.23-39.39,40.02-31.03-7.03Z"/><path class="es" d="M562.97,24.31S303.96,97.66,80.54,252.33c-108.46,79.72,.06-50.04,338.57-205.18,96.6-39.36,131.27-63.3,143.86-22.83Z"/><g class="cl"><path class="ev" d="M546.9,4.61c1.61,5.76,.51,11.08-6.87,13.53-20.16,6.65-269.65,84.63-496.36,257.78,5.59-2.12,17.93-9.64,36.87-23.6C303.96,97.66,562.97,24.31,562.97,24.31c-3.45-11.01-8.51-17.29-16.07-19.7Z"/></g><path class="dj" d="M519.43,14.03S304.03,92.57,117.34,215.89C284.13,97.98,486.77,23.32,519.43,14.03Z"/><path class="cr" d="M562.97,24.31S332.78,92.44,118.9,227.34c-55.57,36.72,39.8,7.7-2.08,61.08-41.87,53.37,4.04,72.93,54.82,24.89,50.78-48.03,43.8-54.09,37.08-83.28-6.72-29.21-.96-57.7,22.67-56.95,23.59,.8,6.09,56.85,11.09,71.34,5.03,14.51,5.61,58.09-16.23,90.63-21.82,32.51,49.68,44.42,88.08,14.29,38.37-30.05,26.73-55.17,5.92-62.53-20.85-7.32-16.61-47.26,12.52-51.92,29.12-4.63,14.42-26.4-10.21-32.23-24.65-5.81,1.37-70.66,25.69-60.3,24.29,10.35-7.35,51.08,14.25,60.28s55.01,54.38,19.89,110.63c-35.15,56.28,63.58-6.92,94.1-37.29,30.49-30.36,4.52-108.02-26.92-90.46-31.43,17.6-53.82,6.48-43.75-43.39,10.07-49.93,76.82-67.94,67.13-30.23-9.67,37.66,21.54,43.19,37.11,32.81,15.59-10.36,49.64,52.08,37.53,91.82-12.19,39.75,37.96,.72,40.25-30.82,2.27-31.54,60.21-17.72,18.94-63.2-41.3-45.43-76.97-59.12-19.19-56.14,57.8,2.91,55.25-47.17-24.61-62.09Z"/><path class="dx" d="M531.78,3.77S275.21,92.68,89.44,236.49c-63.6,51.88-121.74,53.44-159.13,70.01-37.41,16.63-6.35-41.42,61-60.74,67.27-19.31,67.22-37.9,101.44-62.03,34.25-24.13-12.58-37.88-34.07-36.2-21.47,1.68,42.85-40.6,107.26-19.35,41.39,11.43,53.06-34.71-12.68-56.47-65.72-21.82-44.23-49.82-.12-37.21,44.09,12.58,29.68-5.94,65.83-12.22,36.21-6.25,42.74,38.35,41.47,56.38-1.27,18.03,13.1,17.92,38.54-.61,25.52-18.58,24.58-31.35,2.02-53.4-22.57-21.99-32.71-35.57-37.37-54.62-4.66-19.02,93.05-16.07,95.93,14.61,2.91,30.62-6.15,85.59,29.44,62.04,35.54-23.55,37.96-44.21,14.96-72.58-23.01-28.41-96.39-73.55-47.13-80.49,49.24-6.89,97.1-14.34,115.17,18.12,18.13,32.5,6.18,30.47,40.04,37.21,33.87,6.66,35.05,48.97,19.74,54.83Z"/><path class="dh" d="M493.14,57.03s-147.8,54.68-219.77,99.88c-62.05,37.06,82.34-73.3,219.77-99.88Z"/><path class="ee" d="M264.94,113.04s-65.57,34.02-161.38,101.59c-95.83,67.57,68.65-71.34,161.38-101.59Z"/></g><g><path class="eh" d="M205.68,651.12c-20.8,5.66-62.28,9.89-75.99,33.16,0,0-18.11-37.98-37.13-30.36-19.04,7.61-20.62,1.16-38.8,1.36-18.15,.14-22.79-4.19-43.58,15.72-20.83,19.9-41.65,46.89-53.21,61.27-11.5,14.37-8.24,34.36-10.76,42.47-2.54,8.13,11.7-16.22,18.86-27.09,7.17-10.86,21.44-18.36,41.84-17.67,20.49,.69,53.32-10.74,57.1,10.81,3.87,21.56,.82,21-14.83,5.98-15.63-15.02-31.11-17.68-45.26-7.6-14.18,10.11-36.09,22.47-46.49,44.4-10.39,21.9-24.44,44.36-11.84,44.65,12.59,.27,20.83-19.84,31.78-33.16,11-13.27,11.49-.12,33.45-2.74,21.99-2.63,33.63,2.49,29.65,16.53-3.97,13.96-4.75,.08-22.46-3.47-17.72-3.54-31.86-7.62-40.48,9.16-8.63,16.73-11.7,26.01-25.07,33.13-13.48,7.23-12.66,6.84-11.92,34.96,.72,28.1,8.84,29.28,17.2,11.72,8.31-17.53,34.55-33.37,42.21-31.08,7.63,2.25,11.19,8.78-5.55,17.25-16.77,8.51-23.79,14.93-29.32,32.2-5.55,17.34-4.64,26.7-12.14,36.83-7.42,10.1-12.58,13.94-6.57,26.6,6.03,12.63,7.11,3.39,13.77-13.49,6.66-16.9,18.26-21.5,26.59-22.25,8.36-.65-8.29,10.42-10.45,29.07-2.08,18.57,3.7,16.28-7.92,28.05-11.6,11.74-19.66,20.3-7.77,64.33,11.89,44.05,30.97,60.37,33.41,35.41,2.44-24.96,15.01-65.49,29.3-80.1,14.28-14.61,17.13-29.04,13.95-46.44-3.1-17.36,32.32,3.96,9.49,45.03-17.02,24.6-17.13,29.05-11.53,38.35,5.66,9.29,13.29-12.44,29.92-23.54,16.68-11.11,29.51-26.93,38.78-56.39,9.33-29.45,2.03-31.01-3-45.83-5-14.86-2.81-16.61,8.24,3.78,11.07,20.41,15.63,38.98,16.32,50.28,.7,11.26,.84-7.44,20.09-24.03,19.27-16.61,36.71-37.83,32.45-62.71-4.22-24.97-33.28-39.91-26.96-50.44,6.33-10.56,26.94,26.46,30.15,46.51,3.24,19.93,10.99,10.65,20.68-8.29,9.67-19,21.82-70.05,17.04-86.69-4.76-16.76-23.92-21.51-33.71-29.09-9.77-7.6-9.65-12.09,1.28-11.18,10.94,.97,27.4,8.49,34.83,26.85,7.29,18.35,6.27,20.59,16.51-6.62,10.17-27.18-4.09-26.77,2.51-46.27,6.56-19.51-2.26-31.95-23.07-36-20.84-4.1-32.18-1.33-37.36,2.51-5.16,3.88,11.22-22.21,26.4-20.34,15.1,1.95,33.8,.7,28.91-11.56-4.93-12.24-8.81-19.53-29.52-13.91Zm-131.27,244.39c-2.52,2.27-8.18,.55-12.68-3.86-4.49-4.41-6.11-9.85-3.58-12.14,2.51-2.3,8.23-.56,12.7,3.8,4.45,4.45,6.05,9.87,3.56,12.21Zm32.04-52.24c-2.44,.98-6.3-2.9-8.58-8.67-2.35-5.75-2.26-11.26,.19-12.21,2.43-1,6.31,2.89,8.64,8.68,2.3,5.75,2.21,11.23-.25,12.2Zm31.11,33.68c-2.26,.9-5.62-1.99-7.41-6.51-1.82-4.48-1.42-8.88,.85-9.77,2.29-.93,5.63,1.97,7.43,6.47,1.81,4.49,1.44,8.93-.87,9.82Zm-9.65-90.17c-16.07-22.61,1.76-33.88,1.76-33.88,3.29-3.09,6.86,4.36,14.67,23.7,7.75,19.4-.33,32.67-16.43,10.18Z"/><path class="ek" d="M138.99,674.03S57.48,812.05,25.36,968.09c-13.64,77.67-20.91-20.3,60.84-224.66,25.43-56.35,30.45-80.55,52.79-69.4Z"/><g class="cl"><path class="ex" d="M123.82,672.77c3.09,1.68,4.84,4.28,2.67,8.36-5.96,11.13-81.44,147.03-107.26,311.93,1.58-3.17,3.78-11.41,6.13-24.96,32.12-156.05,113.63-294.07,113.63-294.07-6.07-3.02-10.91-3.4-15.17-1.26Z"/></g><path class="dd" d="M115.83,688.08s-60.48,121.85-89.77,249.87c22.92-117.47,79.52-232.44,89.77-249.87Z"/><path class="ea" d="M138.99,674.03s-71.25,123.82-107.46,267.98c-8.73,38.06,20.46-13.57,24.64,25.55,4.2,39.15,32.31,27.87,34.23-12.85,1.9-40.66-3.72-40.18-18.8-49.24-15.14-9-24.58-23-14.04-32.52,10.57-9.56,26.46,20.47,34.7,24.24,8.22,3.84,26.74,21.24,30.87,43.48,4.14,22.32,40.16-2.75,44.17-30.99,4.05-28.23-11.52-33.55-23.64-27.8-12.06,5.76-26.97-12.27-16.29-26.28,10.67-14.02-4.78-16.71-17.91-8.76-13.15,7.88-28.98-29.24-14.11-35.17,14.86-6.01,18.15,23.72,31.37,18.44,13.22-5.32,46.65-.99,54.99,36.51,8.31,37.54,24.63-29.42,25.19-54.46,.5-25.05-43.31-45.63-49.55-25.4-6.3,20.25-20.64,25.12-37.17,.72-16.52-24.47,4.85-59.61,16.43-40.34,11.63,19.31,27.46,8.53,29.89-2.23,2.39-10.7,43.3,.39,54.68,21.57,11.39,21.18,16.74-15.6,4.53-29.28-12.22-13.8,18.71-32.41-18.23-33.58-36.94-1.16-58.13,8.22-31.83-14.7,26.3-22.97,4.2-42.19-36.7-14.9Z"/><path class="cv" d="M116.93,678.77S42.88,822.06,22.59,958.02c-5.88,47.56-30.41,72.5-39.69,94.87-9.26,22.33-20.09-14.15,1.03-50.14,21.06-35.95,13.26-43.42,18-67.52,4.74-24.09-21.35-10.1-29.91-.46-8.62,9.69,1.58-34.35,38.38-52.67,22.75-12.64,8.5-36.23-29.15-17.55-37.61,18.63-40.01-1.77-15.6-15.07,24.36-13.31,10.36-14.82,23.42-32.43,13.08-17.73,34.56-2.38,41.58,5.47,6.97,7.84,13.18,1.81,16.46-16.36,3.29-18.16-2.47-23-21.48-22.48-19.02,.52-29.09-.74-39.08-6.5-9.99-5.74,33.59-45.45,47.7-34.2,14.06,11.2,33.19,37.27,38.72,12.84,5.58-24.4-2.01-33.75-23.88-35.63-21.89-1.91-72.6,10.48-54.13-12.92,18.49-23.4,36.08-46.43,57.51-40.86,21.47,5.61,15.45,9.83,32.93-1.63,17.48-11.45,35.7,5.19,31.54,13.99Z"/><path class="cy" d="M122.45,716.47s-41.16,83.96-53.42,132.36c-11.39,40.94,4.97-64.1,53.42-132.36Z"/><path class="dg" d="M46.97,834.58s-14.18,41.2-27.42,108.61c-13.29,67.47-.09-57.64,27.42-108.61Z"/></g><g><path class="ei" d="M707.59,618.83c4.4-31.04,11.66-48.09,19.72-62.9,8.09-14.87-21.51-49.41-35.93-73.87-14.39-24.41-38.46-51.14-63.14-59.83,39.59-1.39,83.63,28.33,85.76,56.68-1.2-16.48,4.34-30.35-.5-47.32-6.17-21.97-20.35-40.95-36.08-56.55-31.35-31.05-70.67-51.82-109.29-73.19-18.97-10.42-37.74-21.04-55.4-33.07-35.7-24.39-71.93-14.22-136.94,9.32-65.01,23.52-87.54,43.15-105.18,42.99-17.67-.24-30.92,14.25-58.11,44.73-27.14,30.5-13.04,63.93-13.04,63.93,0,0,13.37-27.25,47.94-41.74,34.57-14.55,47.4-7.25,58.11,.98-39.75,14.16-50.31,38.94-70.58,44.91-20.26,5.98-46.19,16.88-67.48,62.73-21.29,45.78-43.77,81.91-39.37,113.06,4.48,31.19,20.92-24,59.25-51.56,38.33-27.55,70.55-44.97,88.29-28.23,17.7,16.65-18.83,6.62-57.17,34.2-38.32,27.51-32.49,26.35-55.4,38.53-22.92,12.2-36.37,22.94-33.92,58.74,2.52,35.79,9.23,53.3-7.91,93.54-17.14,40.24-5.88,76.19-5.88,76.19,0,0,11.06-30.04,49.33-44.89,38.2-14.8,22.42-6.88,7.2,12.21-15.26,19.11,5.35,49.86-11.21,72.07-16.57,22.25-20.06,26.23-6.67,44.71,13.42,18.55,37.08,67.04,10.79,116.24-9.04,25.38,36.54,10.02,81.14-24.01,44.64-34.04,52.46-39.84,78.46-63.48,26.1-23.68,36.44-52.17,43.1-51.2,6.69,1.02,5.83,44.61-21.52,71.34-8.95,12.62,16.18,16.06,55.18-13.09,50-29.9,94.03-45.87,110.54-84.62s40.97-79.46,29.06-97.32c20.25,23.21,18.64,35.38-4.37,76.78,39.98,6.07,64.64-31.01,90.58-87.63,25.88-56.65,37.23-79.27,32.04-96.04-5.24-16.89-12.6-32.85-14.67-44.68-2.02-11.84-17.64-29.46-17.64-29.46,0,0,42.74,16.38,44.53,53.69,5.13,29.66,32.02,8.15,36.36-22.91Zm-470.09,12.41c-5.48,7.49-13.1,11.14-17.08,8.18-3.94-2.99-2.74-11.49,2.69-18.99,5.46-7.49,13.1-11.17,17.1-8.17,3.96,3,2.76,11.5-2.72,18.98Zm160.19-204.79s35.96-1.15,38.55,21.9c2.61,23.08-18.23,17.84-54.19,19.01-35.94,1.15-47.73-29.48,15.63-40.91Zm-66.24,209.55c-59.15,22.35-86.99,8.68-32.45-48.57,0,0,35.8-34.15,63.45-24.19,27.73,9.98,28.2,50.42-31,72.76Zm238.94-134.13c7.04,3,11.26,8.91,9.43,13.2s-8.99,5.27-16.03,2.28-11.29-8.91-9.49-13.15,9.01-5.34,16.08-2.33Zm-46.61,144.73c-29.96-42-13-85.99,16.52-67.96,0,0,57.47,48.3,48.6,77.44-8.85,29.14-35.16,32.57-65.11-9.48Z"/><g><path class="eq" d="M362.45,563.24c-27.66-9.96-63.45,24.19-63.45,24.19-54.53,57.25-26.69,70.92,32.45,48.57,59.19-22.34,58.73-62.78,31-72.76Z"/><path class="eq" d="M240.22,612.26c-4-3-11.64,.68-17.1,8.17-5.43,7.5-6.64,16-2.69,18.99,3.97,2.96,11.59-.69,17.08-8.18,5.47-7.48,6.68-15.98,2.72-18.98Z"/><path class="eq" d="M523.78,646.6c29.95,42.05,56.26,38.62,65.11,9.48,8.87-29.14-48.6-77.44-48.6-77.44-29.51-18.03-46.47,25.96-16.52,67.96Z"/><path class="eq" d="M563.8,517.34c7.04,3,14.22,1.96,16.03-2.28s-2.4-10.2-9.43-13.2-14.26-1.96-16.08,2.33,2.42,10.13,9.49,13.15Z"/><path class="eq" d="M382.06,467.36c35.96-1.18,56.8,4.07,54.19-19.01-2.59-23.05-38.55-21.9-38.55-21.9-63.37,11.43-51.58,42.06-15.63,40.91Z"/></g><g><path class="eq" d="M523.78,646.6c29.95,42.05,56.26,38.62,65.11,9.48,8.87-29.14-48.6-77.44-48.6-77.44-29.51-18.03-46.47,25.96-16.52,67.96Z"/><path class="eq" d="M362.45,563.24c-27.66-9.96-63.45,24.19-63.45,24.19-54.53,57.25-26.69,70.92,32.45,48.57,59.19-22.34,58.73-62.78,31-72.76Z"/><path class="eq" d="M240.22,612.26c-4-3-11.64,.68-17.1,8.17-5.43,7.5-6.64,16-2.69,18.99,3.97,2.96,11.59-.69,17.08-8.18,5.47-7.48,6.68-15.98,2.72-18.98Z"/><path class="eq" d="M563.8,517.34c7.04,3,14.22,1.96,16.03-2.28s-2.4-10.2-9.43-13.2-14.26-1.96-16.08,2.33,2.42,10.13,9.49,13.15Z"/><path class="eq" d="M382.06,467.36c35.96-1.18,56.8,4.07,54.19-19.01-2.59-23.05-38.55-21.9-38.55-21.9-63.37,11.43-51.58,42.06-15.63,40.91Z"/></g><path class="ci" d="M566.96,345.54s-16.64,.23-21.86,34.57c-5.19,34.38-57.33,251.14-217.32,426.91-53.28,52.84-86.87,87.31-97.18,117.11-10.3,29.73-14.22,49.97-28.77,73.07-14.58,23.06,77.16-25.69,116.89-74.6,39.75-48.93,43.64-69.2,60.77-59.45,17.15,9.76,14.62,37.88,11.59,56.15-3.05,18.21,43.04-1.22,74.88-31.5,31.83-30.33,49.88-61.67,58.36-109.29,8.48-47.59,55.36-30.05,50.81-2.72-4.51,27.31,52.48-28.87,6.83-60.52-45.57-31.61-85.47-65.67-90.27-104.32-4.82-38.63,29.29-82.61,102.85-5.54,53.08,79.3,26.38-36.94-28.78-62.87-55.16-25.91-46.43-68.6-9.17-67.32,37.31,1.27,52.43,32.9,82,73.95,79.86,110.83,54.16-54.99-3.71-96.69-57.9-41.72-44.36-45.75-.2-43.95,44.19,1.72-29.6-85.82-67.71-63.02Z"/><path class="eb" d="M543.95,316.21s-13.39,6.49-23.46,50.97c-10.06,44.49-65.93,286.52-225.26,455.16-45.98,41.42-71.47,62.28-82.64,94.11-11.19,31.79-34.36-41.47-1.64-73.88,32.72-32.4,64.53-102.38-4.36-89.67-107.79,19.93-18.13-90.62,63.09-92.64,81.23-1.95,103.55-26.58,126.02-68.23,22.45-41.62-60.85-62.49-95.1-21-34.21,41.49-22.72-24.33,6.48-48.44,29.21-24.15-58.15-7.72-99-.71-40.82,7.02,35.61-94.57,91.59-70.72,56.03,23.87,160.88,44.17,155.96-16.5-4.92-60.6-83.3-20.85-115.88-5.45-32.56,15.33-49.21-45.34,6.64-65.45,55.84-20.13-51.41-29.23-1.59-51.89,49.9-22.66,139.8-67.25,199.13,4.33Z"/><path class="ew" d="M309.2,813.11c174.87-227.32,205.68-395.29,211.29-445.92,5.62-50.62,51.8-73.01,51.8-73.01,0,0,58.66,17.64,20.08,30.48-24.37,8.11-43.37,4.67-49.97,70.17-6.64,65.46-84.56,276.1-233.21,418.29Z"/><path class="dl" d="M553.62,322.76s-22.46,6.9-28.23,53.82c-5.86,46.91-45.99,203.52-141.47,340.26,98.82-127.93,134.3-261.01,149.91-347.61,9.16-38.18,19.8-46.46,19.8-46.46Z"/><g><path class="eq" d="M403.44,702.6c-6.49,9.21-13.21,18.38-20.22,27.44,7.06-9.08,13.79-18.26,20.22-27.44Z"/><path class="eq" d="M409.69,693.62c-.04,.1-.05,.11-.12,.17,.07-.06,.08-.07,.12-.17Z"/><path class="em" d="M409.58,693.79c-1.96,2.97-4.09,5.8-6.14,8.81,2.12-2.98,4.11-5.87,6.14-8.81Z"/><path class="by" d="M594.98,303.49c2.97,5.8,2.31,11.18-7.1,13.75-26.13,7.16-38.43,11.06-47.9,58.25-7.07,35.36-37.83,181.7-130.29,318.13,83.43-121.3,127.8-250.12,132.71-298.8,6.6-65.49,25.6-62.05,49.97-70.17,20.44-6.81,13.59-14.97,2.6-21.17Z"/><path class="er" d="M309.2,813.11c27.04-25.85,51.68-53.96,74.02-83.07-19.7,25.4-41.78,49.99-66.4,73.06-2.56,3.3-4.98,6.61-7.62,10.01Z"/></g><path class="co" d="M184.09,611.61s-37.76,26.02-25.66,47.62c12.07,21.61,3.32,38-11,75.76-14.32,37.79-28.23,53.86-10.8,4.59,17.46-49.3,2.27-59.4,4.18-80.57,1.91-21.12-11.31-35.91,43.28-47.4Z"/><path class="ce" d="M216.58,464.53s-41.09,46.5-47.78,74.73c-6.72,28.25-31.49,78.03-26.94,50.72,4.56-27.33,13.75-65.5,41.18-105.02,27.48-39.51,58.25-40.99,33.54-20.44Z"/><path class="ch" d="M210.77,798.57s-26.57,12.49-20.3,35.28c6.26,22.76-9.45,17.9-4.07,67.74,5.4,49.85-35.13,3.35-18.08-24.11,17.05-27.54-4.2-56.72,25.62-76.89,29.93-20.21,25.09-13.08,16.83-2.02Z"/><path class="cd" d="M618.35,732.58s-11.97,40.66-41.3,72.06c-29.4,31.37,8.75,29.37,26.73-8.71,17.97-38.05,28.88-101.08,14.57-63.35Z"/><path class="cc" d="M269.41,357.17s-25.25,9.33-43.27,30.89c-18.11,21.61-19.84,.73,13.18-30.93,32.93-31.66,74.95-30.27,30.09,.04Z"/><path class="dy" d="M504.13,363.9s-37.03,220.15-176.49,389.37c-111.06,119.12,138.19-74.64,176.49-389.37Z"/><path class="cs" d="M456.66,641.78s-50.03,88.42-143.35,194.99c-46.05,49.89,94.64-63.94,143.35-194.99Z"/><path class="cm" d="M710.48,546.88s-9,26.66-11.03,45.31c-2.03,18.6-5.24,42.9-16.1,51.64-10.82,8.79,16.88,4.77,20.11-30.46,3.13-35.2,23.03-79.16,7.02-66.49Z"/><path class="bz" d="M485.97,881.09s-56.88,54.42-97.18,57.35c-25.61,1.91-15.59,11.68-25.37,22.16-9.79,10.44,15.94-4.21,49.06-19.38,33.03-15.21,112.82-81.77,73.49-60.13Z"/><path class="dn" d="M298.61,670.18s-68.58,.03-119.22,46.76c-40.49,33.92,24.73,25.12,57.16,26.8,32.4,1.62,36.73,30.27,12.91,64.02-23.84,33.76,98.88-82.27-33.18-77.57-53.67,3.97-1.91-39.84,82.33-60.01Z"/><path class="di" d="M233.8,969.33s63.02-18.88,98.42-76.96c39.33-67.38,77-47.65,74.83-.99-4.83,35.12,18.24-95.04-42.32-54.61-44.59,29.74-5.4,34.87-130.94,132.56Z"/><path class="dq" d="M440.52,475.77s-46.02,20.63-100.04-2.39c-54.03-23.02-88.13-13.73-101.38,.74-13.24,14.47,30.52-21.75,92.88,6.65,62.42,28.44,103.26,7.38,108.54-5Z"/><path class="cx" d="M508.58,757.2s3.56,58.22-41.65,110.28c-45.21,52.04,70.31-19.43,41.65-110.28Z"/><path class="do" d="M454.07,285.86s-39.16-3.94-77.32,27.4c-38.15,31.29,23.91-22.75,77.32-27.4Z"/></g></g></g></g></svg>