<?xml version="1.0" encoding="UTF-8"?><svg id="a" xmlns="http://www.w3.org/2000/svg" viewBox="0 0 1000 1000"><defs><style>.b{opacity:.3;}.b,.c{fill:#fff;isolation:isolate;}.c{opacity:.5;}.d{fill:#2f2f2c;}.e{fill:#51b7ef;}.f{fill:#aad6ef;}.g{fill:#73c3ef;}</style></defs><rect class="d" x="-180" y="-180" width="1360" height="1360"/><g><path class="f" d="M471.62,548.63c4.01,.4,3.87,6.28-.15,6.43-36.25,1.34-80.25,8.23-78.41,33.91,.7,9.76,2.97,16.87,6.07,22.02,4.54,7.54-3.04,16.53-11.04,12.86-8.21-3.77-15.91-10.78-21.26-23.11-15.5-35.72,23.02-60.18,104.8-52.1h0Z"/><path class="g" d="M162.56,490.93c6.24-1.96,10.29,6.45,4.84,10.07-44.63,29.69-113.93,90-56.03,150.32,82.32,85.75,260.9,124.02,385.9,130.57,7.09,.37,7.15,10.81,.07,11.26-75.02,4.8-189.55-.47-318.25-50.41-211-81.88-148.7-210.37-16.53-251.81h0Z"/><path class="f" d="M252.49,675.22c4.53,1.37,7.03-5.06,2.75-7.09-35.11-16.61-68.31-44.17-33.66-82.67,41.75-46.39,158.2-61,227.4-65.6,4.73-.32,4.74-7.26,.02-7.61-73.18-5.4-200.62-6.74-247.73,42.74-54.42,57.14-19.19,98.98,51.23,120.23h-.01Z"/><path class="f" d="M579.37,525.41c-3.47,.41-3.53,5.41-.08,5.91,29.18,4.22,76.98,14.67,79.32,38.12,2.97,29.66-35.64,59.32-129.48,75.33-3.67,.63-3.13,6.06,.59,5.92,59.42-2.17,159.03-14.33,166.13-71.09,7.67-61.34-75.33-59.02-116.49-54.19h0Z"/><path class="g" d="M413.19,718.38c-4.79-.33-4.65-7.41,.15-7.54,128.25-3.46,412.44-22.97,399.31-128-11.45-91.59-135.94-116.6-215.35-123.19-4.76-.39-4.53-7.43,.24-7.54,81.26-1.8,213.37,12.81,252.35,120.57,49.94,138.06-274.53,156.85-436.71,145.7h.01Z"/><path class="e" d="M769.73,746.14c-8.17,.72-10.19-11.1-2.23-13.08,65.06-16.18,152.51-50.04,156.74-115.6,2.88-44.63-15.67-78.25-37.95-102.14-5.43-5.83,2.15-14.56,8.68-9.99,33.34,23.37,64.74,58.76,63.13,108.74-2.68,83.19-94.69,123.84-188.37,132.07h0Z"/><path class="e" d="M462.26,245.17s-99.83,182.53-80.71,249.45c29.35,102.71,158.96,122.3,183.42,0,22.01-110.05-102.72-249.45-102.72-249.45h.01Z"/><path class="g" d="M380.33,457.09c48.08,58.74,139.34,54.23,159.47-46.4,2.92-14.6,3.2-29.72,1.59-44.96-31.19-66.95-79.12-120.56-79.12-120.56,0,0-71.75,131.2-81.93,211.92h-.01Z"/><path class="b" d="M504.42,337.97s47.41,67.56,45.24,128.18c-1.08,30.16-7.54,60.32-36.62,78.63-17.96,11.3-39.86-16.16-19.39-34.47,20.47-18.31,29.53-40.89,32.32-74.32,3.23-38.78-21.54-98.02-21.54-98.02h-.01Z"/><path class="c" d="M412.33,486.01c0-16.81,13.62-30.43,30.43-30.43s30.43,13.62,30.43,30.43-13.62,30.43-30.43,30.43-30.43-13.62-30.43-30.43Z"/><path class="c" d="M433.51,375.91c-4.49,22.74-3.52,42.08,2.17,43.21,5.69,1.12,13.93-16.4,18.42-39.14s3.52-42.08-2.17-43.21c-5.68-1.12-13.93,16.4-18.42,39.14Z"/></g></svg>