<?xml version="1.0" encoding="UTF-8"?><svg xmlns="http://www.w3.org/2000/svg" viewBox="0 0 1000 1000"><defs><style>.c{fill:#fff;}.d{fill:#2f2f2c;}</style></defs><g id="a"><rect class="d" x="-185.33" y="-168.33" width="1333.33" height="1221.33"/></g><g id="b"><path class="c" d="M209.44,341.98c-24.45,3.78-40.28,13.59-48.12,29.63-2.94,6.02-3.01,6.23-3.01,13.45,0,6.51,.21,7.7,1.75,10.51,1.75,3.01,5.6,6.3,7.49,6.3,.7,0,.77-.35,.21-1.33-2.1-4.06,1.33-8.2,8.76-10.58,19.12-6.23,40.77,6.65,52.18,31.03,13.52,28.86,12.89,63.6-1.82,98.13-17.16,40.21-55.41,79.01-107.1,108.85-16.46,9.46-43.43,21.92-61.15,28.16-3.57,1.26-6.37,2.38-6.3,2.45,.14,.07,57.86-.07,128.39-.28,70.54-.28,128.32-.28,128.53-.07s55.34,.21,122.58,0c67.24-.21,122.37-.14,122.58,.07s62.76,.14,139.04-.14,163.98-.56,194.87-.56c52.81-.07,56.18-.14,56.53-1.33,.21-.63,.91-4.2,1.61-7.85,1.47-8.34,1.68-32.01,.28-42.73-10.65-83.91-68.71-186.46-132.88-234.72-19.75-14.85-40-24.31-59.82-27.95-10.3-1.96-29.07-2.59-39.23-1.47-25.5,3.01-43.08,13.31-51.27,29.98-2.94,6.09-3.01,6.3-3.01,13.52,0,6.51,.21,7.7,1.75,10.51,1.75,3.01,5.6,6.3,7.49,6.3,.7,0,.77-.35,.21-1.33-2.1-3.99,1.26-8.06,8.76-10.58,20.17-6.86,43.29,8.41,54.29,35.93,6.65,16.67,9.04,34.11,7,51.97-3.5,30.68-17.3,60.59-40.35,87.49-4.06,4.83-4.83,5.39-5.25,4.2-.28-.7-1.82-5.67-3.43-11.07-17.86-60.73-56.6-125.87-99.53-167.48-36.21-35.09-68.5-50.08-107.8-50.08-25.64,0-44.62,6.23-57.16,18.7-12.96,12.89-15.9,31.52-6.3,39.93,3.5,3.15,4.55,3.01,4.13-.42-.49-3.57,.42-5.04,4.55-7.28,5.25-2.87,11-3.92,17.16-3.29,10.16,1.19,17.93,5.04,25.78,12.89,14.43,14.29,23.26,38.38,23.26,63.11-.07,37.96-17.02,76.14-48.33,109.06l-6.51,6.72-.7-2.87c-2.94-11.42-6.16-22.48-8.9-30.61-19.33-57.02-53.65-113.61-93.02-153.05-28.16-28.3-57.23-45.46-85.81-50.85-10.44-1.89-32.92-2.45-42.38-.98Z"/></g></svg>