<?xml version="1.0" encoding="utf-8"?>
<!-- Generator: Adobe Illustrator 26.4.1, SVG Export Plug-In . SVG Version: 6.00 Build 0)  -->
<svg version="1.1" id="Слой_1" xmlns="http://www.w3.org/2000/svg" xmlns:xlink="http://www.w3.org/1999/xlink" x="0px" y="0px"
	 viewBox="0 0 1000 1000" style="enable-background:new 0 0 1000 1000;" xml:space="preserve">
<style type="text/css">
	.st0{fill:#2F2F2C;}
	.st1{fill:#999999;}
	.st2{opacity:0.59;}
	.st3{fill:#666666;}
	.st4{fill:#9A9A9A;}
	.st5{fill:#B2B2B2;}
	.st6{fill:#CCCCCC;}
	.st7{fill:#8A8C8E;}
	.st8{fill:#FFD80B;}
	.st9{fill:#FFB31C;}
	.st10{fill:#F39322;}
	.st11{fill:#EA6620;}
	.st12{fill:#83533A;}
	.st13{opacity:0.52;}
	.st14{opacity:0.14;fill:#FFF38D;enable-background:new    ;}
	.st15{fill:#503012;}
	.st16{fill:#D35D00;}
	.st17{fill:#834B00;}
	.st18{opacity:0.27;}
	.st19{opacity:0.45;}
	.st20{fill:#87888A;}
	.st21{fill:#7D7E80;}
	.st22{fill:#959698;}
	.st23{fill:#5E5E5E;}
	.st24{fill:#B3B3B3;}
	.st25{fill:#F09600;}
	.st26{fill:#CECECE;}
	.st27{fill:#CBCBCB;}
	.st28{opacity:0.77;fill:#87888A;enable-background:new    ;}
	.st29{opacity:0.59;fill:#9D9EA0;enable-background:new    ;}
	.st30{opacity:0.53;}
	.st31{fill:#9D9EA0;}
	.st32{fill:#A8A9AB;}
	.st33{opacity:0.43;fill:#7D7E80;enable-background:new    ;}
	.st34{opacity:0.47;}
	.st35{fill:#FCCD7D;}
</style>
<g>
	<g id="a">
		<rect y="0" class="st0" width="1000" height="1000"/>
	</g>
	<g id="b">
		<g>
			<g>
				<path class="st1" d="M737.1,706.7c0,0,20-32,37.4-46.7c17.3-14.7,37.4-20,42.7-17.3c5.3,2.7,65.4,40,65.4,65.4v69.4
					C882.6,777.5,721.1,820.2,737.1,706.7L737.1,706.7z"/>
				<g class="st2">
					<path class="st3" d="M847.9,705.4c-24-18.7-36-8-34.7-30.7c0.6-10.4,8.3-18.5,16.3-24.3c-6.3-4.2-11-7-12.3-7.7
						c-5.3-2.7-25.4,2.7-42.7,17.3c-17.3,14.7-37.4,46.7-37.4,46.7c-16,113.4,145.5,70.7,145.5,70.7v-55.8
						C873,722.3,862.1,716.5,847.9,705.4L847.9,705.4z"/>
				</g>
				<g>
					<path class="st4" d="M338.6,698.7c-1.8-15.1-35.6-36.5-57.8-48c-22.2-11.6-31.1-18.7-40-28.5c-0.9-1-2-1.8-3.1-2.6
						c-2.4,1.9-4.9,4.2-7.6,7.1c-29.4,30.7-25.4,54.7-25.4,62.7s29.4,29.4,45.4,46.7c8.7,9.4,18.5,16,30.8,18
						c13.6-3.9,24.8-8.3,30.1-12.7C325.2,729.9,340.3,713.9,338.6,698.7L338.6,698.7z"/>
					<g>
						<path class="st5" d="M250,736.1c-16-17.3-45.4-38.7-45.4-46.7c0-2.6-0.4-7,0-12.7l-1.4-0.6l-17.4,36c0,0-38.7,5.3-64,17.3
							c-10.7,5.1-19.7,6.5-26.5,6.6c2.6,12.1,6.5,21.4,6.5,21.4s74.7,8,106.8,8c20,0,49.5-4.9,72.2-11.3
							C268.6,752.1,258.7,745.5,250,736.1L250,736.1z"/>
						<path class="st6" d="M186,712.1l17.4-36l1.4,0.6c0.9-11.8,5.6-29.4,25.3-50c2.7-2.8,5.2-5.1,7.6-7.1c-10.2-7-29.7-6.3-45,1.7
							c-16.9,8.9-23.1,15.1-43.6,23.1s-34.7,26.7-49.8,48.9c-8,11.8-6.8,29-3.9,42.6c6.9,0,15.9-1.5,26.5-6.6
							C147.3,717.4,186,712.1,186,712.1L186,712.1z"/>
					</g>
					<path class="st7" d="M288.9,750.3c-1.2,0.4-2.3,0.8-3.6,1.1c-1.6,0.5-3.2,1-4.8,1.4c-0.8,0.2-1.6,0.5-2.5,0.7c0,0,0,0,0,0
						c-2.6,0.7-5.3,1.4-8,2.1c-2.4,0.6-4.7,1.1-7.1,1.7c-2,0.4-3.9,0.8-5.9,1.2c-0.5,0.1-1,0.2-1.5,0.3c-0.5,0.1-1,0.2-1.5,0.3
						c0,0,0,0,0,0l2,0.2h0l1.9,0.2c0,0,0,0,0.1,0.1c0.1,0,0.1,0,0.2,0l4.2,0.5h0c0.5-0.1,1-0.2,1.5-0.3c-0.2-0.4-0.3-0.8-0.5-1.2
						c1.9-0.4,3.7-0.8,5.5-1.3c0.8-0.2,1.5-0.4,2.3-0.6c0.9-0.2,1.7-0.4,2.5-0.6h0c0.7-0.2,1.4-0.4,2.2-0.6c0.5-0.1,1-0.3,1.5-0.4
						c1.2-0.3,2.4-0.7,3.6-1c0,0,0,0,0,0c0.6-0.2,1.3-0.4,1.9-0.5c0.4-0.1,0.8-0.2,1.2-0.4c0.1,0,0.1,0,0.2-0.1
						c0.1,0,0.2-0.1,0.3-0.1c1.3-0.4,2.5-0.8,3.7-1.2h0c0,0,0,0,0,0c0.6-0.2,1.1-0.4,1.7-0.6L288.9,750.3z M288.9,750.3
						c-1.2,0.4-2.3,0.8-3.6,1.1c-1.6,0.5-3.2,1-4.8,1.4c-0.8,0.2-1.6,0.5-2.5,0.7c0,0,0,0,0,0c-2.6,0.7-5.3,1.4-8,2.1
						c-2.4,0.6-4.7,1.1-7.1,1.7c-2,0.4-3.9,0.8-5.9,1.2c-0.5,0.1-1,0.2-1.5,0.3c-0.5,0.1-1,0.2-1.5,0.3c0,0,0,0,0,0l2,0.2h0l1.9,0.2
						c0,0,0,0,0.1,0.1c0.1,0,0.1,0,0.2,0l4.2,0.5h0c0.5-0.1,1-0.2,1.5-0.3c-0.2-0.4-0.3-0.8-0.5-1.2c1.9-0.4,3.7-0.8,5.5-1.3
						c0.8-0.2,1.5-0.4,2.3-0.6c0.9-0.2,1.7-0.4,2.5-0.6h0c0.7-0.2,1.4-0.4,2.2-0.6c0.5-0.1,1-0.3,1.5-0.4c1.2-0.3,2.4-0.7,3.6-1
						c0,0,0,0,0,0c0.6-0.2,1.3-0.4,1.9-0.5c0.4-0.1,0.8-0.2,1.2-0.4c0.1,0,0.1,0,0.2-0.1c0.1,0,0.2-0.1,0.3-0.1
						c1.3-0.4,2.5-0.8,3.7-1.2c0,0,0,0,0,0c0.6-0.2,1.1-0.4,1.7-0.6L288.9,750.3z M339.9,698.6c-1.1-9.4-13.4-20.5-26.6-29.8
						c-9.5-6.7-19.4-12.5-26-16.1c-2.6-1.4-4.6-2.5-5.9-3.2c-1-0.5-2-1.1-3-1.6h0c-9.8-5.2-16.8-9.5-22.3-13.5
						c-4.5-3.3-8.1-6.5-11.5-10c-1-1-1.9-2-2.9-3.1c-0.9-1-2-1.9-3.3-2.8c-2.4-1.6-5.2-2.9-8.3-3.7h0c-5-1.4-10.8-1.7-16.7-1.1
						c-7.2,0.7-14.6,2.9-21.3,6.4c-6.1,3.2-10.7,6-15.2,8.8c-3,1.8-5.8,3.5-8.8,5.2c-4.2,2.4-8.8,4.7-14.7,7.2
						c-1.5,0.6-3,1.3-4.7,1.9c-9.7,3.8-18,10-25.6,17.6c-2.2,2.2-4.3,4.5-6.4,7c-6.5,7.5-12.5,16.1-18.4,24.8
						c-1.9,2.8-3.3,5.8-4.2,9.1c-2.8,9-2.3,19.4-1,28.4c0.3,2.2,0.7,4.2,1.2,6.2c0.4,2,0.9,4,1.4,5.8c0.1,0.4,0.2,0.9,0.3,1.3
						c0.1,0.4,0.2,0.9,0.4,1.3c2.2,7.8,4.5,13.2,4.5,13.3c0.2,0.4,0.6,0.7,1.1,0.8c0.2,0,8.6,0.9,20.8,2.1
						c5.7,0.5,12.2,1.2,19.1,1.8c6.7,0.6,13.8,1.2,20.9,1.8c1,0.1,2.1,0.2,3.1,0.2c6.2,0.5,12.2,0.9,18.1,1.2
						c7,0.4,13.6,0.7,19.3,0.9c2,0,3.9,0.1,5.6,0.1l0,0c7,0,15.3-0.6,24.2-1.7c7.4-0.9,15.3-2.2,23.1-3.7c0.5-0.1,1-0.2,1.5-0.3
						c0.5-0.1,1-0.2,1.5-0.3c1.1-0.2,2.2-0.5,3.3-0.7h0c0.5-0.1,1-0.2,1.5-0.3c4.5-1,9-2.1,13.4-3.3c1.4-0.4,2.8-0.8,4.1-1.1
						c3-0.9,6.4-1.9,9.8-3c8-2.7,16.2-6.1,20.9-9.9c0.2-0.1,0.3-0.3,0.5-0.4c0,0,0,0,0,0l0,0c2.1-1.7,4-3.4,5.9-5
						c1.2-1.1,2.4-2.2,3.6-3.3c1.6-1.5,3-3,4.4-4.5c0,0,0,0,0,0v0c0.8-0.9,1.6-1.7,2.3-2.6c2.1-2.5,4-5,5.5-7.4
						c0.4-0.6,0.7-1.1,1-1.7c0.3-0.6,0.6-1.1,0.9-1.7c0.3-0.5,0.6-1.1,0.8-1.6c0.7-1.3,1.2-2.7,1.7-4c0.4-1.2,0.7-2.3,1-3.5
						c0.1-0.6,0.3-1.3,0.3-1.9C340.1,702.7,340.1,700.6,339.9,698.6z M337.1,704.5c-0.1,0.6-0.2,1.2-0.4,1.8c-0.3,1.1-0.6,2.3-1,3.4
						c-0.5,1.4-1.1,2.8-1.8,4.1c-0.3,0.6-0.6,1.2-1,1.8c-0.3,0.5-0.6,1-0.9,1.5c-0.4,0.6-0.8,1.2-1.2,1.8c-1.5,2.1-3.1,4.3-4.9,6.3
						c-0.8,1-1.7,1.9-2.5,2.9v0c-2.5,2.6-5.1,5.2-7.7,7.5c-1.3,1.2-2.6,2.3-3.9,3.4c-0.6,0.5-1.1,0.9-1.7,1.4
						c-3.8,3.1-11.3,6.5-21.3,9.9c-1.2,0.4-2.3,0.8-3.6,1.1c-1.6,0.5-3.2,1-4.8,1.4c-0.8,0.2-1.6,0.5-2.5,0.7c0,0,0,0,0,0
						c-2.6,0.7-5.3,1.4-8,2.1c-2.4,0.6-4.7,1.1-7.1,1.7c-2,0.4-3.9,0.8-5.9,1.2c-0.5,0.1-1,0.2-1.5,0.3c-0.5,0.1-1,0.2-1.5,0.3
						c0,0,0,0,0,0h0c-7.3,1.4-14.5,2.5-21.4,3.4c-8.7,1.1-16.8,1.6-23.8,1.6c-2.5,0-5.3,0-8.2-0.1c-5.8-0.2-12.5-0.5-19.5-1h0
						c-4.9-0.3-9.9-0.7-15-1.1h0c-0.9-0.1-1.7-0.1-2.5-0.2c-8.2-0.6-16.5-1.3-24.1-2c-7.4-0.7-14.2-1.3-19.9-1.9
						c-8.4-0.8-14.5-1.5-16.5-1.7l0,0c-0.7-1.7-2.4-6.2-4.1-12.2c-0.1-0.4-0.2-0.8-0.4-1.3c-0.1-0.4-0.2-0.8-0.3-1.3
						c-0.5-1.7-0.9-3.5-1.3-5.4c0,0,0,0,0,0c0-0.1,0-0.2-0.1-0.2c-0.1-0.6-0.2-1.2-0.4-1.8c-1.8-8.9-2.8-20-0.4-29.6
						c0.9-3.7,2.3-7.2,4.5-10.3c5-7.3,10-14.5,15.3-21c0.7-0.9,1.5-1.8,2.2-2.6c2.1-2.5,4.3-4.9,6.5-7.2
						c7.5-7.7,15.7-13.9,25.2-17.6c1.5-0.6,2.8-1.1,4.2-1.7c0.2-0.1,0.5-0.2,0.7-0.3c5.7-2.4,10.2-4.7,14.3-7
						c3.3-1.9,6.4-3.7,9.5-5.6c4.5-2.7,9.1-5.5,15.1-8.7c5.9-3.1,12.6-5.1,19.1-5.9c6.9-0.9,13.6-0.4,19,1.4
						c1.9,0.7,3.7,1.5,5.2,2.5l0,0c0.1,0.1,0.2,0.1,0.3,0.2c1.2,0.8,2.1,1.6,2.9,2.4c1.2,1.3,2.4,2.6,3.7,3.9c4,4,8.3,7.7,14.2,11.7
						c5.7,3.9,12.8,8.1,22.5,13.1c0,0,0.1,0,0.1,0h0c2,1,4.1,2.1,6.1,3.3c23.8,13.1,49.5,31.2,50.9,43.7
						C337.5,700.7,337.4,702.6,337.1,704.5z M288.9,750.3c-1.2,0.4-2.3,0.8-3.6,1.1c-1.6,0.5-3.2,1-4.8,1.4
						c-0.8,0.2-1.6,0.5-2.5,0.7c0,0,0,0,0,0c-2.6,0.7-5.3,1.4-8,2.1c-2.4,0.6-4.7,1.1-7.1,1.7c-2,0.4-3.9,0.8-5.9,1.2
						c-0.5,0.1-1,0.2-1.5,0.3c-0.5,0.1-1,0.2-1.5,0.3c0,0,0,0,0,0l2,0.2h0l1.9,0.2c0,0,0,0,0.1,0.1c0.1,0,0.1,0,0.2,0l4.2,0.5h0
						c0.5-0.1,1-0.2,1.5-0.3c-0.2-0.4-0.3-0.8-0.5-1.2c1.9-0.4,3.7-0.8,5.5-1.3c0.8-0.2,1.5-0.4,2.3-0.6c0.9-0.2,1.7-0.4,2.5-0.6h0
						c0.7-0.2,1.4-0.4,2.2-0.6c0.5-0.1,1-0.3,1.5-0.4c1.2-0.3,2.4-0.7,3.6-1c0,0,0,0,0,0c0.6-0.2,1.3-0.4,1.9-0.5
						c0.4-0.1,0.8-0.2,1.2-0.4c0.1,0,0.1,0,0.2-0.1c0.1,0,0.2-0.1,0.3-0.1c1.3-0.4,2.5-0.8,3.7-1.2h0c0,0,0,0,0,0
						c0.6-0.2,1.1-0.4,1.7-0.6L288.9,750.3z M288.9,750.3c-1.2,0.4-2.3,0.8-3.6,1.1c-1.6,0.5-3.2,1-4.8,1.4
						c-0.8,0.2-1.6,0.5-2.5,0.7c0,0,0,0,0,0c-2.6,0.7-5.3,1.4-8,2.1c-2.4,0.6-4.7,1.1-7.1,1.7c-2,0.4-3.9,0.8-5.9,1.2
						c-0.5,0.1-1,0.2-1.5,0.3c-0.5,0.1-1,0.2-1.5,0.3c0,0,0,0,0,0l2,0.2h0l1.9,0.2c0,0,0,0,0.1,0.1c0.1,0,0.1,0,0.2,0l4.2,0.5h0
						c0.5-0.1,1-0.2,1.5-0.3c-0.2-0.4-0.3-0.8-0.5-1.2c1.9-0.4,3.7-0.8,5.5-1.3c0.8-0.2,1.5-0.4,2.3-0.6c0.9-0.2,1.7-0.4,2.5-0.6h0
						c0.7-0.2,1.4-0.4,2.2-0.6c0.5-0.1,1-0.3,1.5-0.4c1.2-0.3,2.4-0.7,3.6-1c0,0,0,0,0,0c0.6-0.2,1.3-0.4,1.9-0.5
						c0.4-0.1,0.8-0.2,1.2-0.4c0.1,0,0.1,0,0.2-0.1c0.1,0,0.2-0.1,0.3-0.1c1.3-0.4,2.5-0.8,3.7-1.2h0c0,0,0,0,0,0
						c0.6-0.2,1.1-0.4,1.7-0.6L288.9,750.3z"/>
				</g>
				<g>
					<path class="st8" d="M831.9,545.3c-12,22.7-22.7,20-26.7,20c21.3-28-4-60-21.3-98.8s-2.7-54.7,14.7-61.4
						c-24-4-45.4,21.4-50.7,21.4c33.4-50.7,0-109.4-32-118.8c38.7,45.4-13.3,98.8-1.3,73.4c12-25.4-9.3-54.7-33.4-54.7s-36,4-32-32
						s-2.7-56-20-46.7c-17.3,9.3-49.4,4-36-16c13.3-20,8-33.4,6.7-29.4c-1.2,16.8-32.5,49.6-35.9,53.2c15.9-16.2,21.1-72-22.8-97.3
						c-32.7-18.8-34.5-43.5-33.2-53.9c-7.8,24.9-36,37.7-33.5,33.9c24-22.7,12-69.4,12-84.1c0,29.4-38.7,40-81.4,52
						c-42.7,12-78.7,62.7-45.4,113.4s2.7,68.1-10.7,40c-13.4-28-30.7-34.7-30.7-34.7c30.7,34.7,40,81.4-30.7,96.1
						c-70.7,14.7-56,77.4-50.7,86.7c-42.8-41.6-14.4-79.2,2.6-89.4C115.8,367.9,128.6,479.3,198,521.2c70.7,42.7,88.1,54.7,60,82.7
						c-6.1,6.2-11.5,15.5-16,26.2c-6.5-4-14.7-12.9-14.7-32.9c0-33.4-53.4,94.8-5.3,134.8c1.2,1,2.3,1.8,3.4,2.5
						c3.8,9.3,8.5,28.1,11.3,65.5c5.3,70.7,226.9,89.4,375,89.4s178.8-129.4,160.1-149.5s-37.4-17.3,26.7-66.7
						C862.6,624,838.6,550.6,831.9,545.3L831.9,545.3z"/>
					<path class="st9" d="M507.7,104.4c0.5-1.6,0.9-3.1,1.2-4.8C508.9,98.9,508.1,100.8,507.7,104.4z"/>
					<path class="st9" d="M239.3,318.4c2.2-0.9,4.4-1.8,6.8-2.7C244.3,315.9,241.9,316.9,239.3,318.4z"/>
				</g>
				<path class="st10" d="M326.1,820.2c0,0-84.2-39-63.5-103.5c20.8-64.6,48.8-94,27.4-146c0,0,25.4,8,37.4,45.4
					c12,37.4,73-46.8-21.4-88.1c-64.1-28-56-101.4-16-126.8c-2.7,5.3-16,53.4,44,48c-6.7-2.7-54.7-81.4,12-118.8
					c-6.7,4-18.7,46.7,28,48c46.7,1.3-42.7-73.4,18.7-106.8c61.4-33.4,22.7-78.7,22.7-78.7s50.7,18.7,38.7,80.1
					c-12,61.4-5.3,118.8,21.3,113.4c26.7-5.3,25.4-109.4,77.4-118.8c0,0-46.7,50.7-6.7,98.8c27.5,33,30.7,88.1,0,137.5
					s82.7-85.4,48-137.5c0,0,112.1,113.4,33.4,202.8c-46.7,58.7,72.1,57.4,77.4-5.3s54.7-48,78.7-25.3c-8-4-48,1.3-24,57.4
					c24,56-58.3,121-137.9,169.3C542.3,813.5,326.1,820.2,326.1,820.2L326.1,820.2z"/>
				<path class="st11" d="M360.8,745.4c0,0,1.3-48,37.4-72.1s16-68.1-29.4-77.4s-25.4-45.4-8-54.7c17.3-9.3-117.4-70.7-5.3-170.8
					c-6.7,4-13.3,37.4,14.7,49.4c1.3-5.3-4-38.7,38.7-53.4c28-14.7-18.7-29.4,10.7-49.4c29.4-20,24-49.4,24-49.4s13.3,26.7,1.3,46.7
					c-12,20,12,40,36,52c24,12,41.4,76.1-5.3,112.1c13.3-1.3,36-9.3,44-44c4-10.7-2.7,20,10.7,49.4c13.3,29.4,4,53.4-41.4,74.7
					s12,37.4,42.7,0c14.7-17.3,30.7-8,30.7-8s-33.4,5.3-33.4,44s-8,112.1-64,118.8c-56,6.7,116.1,5.3,121.4-61.4
					c5.3-66.7-16-114.8,17.3-116.1c4-4-20,5.3-8,33.4c12,28,65.4,16,38.7-52c-26.7-68.1-9.3-104.1-9.3-104.1s5.3,56.1,18.7,62.7
					c13.3,6.7,13.3-10.7,6.7-18.7c-6.7-8,73.4,26.7,58.7,113.4c0,5.3,21.3,2.7,12-26.7c9.3,1.3,49.4,81.4-24,118.8
					s-112.1,24-77.4,57.4c34.7,33.4,44,5.3,89.4-1.3c45.4-6.7,44,89.4-14.7,124.1c-58.7,34.7-158.8,78.7-257.5,48
					s-133.5-82.7-117.4-112.1C335.5,749.4,360.8,745.4,360.8,745.4L360.8,745.4z"/>
				<g>
					<path class="st12" d="M246.4,719.2c0,0,45.3,2,68.9,6.8c23.5,4.9,7.4,7.3,7.4,7.3L284.7,746l5.9,6c0,0,25.8-15.6,46.5-14.2
						c20.7,1.4,55.3,6.2,74.3,10.9c19,4.7,63.9,8.4,77.1,14.3c13.2,6,8.4-8,8.4-8s8.4-8,1.2-12.5s-24.2-5.9-29.1-4.4
						c-5,1.5-33.2-2.7-51.4-7.1c-18.1-4.5-43.9-19-48-20.9c-4.1-1.9-42.3-6.7-48.4-8.2c-6-1.5-43.6-5.2-54-7.8
						c-10.4-2.5-38.9-5.9-38.9-5.9l3.7,14.7c0,0,56.6,8.4,72.6,10.5c16,2.1,60.2,8.4,60.2,8.4s-32.4-2.5-52-4.5
						S248.1,716,246.4,719.2L246.4,719.2z"/>
					<g class="st13">
						<path class="st12" d="M326.4,729.2c3.3-1,6.2-3.2-10.2-6.7c-14.8-3-38.1-5-53.5-6c-9,0.5-15.6,1.4-16.2,2.6
							c0,0,45.3,2,68.9,6.8C321.2,727.3,324.6,728.3,326.4,729.2L326.4,729.2z"/>
						<path class="st12" d="M313.7,713.8c19.6,2.1,52,4.5,52,4.5s-44.3-6.3-60.2-8.4c-16-2.1-72.5-10.5-72.5-10.5l-2.8-11
							c-1.1-0.1-1.8-0.2-1.8-0.2l3.7,14.7c0,0,50.3,7.5,69.4,10.1C306.1,713.1,310.3,713.4,313.7,713.8L313.7,713.8z"/>
						<path class="st12" d="M497.7,751.6c0,0,0.3,0.8,0.5,1.9c1.2-1.5,2.8-4,2.7-6.4C499.8,749.6,497.7,751.6,497.7,751.6
							L497.7,751.6z"/>
						<path class="st12" d="M489.3,759.6c-13.2-6-58.1-9.7-77.1-14.3c-19-4.7-53.5-9.5-74.3-10.9c-20.7-1.4-46.5,14.2-46.5,14.2
							l-3.5-3.6l-3.2,1.1l5.9,6c0,0,25.8-15.6,46.5-14.2c20.7,1.4,55.3,6.2,74.3,10.9c19,4.7,63.9,8.4,77.1,14.3
							c7.8,3.5,9.3,0.1,9.2-3.3C496.6,761.3,494.2,761.8,489.3,759.6L489.3,759.6z"/>
					</g>
					<path class="st14" d="M272.5,696.8c0,0,24.1,2.7,32.9,4s29.4,5.4,39.1,6.8c9.7,1.5,12.1,6.6-4.8,2.9c-17-3.7-34.7-6.2-52.6-7.9
						C269.2,701,259.5,699.5,272.5,696.8L272.5,696.8z"/>
					<path class="st14" d="M388.1,722.4c0,0,4.8,1.2,15.5,5.7c10.8,4.5,20.2,9.1,39.1,10.5s25.9,2.7,25.9,2.7s10.7,8.6-25.7,1.9
						c-36.4-6.7-52.9-10.2-64.2-12.6c-11.3-2.3-28.7-4.3-35.2-5.9c-6.5-1.6,12.1-2.5,27.8,0.4c15.8,3,11.5-2.2,8.7-3.8
						C377.3,719.7,377.3,716.1,388.1,722.4L388.1,722.4z"/>
				</g>
				<path class="st15" d="M254.1,813.5c0,0,20.5-26.7,31.1-32c10.7-5.3,50.7-16,58.7-21.3c8-5.3,15.1-5.3,37.4-3.6
					c22.2,1.8,51.6,6.2,62.3-1.8c10.7-8,55.2-11.6,64.9-8c9.8,3.6,43.6,6.2,58.7,8.9c15.1,2.7,38.3-10.7,58.7-4.5
					c20.5,6.2,37.4,5.3,45.4,11.6c8,6.2,15.1,15.1,22.2,23.1s21.3,38.3,21.3,38.3s-29.4,35.6-37.4,39.1s-32,25.8-67.6,25.8
					s-58.7,0.9-111.2,0.9s-105,8-152.1-11.6S237.2,834.9,254.1,813.5L254.1,813.5z"/>
				<path class="st16" d="M402.8,784.1c0,0,3.3-1.3,18,0.7s15.3,2,8,2S403.5,787.5,402.8,784.1L402.8,784.1z"/>
				<path class="st16" d="M443.5,815.5c0,0,8-0.7,13.3-0.7s23.3-2,17.3,0c-6,2-4,5.3-12.7,7.3c-8.7,2-15.3,6-12,2
					c3.3-4,16-3.3,3.3-4C440.2,819.5,438.9,816.8,443.5,815.5L443.5,815.5z"/>
				<path class="st16" d="M491.6,824.2c0,0,5.3-6.7,15.3-6.7h17.3c0,0-7.3,4-13.3,5.3c-6,1.3-25.4,3.3-14,3.3s11.3,4-2.7,4.7
					s-16.7,0.7-12-2S486.9,826.9,491.6,824.2L491.6,824.2z"/>
				<path class="st16" d="M474.9,762.1c0,0-18,1.3-14.7,4c3.3,2.7,4.7,4,10,2.7s11.3-7.3,13.3-7.3S483.6,762.1,474.9,762.1
					L474.9,762.1z"/>
				<path class="st16" d="M567,785.5c0,0,6.7-1.3,12.7-1.3h14.7c6,0,21.3-2,15.3,0c-6,2-14.7,4.7-21.3,4.7s-18.7,0.7-20.7,0
					S562.3,784.8,567,785.5L567,785.5z"/>
				<path class="st16" d="M558.3,807.5c0,0,3.8,0.9,14.2,2.4c10.5,1.6,11.8,1.6,19.8,1.6s20.7-3.3,20.7-3.3s-18.7-2-23.3-2
					s8-2,22.7-2.7s33.4-2.7,19.3-2.7s-17.3-1.3-34,0c-16.7,1.3-18,0.7-36.7,2.7C542.3,805.5,534.3,808.8,558.3,807.5L558.3,807.5z"
					/>
				<g>
					<path class="st12" d="M413.3,768.1c0,0,44.5-8.9,68.5-9.8c24-0.9,8.9,5.3,8.9,5.3L456.9,785l7.1,4.5c0,0,21.3-21.3,41.8-24.9
						s55.2-7.1,74.7-7.1s64.1-7.1,78.3-4.5c14.2,2.7,6.2-9.8,6.2-9.8s6.2-9.8-1.8-12.5c-8-2.7-24.9,0-29.4,2.7s-32.9,5.3-51.6,5.3
						s-47.2-8-51.6-8.9c-4.5-0.9-42.7,3.6-48.9,3.6s-43.6,5.3-54.3,5.3s-39.1,3.6-39.1,3.6l7.1,13.3c0,0,56.9-5.3,73-7.1
						c16-1.8,60.5-6.2,60.5-6.2s-32,5.3-51.6,8C457.8,753,414.2,764.6,413.3,768.1L413.3,768.1z"/>
					<g class="st13">
						<path class="st12" d="M493.3,758.8c2.9-1.8,5.3-4.6-11.5-4c-15.1,0.6-38.2,4.3-53.3,7c-8.6,2.7-14.8,5.1-15.2,6.4
							c0,0,44.5-8.9,68.5-9.8C487.8,758.1,491.4,758.3,493.3,758.8L493.3,758.8z"/>
						<path class="st12" d="M477.3,746.8c19.6-2.7,51.6-8,51.6-8s-44.5,4.5-60.5,6.2c-16,1.8-73,7.1-73,7.1l-5.3-10
							c-1.1,0.1-1.8,0.2-1.8,0.2l7.1,13.3c0,0,50.6-4.7,69.8-6.8C469.8,748,473.9,747.3,477.3,746.8L477.3,746.8z"/>
						<path class="st12" d="M665.1,739.7c0,0,0.5,0.7,1,1.8c0.8-1.8,1.8-4.5,1.1-6.9C666.6,737.3,665.1,739.7,665.1,739.7
							L665.1,739.7z"/>
						<path class="st12" d="M658.8,749.5c-14.2-2.7-58.7,4.5-78.3,4.5s-54.3,3.6-74.7,7.1c-20.5,3.6-41.8,24.9-41.8,24.9l-4.3-2.7
							l-2.8,1.8l7.1,4.5c0,0,21.3-21.3,41.8-24.9s55.2-7.1,74.7-7.1s64.1-7.1,78.3-4.5c8.4,1.6,9-2.1,8.2-5.4
							C666.3,749.4,664.1,750.4,658.8,749.5L658.8,749.5z"/>
					</g>
					<path class="st14" d="M433.3,740.1c0,0,24-3.1,32.9-4c8.9-0.9,29.8-1.8,39.6-2.7c9.8-0.9,13.3,3.6-4,4
						c-17.3,0.5-35.1,2.2-52.9,4.9C431.1,745,421.3,745.9,433.3,740.1L433.3,740.1z"/>
					<path class="st14" d="M551.6,737.4c0,0,4.9,0,16.5,1.8s21.8,4,40.5,0.9s25.8-3.5,25.8-3.5s12.5,5.8-24.5,8
						c-36.9,2.2-53.8,2.7-65.4,3.1s-28.9,2.7-35.6,2.7s11.1-5.3,27.1-6.2c16-0.9,10.7-4.9,7.6-5.8
						C540.5,737.4,539.6,733.9,551.6,737.4L551.6,737.4z"/>
				</g>
				<g>
					<g>
						<polygon class="st17" points="249.4,745.5 315.3,756.3 361.3,760.8 445.1,758.8 445.2,765 425.2,766.8 459.2,774.1 
							511.8,776.8 510.6,792.1 368.5,774.4 273.3,761.4 229.1,756.3 230,742.9 						"/>
						<g class="st18">
							<polygon class="st17" points="370.1,769.2 274.9,756.2 230.7,751.1 231.2,743.1 230,742.9 229.1,756.3 273.3,761.4 
								368.5,774.4 510.6,792.1 511,786.7 							"/>
							<polygon class="st17" points="443.3,765.2 445.2,765 445.1,760 426.8,761.6 							"/>
						</g>
					</g>
					<path class="st14" d="M377.2,764.3c0,0,24,1.9,33.5,1.2s12.9,4.5,21.4,6.3c8.5,1.8-11.3-0.9-22.6-2.4
						C398.3,767.9,346.8,765.6,377.2,764.3z"/>
				</g>
				<g>
					<g>
						<polygon class="st17" points="519.9,778 585.5,765.7 630.4,754.2 708.4,723.7 710.6,729.6 692.4,738.1 726.9,733.3 
							777.3,717.9 781.4,732.6 641.7,764.5 547.8,784.8 504.5,795 500.8,782.2 						"/>
						<g class="st18">
							<polygon class="st17" points="641.4,759.1 547.5,779.4 504.2,789.6 502,781.9 500.8,782.2 504.5,795 547.8,784.8 
								641.7,764.5 781.4,732.6 779.9,727.5 							"/>
							<polygon class="st17" points="708.9,730.4 710.6,729.6 708.9,724.9 692.2,732.7 							"/>
						</g>
					</g>
					<path class="st14" d="M646.5,752.1c0,0,23.2-6.4,31.9-10.3c8.7-3.9,13.6-0.2,22.2-1.4s-10.9,3-22,5.4
						C667.5,748.2,618.3,763.6,646.5,752.1L646.5,752.1z"/>
				</g>
				<g>
					<g>
						<g>
							<polygon class="st17" points="369.7,746.1 436.3,741.5 482.2,735.5 563.4,715.4 564.8,721.1 545.7,727 580.5,726.3 
								632.4,717.2 634.6,731.2 492.1,746.2 396.5,755.2 352.3,760.2 350.2,747.9 							"/>
							<g class="st18">
								<polygon class="st17" points="492.6,741.2 396.9,750.2 352.7,755.2 351.5,747.8 350.2,747.9 352.3,760.2 396.5,755.2 
									492.1,746.2 634.6,731.2 633.8,726.3 								"/>
								<polygon class="st17" points="563.1,721.6 564.8,721.1 563.7,716.6 546.2,722 								"/>
							</g>
						</g>
						<path class="st14" d="M498.5,735.2c0,0,23.8-3.5,32.9-6.2c9.1-2.7,13.5,1.2,22.2,1c8.7-0.2-11.2,1.7-22.5,2.7
							C519.8,733.8,469,743,498.5,735.2L498.5,735.2z"/>
					</g>
					<polygon class="st14" points="632.4,717.2 580.5,726.3 545.7,727 564.8,721.1 563.7,716.6 563.7,716.6 563.4,715.4 
						482.2,735.5 436.3,741.5 369.7,746.1 350.2,747.9 352.3,760.2 396.5,755.2 492.1,746.2 634.6,731.2 					"/>
				</g>
				<g>
					<path class="st12" d="M262.1,801.9c0,0,32.9-20.5,49.8-35.6c16.9-15.1,37.4-30.2,47.2-40s7.1-16.9,7.1-16.9s-6.2-19.6-5.3-29.4
						c0.9-9.8,3.6-25.8,3.6-25.8l8,0.9c0,0-1.8,3.6-1.8,20.5s0,30.2,5.3,31.1s11.6-9.8,11.6-9.8s16-16,21.3-20.5
						c5.3-4.5,32.9-14.2,32.9-14.2s4.5,4.4,4.5,8.9s-18.7,9.8-22.2,10.7c-3.6,0.9-32,16.9-38.2,31.1c-6.2,14.2-36.5,51.6-47.1,59.6
						c-10.7,8-42.7,47.2-55.2,55.2C271,835.7,262.1,801.9,262.1,801.9L262.1,801.9z"/>
					<g class="st19">
						<path class="st12" d="M367.4,654.6c-0.4,3.1-0.8,8-0.8,15.7c0,16.9,0,30.2,5.3,31.1c0,0,0.1,0,0.1,0
							c-1.4-5.6-1.5-14.9-1.5-25.8c0-16.9,1.8-20.5,1.8-20.5L367.4,654.6L367.4,654.6z"/>
						<path class="st12" d="M441.8,662.3c0,0-0.1,0-0.3,0.1c0.5,1.1,0.8,2.3,0.8,3.4c0,4.5-18.7,9.8-22.2,10.7
							c-3.6,0.9-32,16.9-38.2,31.1c-6.2,14.2-36.5,51.6-47.1,59.6c-10.7,8-42.7,47.2-55.2,55.2c-3.6,2.3-7,1-9.9-1.9
							c3.6,6.2,8.4,10.7,13.9,7.2c12.5-8,44.5-47.2,55.2-55.2c10.7-8,40.9-45.4,47.1-59.6s34.7-30.2,38.2-31.1
							c3.6-0.9,22.2-6.2,22.2-10.7S441.8,662.3,441.8,662.3L441.8,662.3z"/>
					</g>
					<path class="st14" d="M289.4,787.5c0,0,31.4-24.7,37.4-30c6-5.3,30.7-25.3,34-26.7c3.3-1.3-6.7,8.7-18.7,20s-10,11.3-20,20.7
						c-10,9.3-21.4,18-29.4,20S285.4,792.2,289.4,787.5z"/>
				</g>
				<g>
					<path class="st12" d="M556.3,814c0,0,38.7,1.4,61.2-1.7c22.5-3.1,47.9-4.2,61.5-6.9c13.6-2.7,15.3-10,15.3-10s5.8-19.7,12-27.3
						c6.2-7.6,17.4-19.4,17.4-19.4l6.2,5.2c0,0-3.5,2-12.9,16c-9.4,14-16.9,25.1-13,28.8c3.9,3.7,15.1-1.7,15.1-1.7s22.2-4.3,29.1-5
						c6.9-0.7,35.2,6.6,35.2,6.6s1.2,6.2-1.3,9.9c-2.5,3.7-21-2.3-24.4-3.6s-36-3.9-49.1,4.5c-13.1,8.3-59.1,22.4-72.4,23.1
						c-13.3,0.7-61.8,15.2-76.6,14.9C544.8,847,556.3,814,556.3,814L556.3,814z"/>
					<g class="st19">
						<path class="st12" d="M726,750.7c-2,2.3-5.1,6.2-9.4,12.6c-9.5,14-16.9,25.1-13,28.8c0,0,0.1,0,0.1,0
							c1.9-5.4,7.1-13.2,13.2-22.2c9.4-14,12.9-16,12.9-16L726,750.7z"/>
						<path class="st12" d="M783.4,798.6c0,0-0.1,0-0.3-0.1c-0.2,1.2-0.6,2.3-1.3,3.3c-2.5,3.7-21-2.3-24.4-3.6
							c-3.5-1.3-36-3.9-49.1,4.5s-59.1,22.4-72.4,23.1c-13.3,0.7-61.8,15.2-76.6,14.9c-4.3-0.1-6.4-3-7.1-7.1
							c-0.4,7.2,1,13.6,7.5,13.7c14.8,0.3,63.2-14.3,76.6-14.9c13.3-0.7,59.3-14.8,72.4-23.1c13.1-8.3,45.7-5.7,49.1-4.5
							c3.5,1.2,21.9,7.3,24.4,3.6C784.6,804.8,783.4,798.6,783.4,798.6L783.4,798.6z"/>
					</g>
					<path class="st14" d="M587.1,817.3c0,0,39.8-3,47.8-4c8-1.1,39.6-3.9,43.1-3.1c3.5,0.8-10.4,3.5-26.7,6.2s-14.6,3.8-28.2,6
						c-13.5,2.2-27.8,3-35.5,0.2C579.9,819.7,581.2,819,587.1,817.3L587.1,817.3z"/>
				</g>
				<g>
					<path class="st12" d="M405.3,820.6c0,0,44.5-8.9,68.5-9.8s8.9,5.3,8.9,5.3l-33.8,21.3l7.1,4.4c0,0,21.3-21.3,41.8-24.9
						c20.5-3.6,55.2-7.1,74.7-7.1s64.1-7.1,78.3-4.5s6.2-9.8,6.2-9.8s6.2-9.8-1.8-12.5c-8-2.7-24.9,0-29.4,2.7s-32.9,5.3-51.6,5.3
						s-47.2-8-51.6-8.9c-4.5-0.9-42.7,3.6-48.9,3.6s-43.6,5.3-54.3,5.3s-39.1,3.6-39.1,3.6l7.1,13.3c0,0,56.9-5.3,73-7.1
						c16-1.8,60.5-6.2,60.5-6.2s-32,5.3-51.6,8C449.8,805.5,406.2,817.1,405.3,820.6L405.3,820.6z"/>
					<g class="st13">
						<path class="st12" d="M485.3,811.3c2.9-1.8,5.3-4.6-11.5-4c-15.1,0.6-38.2,4.3-53.3,7c-8.6,2.7-14.8,5.1-15.2,6.4
							c0,0,44.5-8.9,68.5-9.8C479.8,810.6,483.3,810.8,485.3,811.3L485.3,811.3z"/>
						<path class="st12" d="M469.3,799.3c19.6-2.7,51.6-8,51.6-8s-44.5,4.5-60.5,6.2c-16,1.8-73,7.1-73,7.1l-5.3-10
							c-1.1,0.1-1.8,0.2-1.8,0.2l7.1,13.3c0,0,50.6-4.7,69.8-6.8C461.8,800.5,466,799.7,469.3,799.3L469.3,799.3z"/>
						<path class="st12" d="M657.1,792.2c0,0,0.5,0.7,1,1.8c0.8-1.8,1.8-4.5,1.1-6.9C658.6,789.8,657.1,792.2,657.1,792.2z"/>
						<path class="st12" d="M650.8,801.9c-14.2-2.7-58.7,4.5-78.3,4.5s-54.3,3.6-74.7,7.1c-20.5,3.6-41.8,24.9-41.8,24.9l-4.3-2.7
							l-2.8,1.8l7.1,4.4c0,0,21.3-21.3,41.8-24.9c20.5-3.6,55.2-7.1,74.7-7.1s64.1-7.1,78.3-4.5c8.4,1.6,9-2.1,8.2-5.4
							C658.3,801.8,656.1,802.9,650.8,801.9L650.8,801.9z"/>
					</g>
					<path class="st14" d="M425.3,792.6c0,0,24-3.1,32.9-4c8.9-0.9,29.8-1.8,39.6-2.7c9.8-0.9,13.3,3.5-4,4
						c-17.3,0.5-35.1,2.2-52.9,4.9C423.1,797.5,413.3,798.4,425.3,792.6L425.3,792.6z"/>
					<path class="st14" d="M543.6,789.9c0,0,4.9,0,16.5,1.8s21.8,4,40.5,0.9c18.7-3.1,25.8-3.5,25.8-3.5s12.5,5.8-24.5,8
						c-36.9,2.2-53.8,2.7-65.4,3.1s-28.9,2.7-35.6,2.7s11.1-5.3,27.1-6.2c16-0.9,10.7-4.9,7.6-5.8S531.6,786.4,543.6,789.9z"/>
				</g>
				<g>
					<path class="st17" d="M752.2,786.6c0,0-44.5-6.4-68.5-7s-8.9,3.8-8.9,3.8l33.8,15.3l-7.1,3.2c0,0-21.4-15.3-41.8-17.9
						S604.6,779,585,779s-64.1-5.1-78.3-3.2c-14.2,1.9-6.2-7-6.2-7s-6.2-7,1.8-8.9s24.9,0,29.4,1.9c4.5,1.9,32.9,3.8,51.6,3.8
						s47.2-5.7,51.6-6.4c4.5-0.6,42.7,2.5,48.9,2.5s43.6,3.8,54.3,3.8s39.1,2.5,39.1,2.5l-7.1,9.6c0,0-56.9-3.8-73-5.1
						c-16-1.3-60.5-4.5-60.5-4.5s32,3.8,51.6,5.8C707.8,775.8,751.4,784.1,752.2,786.6L752.2,786.6z"/>
					<g class="st13">
						<path class="st12" d="M672.2,780c-2.9-1.3-5.3-3.3,11.5-2.9c15.1,0.4,38.2,3.1,53.3,5c8.6,1.9,14.8,3.6,15.2,4.6
							c0,0-44.5-6.4-68.5-7C677.8,779.5,674.2,779.6,672.2,780z"/>
						<path class="st12" d="M688.2,771.3c-19.6-1.9-51.6-5.7-51.6-5.7s44.5,3.2,60.5,4.5c16,1.3,73,5.1,73,5.1l5.3-7.2
							c1.1,0.1,1.8,0.2,1.8,0.2l-7.1,9.6c0,0-50.6-3.4-69.8-4.9C695.8,772.2,691.6,771.7,688.2,771.3L688.2,771.3z"/>
						<path class="st12" d="M500.5,766.2c0,0-0.5,0.5-1,1.3c-0.8-1.3-1.8-3.2-1.1-4.9C499,764.5,500.5,766.2,500.5,766.2z"/>
						<path class="st12" d="M506.7,773.2c14.2-1.9,58.7,3.2,78.3,3.2s54.3,2.6,74.7,5.1c20.5,2.6,41.8,17.9,41.8,17.9l4.3-1.9
							l2.8,1.3l-7.1,3.2c0,0-21.4-15.3-41.8-17.9S604.6,779,585,779s-64.1-5.1-78.3-3.2c-8.4,1.1-9-1.5-8.2-3.9
							C499.3,773.2,501.5,773.9,506.7,773.2L506.7,773.2z"/>
					</g>
					<path class="st14" d="M732.2,766.5c0,0-24-2.2-32.9-2.9c-8.9-0.6-29.8-1.3-39.6-1.9c-9.8-0.6-13.3,2.6,4,2.9
						c17.3,0.3,35.1,1.6,52.9,3.5C734.5,770,744.3,770.7,732.2,766.5L732.2,766.5z"/>
					<path class="st14" d="M613.9,764.6c0,0-4.9,0-16.5,1.3c-11.6,1.3-21.8,2.9-40.5,0.6c-18.7-2.2-25.8-2.5-25.8-2.5
						s-12.5,4.2,24.5,5.7c36.9,1.6,53.8,1.9,65.4,2.2s28.9,1.9,35.6,1.9s-11.1-3.8-27.1-4.5c-16-0.6-10.7-3.5-7.6-4.2
						C625,764.6,625.9,762.1,613.9,764.6L613.9,764.6z"/>
				</g>
				<g>
					<path class="st17" d="M633,859.6c0,0-44.5-6.4-68.5-7c-24-0.6-8.9,3.8-8.9,3.8l33.8,15.3l-7.1,3.2c0,0-21.3-15.3-41.8-17.9
						c-20.5-2.5-55.2-5.1-74.7-5.1s-64.1-5.1-78.3-3.2c-14.2,1.9-6.2-7-6.2-7s-6.2-7,1.8-8.9s24.9,0,29.4,1.9
						c4.5,1.9,32.9,3.8,51.6,3.8s47.2-5.7,51.6-6.4c4.5-0.6,42.7,2.5,48.9,2.5s43.6,3.8,54.3,3.8s39.1,2.5,39.1,2.5l-7.1,9.6
						c0,0-56.9-3.8-73-5.1c-16-1.3-60.5-4.5-60.5-4.5s32,3.8,51.6,5.7C588.6,848.7,632.2,857,633,859.6L633,859.6z"/>
					<g class="st13">
						<path class="st12" d="M553,852.9c-2.9-1.3-5.3-3.3,11.5-2.9c15.1,0.4,38.2,3.1,53.3,5c8.6,1.9,14.8,3.6,15.2,4.6
							c0,0-44.5-6.4-68.5-7C558.5,852.4,555,852.6,553,852.9L553,852.9z"/>
						<path class="st12" d="M569,844.3c-19.6-1.9-51.6-5.8-51.6-5.8s44.5,3.2,60.5,4.5c16,1.3,73,5.1,73,5.1l5.3-7.2
							c1.1,0.1,1.8,0.2,1.8,0.2l-7.1,9.6c0,0-50.6-3.4-69.8-4.9C576.5,845.2,572.4,844.6,569,844.3L569,844.3z"/>
						<path class="st12" d="M381.3,839.2c0,0-0.5,0.5-1,1.3c-0.8-1.3-1.8-3.2-1.1-4.9C379.8,837.5,381.3,839.2,381.3,839.2z"/>
						<path class="st12" d="M387.5,846.2c14.2-1.9,58.7,3.2,78.3,3.2s54.3,2.6,74.7,5.1c20.5,2.6,41.8,17.9,41.8,17.9l4.3-1.9
							l2.8,1.3l-7.1,3.2c0,0-21.3-15.3-41.8-17.9c-20.5-2.5-55.2-5.1-74.7-5.1s-64.1-5.1-78.3-3.2c-8.4,1.1-9-1.5-8.2-3.9
							C380,846.1,382.3,846.9,387.5,846.2L387.5,846.2z"/>
					</g>
					<path class="st14" d="M613,839.5c0,0-24-2.2-32.9-2.9c-8.9-0.6-29.8-1.3-39.6-1.9c-9.8-0.6-13.3,2.6,4,2.9
						c17.3,0.3,35.1,1.6,52.9,3.5C615.3,843,625,843.6,613,839.5L613,839.5z"/>
					<path class="st14" d="M494.7,837.6c0,0-4.9,0-16.5,1.3c-11.6,1.3-21.8,2.9-40.5,0.6c-18.7-2.2-25.8-2.6-25.8-2.6
						s-12.5,4.2,24.5,5.7c36.9,1.6,53.8,1.9,65.4,2.2s28.9,1.9,35.6,1.9s-11.1-3.8-27.1-4.5c-16-0.6-10.7-3.5-7.6-4.2
						C505.8,837.6,506.7,835,494.7,837.6L494.7,837.6z"/>
				</g>
				<g>
					<g>
						<path class="st20" d="M93.9,814.8c0,0,28.4,0,40.3,5.1l1-1.1c0,0,20-26.7,29.4-61.4c8.7-32.3,26.7-25.3,25.8-36
							c-9.2,0.7-19.1,1.9-28.9,3.1c-28.5,3.6-51.6,16.9-76.5,21.3c-24.9,4.5-53.4,31.1-52.5,62.3c0,0,0.3,3,0.6,7.3
							C71,793,93.9,814.8,93.9,814.8L93.9,814.8z"/>
						<path class="st21" d="M139.3,824.2c-0.5-1.7-2.4-3.1-5-4.3c-11.9-5.1-40.3-5.1-40.3-5.1S71,793,33.1,815.5
							c0.3,5.9,0.5,14.1-0.6,20.3c-1.8,10.7,5.3,9.8,17.8,26.7c12.5,16.9,17.8,18.7,48.9,21.3c27.4,2.3,34.1,5.4,54.7,12.1
							c1.9-2.2,3-4.8,2.7-7.7C155.3,874.9,141.9,833.5,139.3,824.2L139.3,824.2z"/>
					</g>
					<g>
						<path class="st21" d="M267.4,806.8c-12,2.7-32,13.3-50.7,32S178,904.3,166,876.2c-12-28-18.7-54.7-18.7-54.7
							s5.3-14.7,13.4-34.7c4.6-11.6,5.7-25.4,5.8-35c-0.6,1.7-1.2,3.6-1.8,5.7c-9.3,34.7-29.4,61.4-29.4,61.4l-1,1.1
							c2.7,1.1,4.5,2.5,5,4.3c2.7,9.3,16,50.7,17.4,64c0.3,2.9-0.8,5.4-2.7,7.7c2.8,0.9,5.9,1.9,9.4,3c28.5,8.9,45.4,15.1,60.5,4.5
							c15.1-10.7,63.2-78.3,63.2-78.3s3.8-16-4.1-32.8C280.4,800.8,275.4,805.1,267.4,806.8L267.4,806.8z"/>
						<path class="st22" d="M228.3,727.2c-5.8-6.4-20.4-7.1-37.8-5.8c0.8,10.1-14.9,4.5-24.1,30.4c-0.1,9.6-1.1,23.4-5.8,35
							c-8,20-13.4,34.7-13.4,34.7s6.7,26.7,18.7,54.7c12,28,32-18.7,50.7-37.4c18.7-18.7,38.7-29.4,50.7-32c8-1.8,13-6,15.5-14.6
							c-2.1-4.5-5.1-9.1-9.2-13.5C254.1,758.3,237.2,737,228.3,727.2L228.3,727.2z"/>
					</g>
				</g>
				<path class="st23" d="M287.8,811.9c0-0.4,0-0.8-0.1-1.2c0.4-0.2,0.8-0.4,1.3-0.6c0-0.5-0.1-0.9-0.1-1.4c0-0.5-0.1-0.9-0.2-1.4
					c-0.7-4.8-2-10.1-4.6-15.6c-0.5-1.1-1-2.1-1.6-3.1c-0.1-0.2-0.2-0.3-0.2-0.5c0,0,0,0,0,0c-0.6-1.1-1.3-2.2-2-3.2
					c-1.6-2.5-3.5-4.8-5.6-7c-1-1.1-2.1-2.2-3.1-3.3l0,0c-4.4-4.7-8.6-9.3-12.6-13.8c-0.3-0.4-0.7-0.8-1-1.2c0,0,0,0-0.1-0.1
					l-1.9-0.2h0l-2-0.2c0.3,0.4,0.6,0.7,1,1.1c0.3,0.4,0.7,0.8,1,1.1c5.2,6,10.9,12.2,16.8,18.3c2.1,2.2,3.9,4.4,5.5,6.9
					c0.8,1.1,1.5,2.3,2.1,3.5c0.5,0.9,1,1.8,1.4,2.8c0.2,0.4,0.4,0.9,0.6,1.3l0,0c2.2,5,3.3,10,3.9,14.4c0.1,0.5,0.1,0.9,0.1,1.4v0
					c0.1,0.5,0.1,0.9,0.1,1.4c0.1,1.9,0.2,3.7,0.1,5.3c0.4-0.4,0.9-0.8,1.4-1.3c0-0.7,0-1.5-0.1-2.2
					C287.8,812.7,287.8,812.3,287.8,811.9z M287.8,811.9c0-0.4,0-0.8-0.1-1.2c0.4-0.2,0.8-0.4,1.3-0.6c0-0.5-0.1-0.9-0.1-1.4
					c0-0.5-0.1-0.9-0.2-1.4c-0.7-4.8-2-10.1-4.6-15.6c-0.5-1.1-1-2.1-1.6-3.1c-0.1-0.2-0.2-0.3-0.2-0.5c0,0,0,0,0,0
					c-0.6-1.1-1.3-2.2-2-3.2c-1.6-2.5-3.5-4.8-5.6-7c-1-1.1-2.1-2.2-3.1-3.3l0,0c-4.4-4.7-8.6-9.3-12.6-13.8c-0.3-0.4-0.7-0.8-1-1.2
					c0,0,0,0-0.1-0.1l-1.9-0.2h0l-2-0.2c0.3,0.4,0.6,0.7,1,1.1c0.3,0.4,0.7,0.8,1,1.1c5.2,6,10.9,12.2,16.8,18.3
					c2.1,2.2,3.9,4.4,5.5,6.9c0.8,1.1,1.5,2.3,2.1,3.5c0.5,0.9,1,1.8,1.4,2.8c0.2,0.4,0.4,0.9,0.6,1.3l0,0c2.2,5,3.3,10,3.9,14.4
					c0.1,0.5,0.1,0.9,0.1,1.4v0c0.1,0.5,0.1,0.9,0.1,1.4c0.1,1.9,0.2,3.7,0.1,5.3c0.4-0.4,0.9-0.8,1.4-1.3c0-0.7,0-1.5-0.1-2.2
					C287.8,812.7,287.8,812.3,287.8,811.9z M289.2,814.1L289.2,814.1c0-1.3-0.1-2.6-0.2-4c0-0.5-0.1-0.9-0.1-1.4
					c0-0.5-0.1-0.9-0.2-1.4c-0.7-4.8-2-10.1-4.6-15.6c-0.5-1.1-1-2.1-1.6-3.1c-0.1-0.2-0.2-0.3-0.2-0.5c0,0,0,0,0,0
					c-0.6-1.1-1.3-2.2-2-3.2c-1.6-2.5-3.5-4.8-5.6-7c-1-1.1-2.1-2.2-3.1-3.3l0,0c-4.4-4.7-8.6-9.3-12.6-13.8c-0.3-0.4-0.7-0.8-1-1.2
					c0,0,0,0-0.1-0.1c-0.3-0.3-0.6-0.7-0.9-1c-1.5-1.7-2.9-3.3-4.3-4.9c-2.6-3-5.1-5.9-7.4-8.7c-1.5-1.7-2.9-3.4-4.2-5
					c-4.7-5.5-8.7-10.3-11.8-13.7c-3.2-3.5-8.8-5.6-17.4-6.4c-2.5-0.2-5.3-0.3-8.4-0.3c-3.9,0-8.2,0.2-13,0.5
					c-8.2,0.6-16.9,1.6-26.5,2.8c-0.8,0.1-1.7,0.2-2.5,0.3c-4,0.5-7.9,1.2-11.8,2c-10.9,2.4-21,5.9-30.9,9.4l-0.9,0.3
					c-5.4,1.9-10.6,3.7-15.8,5.3c-1.3,0.4-2.6,0.8-3.9,1.2c-0.4,0.1-0.8,0.2-1.2,0.4c-0.4,0.1-0.8,0.2-1.3,0.3
					c-3.6,1-7.1,1.8-10.7,2.4c-26.1,4.7-54.5,31.9-53.6,63.7c0,0,0.3,3,0.5,7.2c0.3,5.8,0.5,13.9-0.5,20c-1.2,7.2,1.5,9.9,6.4,14.6
					c2.9,2.8,6.9,6.7,11.7,13.1c12.9,17.5,18.8,19.2,49.9,21.9c24.3,2.1,32.4,4.8,48.3,10.1l6,2c2.8,0.9,5.9,1.9,9.4,3l4.7,1.5
					c11.8,3.7,21.6,6.8,30.1,8.1c0.4,0.1,0.9,0.1,1.3,0.2c0.2,0,0.3,0,0.5,0.1c0.3,0,0.5,0.1,0.8,0.1c1.8,0.2,3.6,0.3,5.3,0.3h0
					c6.9,0,13-1.7,19-5.9c10.1-7.1,33.9-38.2,49.4-59.2c0.5-0.7,1-1.3,1.5-2c0.4-0.5,0.8-1,1.1-1.5c0,0,0,0,0,0
					c6.4-8.8,10.9-15.1,11.5-15.9c0.1-0.1,0.2-0.3,0.2-0.4c0-0.1,0.2-0.7,0.3-1.7v0c0,0,0,0,0,0c0.3-1.7,0.7-4.7,0.7-8.4
					C289.2,814.9,289.2,814.5,289.2,814.1z M285.8,824.5c-0.3,0.4-1.1,1.5-2.2,3.1c0,0,0,0,0,0v0c-1.7,2.4-4.2,5.8-7.3,10
					c-1,1.4-2.1,2.8-3.2,4.4c-0.4,0.6-0.9,1.2-1.4,1.8c-11.1,15-26.4,35.1-37.7,47.7c0,0,0,0,0,0c-2.4,2.7-4.7,5.1-6.7,7h0
					c-1.6,1.6-3,2.8-4.2,3.6c-6.6,4.7-13.7,6-22.1,5.2c-0.4,0-0.8-0.1-1.1-0.1c-0.1,0-0.1,0-0.2,0c-0.4-0.1-0.9-0.1-1.3-0.2
					c-8.4-1.2-18.1-4.3-30-8l-4.6-1.5c-3.3-1-6.2-2-8.9-2.9h0c-0.1-0.1-0.3-0.1-0.4-0.1l-6-2c-16.2-5.4-24.3-8.1-48.9-10.2
					c-30.5-2.6-35.7-4.1-48-20.8c-4.9-6.6-9-10.6-12-13.5c-4.8-4.6-6.6-6.4-5.6-12.2c1-6.3,0.9-14.6,0.6-20.5c0-0.2,0-0.5,0-0.7v0
					c-0.2-3.9-0.5-6.6-0.5-6.6l0,0c-0.8-29.5,26.5-56.5,51.4-61c3.7-0.7,7.3-1.5,11-2.5c0.4-0.1,0.8-0.2,1.3-0.3
					c0.4-0.1,0.8-0.2,1.2-0.4c1.7-0.5,3.4-1,5.2-1.6c4.9-1.5,9.7-3.2,14.8-5c0.6-0.2,1.2-0.4,1.8-0.6c9.9-3.5,20-6.9,30.9-9.2
					c3.4-0.7,6.9-1.3,10.4-1.8c1.4-0.2,2.8-0.3,4.1-0.5c8.4-1,16.1-1.9,23.3-2.5c0,0,0,0.1,0,0.2c0,0.1,0,0.1,0,0.2
					c0,0.6,0.4,1.1,1,1.2h0c0,0,0.1,0,0.1,0c0.7,0.1,1.4-0.4,1.5-1.1c0-0.2,0.1-0.5,0.1-0.8c6.8-0.5,14.9-0.8,21.8,0.1
					c5.9,0.7,11,2.3,13.7,5.4c3,3.3,7.1,8.1,11.7,13.6c0.8,0.9,1.5,1.8,2.3,2.7c2.3,2.8,4.8,5.7,7.4,8.7c1.7,1.9,3.4,3.9,5.1,5.9
					c0,0,0,0,0,0c0.3,0.4,0.6,0.7,1,1.1c0.3,0.4,0.7,0.8,1,1.1c5.2,6,10.9,12.2,16.8,18.3c2.1,2.2,3.9,4.4,5.5,6.9
					c0.8,1.1,1.5,2.3,2.1,3.5c0.5,0.9,1,1.8,1.4,2.8c0.2,0.4,0.4,0.9,0.6,1.3l0,0c2.2,5,3.3,10,3.9,14.4c0.1,0.5,0.1,0.9,0.1,1.4v0
					c0.1,0.5,0.1,0.9,0.1,1.4c0.1,1.9,0.2,3.7,0.1,5.3C286.5,820.8,285.9,823.7,285.8,824.5z M287.8,811.9c0-0.4,0-0.8-0.1-1.2
					c0.4-0.2,0.8-0.4,1.3-0.6c0-0.5-0.1-0.9-0.1-1.4c0-0.5-0.1-0.9-0.2-1.4c-0.7-4.8-2-10.1-4.6-15.6c-0.5-1.1-1-2.1-1.6-3.1
					c-0.1-0.2-0.2-0.3-0.2-0.5c0,0,0,0,0,0c-0.6-1.1-1.3-2.2-2-3.2c-1.6-2.5-3.5-4.8-5.6-7c-1-1.1-2.1-2.2-3.1-3.3l0,0
					c-4.4-4.7-8.6-9.3-12.6-13.8c-0.3-0.4-0.7-0.8-1-1.2c0,0,0,0-0.1-0.1l-1.9-0.2h0l-2-0.2c0.3,0.4,0.6,0.7,1,1.1
					c0.3,0.4,0.7,0.8,1,1.1c5.2,6,10.9,12.2,16.8,18.3c2.1,2.2,3.9,4.4,5.5,6.9c0.8,1.1,1.5,2.3,2.1,3.5c0.5,0.9,1,1.8,1.4,2.8
					c0.2,0.4,0.4,0.9,0.6,1.3l0,0c2.2,5,3.3,10,3.9,14.4c0.1,0.5,0.1,0.9,0.1,1.4v0c0.1,0.5,0.1,0.9,0.1,1.4
					c0.1,1.9,0.2,3.7,0.1,5.3c0.4-0.4,0.9-0.8,1.4-1.3c0-0.7,0-1.5-0.1-2.2C287.8,812.7,287.8,812.3,287.8,811.9z M288.8,808.7
					c0-0.5-0.1-0.9-0.2-1.4c-0.7-4.8-2-10.1-4.6-15.6c-0.5-1.1-1-2.1-1.6-3.1c-0.1-0.2-0.2-0.3-0.2-0.5c0,0,0,0,0,0
					c-0.6-1.1-1.3-2.2-2-3.2c-1.6-2.5-3.5-4.8-5.6-7c-1-1.1-2.1-2.2-3.1-3.3l0,0c-4.4-4.7-8.6-9.3-12.6-13.8c-0.3-0.4-0.7-0.8-1-1.2
					c0,0,0,0-0.1-0.1l-1.9-0.2h0l-2-0.2c0.3,0.4,0.6,0.7,1,1.1c0.3,0.4,0.7,0.8,1,1.1c5.2,6,10.9,12.2,16.8,18.3
					c2.1,2.2,3.9,4.4,5.5,6.9c0.8,1.1,1.5,2.3,2.1,3.5c0.5,0.9,1,1.8,1.4,2.8c0.2,0.4,0.4,0.9,0.6,1.3l0,0c2.2,5,3.3,10,3.9,14.4
					c0.1,0.5,0.1,0.9,0.1,1.4v0c0.1,0.5,0.1,0.9,0.1,1.4c0.4-0.2,0.9-0.4,1.3-0.6c0.4-0.2,0.8-0.4,1.3-0.6
					C288.9,809.6,288.9,809.1,288.8,808.7z"/>
				<g>
					<path class="st24" d="M200.7,905.1c0,0-16.9,25.8,47.1,42.7c64.1,16.9,119.2,23.1,145.9,25.8s56-6.2,78.3-36.5
						c22.2-30.2,25.8-70.3-7.1-98.8s-77.4-65.8-102.3-63.2c-24.9,2.7-71.2,36.5-93.4,40.9C246.9,820.6,201.6,862.4,200.7,905.1
						L200.7,905.1z"/>
					<path class="st23" d="M484.4,862.1c-0.2-0.5-0.4-1-0.7-1.4c-1.4-3-3.1-5.8-4.9-8.5c0,0,0,0,0,0c-0.6-0.9-1.2-1.8-1.9-2.6
						c-1.4-1.9-2.9-3.8-4.5-5.5c-1.3-1.4-2.6-2.8-4-4.1c-0.6,0-1.1,0.1-1.7,0.2c-0.1-0.1-0.2-0.2-0.3-0.3c-0.4-0.4-0.9-0.8-1.3-1.2
						c0,0,0,0-0.1-0.1c0,0-0.1-0.1-0.1-0.1l0,0c-0.5-0.4-1-0.8-1.5-1.3c-0.2-0.2-0.5-0.4-0.8-0.7c-0.1-0.1-0.2-0.1-0.2-0.2
						c0.3-0.3,0.7-0.6,1-0.8c-0.7-0.6-1.4-1.2-2.1-1.8c-0.9-0.8-1.8-1.5-2.6-2.2c-2.4-2-4.8-4.1-7.1-6.1c-0.6-0.5-1.1-0.9-1.7-1.4
						c-1.9-1.6-3.9-3.2-5.8-4.8l0,0c-0.9-0.8-1.9-1.5-2.8-2.3c-0.8-0.7-1.6-1.3-2.4-2h0c-1.2-1-2.4-2-3.6-2.9c0,0-0.1-0.1-0.1-0.1
						c-0.5-0.4-1-0.8-1.6-1.2c-2.6-2-5.1-4-7.7-6h0c-1.4-1.1-2.8-2.1-4.2-3.1c-4.6-3.4-9-6.6-13.4-9.5
						c-12.3-8.1-23.8-14.3-33.7-16.8l-6-0.8l-3.9-0.5h0c-0.7,0-1.4,0.1-2.1,0.1c-11.2,1.2-26.4,8.4-41.9,16.6h0l0,0c0,0,0,0,0,0
						c-1.6,0.8-3.2,1.7-4.8,2.5c-2,1.1-4.1,2.2-6.1,3.3c-2.3,1.2-4.5,2.5-6.8,3.6c-0.9,1-1.9,2-2.8,3c-0.3,0.2-0.5,0.3-0.8,0.4
						c-3.6,1.9-7.1,3.7-10.4,5.3c0.1,0.5,0.1,0.9,0.1,1.4c2.7-1.3,5.5-2.7,8.3-4.2c1-0.5,2-1.1,3.1-1.6c3.4-1.8,6.9-3.7,10.5-5.6
						c1.4-0.8,2.8-1.5,4.3-2.3c0,0,0,0,0,0h0c0.2-0.1,0.4-0.2,0.6-0.3c17.4-9.3,34.8-18.2,47-19.5c0.8-0.1,1.7-0.1,2.6-0.1l0,0
						c10.5,0,24,6.2,38.8,15.8h0c0.8,0.5,1.5,1,2.3,1.5l0,0c3.7,2.5,7.5,5.2,11.4,8h0c1.4,1,2.8,2.1,4.2,3.1h0
						c2.8,2.1,5.6,4.2,8.4,6.5c0.4,0.3,0.7,0.6,1.1,0.9c0,0,0.1,0,0.1,0.1c1.2,1,2.5,2,3.7,3c7,5.7,14.1,11.6,21,17.5
						c1,0.8,2,1.7,2.9,2.5c0.7,0.6,1.4,1.2,2.1,1.8c0.5,0.5,1.1,1,1.7,1.4h0c0.3,0.3,0.7,0.6,1,0.9c0.3,0.3,0.6,0.5,0.9,0.8
						c1.4,1.2,2.7,2.5,3.9,3.7c1.8,1.8,3.4,3.7,5,5.6c0.7,0.9,1.4,1.7,2,2.6v0c2.6,3.6,4.8,7.2,6.5,10.9c0.2,0.5,0.5,1,0.7,1.5
						c0,0,0,0,0,0h0l0.2-0.3c0.1-0.1,0.1-0.2,0.2-0.3c0.1-0.2,0.2-0.3,0.3-0.5c0,0,0-0.1,0.1-0.1c0,0,0,0,0,0c0,0,0,0,0-0.1v0
						c0.1-0.2,0.2-0.3,0.3-0.5c0.1-0.1,0.1-0.2,0.2-0.3C484.3,862.3,484.4,862.2,484.4,862.1L484.4,862.1
						C484.4,862.1,484.4,862.1,484.4,862.1L484.4,862.1z M484.4,862.1c-0.2-0.5-0.4-1-0.7-1.4c-1.4-3-3.1-5.8-4.9-8.5c0,0,0,0,0,0
						c-0.6-0.9-1.2-1.8-1.9-2.6c-1.4-1.9-2.9-3.8-4.5-5.5c-1.3-1.4-2.6-2.8-4-4.1c-0.6,0-1.1,0.1-1.7,0.2c-0.1-0.1-0.2-0.2-0.3-0.3
						c-0.4-0.4-0.9-0.8-1.3-1.2c0,0,0,0-0.1-0.1c0,0-0.1-0.1-0.1-0.1l0,0c-0.5-0.4-1-0.8-1.5-1.3c-0.3-0.3-0.7-0.6-1-0.9
						c0.3-0.3,0.7-0.6,1-0.8c-0.7-0.6-1.4-1.2-2.1-1.8c-0.9-0.8-1.8-1.5-2.6-2.2c-2.4-2-4.8-4.1-7.1-6.1c-0.6-0.5-1.1-0.9-1.7-1.4
						c-1.9-1.6-3.9-3.2-5.8-4.8l0,0c-0.9-0.8-1.9-1.5-2.8-2.3c-0.8-0.7-1.6-1.3-2.4-2h0c-1.2-1-2.4-2-3.6-2.9c0,0-0.1-0.1-0.1-0.1
						c-0.5-0.4-1-0.8-1.6-1.2c-2.6-2-5.1-4-7.7-6h0c-1.4-1.1-2.8-2.1-4.2-3.1c-4.6-3.4-9-6.6-13.4-9.5
						c-12.3-8.1-23.8-14.3-33.7-16.8l-6-0.8l-3.9-0.5h0c-0.7,0-1.4,0.1-2.1,0.1c-11.2,1.2-26.4,8.4-41.9,16.6h0l0,0c0,0,0,0,0,0
						c-1.6,0.8-3.2,1.7-4.8,2.5c-2,1.1-4.1,2.2-6.1,3.3c-2.3,1.2-4.5,2.5-6.8,3.6c-0.9,1-1.9,2-2.8,3c-0.3,0.2-0.5,0.3-0.8,0.4
						c-3.6,1.9-7.1,3.7-10.4,5.3c0.1,0.5,0.1,0.9,0.1,1.4c2.7-1.3,5.5-2.7,8.3-4.2c1-0.5,2-1.1,3.1-1.6c3.4-1.8,6.9-3.7,10.5-5.6
						c1.4-0.8,2.8-1.5,4.3-2.3c0,0,0,0,0,0h0c0.2-0.1,0.4-0.2,0.6-0.3c17.4-9.3,34.8-18.2,47-19.5c0.8-0.1,1.7-0.1,2.6-0.1l0,0
						c10.5,0,24,6.2,38.8,15.8h0c0.8,0.5,1.5,1,2.3,1.5l0,0c3.7,2.5,7.5,5.2,11.4,8h0c1.4,1,2.8,2.1,4.2,3.1h0
						c2.8,2.1,5.6,4.2,8.4,6.5c0.4,0.3,0.7,0.6,1.1,0.9c0,0,0.1,0,0.1,0.1c1.2,1,2.5,2,3.7,3c7,5.7,14.1,11.6,21,17.5
						c1,0.8,2,1.7,2.9,2.5c0.7,0.6,1.4,1.2,2.1,1.8c0.5,0.5,1.1,1,1.7,1.4h0c0.3,0.3,0.7,0.6,1,0.9c0.3,0.3,0.6,0.5,0.9,0.8
						c1.4,1.2,2.7,2.5,3.9,3.7c1.8,1.8,3.4,3.7,5,5.6c0.7,0.9,1.4,1.7,2,2.6v0c2.6,3.6,4.8,7.2,6.5,10.9c0.2,0.5,0.5,1,0.7,1.5
						c0,0,0,0,0,0h0l0.2-0.3c0.1-0.1,0.1-0.2,0.2-0.3c0.1-0.2,0.2-0.3,0.3-0.5c0,0,0-0.1,0.1-0.1c0,0,0,0,0,0c0,0,0,0,0-0.1v0
						c0.1-0.2,0.2-0.3,0.3-0.5c0.1-0.1,0.1-0.2,0.2-0.3C484.3,862.3,484.4,862.2,484.4,862.1L484.4,862.1
						C484.4,862.1,484.4,862.1,484.4,862.1L484.4,862.1z M490.4,885.5c-0.5-7.8-2.4-15.2-5.4-21.9c-0.2-0.5-0.4-1-0.6-1.4v0
						c0,0,0,0,0,0h0c-0.2-0.5-0.4-1-0.7-1.4c-1.4-3-3.1-5.8-4.9-8.5c0,0,0,0,0,0c-0.6-0.9-1.2-1.8-1.9-2.6c-1.4-1.9-2.9-3.8-4.5-5.5
						c-1.3-1.4-2.6-2.8-4-4.1c-0.5-0.5-1-1-1.5-1.4h0c-0.4-0.4-0.8-0.7-1.2-1c-0.8-0.7-1.6-1.4-2.3-2c-0.7-0.6-1.4-1.2-2.1-1.8
						c-0.9-0.8-1.8-1.5-2.6-2.2c-2.4-2-4.8-4.1-7.1-6.1c-0.6-0.5-1.1-0.9-1.7-1.4c-1.9-1.6-3.9-3.2-5.8-4.8l0,0
						c-0.9-0.8-1.9-1.5-2.8-2.3c-0.8-0.7-1.6-1.3-2.4-2h0c-1.2-1-2.4-2-3.6-2.9c0,0-0.1-0.1-0.1-0.1c-0.5-0.4-1-0.8-1.6-1.2
						c-2.6-2-5.1-4-7.7-6h0c-1.4-1.1-2.8-2.1-4.2-3.1c-4.6-3.4-9-6.6-13.4-9.5c-12.3-8.1-23.8-14.3-33.7-16.8
						c-3.5-0.9-6.8-1.4-9.9-1.3h0c-0.7,0-1.4,0.1-2.1,0.1c-11.2,1.2-26.4,8.4-41.9,16.6h0l0,0c0,0,0,0,0,0c-1.6,0.8-3.2,1.7-4.8,2.5
						c-2,1.1-4.1,2.2-6.1,3.3c-2.3,1.2-4.5,2.5-6.8,3.6c-1.6,0.9-3.2,1.7-4.8,2.5c-3.2,1.7-6.4,3.3-9.4,4.8
						c-0.4,0.2-0.8,0.4-1.2,0.6c-0.4,0.2-0.8,0.4-1.3,0.6c-6.6,3.1-12.5,5.4-17.2,6.4c-0.6,0.1-1.3,0.3-2,0.5
						c-4.6,1.3-9.9,3.9-15.5,7.5c-0.9,0.6-1.8,1.2-2.7,1.8c-16.1,11.3-34,30.8-43.2,52.9c-1.6,3.8-2.9,7.7-3.9,11.6
						c-1.3,5.1-2.1,10.3-2.2,15.6c-0.2,0.4-0.7,1.2-1,2.4c-0.1,0.4-0.3,0.8-0.4,1.3c-0.1,0.4-0.2,0.8-0.3,1.3c-0.5,2.6-0.5,6.1,1,10
						c4.7,12.2,21.1,22.1,48.9,29.4c26.1,6.9,50.7,12,72.3,15.8c0.1,0,0.2,0,0.3,0.1c26.5,4.6,48.2,7.3,62.4,8.8
						c4.5,0.5,8.2,0.9,11.1,1.1c3.1,0.3,6.1,0.5,9,0.5h0c25.8,0,49.1-11.3,66.6-32.6c0.4-0.5,0.8-1,1.2-1.5l0,0
						c0.5-0.6,1-1.2,1.4-1.9c0.4-0.5,0.7-1,1.1-1.5c9.5-13,14.7-25.5,16.6-37.3c0.6-3.6,0.9-7.1,0.9-10.6
						C490.6,888.5,490.5,887,490.4,885.5z M385.5,971.5L385.5,971.5c-0.9-0.1-1.8-0.2-2.7-0.3c-25.7-2.8-76.5-9.3-134.6-24.6
						c-6.7-1.8-12.5-3.6-17.5-5.5c-0.1,0-0.1,0-0.2-0.1c-19.8-7.6-27-15.9-29.4-22.1c-0.5-1.3-0.8-2.5-0.9-3.6c0,0,0,0,0-0.1
						c-0.3-2-0.2-3.7,0.1-5.1c0.1-0.5,0.2-0.9,0.3-1.3c0.1-0.5,0.3-0.9,0.4-1.3c0.4-1,0.7-1.5,0.8-1.6c0.1-0.2,0.2-0.4,0.2-0.7
						c0.1-5,0.8-10,2.1-14.9c1-4,2.3-7.9,3.9-11.7c9-21.9,26.8-41.1,42.6-52c0.5-0.4,1.1-0.7,1.6-1.1c5.8-3.8,11.3-6.5,15.9-7.7
						c0.5-0.1,0.9-0.2,1.4-0.3c1-0.2,1.9-0.4,3-0.7h0c4.1-1.2,8.8-3.1,13.9-5.5c0.4-0.2,0.9-0.4,1.3-0.6c0.4-0.2,0.8-0.4,1.3-0.6
						c2.7-1.3,5.5-2.7,8.3-4.2c1-0.5,2-1.1,3.1-1.6c3.4-1.8,6.9-3.7,10.5-5.6c1.4-0.8,2.8-1.5,4.3-2.3c0,0,0,0,0,0h0
						c0.2-0.1,0.4-0.2,0.6-0.3c17.4-9.3,34.8-18.2,47-19.5c0.8-0.1,1.7-0.1,2.6-0.1l0,0c10.5,0,24,6.2,38.8,15.8h0
						c0.8,0.5,1.5,1,2.3,1.5l0,0c3.7,2.5,7.5,5.2,11.4,8h0c1.4,1,2.8,2.1,4.2,3.1h0c2.8,2.1,5.6,4.2,8.4,6.5
						c0.4,0.3,0.7,0.6,1.1,0.9c0,0,0.1,0,0.1,0.1c1.2,1,2.5,2,3.7,3c7,5.7,14.1,11.6,21,17.5c1,0.8,2,1.7,2.9,2.5
						c0.7,0.6,1.4,1.2,2.1,1.8c0.5,0.5,1.1,1,1.7,1.4h0c0.3,0.3,0.7,0.6,1,0.9c0.3,0.3,0.6,0.5,0.9,0.8c1.4,1.2,2.7,2.5,3.9,3.7
						c1.8,1.8,3.4,3.7,5,5.6c0.7,0.9,1.4,1.7,2,2.6v0c2.6,3.6,4.8,7.2,6.5,10.9c0.2,0.5,0.5,1,0.7,1.5c0,0,0,0,0,0h0
						c0.2,0.5,0.4,1,0.6,1.6c2.5,6.3,3.8,12.8,4.1,19.1c0.1,1.6,0.1,3.2,0.1,4.9c-0.1,3.5-0.5,6.9-1,10.3
						c-2.2,12.4-7.5,24.1-14.3,33.8c-0.5,0.7-1,1.4-1.5,2.1c0,0.1-0.1,0.1-0.1,0.2c0,0,0,0,0,0c-0.5,0.6-0.9,1.3-1.4,1.9
						c-19.2,24.8-45.9,36.8-75.5,33.9C391.6,972.1,388.8,971.8,385.5,971.5z M484.4,862.1c-0.2-0.5-0.4-1-0.7-1.4
						c-1.4-3-3.1-5.8-4.9-8.5c0,0,0,0,0,0c-0.6-0.9-1.2-1.8-1.9-2.6c-1.4-1.9-2.9-3.8-4.5-5.5c-1.3-1.4-2.6-2.8-4-4.1
						c-0.6,0-1.1,0.1-1.7,0.2c-0.1-0.1-0.2-0.2-0.3-0.3c-0.4-0.4-0.9-0.8-1.3-1.2c0,0,0,0-0.1-0.1c0,0-0.1-0.1-0.1-0.1l0,0
						c-0.5-0.4-1-0.8-1.5-1.3c-0.2-0.2-0.5-0.4-0.8-0.7c-0.1-0.1-0.2-0.1-0.2-0.2c0.3-0.3,0.7-0.6,1-0.8c-0.7-0.6-1.4-1.2-2.1-1.8
						c-0.9-0.8-1.8-1.5-2.6-2.2c-2.4-2-4.8-4.1-7.1-6.1c-0.6-0.5-1.1-0.9-1.7-1.4c-1.9-1.6-3.9-3.2-5.8-4.8l0,0
						c-0.9-0.8-1.9-1.5-2.8-2.3c-0.8-0.7-1.6-1.3-2.4-2h0c-1.2-1-2.4-2-3.6-2.9c0,0-0.1-0.1-0.1-0.1c-0.5-0.4-1-0.8-1.6-1.2
						c-2.6-2-5.1-4-7.7-6h0c-1.4-1.1-2.8-2.1-4.2-3.1c-4.6-3.4-9-6.6-13.4-9.5c-12.3-8.1-23.8-14.3-33.7-16.8l-6-0.8l-3.9-0.5h0
						c-0.7,0-1.4,0.1-2.1,0.1c-11.2,1.2-26.4,8.4-41.9,16.6h0l0,0c0,0,0,0,0,0c-1.6,0.8-3.2,1.7-4.8,2.5c-2,1.1-4.1,2.2-6.1,3.3
						c-2.3,1.2-4.5,2.5-6.8,3.6c-0.9,1-1.9,2-2.8,3c-0.3,0.2-0.5,0.3-0.8,0.4c-3.6,1.9-7.1,3.7-10.4,5.3c0.1,0.5,0.1,0.9,0.1,1.4
						c2.7-1.3,5.5-2.7,8.3-4.2c1-0.5,2-1.1,3.1-1.6c3.4-1.8,6.9-3.7,10.5-5.6c1.4-0.8,2.8-1.5,4.3-2.3c0,0,0,0,0,0h0
						c0.2-0.1,0.4-0.2,0.6-0.3c17.4-9.3,34.8-18.2,47-19.5c0.8-0.1,1.7-0.1,2.6-0.1l0,0c10.5,0,24,6.2,38.8,15.8h0
						c0.8,0.5,1.5,1,2.3,1.5l0,0c3.7,2.5,7.5,5.2,11.4,8h0c1.4,1,2.8,2.1,4.2,3.1h0c2.8,2.1,5.6,4.2,8.4,6.5
						c0.4,0.3,0.7,0.6,1.1,0.9c0,0,0.1,0,0.1,0.1c1.2,1,2.5,2,3.7,3c7,5.7,14.1,11.6,21,17.5c1,0.8,2,1.7,2.9,2.5
						c0.7,0.6,1.4,1.2,2.1,1.8c0.5,0.5,1.1,1,1.7,1.4h0c0.3,0.3,0.7,0.6,1,0.9c0.3,0.3,0.6,0.5,0.9,0.8c1.4,1.2,2.7,2.5,3.9,3.7
						c1.8,1.8,3.4,3.7,5,5.6c0.7,0.9,1.4,1.7,2,2.6v0c2.6,3.6,4.8,7.2,6.5,10.9c0.2,0.5,0.5,1,0.7,1.5c0,0,0,0,0,0h0l0.2-0.3
						c0.1-0.1,0.1-0.2,0.2-0.3c0.1-0.2,0.2-0.3,0.3-0.5c0,0,0-0.1,0.1-0.1c0,0,0,0,0,0c0,0,0,0,0-0.1v0c0.1-0.2,0.2-0.3,0.3-0.5
						c0.1-0.1,0.1-0.2,0.2-0.3C484.3,862.3,484.4,862.2,484.4,862.1L484.4,862.1C484.4,862.1,484.4,862.1,484.4,862.1L484.4,862.1z
						 M484.4,862.1c-0.2-0.5-0.4-1-0.7-1.4c-1.4-3-3.1-5.8-4.9-8.5c0,0,0,0,0,0c-0.6-0.9-1.2-1.8-1.9-2.6c-1.4-1.9-2.9-3.8-4.5-5.5
						c-1.3-1.4-2.6-2.8-4-4.1c-0.6,0-1.1,0.1-1.7,0.2c-0.1-0.1-0.2-0.2-0.3-0.3c-0.4-0.4-0.9-0.8-1.3-1.2c0,0,0,0-0.1-0.1
						c0,0-0.1-0.1-0.1-0.1l0,0c-0.5-0.4-1-0.8-1.5-1.3c-0.2-0.2-0.5-0.4-0.8-0.7c-0.1-0.1-0.2-0.1-0.2-0.2c0.3-0.3,0.7-0.6,1-0.8
						c-0.7-0.6-1.4-1.2-2.1-1.8c-0.9-0.8-1.8-1.5-2.6-2.2c-2.4-2-4.8-4.1-7.1-6.1c-0.6-0.5-1.1-0.9-1.7-1.4
						c-1.9-1.6-3.9-3.2-5.8-4.8l0,0c-0.9-0.8-1.9-1.5-2.8-2.3c-0.8-0.7-1.6-1.3-2.4-2h0c-1.2-1-2.4-2-3.6-2.9c0,0-0.1-0.1-0.1-0.1
						c-0.5-0.4-1-0.8-1.6-1.2c-2.6-2-5.1-4-7.7-6h0c-1.4-1.1-2.8-2.1-4.2-3.1c-4.6-3.4-9-6.6-13.4-9.5
						c-12.3-8.1-23.8-14.3-33.7-16.8l-6-0.8l-3.9-0.5h0c-0.7,0-1.4,0.1-2.1,0.1c-11.2,1.2-26.4,8.4-41.9,16.6h0l0,0c0,0,0,0,0,0
						c-1.6,0.8-3.2,1.7-4.8,2.5c-2,1.1-4.1,2.2-6.1,3.3c-2.3,1.2-4.5,2.5-6.8,3.6c-0.9,1-1.9,2-2.8,3c-0.3,0.2-0.5,0.3-0.8,0.4
						c-3.6,1.9-7.1,3.7-10.4,5.3c0.1,0.5,0.1,0.9,0.1,1.4c2.7-1.3,5.5-2.7,8.3-4.2c1-0.5,2-1.1,3.1-1.6c3.4-1.8,6.9-3.7,10.5-5.6
						c1.4-0.8,2.8-1.5,4.3-2.3c0,0,0,0,0,0h0c0.2-0.1,0.4-0.2,0.6-0.3c17.4-9.3,34.8-18.2,47-19.5c0.8-0.1,1.7-0.1,2.6-0.1l0,0
						c10.5,0,24,6.2,38.8,15.8h0c0.8,0.5,1.5,1,2.3,1.5l0,0c3.7,2.5,7.5,5.2,11.4,8h0c1.4,1,2.8,2.1,4.2,3.1h0
						c2.8,2.1,5.6,4.2,8.4,6.5c0.4,0.3,0.7,0.6,1.1,0.9c0,0,0.1,0,0.1,0.1c1.2,1,2.5,2,3.7,3c7,5.7,14.1,11.6,21,17.5
						c1,0.8,2,1.7,2.9,2.5c0.7,0.6,1.4,1.2,2.1,1.8c0.5,0.5,1.1,1,1.7,1.4h0c0.3,0.3,0.7,0.6,1,0.9c0.3,0.3,0.6,0.5,0.9,0.8
						c1.4,1.2,2.7,2.5,3.9,3.7c1.8,1.8,3.4,3.7,5,5.6c0.7,0.9,1.4,1.7,2,2.6v0c2.6,3.6,4.8,7.2,6.5,10.9c0.2,0.5,0.5,1,0.7,1.5
						c0,0,0,0,0,0h0l0.2-0.3c0.1-0.1,0.1-0.2,0.2-0.3c0.1-0.2,0.2-0.3,0.3-0.5c0,0,0-0.1,0.1-0.1c0,0,0,0,0,0c0,0,0,0,0-0.1v0
						c0.1-0.2,0.2-0.3,0.3-0.5c0.1-0.1,0.1-0.2,0.2-0.3C484.3,862.3,484.4,862.2,484.4,862.1L484.4,862.1
						C484.4,862.1,484.4,862.1,484.4,862.1L484.4,862.1z"/>
				</g>
				<path class="st16" d="M565.7,762.8c0,0,4.7-2,12.7-1.3s14.7,0,14.7,0S583,765.5,565.7,762.8z"/>
				<path class="st25" d="M556.3,785.5c0,0,5.3,2,10.7,0c5.3-2,14-4.7,18-3.3C589,783.5,577.7,792.8,556.3,785.5z"/>
				<path class="st25" d="M706.4,753.5c0,0-0.7-0.7-12,1.3c-11.3,2-18.7,0.7-11.3,2c7.3,1.3,11.3,3.3,16.7,1.3
					C705.1,756.1,711.8,752.8,706.4,753.5L706.4,753.5z"/>
				<path class="st25" d="M630.4,834.2c-1.9-0.9,8-0.7,11.3-0.7S640.4,838.9,630.4,834.2z"/>
				<path class="st25" d="M613,854.2c0,0,12.7-0.7,17.3-0.7s20.7,0.7,9.3,2.7c-11.3,2-6.7,6-12,5.3S611.7,856.9,613,854.2z"/>
				<path class="st25" d="M494.9,823.5c0,0,8.7-2.7,13.3-3.3c4.7-0.7,13.3-4.7,16-2.7s-9.3,8.7-14.7,8.7S491.6,825.5,494.9,823.5z"
					/>
				<path class="st26" d="M563.7,884.2c-6.7-18.7-52-41.4-69.4-34.7c-0.2,0.1-0.3,0.2-0.5,0.2c-6.8,7.7-11.9,15.4-13.8,21.6
					c-6.2,20.5-4.5,47.2-4.5,47.2s-16,33.8,8.9,54.3c24.1,19.8,28.3,14.6,74.5,9.4C579.9,950.2,569.1,899.5,563.7,884.2L563.7,884.2
					z"/>
				<g>
					<path class="st27" d="M723.8,789.5c0,0,15.1-26.7,32.9-50.7s20.5-32,40-28.5c19.6,3.6,61.4,16.9,93.4,37.4
						c32,20.5,27.6,20.5,35.6,40.9s18.7,28.5-5.3,46.3c-24,17.8-39.1,27.6-88.1,24S721.1,818.8,723.8,789.5L723.8,789.5z"/>
					<path class="st23" d="M846.1,858.2c-1.8,0-3.6-0.1-5.5-0.2c0,0,0,0,0,0c-0.1,0.4-0.2,0.9-0.2,1.3c0,0,0,0,0,0
						c0.1,0,0.2,0,0.3,0c0,0,0.1,0,0.1,0c0,0,0,0,0,0c0.4,0,0.8,0,1.2,0h0.1c0.2,0,0.4,0,0.6,0c0.3,0,0.6,0,1,0c0.2,0,0.4,0,0.6,0
						h0.1c0.2,0,0.5,0,0.7,0c0.2,0,0.3,0,0.5,0c0.2,0,0.3,0,0.5,0h0c0,0,0.1,0,0.1,0c0,0,0,0,0,0c0,0,0,0,0,0c0,0,0,0,0,0h0l0,0h0.2
						c0,0,0,0,0.1,0c0,0,0,0,0,0c0,0,0,0,0,0h0c0,0,0,0,0,0h0c0,0,0,0,0,0h0c0,0,0,0,0,0h0c0-0.1,0.1-0.2,0.1-0.4v0
						c0-0.1,0-0.1,0.1-0.2c0,0,0,0,0,0c0,0,0,0,0,0c0,0,0,0,0,0c0-0.1,0-0.1,0-0.2c0-0.1,0.1-0.3,0.1-0.4
						C846.6,858.3,846.3,858.2,846.1,858.2z M757.2,738.1c-0.2,0.2-0.3,0.4-0.5,0.6c-2,2.8-4.1,5.6-6,8.4c-0.5,0.7-0.9,1.3-1.4,2
						c-0.7,1.1-1.5,2.1-2.2,3.2c-0.2,0.3-0.4,0.6-0.6,0.9c-0.5,0.7-0.9,1.4-1.4,2.1c0,0,0,0,0,0.1c-0.1,0.1-0.1,0.2-0.2,0.2
						c0,0,0,0,0,0s0,0,0,0v0c0,0,0,0.1,0.1,0.1c0,0,0,0.1,0.1,0.1c0,0,0,0,0,0.1c0.1,0.1,0.2,0.3,0.3,0.4c0,0,0,0,0,0
						c0,0.1,0.1,0.1,0.1,0.2c0.1,0.1,0.1,0.2,0.2,0.2c1.6-2.4,3.3-4.9,5-7.3c2.3-3.3,4.7-6.7,7.2-10c0.5-0.6,0.9-1.2,1.4-1.8
						L757.2,738.1z M735.2,772.8C735.2,772.8,735.1,772.8,735.2,772.8c-0.1,0-0.2,0-0.2,0c-0.1,0-0.2,0-0.2,0c0,0-0.1,0-0.1,0
						c0,0,0,0,0,0h0c-0.2,0-0.5,0-0.7,0h0c-0.2,0.3-0.4,0.6-0.5,0.9c0,0,0,0.1-0.1,0.1c0,0,0,0.1-0.1,0.1c0,0,0,0,0,0c0,0,0,0,0,0.1
						c0,0,0,0,0,0c0,0,0,0,0,0c0,0,0,0,0,0c0,0,0,0,0,0c0,0,0,0,0,0c0,0,0,0,0,0c0,0-0.1,0.1-0.1,0.1c0,0,0,0,0,0c0,0,0,0,0,0.1
						c-0.1,0.2-0.3,0.5-0.4,0.7c0,0.1-0.1,0.1-0.1,0.2c0,0,0,0,0,0c0,0,0,0,0,0h0c0,0,0,0,0,0c0,0,0,0,0,0h0c-0.5,0-1-0.1-1.5-0.1
						c0,0,0,0,0,0c-1.1,1.8-2.2,3.5-3.1,5.1c0.5,0.1,0.9,0.2,1.3,0.3c0,0,0,0,0,0c0,0,0,0,0,0v0c0,0,0,0,0,0c0,0,0,0,0,0s0,0,0,0
						c-0.1,0.2-0.2,0.3-0.3,0.5c0,0,0,0,0,0c0,0,0,0,0,0c0,0.1-0.1,0.1-0.1,0.2c-0.1,0.2-0.2,0.3-0.3,0.4c0,0,0,0.1,0,0.1
						c0,0.1-0.1,0.1-0.1,0.2c0,0,0,0.1-0.1,0.1c0,0,0,0.1,0,0.1c-0.1,0.2-0.3,0.5-0.4,0.7c-0.1,0.2-0.3,0.4-0.4,0.7
						c-0.1,0.1-0.2,0.3-0.2,0.4c0,0.1-0.1,0.1-0.1,0.2c0,0,0,0,0,0v0c0,0,0,0,0,0c-0.1,0.1-0.1,0.2-0.2,0.3
						c-0.1,0.1-0.1,0.2-0.2,0.2c0,0.1-0.1,0.1-0.1,0.2c0,0,0,0,0,0c0,0,0,0,0,0c0,0,0,0,0,0.1c0,0,0,0,0,0c0,0.1-0.1,0.2-0.1,0.2
						c0,0,0,0.1-0.1,0.1v0c0,0,0,0,0,0c0,0,0,0,0,0c0,0,0,0,0,0c0,0,0,0,0,0c0,0.1-0.1,0.1-0.1,0.1c0,0,0,0.1-0.1,0.1
						c0,0.1-0.1,0.2-0.2,0.3c-0.1,0.1-0.1,0.2-0.2,0.3c0,0.1-0.1,0.1-0.1,0.2c-0.1,0.1-0.1,0.2-0.2,0.3c0,0,0,0,0,0s0,0,0,0
						c0,0.1-0.1,0.2-0.1,0.2c0,0,0,0.1,0,0.1c0,0,0,0,0,0.1c0,0,0,0,0,0.1c-0.1,0.2-0.2,0.3-0.3,0.5c0,0,0,0.1-0.1,0.1c0,0,0,0,0,0
						c-0.1,0.2-0.2,0.4-0.3,0.5c0,0,0,0,0,0c0,0,0,0.1-0.1,0.1c0,0.1-0.1,0.1-0.1,0.1c0,0.1-0.1,0.1-0.1,0.1c0,0,0,0.1,0,0.1
						c0,0,0,0.1-0.1,0.1c0,0,0,0,0,0c0,0,0,0,0,0.1c0,0.1-0.1,0.1-0.1,0.2c-0.1,0.2-0.2,0.3-0.2,0.3c-0.1,0.6-0.1,1.2-0.1,1.8
						c0,0.3,0,0.5,0,0.8v0.2c0,0.1,0,0.1,0,0.2c0,0.3,0,0.5,0.1,0.8c0,0,0,0,0,0.1c0,0.2,0,0.3,0,0.5c0,0.1,0,0.1,0,0.2l0,0
						c0,0.1,0,0.2,0,0.4c0,0,0,0,0,0.1c0,0,0,0,0,0.1c0,0,0,0,0,0c0,0.3,0.1,0.6,0.1,0.9c0,0.2,0.1,0.4,0.1,0.6
						c0.4-0.1,0.8-0.2,1.3-0.2c-0.4-2-0.6-4-0.4-5.9l0,0c0.4-0.7,1.7-3,3.7-6.3c0.4-0.7,0.9-1.5,1.4-2.4c0.1-0.2,0.2-0.4,0.3-0.6
						c0.1-0.2,0.3-0.5,0.4-0.7v0c0.9-1.5,1.8-3,2.9-4.7c0,0,0,0,0,0c0,0,0,0,0,0c0.2-0.4,0.5-0.8,0.7-1.2c0.2-0.4,0.5-0.8,0.8-1.2
						l0,0C735.3,772.8,735.2,772.8,735.2,772.8z M846.1,858.2c-1.8,0-3.6-0.1-5.5-0.2c0,0,0,0,0,0c-0.1,0.4-0.2,0.9-0.2,1.3
						c0,0,0,0,0,0c0.1,0,0.2,0,0.3,0c0,0,0.1,0,0.1,0c0,0,0,0,0,0c0.4,0,0.8,0,1.2,0c0.2,0,0.4,0,0.6,0c0.3,0,0.6,0,1,0
						c0.2,0,0.5,0,0.7,0c0.2,0,0.5,0,0.7,0c0.2,0,0.3,0,0.5,0c0.2,0,0.3,0,0.5,0h0c0.1,0,0.1,0,0.2,0c0,0,0,0,0,0c0,0,0,0,0,0h0
						c0,0,0,0,0,0c0,0,0,0,0,0h0.1c0,0,0,0,0.1,0c0,0,0,0,0,0c0,0,0,0,0,0h0c0,0,0,0,0,0h0c0,0,0,0,0,0h0c0,0,0,0,0,0h0
						c0-0.1,0.1-0.2,0.1-0.4v0c0-0.1,0-0.1,0.1-0.2c0,0,0,0,0,0c0-0.1,0-0.2,0-0.2c0-0.1,0.1-0.3,0.1-0.4
						C846.6,858.3,846.3,858.2,846.1,858.2z M756.7,738.8c-2,2.8-4.1,5.6-6,8.4c-0.5,0.7-0.9,1.3-1.4,2c-0.7,1.1-1.5,2.1-2.2,3.2
						c-0.2,0.3-0.4,0.6-0.6,0.9c-0.5,0.7-0.9,1.4-1.4,2.1c0,0,0,0,0,0.1c-0.1,0.1-0.1,0.2-0.2,0.2c0,0,0,0,0,0c0,0,0,0.1,0.1,0.1
						c0,0,0,0.1,0.1,0.1c0,0,0,0,0,0.1c0.1,0.1,0.2,0.3,0.3,0.4c0,0,0,0,0,0c0,0.1,0.1,0.1,0.1,0.2c0.1,0.1,0.1,0.2,0.2,0.2
						c1.6-2.4,3.3-4.9,5-7.3c2.3-3.3,4.7-6.7,7.2-10c0.5-0.6,0.9-1.2,1.4-1.8l-1.9,0.4C757,738.4,756.9,738.6,756.7,738.8z
						 M735.1,772.8c0,0-0.1,0-0.1,0c-0.1,0-0.2,0-0.2,0c0,0-0.1,0-0.1,0c0,0,0,0,0,0h0c-0.2,0-0.5,0-0.7,0h0
						c-0.2,0.3-0.4,0.6-0.5,0.9c0,0,0,0.1-0.1,0.1c0,0,0,0.1-0.1,0.1c0,0,0,0,0,0c0,0,0,0,0,0.1c0,0,0,0,0,0c0,0,0,0,0,0
						c0,0,0,0,0,0c0,0,0,0,0,0c0,0,0,0,0,0c0,0,0,0,0,0c0,0-0.1,0.1-0.1,0.1c0,0,0,0,0,0c0,0,0,0,0,0.1c-0.1,0.2-0.3,0.5-0.4,0.7
						c0,0.1-0.1,0.1-0.1,0.2c0,0,0,0,0,0c0,0,0,0,0,0h0c0,0,0,0,0,0c0,0,0,0,0,0h0c-0.5,0-1-0.1-1.5-0.1c0,0,0,0,0,0
						c-1.1,1.8-2.2,3.5-3.1,5.1c0.5,0.1,0.9,0.2,1.3,0.3c0,0,0,0,0,0c0,0,0,0,0,0v0c0,0,0,0,0,0c0,0,0,0,0,0s0,0,0,0
						c-0.1,0.2-0.2,0.3-0.3,0.5c0,0,0,0,0,0c0,0,0,0,0,0c0,0.1-0.1,0.1-0.1,0.2c-0.1,0.2-0.2,0.4-0.3,0.5c0,0.1-0.1,0.1-0.1,0.2
						c0,0.1-0.1,0.1-0.1,0.2c-0.1,0.2-0.3,0.5-0.4,0.7c-0.1,0.2-0.3,0.4-0.4,0.7c-0.1,0.1-0.2,0.3-0.2,0.4c0,0.1-0.1,0.1-0.1,0.2
						c0,0,0,0,0,0c-0.1,0.1-0.1,0.2-0.2,0.3c-0.1,0.1-0.1,0.2-0.2,0.2c0,0.1-0.1,0.1-0.1,0.2c0,0,0,0,0,0c0,0,0,0.1-0.1,0.1
						c0,0,0,0,0,0c0,0.1-0.1,0.2-0.1,0.2c0,0,0,0.1-0.1,0.1c0,0,0,0,0,0c0,0,0,0.1-0.1,0.1c0,0.1-0.1,0.1-0.1,0.1
						c-0.1,0.1-0.2,0.3-0.2,0.4c-0.1,0.1-0.1,0.2-0.2,0.3c0,0.1-0.1,0.1-0.1,0.2c-0.1,0.1-0.1,0.2-0.2,0.3c0,0.1-0.1,0.2-0.1,0.2
						c0,0.1-0.1,0.1-0.1,0.2c-0.1,0.2-0.2,0.3-0.3,0.5c0,0,0,0.1-0.1,0.1c-0.1,0.2-0.2,0.4-0.3,0.5c0,0,0,0,0,0c0,0,0,0.1-0.1,0.1
						c0,0.1-0.1,0.1-0.1,0.1c0,0.1-0.1,0.2-0.1,0.2c0,0,0,0.1-0.1,0.1c0,0,0,0.1,0,0.1c0,0.1-0.1,0.1-0.1,0.2
						c-0.1,0.2-0.2,0.3-0.2,0.3c-0.1,0.6-0.1,1.2-0.1,1.8c0,0.3,0,0.5,0,0.8v0.1c0,0.1,0,0.2,0,0.3c0,0.3,0,0.5,0.1,0.8
						c0,0,0,0,0,0.1c0,0.2,0,0.5,0.1,0.7c0,0.1,0,0.2,0,0.4c0,0,0,0.1,0,0.1c0,0,0,0,0,0c0,0.3,0.1,0.6,0.1,0.9
						c0,0.2,0.1,0.4,0.1,0.6c0.4-0.1,0.8-0.2,1.3-0.2c-0.4-2-0.6-4-0.4-5.9l0,0c0.4-0.7,1.7-3,3.7-6.3c0.4-0.7,0.9-1.5,1.4-2.4
						c0.1-0.2,0.2-0.4,0.3-0.6c0.1-0.2,0.3-0.5,0.4-0.7v0c0.9-1.5,1.8-3,2.9-4.7c0,0,0,0,0,0c0,0,0,0,0,0c0.2-0.4,0.5-0.8,0.7-1.2
						c0.2-0.4,0.5-0.8,0.8-1.2l0,0C735.3,772.8,735.2,772.8,735.1,772.8C735.2,772.8,735.1,772.8,735.1,772.8z M931.2,797.9
						c-1.3-2.9-2.9-6.2-4.3-9.8c-1.2-3.1-2.1-5.7-2.9-8c-2.5-7-3.9-11.1-8.9-16c-1.5-1.5-3.3-3-5.5-4.7c-4.3-3.3-10.3-7.4-18.8-12.8
						c-2.7-1.7-5.4-3.4-8.3-5c-22.5-13-48.1-22.5-67.1-28c-4.7-1.4-9-2.5-12.8-3.3c-2.1-0.5-4-0.9-5.7-1.2
						c-14.4-2.6-20.3,1-28.5,11.6v0c-2.1,2.6-4.3,5.7-6.8,9.2c-0.1,0.1-0.2,0.2-0.3,0.4c-0.4,0.6-0.9,1.2-1.3,1.8
						c-1.4,1.9-2.8,3.9-4.4,6c-0.2,0.2-0.3,0.4-0.4,0.6c-3.9,5.3-7.6,10.7-11.2,15.9c0,0,0,0,0,0c-1,1.5-2,3.1-3,4.6
						c-1.5,2.2-2.9,4.4-4.2,6.5c-0.5,0.7-0.9,1.4-1.4,2.2c-0.4,0.6-0.8,1.3-1.2,1.9c-0.6,1-1.2,2-1.8,3c0,0,0,0,0,0
						c-0.2,0.4-0.5,0.8-0.7,1.2c-0.2,0.4-0.5,0.8-0.8,1.2c0,0,0,0,0,0c0,0,0,0,0,0c-1.1,1.8-2.2,3.5-3.1,5.1
						c-0.2,0.3-0.3,0.5-0.5,0.8c-0.1,0.1-0.1,0.2-0.2,0.3c-0.4,0.7-0.9,1.4-1.2,2.1c-2,3.5-3.2,5.5-3.3,5.6
						c-0.1,0.2-0.1,0.3-0.2,0.5c-0.2,2.3-0.1,4.6,0.5,6.9c0.1,0.5,0.2,1.1,0.4,1.6c0.6,2.1,1.4,4.2,2.5,6.3l0,0
						c0.6,1.2,1.3,2.3,2,3.5v0c1.3,2,2.8,4,4.6,6.1c4.5,5.3,10.2,10.5,16.9,15.3c6.2,4.5,13.1,8.7,20.5,12.5c4.5,2.3,9.2,4.5,14,6.4
						c0,0,0,0,0,0c15.9,6.5,32.9,10.9,48.5,12.1c4.9,0.4,9.5,0.6,13.8,0.7c0.1,0,0.1,0,0.2,0h0c0.4,0,0.7,0,1.1,0c0,0,0,0,0,0
						c0.4,0,0.9,0,1.3,0c0.8,0,1.5,0,2.3,0h0c34.7,0,48.9-9.2,70.3-25C941.8,820.6,937.6,811.6,931.2,797.9z M919.6,833.8
						c-14.1,10.4-25,17.9-40.9,21.7c-8.3,2-17.9,2.9-30,2.8c-0.4,0-0.9,0-1.3,0h-0.1c-0.1,0-0.3,0-0.4,0h0c-0.3,0-0.5,0-0.8,0
						c-1.8,0-3.6-0.1-5.5-0.2c0,0,0,0,0,0c-2.6-0.1-5.3-0.3-8.1-0.5c-14.3-1-30.2-5.1-45.2-11h0c-4.8-1.9-9.5-4-14.1-6.3
						c-8-4-15.6-8.5-22.2-13.2c-6.5-4.7-12.1-9.7-16.5-14.8c-2-2.4-3.8-4.8-5.1-7.1v0c-0.2-0.4-0.5-0.8-0.7-1.2c0,0,0,0,0,0
						c-1.2-2.2-2.1-4.3-2.7-6.4c-0.2-0.6-0.3-1.2-0.4-1.8c-0.4-2-0.6-4-0.4-5.9l0,0c0.4-0.7,1.7-3,3.7-6.3c0.4-0.7,0.9-1.5,1.4-2.4
						c0.1-0.2,0.2-0.4,0.3-0.6c0.1-0.2,0.3-0.5,0.4-0.7v0c0.9-1.5,1.8-3,2.9-4.7c0,0,0,0,0,0c0,0,0,0,0,0c0.2-0.4,0.5-0.8,0.7-1.2
						c0.2-0.4,0.5-0.8,0.8-1.2l0,0c1.4-2.3,2.9-4.7,4.6-7.2c0.3-0.5,0.6-1,1-1.5c1.5-2.3,3.1-4.7,4.7-7.2c0,0,0,0,0,0
						c1.6-2.4,3.3-4.9,5-7.3c2.3-3.3,4.7-6.7,7.2-10c0.5-0.6,0.9-1.2,1.4-1.8c1.5-2,2.9-3.9,4.2-5.7c0.2-0.2,0.3-0.4,0.4-0.6
						c0.1-0.1,0.1-0.2,0.2-0.2c3.5-4.9,6.4-8.9,9-11.9c6-7,10.9-9.3,20.4-8.2c0,0,0,0,0,0h0.1c1,0.1,2,0.3,3.1,0.5
						c1.3,0.2,2.8,0.5,4.3,0.9c3.7,0.8,8,1.9,12.7,3.2c19.3,5.5,45.9,15.3,69.1,28.9c2.3,1.4,4.6,2.8,6.9,4.2
						c8.2,5.3,14,9.1,18.2,12.3c2.3,1.7,4.1,3.3,5.6,4.8c0.2,0.2,0.4,0.4,0.6,0.6l0,0c0,0,0,0,0,0c4.1,4.3,5.5,8.1,7.7,14.5
						c0.8,2.3,1.8,5,3,8.1c1.4,3.7,3,7,4.3,9.9C935.3,812.8,938.5,819.8,919.6,833.8z M735.2,772.8
						C735.2,772.8,735.1,772.8,735.2,772.8c-0.1,0-0.2,0-0.2,0c-0.1,0-0.2,0-0.2,0c0,0-0.1,0-0.1,0c0,0,0,0,0,0h0
						c-0.2,0-0.5,0-0.7,0h0c-0.2,0.3-0.4,0.6-0.5,0.9c0,0,0,0.1-0.1,0.1c0,0,0,0.1-0.1,0.1c0,0,0,0,0,0c0,0,0,0,0,0.1c0,0,0,0,0,0
						c0,0,0,0,0,0c0,0,0,0,0,0c0,0,0,0,0,0c0,0,0,0,0,0c0,0,0,0,0,0c0,0-0.1,0.1-0.1,0.1c0,0,0,0,0,0c0,0,0,0,0,0.1
						c-0.1,0.2-0.3,0.5-0.4,0.7c0,0.1-0.1,0.1-0.1,0.2c0,0,0,0,0,0c0,0,0,0,0,0h0c0,0,0,0,0,0c0,0,0,0,0,0h0c-0.5,0-1-0.1-1.5-0.1
						c0,0,0,0,0,0c-1.1,1.8-2.2,3.5-3.1,5.1c0.5,0.1,0.9,0.2,1.3,0.3c0,0,0,0,0,0c0,0,0,0,0,0v0c0,0,0,0,0,0c0,0,0,0,0,0s0,0,0,0
						c-0.1,0.2-0.2,0.3-0.3,0.5c0,0,0,0,0,0c0,0,0,0,0,0c0,0.1-0.1,0.1-0.1,0.2c-0.1,0.2-0.2,0.3-0.3,0.4c0,0,0,0.1,0,0.1
						c0,0.1-0.1,0.1-0.1,0.2c0,0.1-0.1,0.1-0.1,0.2c-0.1,0.2-0.3,0.5-0.4,0.7c-0.1,0.2-0.3,0.4-0.4,0.7c-0.1,0.1-0.2,0.3-0.2,0.4
						c0,0.1-0.1,0.1-0.1,0.2c0,0,0,0,0,0s0,0,0,0c-0.1,0.1-0.1,0.2-0.2,0.3c-0.1,0.1-0.1,0.2-0.2,0.2c0,0.1-0.1,0.1-0.1,0.2
						c0,0,0,0,0,0c0,0,0,0,0,0c0,0,0,0,0,0.1c0,0,0,0,0,0c0,0.1-0.1,0.2-0.1,0.2c0,0,0,0.1-0.1,0.1v0c0,0,0,0,0,0c0,0,0,0,0,0
						c0,0,0,0,0,0c0,0,0,0,0,0c0,0.1-0.1,0.1-0.1,0.1c-0.1,0.1-0.2,0.3-0.2,0.4c-0.1,0.1-0.1,0.2-0.2,0.3c0,0.1-0.1,0.1-0.1,0.2
						c-0.1,0.1-0.1,0.2-0.2,0.3c0,0.1-0.1,0.2-0.1,0.2c0,0.1,0,0.1-0.1,0.1c0,0,0,0,0,0.1c-0.1,0.2-0.2,0.3-0.3,0.5
						c0,0,0,0.1-0.1,0.1c0,0,0,0,0,0c-0.1,0.2-0.2,0.4-0.3,0.5c0,0,0,0,0,0c0,0,0,0.1-0.1,0.1c0,0.1-0.1,0.1-0.1,0.1
						c0,0.1-0.1,0.1-0.1,0.1c0,0,0,0.1,0,0.1c0,0,0,0.1-0.1,0.1c0,0,0,0,0,0c0,0,0,0,0,0.1c0,0.1-0.1,0.1-0.1,0.2
						c-0.1,0.2-0.2,0.3-0.2,0.3c-0.1,0.6-0.1,1.2-0.1,1.8c0,0.3,0,0.5,0,0.8v0.2c0,0.1,0,0.1,0,0.2c0,0.3,0,0.5,0.1,0.8
						c0,0,0,0,0,0.1c0,0.2,0,0.5,0.1,0.7c0,0.1,0,0.2,0,0.4c0,0,0,0,0,0.1c0,0,0,0,0,0.1c0,0,0,0,0,0c0,0.3,0.1,0.6,0.1,0.9
						c0,0.2,0.1,0.4,0.1,0.6c0.4-0.1,0.8-0.2,1.3-0.2c-0.4-2-0.6-4-0.4-5.9l0,0c0.4-0.7,1.7-3,3.7-6.3c0.4-0.7,0.9-1.5,1.4-2.4
						c0.1-0.2,0.2-0.4,0.3-0.6c0.1-0.2,0.3-0.5,0.4-0.7v0c0.9-1.5,1.8-3,2.9-4.7c0,0,0,0,0,0c0,0,0,0,0,0c0.2-0.4,0.5-0.8,0.7-1.2
						c0.2-0.4,0.5-0.8,0.8-1.2l0,0C735.3,772.8,735.2,772.8,735.2,772.8z M757.2,738.1c-0.2,0.2-0.3,0.4-0.5,0.6
						c-2,2.8-4.1,5.6-6,8.4c-0.5,0.7-0.9,1.3-1.4,2c-0.7,1.1-1.5,2.1-2.2,3.2c-0.2,0.3-0.4,0.6-0.6,0.9c-0.5,0.7-0.9,1.4-1.4,2.1
						c0,0,0,0,0,0.1c-0.1,0.1-0.1,0.2-0.2,0.2l0,0v0c0,0,0,0.1,0.1,0.1c0,0,0,0.1,0.1,0.1c0,0,0,0,0,0.1c0.1,0.1,0.2,0.3,0.3,0.4
						c0,0,0,0,0,0c0,0.1,0.1,0.1,0.1,0.2c0.1,0.1,0.1,0.2,0.2,0.2c1.6-2.4,3.3-4.9,5-7.3c2.3-3.3,4.7-6.7,7.2-10
						c0.5-0.6,0.9-1.2,1.4-1.8L757.2,738.1z M846.1,858.2c-1.8,0-3.6-0.1-5.5-0.2c0,0,0,0,0,0c-0.1,0.4-0.2,0.9-0.2,1.3c0,0,0,0,0,0
						c0.1,0,0.2,0,0.3,0c0,0,0.1,0,0.1,0c0,0,0,0,0,0c0.4,0,0.8,0,1.2,0h0.1c0.2,0,0.4,0,0.6,0c0.3,0,0.6,0,1,0c0.2,0,0.4,0,0.6,0
						h0.1c0.2,0,0.5,0,0.7,0c0.2,0,0.3,0,0.5,0c0.2,0,0.3,0,0.5,0h0c0,0,0.1,0,0.1,0c0,0,0,0,0,0c0,0,0,0,0,0c0,0,0,0,0,0h0
						c0,0,0,0,0,0c0,0,0,0,0,0h0.1c0,0,0,0,0.1,0c0,0,0,0,0,0c0,0,0,0,0,0h0c0,0,0,0,0,0h0c0,0,0,0,0,0h0c0,0,0,0,0,0h0
						c0-0.1,0.1-0.2,0.1-0.4v0c0-0.1,0-0.1,0.1-0.2c0,0,0,0,0,0c0,0,0,0,0,0c0,0,0,0,0,0c0-0.1,0-0.1,0-0.2c0-0.1,0.1-0.3,0.1-0.4
						C846.6,858.3,846.3,858.2,846.1,858.2z M735.2,772.8C735.2,772.8,735.1,772.8,735.2,772.8c-0.1,0-0.2,0-0.2,0
						c-0.1,0-0.2,0-0.2,0c0,0-0.1,0-0.1,0c0,0,0,0,0,0h0c-0.2,0-0.5,0-0.7,0h0c-0.2,0.3-0.4,0.6-0.5,0.9c0,0,0,0.1-0.1,0.1
						c0,0,0,0.1-0.1,0.1c0,0,0,0,0,0c0,0,0,0,0,0.1c0,0,0,0,0,0c0,0,0,0,0,0c0,0,0,0,0,0c0,0,0,0,0,0c0,0,0,0,0,0c0,0,0,0,0,0
						c0,0-0.1,0.1-0.1,0.1c0,0,0,0,0,0c0,0,0,0,0,0.1c-0.1,0.2-0.3,0.5-0.4,0.7c0,0.1-0.1,0.1-0.1,0.2c0,0,0,0,0,0c0,0,0,0,0,0h0
						c0,0,0,0,0,0c0,0,0,0,0,0h0c-0.5,0-1-0.1-1.5-0.1c0,0,0,0,0,0c-1.1,1.8-2.2,3.5-3.1,5.1c0.5,0.1,0.9,0.2,1.3,0.3c0,0,0,0,0,0
						c0,0,0,0,0,0.1c0,0,0,0,0,0c0,0,0,0,0,0c0,0,0,0,0,0c0,0,0,0,0,0s0,0,0,0c-0.1,0.2-0.2,0.3-0.3,0.5c0,0,0,0,0,0c0,0,0,0,0,0
						c0,0.1-0.1,0.1-0.1,0.2c-0.1,0.2-0.2,0.3-0.3,0.4c0,0,0,0.1,0,0.1c0,0.1-0.1,0.1-0.1,0.2c0,0,0,0.1-0.1,0.1c0,0,0,0.1,0,0.1
						c-0.1,0.2-0.3,0.5-0.4,0.7c-0.1,0.2-0.3,0.4-0.4,0.7c-0.1,0.1-0.2,0.3-0.2,0.4c0,0.1-0.1,0.1-0.1,0.2c0,0,0,0,0,0v0
						c0,0,0,0,0,0c-0.1,0.1-0.1,0.2-0.2,0.3c0,0,0,0.1-0.1,0.1c0,0,0,0.1-0.1,0.1c0,0,0,0,0,0c0,0.1-0.1,0.1-0.1,0.2c0,0,0,0,0,0
						c0,0,0,0,0,0c0,0,0,0,0,0.1c0,0,0,0,0,0c0,0.1-0.1,0.2-0.1,0.2c0,0,0,0.1-0.1,0.1v0c0,0,0,0,0,0c0,0,0,0,0,0c0,0,0,0,0,0
						c0,0,0,0,0,0c0,0.1-0.1,0.1-0.1,0.1c0,0,0,0.1-0.1,0.1c-0.1,0.1-0.1,0.2-0.2,0.3c0,0.1-0.1,0.2-0.2,0.3c0,0.1-0.1,0.1-0.1,0.2
						c-0.1,0.1-0.1,0.2-0.2,0.3c0,0,0,0,0,0s0,0,0,0c0,0.1-0.1,0.2-0.1,0.2c0,0,0,0.1,0,0.1c0,0,0,0,0,0.1c0,0,0,0,0,0.1
						c-0.1,0.2-0.2,0.3-0.3,0.5c0,0,0,0.1-0.1,0.1c0,0,0,0,0,0c-0.1,0.2-0.2,0.4-0.3,0.5c0,0,0,0,0,0h0c0,0,0,0.1-0.1,0.1
						c0,0.1-0.1,0.1-0.1,0.1c0,0.1-0.1,0.1-0.1,0.1c0,0,0,0.1,0,0.1c0,0,0,0.1-0.1,0.1c0,0,0,0,0,0c0,0,0,0,0,0.1
						c0,0.1-0.1,0.1-0.1,0.2c-0.1,0.2-0.2,0.3-0.2,0.3c-0.1,0.6-0.1,1.2-0.1,1.8c0,0.3,0,0.5,0,0.8v0.2c0,0.1,0,0.1,0,0.2
						c0,0.3,0,0.5,0.1,0.8c0,0,0,0,0,0.1c0,0.2,0,0.3,0,0.5c0,0.1,0,0.1,0,0.2l0,0c0,0.1,0,0.2,0,0.4c0,0,0,0,0,0.1c0,0,0,0,0,0.1
						c0,0,0,0,0,0c0,0.3,0.1,0.6,0.1,0.9c0,0.2,0.1,0.4,0.1,0.6c0.4-0.1,0.8-0.2,1.3-0.2c-0.4-2-0.6-4-0.4-5.9l0,0
						c0.4-0.7,1.7-3,3.7-6.3c0.4-0.7,0.9-1.5,1.4-2.4c0.1-0.2,0.2-0.4,0.3-0.6c0.1-0.2,0.3-0.5,0.4-0.7v0c0.9-1.5,1.8-3,2.9-4.7
						c0,0,0,0,0,0c0,0,0,0,0,0c0.2-0.4,0.5-0.8,0.7-1.2c0.2-0.4,0.5-0.8,0.8-1.2l0,0C735.3,772.8,735.2,772.8,735.2,772.8z
						 M757.2,738.1c-0.2,0.2-0.3,0.4-0.5,0.6c-2,2.8-4.1,5.6-6,8.4c-0.5,0.7-0.9,1.3-1.4,2c-0.7,1.1-1.5,2.1-2.2,3.2
						c-0.2,0.3-0.4,0.6-0.6,0.9c-0.5,0.7-0.9,1.4-1.4,2.1c0,0,0,0,0,0.1c0,0-0.1,0.1-0.1,0.1c0,0-0.1,0.1-0.1,0.2c0,0,0,0,0,0v0
						c0,0,0,0.1,0.1,0.1c0,0,0,0.1,0.1,0.1c0,0,0,0,0,0.1c0.1,0.1,0.2,0.3,0.3,0.4c0,0,0,0,0,0c0,0.1,0.1,0.1,0.1,0.2
						c0.1,0.1,0.1,0.2,0.2,0.2c1.6-2.4,3.3-4.9,5-7.3c2.3-3.3,4.7-6.7,7.2-10c0.5-0.6,0.9-1.2,1.4-1.8L757.2,738.1z M846.1,858.2
						c-1.8,0-3.6-0.1-5.5-0.2c0,0,0,0,0,0c-0.1,0.4-0.2,0.9-0.2,1.3c0,0,0,0,0,0c0.1,0,0.2,0,0.3,0c0,0,0.1,0,0.1,0c0,0,0,0,0,0
						c0.4,0,0.8,0,1.2,0h0.1c0.2,0,0.4,0,0.6,0c0.3,0,0.6,0,1,0c0.2,0,0.4,0,0.6,0h0.1c0.2,0,0.5,0,0.7,0c0.2,0,0.3,0,0.5,0
						c0.2,0,0.3,0,0.5,0h0c0,0,0.1,0,0.1,0c0,0,0,0,0,0c0,0,0,0,0,0c0,0,0,0,0,0h0l0,0h0.2c0,0,0,0,0.1,0c0,0,0,0,0,0c0,0,0,0,0,0h0
						c0,0,0,0,0,0h0c0,0,0,0,0,0h0c0,0,0,0,0,0h0c0-0.1,0.1-0.2,0.1-0.4c0-0.1,0-0.2,0.1-0.2c0,0,0,0,0,0c0,0,0,0,0,0c0,0,0,0,0,0
						c0-0.1,0-0.1,0-0.2h0c0-0.1,0.1-0.3,0.1-0.4C846.6,858.3,846.3,858.2,846.1,858.2z"/>
				</g>
				<path class="st27" d="M781.4,732.6c6.5,14.2,55.4,45.3,67,56.8c11.6,11.6,6.2-1.8,33.8-5.3c24.3-3.1,35.4-5.6,31.1-20
					c-4.3-4-11.2-8.8-23.1-16.4c-31.8-20.3-73.3-33.6-93-37.3c-3,0.5-5.9,1.1-8.4,1.7C777.2,714.8,774.9,718.5,781.4,732.6
					L781.4,732.6z"/>
				<g>
					<path class="st28" d="M848.3,789.5c-11.6-11.6-16.7-36.6-23.1-50.7c-6.5-14.2-48-24-36.5-26.7c2.5-0.6,5.4-1.2,8.4-1.7
						c-0.1,0-0.3,0-0.4-0.1c-19.6-3.6-22.2,4.5-40,28.5c-17.8,24-32.9,50.7-32.9,50.7c-2.7,29.4,59.6,65.8,108.5,69.4
						c2.8,0.2,5.4,0.3,8,0.5c4.1-22.4,9.2-50.6,11.8-66.6C851,792,849.8,791,848.3,789.5L848.3,789.5z"/>
					<path class="st29" d="M925.7,788.6c-5-12.9-5.2-17.6-12.5-24.5c4.3,14.5-6.8,16.9-31.1,20c-24,3.1-23.1,13.6-30.1,8.6
						c-2.6,16-7.6,44.2-11.8,66.6c42.7,2,57.5-7.7,80.1-24.5C944.4,817.1,933.7,809.1,925.7,788.6L925.7,788.6z"/>
				</g>
				<g class="st30">
					<path class="st21" d="M857.2,851.8c-12.5-6.2-10.7-38.2-7.1-48c-10.7,37.4-36.5,3.6-47.2-8.9c-10.7-12.5-42.7-20.5-49.8-32
						c-2.4-3.8-2.8-9.6-2.5-15.7c-15,21.5-26.9,42.3-26.9,42.3c-2.7,29.4,59.6,65.8,108.5,69.4c23.3,1.7,38.9,0.3,51.4-3.4
						C873.1,855.7,862.9,854.6,857.2,851.8L857.2,851.8z"/>
				</g>
				<g>
					<path class="st20" d="M629.5,880.2c0,0,8.9-52.5,32-76.5c23.1-24,42.7-34.7,82.7-28.5c40,6.2,89.8,45.4,99.6,66.7
						c9.8,21.3,0.9,55.2-50.7,75.6c-51.6,20.5-57.8,24.9-89,24.9S626.8,944.3,629.5,880.2L629.5,880.2z"/>
					<path class="st23" d="M678.7,789.4c-0.3-0.1-0.7-0.3-1.1-0.4c0,0,0,0,0,0c-0.7,0.5-1.3,1-2,1.6c-0.5,0.4-1,0.8-1.5,1.2
						c-0.4,0.3-0.8,0.7-1.2,1c-0.5,0.4-0.9,0.8-1.4,1.2c-0.5,0.4-0.9,0.8-1.4,1.2c-0.5,0.4-1,0.9-1.5,1.4c-0.4,0.4-0.8,0.8-1.2,1.2
						c-0.4,0.4-0.8,0.7-1.2,1.1c0,0,0,0-0.1,0c-0.4,0.4-0.8,0.8-1.2,1.2c-1.2,1.1-2.3,2.3-3.5,3.5c-0.4,0.4-0.7,0.8-1.1,1.2
						c-0.2,0.2-0.4,0.5-0.7,0.7c-0.2,0.2-0.4,0.5-0.6,0.7c-0.2,0.2-0.4,0.5-0.6,0.7c-0.2,0.2-0.3,0.4-0.5,0.6
						c-0.2,0.2-0.3,0.4-0.5,0.6h0c-0.6,0-1.2,0.1-1.8,0.2c-0.8,1-1.5,2-2.2,3.1c-1.2,1.6-2.2,3.3-3.3,5.1c-1.5,2.5-2.9,5-4.2,7.6
						c-1.2,2.4-2.4,4.9-3.5,7.4c0,0,0,0,0,0c-0.3,0.6-0.6,1.3-0.8,1.9c-0.3,0.7-0.6,1.4-0.9,2.1v0c-0.5,1.3-1,2.6-1.5,3.9
						c-1,2.6-1.9,5.1-2.7,7.6c-0.3,0.8-0.6,1.7-0.8,2.5c-0.4,1.4-0.9,2.7-1.2,4c-0.5,1.6-0.9,3.2-1.4,4.7c-0.1,0.4-0.2,0.8-0.3,1.1
						c0,0,0,0,0,0c0,0,0,0.1,0,0.1c-0.4,1.5-0.8,2.9-1.1,4.2c0.1,0.1,0.3,0.3,0.4,0.4c0.2,0.2,0.5,0.5,0.7,0.7
						c-0.1,0.5-0.2,1-0.4,1.5c0.4,0.4,0.7,0.7,1.1,1.1c0.1-0.5,0.2-1,0.4-1.5c0.7-2.8,1.5-5.8,2.5-9c0.3-1,0.6-2.1,1-3.2
						c0.4-1.3,0.8-2.6,1.2-3.9c0,0,0,0,0,0c0.3-0.8,0.5-1.7,0.8-2.5c0.8-2.5,1.7-5,2.7-7.5c1.1-2.9,2.3-5.9,3.6-8.8v0
						c1.2-2.5,2.4-5.1,3.7-7.5c1.3-2.6,2.8-5.1,4.3-7.5c1-1.7,2.1-3.3,3.3-4.8c0.8-1.1,1.6-2.1,2.4-3.1c1-1.2,2-2.3,3-3.4
						c5.6-5.8,11-10.9,16.5-15.1C678.9,789.5,678.8,789.5,678.7,789.4z M678.7,789.4c-0.3-0.1-0.7-0.3-1.1-0.4c0,0,0,0,0,0
						c-0.7,0.5-1.3,1-2,1.6c-0.5,0.4-1,0.8-1.5,1.2c-0.4,0.3-0.8,0.7-1.2,1c-0.5,0.4-0.9,0.8-1.4,1.2c-0.5,0.4-0.9,0.8-1.4,1.2
						c-0.5,0.4-1,0.9-1.5,1.4c-0.4,0.4-0.8,0.8-1.2,1.2c-0.4,0.4-0.8,0.7-1.2,1.1c0,0,0,0-0.1,0c-0.4,0.4-0.8,0.8-1.2,1.2
						c-1.2,1.1-2.3,2.3-3.5,3.5c-0.4,0.4-0.7,0.8-1.1,1.2c-0.2,0.2-0.4,0.5-0.7,0.7c-0.2,0.2-0.4,0.5-0.6,0.7
						c-0.2,0.2-0.4,0.5-0.6,0.7c-0.2,0.2-0.3,0.4-0.5,0.6c-0.2,0.2-0.3,0.4-0.5,0.6h0c-0.6,0-1.2,0.1-1.8,0.2c-0.8,1-1.5,2-2.2,3.1
						c-1.2,1.6-2.2,3.3-3.3,5.1c-1.5,2.5-2.9,5-4.2,7.6c-1.2,2.4-2.4,4.9-3.5,7.4c0,0,0,0,0,0c-0.3,0.6-0.6,1.3-0.8,1.9
						c-0.3,0.7-0.6,1.4-0.9,2.1v0c-0.5,1.3-1,2.6-1.5,3.9c-1,2.6-1.9,5.1-2.7,7.6c-0.3,0.8-0.6,1.7-0.8,2.5c-0.4,1.4-0.9,2.7-1.2,4
						c-0.5,1.6-0.9,3.2-1.4,4.7c-0.1,0.4-0.2,0.8-0.3,1.1c0,0,0,0,0,0c0,0,0,0.1,0,0.1c-0.4,1.5-0.8,2.9-1.1,4.2
						c0.1,0.1,0.3,0.3,0.4,0.4c0.2,0.2,0.5,0.5,0.7,0.7c-0.1,0.5-0.2,1-0.4,1.5c0.4,0.4,0.7,0.7,1.1,1.1c0.1-0.5,0.2-1,0.4-1.5
						c0.7-2.8,1.5-5.8,2.5-9c0.3-1,0.6-2.1,1-3.2c0.4-1.3,0.8-2.6,1.2-3.9c0,0,0,0,0,0c0.3-0.8,0.5-1.7,0.8-2.5
						c0.8-2.5,1.7-5,2.7-7.5c1.1-2.9,2.3-5.9,3.6-8.8v0c1.2-2.5,2.4-5.1,3.7-7.5c1.3-2.6,2.8-5.1,4.3-7.5c1-1.7,2.1-3.3,3.3-4.8
						c0.8-1.1,1.6-2.1,2.4-3.1c1-1.2,2-2.3,3-3.4c5.6-5.8,11-10.9,16.5-15.1C678.9,789.5,678.8,789.5,678.7,789.4z M845.1,841.4
						c-0.3-0.7-0.7-1.4-1.1-2.2c0,0,0,0,0,0c-2.5-4.6-6.7-10-12-15.5c-2.1-2.2-4.5-4.5-7-6.8l0,0c-0.2-0.2-0.4-0.4-0.6-0.6
						c-2.8-2.5-5.8-5.1-9-7.6h0l0,0c-12.4-9.8-27.2-19.2-42.2-25.9c-5.4-2.4-10.8-4.4-16.1-6l0,0c0,0,0,0,0,0c0,0,0,0,0,0h0
						c-4.2-1.2-8.4-2.2-12.4-2.8c-1.6-0.2-3.1-0.5-4.6-0.6c-1.5-0.2-3-0.4-4.5-0.5c0,0-0.1,0-0.2,0c0,0,0,0-0.1,0c0,0-0.1,0-0.1,0
						c-0.1,0-0.2,0-0.2,0c0,0-0.1,0-0.1,0c0,0,0,0,0,0h0c-0.2,0-0.5,0-0.7-0.1h0c-0.5-0.1-1-0.1-1.5-0.1c-1.2-0.1-2.5-0.2-3.7-0.2
						c-0.1,0-0.1,0-0.2,0c-4.8-0.2-9.2-0.1-13.4,0.3h0c-1.8,0.2-3.5,0.4-5.2,0.7c-0.3,0-0.7,0.1-1,0.2c0,0,0,0,0,0h0
						c0,0-0.1,0-0.1,0c0,0,0,0,0,0h0c-2.3,0.4-4.5,0.9-6.6,1.5c-0.5,0.1-1,0.3-1.5,0.4h0c-2.1,0.6-4.1,1.4-6.1,2.2h0
						c-1.7,0.7-3.3,1.4-4.9,2.2c-0.3,0.1-0.6,0.3-0.9,0.5c-3,1.6-5.9,3.4-8.8,5.4c-0.5,0.3-1,0.7-1.5,1.1c-0.7,0.5-1.5,1.1-2.2,1.7
						c-5.3,4.1-10.4,8.9-15.6,14.4c-1.7,1.7-3.2,3.6-4.8,5.6c-0.8,1-1.5,2-2.2,3.1c-1.2,1.6-2.2,3.3-3.3,5.1c-1.5,2.5-2.9,5-4.2,7.6
						c-1.2,2.4-2.4,4.9-3.5,7.4c0,0,0,0,0,0c-0.3,0.6-0.6,1.3-0.8,1.9c-0.3,0.7-0.6,1.4-0.9,2.1v0c-0.5,1.3-1,2.6-1.5,3.9
						c-1,2.6-1.9,5.1-2.7,7.6c-0.3,0.8-0.6,1.7-0.8,2.5c-0.4,1.4-0.9,2.7-1.2,4c-0.5,1.6-0.9,3.2-1.4,4.7c-0.1,0.4-0.2,0.8-0.3,1.1
						c0,0,0,0,0,0c0,0,0,0.1,0,0.1c-0.4,1.5-0.8,2.9-1.1,4.2c-0.1,0.5-0.2,1-0.4,1.5c-0.1,0.5-0.2,1-0.4,1.5
						c-0.8,3.4-1.5,6.4-1.9,8.6c-0.5,2.7-0.8,4.3-0.9,4.7c0,0.1,0,0.1,0,0.2c-0.1,2.4-0.1,4.8-0.1,7c0,0.6,0,1.2,0,1.8
						c0.4,13.2,3.2,23.8,8.3,32.1c1.5,2.5,3.3,4.8,5.3,6.9c4.7,4.9,10.3,8.3,16.4,10.6c0.4,0.2,0.8,0.3,1.2,0.5c0,0,0,0,0,0
						c0.4,0.1,0.8,0.3,1.2,0.4c12.3,4.1,26.2,4.3,38.5,4.3l0,0h5.1c27.2,0,35.6-3.4,70.9-17.6c5.5-2.2,11.6-4.7,18.5-7.4
						c33.6-13.3,46.6-31.1,51.7-43.6c1.9-4.7,3-9.5,3.3-14.3c0-0.4,0.1-0.9,0.1-1.3c0,0,0,0,0,0c0-0.4,0-0.9,0-1.3
						C848.7,852.4,847.5,846.7,845.1,841.4z M774.2,923.8c-34.9,14-43.2,17.4-69.9,17.4h-2.5c-12.8,0-27.6,0-40.4-4.3
						c-0.4-0.1-0.8-0.3-1.2-0.4c0,0,0,0,0,0c-0.4-0.1-0.8-0.3-1.2-0.5c-5.7-2.2-10.9-5.4-15.2-9.9c-2-2.1-3.8-4.4-5.3-6.9
						c-0.2-0.3-0.3-0.5-0.5-0.8c-4.4-7.7-6.8-17.5-7.2-29.6c0-0.7,0-1.5,0-2.2c0-2,0-4.1,0.1-6.2l0,0c0.1-0.5,0.5-2.7,1.2-6.2
						c0.3-1.5,0.7-3.2,1.2-5.2c0.1-0.5,0.2-1,0.4-1.5c0.1-0.5,0.2-1,0.4-1.5c0.7-2.8,1.5-5.8,2.5-9c0.3-1,0.6-2.1,1-3.2
						c0.4-1.3,0.8-2.6,1.2-3.9c0,0,0,0,0,0c0.3-0.8,0.5-1.7,0.8-2.5c0.8-2.5,1.7-5,2.7-7.5c1.1-2.9,2.3-5.9,3.6-8.8v0
						c1.2-2.5,2.4-5.1,3.7-7.5c1.3-2.6,2.8-5.1,4.3-7.5c1-1.7,2.1-3.3,3.3-4.8c0.8-1.1,1.6-2.1,2.4-3.1c1-1.2,2-2.3,3-3.4
						c5.6-5.8,11-10.9,16.5-15.1h0c0.7-0.6,1.4-1.1,2.2-1.6c0.5-0.3,1-0.7,1.5-1c2.5-1.7,5.1-3.3,7.8-4.7h0c1.5-0.8,2.9-1.5,4.5-2.1
						h0c1.8-0.8,3.7-1.5,5.7-2.1h0c0.1,0,0.1,0,0.2-0.1h0c2-0.6,4.1-1.2,6.3-1.6c0.4-0.1,0.8-0.2,1.2-0.2c1.7-0.3,3.4-0.6,5.1-0.8h0
						c5.4-0.6,11.2-0.8,17.6-0.3c0.5,0,1,0.1,1.5,0.1h0c0.5,0,1,0.1,1.5,0.1c1.8,0.2,3.7,0.4,5.6,0.6c1.5,0.2,3,0.4,4.6,0.7
						c2.6,0.4,5.2,0.9,7.9,1.6c6.7,1.7,13.6,4.1,20.4,7.2c18.3,8.1,36.2,20.3,49.6,32.3c2.8,2.5,5.4,5,7.7,7.4
						c6.2,6.4,10.8,12.4,13.1,17.5c0.2,0.4,0.3,0.7,0.5,1.1c0,0,0,0,0,0c1.9,4.6,2.9,9.6,2.9,14.6c0,0.4,0,0.9,0,1.3c0,0,0,0,0,0
						c0,0.4,0,0.9-0.1,1.3c0,0.2,0,0.5,0,0.7c0,0,0,0,0,0c0,0,0,0,0,0c0,0,0,0,0,0c-0.3,4.2-1.4,8.4-3,12.6
						c-4.9,12.1-17.5,29.2-50.2,42.2C785.7,919.1,779.6,921.6,774.2,923.8z M678.7,789.4c-0.3-0.1-0.7-0.3-1.1-0.4c0,0,0,0,0,0
						c-0.7,0.5-1.3,1-2,1.6c-0.5,0.4-1,0.8-1.5,1.2c-0.4,0.3-0.8,0.7-1.2,1c-0.5,0.4-0.9,0.8-1.4,1.2c-0.5,0.4-0.9,0.8-1.4,1.2
						c-0.5,0.4-1,0.9-1.5,1.4c-0.4,0.4-0.8,0.8-1.2,1.2c-0.4,0.4-0.8,0.7-1.2,1.1c0,0,0,0-0.1,0c-0.4,0.4-0.8,0.8-1.2,1.2
						c-1.2,1.1-2.3,2.3-3.5,3.5c-0.4,0.4-0.7,0.8-1.1,1.2c-0.2,0.2-0.4,0.5-0.7,0.7c-0.2,0.2-0.4,0.5-0.6,0.7
						c-0.2,0.2-0.4,0.5-0.6,0.7c-0.2,0.2-0.3,0.4-0.5,0.6c-0.2,0.2-0.3,0.4-0.5,0.6h0c-0.6,0-1.2,0.1-1.8,0.2c-0.8,1-1.5,2-2.2,3.1
						c-1.2,1.6-2.2,3.3-3.3,5.1c-1.5,2.5-2.9,5-4.2,7.6c-1.2,2.4-2.4,4.9-3.5,7.4c0,0,0,0,0,0c-0.3,0.6-0.6,1.3-0.8,1.9
						c-0.3,0.7-0.6,1.4-0.9,2.1v0c-0.5,1.3-1,2.6-1.5,3.9c-1,2.6-1.9,5.1-2.7,7.6c-0.3,0.8-0.6,1.7-0.8,2.5c-0.4,1.4-0.9,2.7-1.2,4
						c-0.5,1.6-0.9,3.2-1.4,4.7c-0.1,0.4-0.2,0.8-0.3,1.1c0,0,0,0,0,0c0,0,0,0.1,0,0.1c-0.4,1.5-0.8,2.9-1.1,4.2
						c0.1,0.1,0.3,0.3,0.4,0.4c0.2,0.2,0.5,0.5,0.7,0.7c-0.1,0.5-0.2,1-0.4,1.5c0.4,0.4,0.7,0.7,1.1,1.1c0.1-0.5,0.2-1,0.4-1.5
						c0.7-2.8,1.5-5.8,2.5-9c0.3-1,0.6-2.1,1-3.2c0.4-1.3,0.8-2.6,1.2-3.9c0,0,0,0,0,0c0.3-0.8,0.5-1.7,0.8-2.5
						c0.8-2.5,1.7-5,2.7-7.5c1.1-2.9,2.3-5.9,3.6-8.8v0c1.2-2.5,2.4-5.1,3.7-7.5c1.3-2.6,2.8-5.1,4.3-7.5c1-1.7,2.1-3.3,3.3-4.8
						c0.8-1.1,1.6-2.1,2.4-3.1c1-1.2,2-2.3,3-3.4c5.6-5.8,11-10.9,16.5-15.1C678.9,789.5,678.8,789.5,678.7,789.4z M678.7,789.4
						c-0.3-0.1-0.7-0.3-1.1-0.4c0,0,0,0,0,0c-0.7,0.5-1.3,1-2,1.6c-0.5,0.4-1,0.8-1.5,1.2c-0.4,0.3-0.8,0.7-1.2,1
						c-0.5,0.4-0.9,0.8-1.4,1.2c-0.5,0.4-0.9,0.8-1.4,1.2c-0.5,0.4-1,0.9-1.5,1.4c-0.4,0.4-0.8,0.8-1.2,1.2
						c-0.4,0.4-0.8,0.7-1.2,1.1c0,0,0,0-0.1,0c-0.4,0.4-0.8,0.8-1.2,1.2c-1.2,1.1-2.3,2.3-3.5,3.5c-0.4,0.4-0.7,0.8-1.1,1.2
						c-0.2,0.2-0.4,0.5-0.7,0.7c-0.2,0.2-0.4,0.5-0.6,0.7c-0.2,0.2-0.4,0.5-0.6,0.7c-0.2,0.2-0.3,0.4-0.5,0.6
						c-0.2,0.2-0.3,0.4-0.5,0.6h0c-0.6,0-1.2,0.1-1.8,0.2c-0.8,1-1.5,2-2.2,3.1c-1.2,1.6-2.2,3.3-3.3,5.1c-1.5,2.5-2.9,5-4.2,7.6
						c-1.2,2.4-2.4,4.9-3.5,7.4c0,0,0,0,0,0c-0.3,0.6-0.6,1.3-0.8,1.9c-0.3,0.7-0.6,1.4-0.9,2.1v0c-0.5,1.3-1,2.6-1.5,3.9
						c-1,2.6-1.9,5.1-2.7,7.6c-0.3,0.8-0.6,1.7-0.8,2.5c-0.4,1.4-0.9,2.7-1.2,4c-0.5,1.6-0.9,3.2-1.4,4.7c-0.1,0.4-0.2,0.8-0.3,1.1
						c0,0,0,0,0,0c0,0,0,0.1,0,0.1c-0.4,1.5-0.8,2.9-1.1,4.2c0.1,0.1,0.3,0.3,0.4,0.4c0.2,0.2,0.5,0.5,0.7,0.7
						c-0.1,0.5-0.2,1-0.4,1.5c0.4,0.4,0.7,0.7,1.1,1.1c0.1-0.5,0.2-1,0.4-1.5c0.7-2.8,1.5-5.8,2.5-9c0.3-1,0.6-2.1,1-3.2
						c0.4-1.3,0.8-2.6,1.2-3.9c0,0,0,0,0,0c0.3-0.8,0.5-1.7,0.8-2.5c0.8-2.5,1.7-5,2.7-7.5c1.1-2.9,2.3-5.9,3.6-8.8v0
						c1.2-2.5,2.4-5.1,3.7-7.5c1.3-2.6,2.8-5.1,4.3-7.5c1-1.7,2.1-3.3,3.3-4.8c0.8-1.1,1.6-2.1,2.4-3.1c1-1.2,2-2.3,3-3.4
						c5.6-5.8,11-10.9,16.5-15.1C678.9,789.5,678.8,789.5,678.7,789.4z"/>
				</g>
				<path class="st21" d="M751.3,898c-9.8-6.2-37.4-25.8-42.7-37.4c-5.3-11.6-9.8-48.9-9.8-48.9s-3.6,38.3-3.6,45.4
					s-22.2,34.7-32,48.9c-5.6,8.1-17.5,11.3-26.7,12.6c13.8,24.8,44.8,23.9,67.7,23.9c31.1,0,37.4-4.5,89-24.9
					c41.4-16.4,55.3-41.5,54.1-61.7C843.4,891.7,760.9,904.1,751.3,898L751.3,898z"/>
				<path class="st31" d="M843.9,842c-8.8-19.2-49.9-52.7-87.3-63.8c-10.9-0.1-24.3,0.4-30.2,3.3c-10.7,5.3-23.1,18.7-25.8,34.7
					c-0.2,1.5-0.4,3.4-0.5,5.5c1.7,11.9,4.9,31.2,8.5,39c5.3,11.6,32.9,31.1,42.7,37.4c9.5,6,92-6.4,95.9-42.2
					C847,850.9,845.8,846.2,843.9,842L843.9,842z"/>
				<path class="st6" d="M464.9,838.4c-6-5.2-12.4-10.7-19-16.2c-15.7-15.4-34-26.9-46.4-31.5c-29.4-10.7-2.7,40-10.7,74.7
					s-6.7,70.7-5.3,96.1c0.2,4.3,1.2,8,2.5,11.2c2.7,0.3,5.4,0.6,7.7,0.8c26.7,2.7,56-6.2,78.3-36.5
					C494.2,906.9,497.8,866.9,464.9,838.4L464.9,838.4z"/>
				<path class="st32" d="M383.5,908.3c-2.7-13.3-102.8-49.4-106.8-65.4c-3.7-15,14.6-29.9-12.3-25.3c-23.4,8.7-62.9,47.7-63.8,87.6
					c0,0-13.4,21.8,47.1,42.7c32.6,11.2,115.4,24.9,134.3,28.5C385.1,956,385.2,916.6,383.5,908.3L383.5,908.3z"/>
				<g>
					<g>
						<path class="st27" d="M475.6,918.5c0,0-16,33.8,8.9,54.3c24.9,20.5,28.5,14.2,79.2,8.9c50.7-5.3,88.1-20.5,95.2-40.9
							c7.1-20.5,0.9-47.1-27.6-75.6c-28.5-28.5-56.9-43.6-80.1-48c-23.1-4.5-64.9,33.8-71.2,54.3
							C473.8,891.8,475.6,918.5,475.6,918.5L475.6,918.5z"/>
						<path class="st23" d="M649.3,889.6c-0.1-0.5-0.1-0.9-0.2-1.4c-0.1-0.5-0.2-1-0.3-1.6c-0.1,0-0.2,0-0.3,0.1
							c-0.3,0-0.5,0.1-0.8,0.1c-0.1,0-0.2,0-0.2,0c0.6,1,1.2,2,1.8,2.9C649.3,889.7,649.3,889.6,649.3,889.6z M632.5,866.4
							c0.1-0.5,0.2-1,0.4-1.5c-0.2-0.2-0.5-0.5-0.7-0.7c-0.1-0.1-0.3-0.3-0.4-0.4c-0.8-0.8-1.5-1.5-2.3-2.2h0c-1-1-2-1.9-3-2.9v0
							c-0.8-0.8-1.6-1.5-2.4-2.2c0,0,0,0,0,0c-1-0.9-2-1.8-2.9-2.6c-2.2-1.9-4.4-3.8-6.6-5.6c0,0,0,0,0,0c-1.2-1-2.3-1.9-3.5-2.8
							c-0.8,0-1.5-0.1-2.3-0.2c-0.7-0.5-1.3-1-2-1.5c-0.4-0.3-0.9-0.7-1.3-1c0,0-0.1,0-0.1-0.1c-0.3-0.2-0.7-0.5-1.1-0.8
							c0,0-0.1-0.1-0.1-0.1l0,0h0c-1-0.7-2-1.4-3-2.1c0,0,0,0,0,0c-0.7-0.5-1.4-1-2.1-1.4c-0.9-0.1-1.8-0.2-2.7-0.2
							c1,0.7,2,1.3,3.1,2.1l0,0c0,0,0,0,0,0c0.7,0.5,1.4,0.9,2.1,1.4c1.6,1.1,3.3,2.3,4.9,3.6c1.2,0.9,2.4,1.8,3.6,2.8c0,0,0,0,0,0
							c2.5,1.9,4.9,4,7.4,6.1c0.5,0.4,0.9,0.8,1.4,1.2l0,0c0,0,0,0,0,0c0,0,0,0,0,0c1.1,0.9,2.2,1.9,3.2,2.9v0c1.1,1,2.1,2,3.2,3
							c1.7,1.6,3.4,3.3,5.1,5c0.2,0.2,0.5,0.5,0.7,0.7c0.4,0.4,0.7,0.7,1.1,1.1c0.4,0.4,0.7,0.8,1.1,1.1c0.1-0.5,0.2-1,0.4-1.5
							C633.2,867.1,632.9,866.7,632.5,866.4z M525.2,823.9c-0.6,0.3-1.3,0.7-1.9,1.1c-0.4,0.2-0.8,0.5-1.2,0.7
							c-0.2,0.2-0.5,0.3-0.7,0.5c-0.7,0.4-1.4,0.8-2,1.3c-0.6,0.4-1.2,0.8-1.7,1.2c-0.1,0-0.2,0.1-0.2,0.2c-0.4,0.3-0.9,0.6-1.3,0.9
							c-0.1,0.1-0.2,0.1-0.3,0.2c-0.3,0.2-0.6,0.4-0.8,0.6c-0.4,0.3-0.7,0.5-1.1,0.8c-0.6,0.5-1.2,0.9-1.8,1.4c0,0-0.1,0.1-0.1,0.1
							l0,0h0c0,0,0,0,0,0s0,0,0,0c-0.1,0.1-0.2,0.1-0.2,0.2c-0.5,0.4-1,0.8-1.4,1.1c-0.6,0.5-1.2,1-1.8,1.5c-0.5,0.4-1,0.8-1.4,1.2
							c-1.3,1.1-2.6,2.3-3.8,3.4c-0.5,0.4-0.9,0.9-1.4,1.3c0,0,0,0,0,0c-0.6,0.6-1.2,1.2-1.9,1.8c-0.4,0.4-0.8,0.8-1.1,1.1
							c-0.1,0.1-0.3,0.3-0.4,0.4c-0.2,0.2-0.5,0.5-0.7,0.7c-0.4,0.4-0.7,0.8-1.1,1.1c-0.2,0.2-0.4,0.4-0.5,0.6
							c-0.2,0.2-0.3,0.4-0.5,0.6c-0.2,0.3-0.5,0.5-0.7,0.8c-0.1,0.1-0.2,0.2-0.3,0.3c0,0-0.1,0.1-0.1,0.1c-0.1,0.1-0.2,0.2-0.3,0.3
							c-0.3,0.3-0.6,0.7-0.9,1c-0.1,0.1-0.2,0.2-0.3,0.3c-0.1,0.2-0.3,0.4-0.4,0.5c-0.1,0.1-0.2,0.2-0.3,0.3
							c-0.2,0.3-0.5,0.5-0.7,0.8c0,0,0,0,0,0c-0.1,0.1-0.2,0.3-0.4,0.4c0,0,0,0,0,0c-0.1,0.1-0.2,0.2-0.3,0.4
							c-0.2,0.2-0.4,0.4-0.5,0.7c-0.4,0.5-0.7,0.9-1.1,1.4c-0.3,0.4-0.6,0.8-0.9,1.2c0,0,0,0,0,0.1c-0.3,0.5-0.7,0.9-1,1.4
							c-0.2,0.3-0.5,0.7-0.7,1c-0.7,1.1-1.4,2.1-2.1,3.2c0,0,0,0.1-0.1,0.1h0c0,0,0,0,0,0v0c0,0.1-0.1,0.2-0.1,0.2
							c-0.1,0.1-0.1,0.2-0.2,0.3c-0.1,0.2-0.2,0.4-0.3,0.5v0c0,0,0,0,0,0.1c0,0,0,0,0,0c0,0,0,0.1-0.1,0.1c-0.1,0.2-0.2,0.3-0.3,0.5
							c-0.1,0.1-0.1,0.2-0.2,0.3l-0.2,0.3c0.2,0.5,0.4,1,0.6,1.6c0.2-0.5,0.5-1,0.8-1.4c0.2-0.4,0.4-0.8,0.7-1.1
							c2-3.4,4.6-7,7.7-10.7c0,0,0,0,0,0c0.7-0.8,1.4-1.6,2.1-2.4c0.5-0.5,0.9-1,1.4-1.5c1.2-1.4,2.5-2.7,3.9-4.1
							c1-1,2.1-2.1,3.2-3.1c3.6-3.3,7.4-6.5,11.3-9.5c0,0,0,0,0,0c3.9-2.9,7.9-5.5,11.9-7.7C526,824.3,525.6,824.1,525.2,823.9z
							 M649.3,889.6c-0.1-0.5-0.1-0.9-0.2-1.4c-0.1-0.5-0.2-1-0.3-1.6c-0.1,0-0.2,0-0.3,0.1c-0.3,0-0.5,0.1-0.8,0.1
							c-0.1,0-0.2,0-0.2,0c0.6,1,1.2,2,1.8,2.9C649.3,889.7,649.3,889.6,649.3,889.6z M632.9,864.9c-0.2-0.2-0.5-0.5-0.7-0.7
							c-0.1-0.1-0.3-0.3-0.4-0.4c-0.8-0.8-1.5-1.5-2.3-2.2h0c-1-1-2-1.9-3-2.9v0c-0.8-0.8-1.6-1.5-2.4-2.2c0,0,0,0,0,0
							c-1-0.9-2-1.8-2.9-2.6c-2.2-1.9-4.4-3.8-6.6-5.6c0,0,0,0,0,0c-1.2-1-2.3-1.9-3.5-2.8c-0.8,0-1.5-0.1-2.3-0.2
							c-0.7-0.5-1.3-1-2-1.5c-0.4-0.3-0.9-0.7-1.3-1c0,0-0.1,0-0.1-0.1c-0.3-0.2-0.7-0.5-1.1-0.8c0,0-0.1-0.1-0.1-0.1l0,0h0
							c-1-0.7-2-1.4-3-2.1c0,0,0,0,0,0c-0.7-0.5-1.4-1-2.1-1.4c-0.9-0.1-1.8-0.2-2.7-0.2c1,0.7,2,1.3,3.1,2.1l0,0c0,0,0,0,0,0
							c0.7,0.5,1.4,0.9,2.1,1.4c1.6,1.1,3.3,2.3,4.9,3.6c1.2,0.9,2.4,1.8,3.6,2.8c0,0,0,0,0,0c2.5,1.9,4.9,4,7.4,6.1
							c0.5,0.4,0.9,0.8,1.4,1.2l0,0c0,0,0,0,0,0c0,0,0,0,0,0c1.1,0.9,2.2,1.9,3.2,2.9v0c1.1,1,2.1,2,3.2,3c1.7,1.6,3.4,3.3,5.1,5
							c0.2,0.2,0.5,0.5,0.7,0.7c0.4,0.4,0.7,0.7,1.1,1.1c0.4,0.4,0.7,0.8,1.1,1.1c0.1-0.5,0.2-1,0.4-1.5c-0.3-0.4-0.7-0.7-1.1-1.1
							C632.6,865.9,632.7,865.4,632.9,864.9z M523.3,825c-0.6,0.4-1.3,0.8-1.9,1.2c-0.7,0.4-1.4,0.8-2,1.3c-0.6,0.4-1.2,0.8-1.7,1.2
							c-0.1,0-0.2,0.1-0.2,0.2c-0.4,0.3-0.9,0.6-1.3,0.9c-0.1,0.1-0.2,0.1-0.3,0.2c-0.3,0.2-0.6,0.4-0.8,0.6
							c-0.4,0.3-0.7,0.5-1.1,0.8c-0.6,0.5-1.2,0.9-1.8,1.4c0,0-0.1,0.1-0.1,0.1l0,0h0c0,0,0,0,0,0s0,0,0,0c-0.1,0.1-0.2,0.1-0.2,0.2
							c-0.5,0.4-1,0.8-1.4,1.1c-0.6,0.5-1.2,1-1.8,1.5c-0.5,0.4-1,0.8-1.4,1.2c-1.3,1.1-2.6,2.3-3.8,3.4c-0.5,0.4-0.9,0.9-1.4,1.3
							c0,0,0,0,0,0c-0.6,0.6-1.2,1.2-1.9,1.8c-0.4,0.4-0.8,0.8-1.1,1.1c-0.1,0.1-0.3,0.3-0.4,0.4c-0.2,0.2-0.5,0.5-0.7,0.7
							c-0.4,0.4-0.7,0.8-1.1,1.1c-0.2,0.2-0.4,0.4-0.5,0.6c-0.2,0.2-0.3,0.4-0.5,0.6c-0.2,0.3-0.5,0.5-0.7,0.8
							c-0.1,0.1-0.2,0.2-0.3,0.3c0,0-0.1,0.1-0.1,0.1c-0.1,0.1-0.2,0.2-0.3,0.3c-0.3,0.3-0.6,0.7-0.9,1c-0.1,0.1-0.2,0.2-0.3,0.3
							c-0.1,0.2-0.3,0.4-0.4,0.5c-0.1,0.1-0.2,0.2-0.3,0.3c-0.2,0.3-0.5,0.5-0.7,0.8c0,0,0,0,0,0c-0.1,0.1-0.2,0.3-0.4,0.4
							c0,0,0,0,0,0c-0.1,0.1-0.2,0.2-0.3,0.4c-0.2,0.2-0.4,0.4-0.5,0.7c-0.4,0.5-0.7,0.9-1.1,1.4c-0.3,0.4-0.6,0.8-0.9,1.2
							c0,0,0,0,0,0.1c-0.3,0.5-0.7,0.9-1,1.4c-0.2,0.3-0.5,0.7-0.7,1c-0.7,1.1-1.4,2.1-2.1,3.2c0,0,0,0.1-0.1,0.1h0c0,0,0,0,0,0v0
							c0,0.1-0.1,0.2-0.1,0.2c-0.1,0.1-0.1,0.2-0.2,0.3c-0.1,0.2-0.2,0.4-0.3,0.5v0c0,0,0,0,0,0.1c0,0,0,0,0,0c0,0,0,0.1-0.1,0.1
							c-0.1,0.2-0.2,0.3-0.3,0.5c-0.1,0.1-0.1,0.2-0.2,0.3l-0.2,0.3c0.2,0.5,0.4,1,0.6,1.6c0.2-0.5,0.5-1,0.8-1.4
							c0.2-0.4,0.4-0.8,0.7-1.1c2-3.4,4.6-7,7.7-10.7c0,0,0,0,0,0c0.7-0.8,1.4-1.6,2.1-2.4c0.5-0.5,0.9-1,1.4-1.5
							c1.2-1.4,2.5-2.7,3.9-4.1c1-1,2.1-2.1,3.2-3.1c3.6-3.3,7.4-6.5,11.3-9.5c0,0,0,0,0,0c3.9-2.9,7.9-5.5,11.9-7.7
							c-0.4-0.3-0.8-0.5-1.3-0.7C524.5,824.2,523.9,824.6,523.3,825z M660.7,909c-2-7.5-5.5-15.1-10.4-22.7
							c-1.1-1.7-2.3-3.5-3.6-5.2c-2.4-3.3-5-6.6-7.9-9.8c-1.5-1.8-3.2-3.5-4.9-5.3c-0.4-0.4-0.7-0.7-1.1-1.1
							c-0.2-0.2-0.5-0.5-0.7-0.7c-0.1-0.1-0.3-0.3-0.4-0.4c-0.8-0.8-1.5-1.5-2.3-2.2h0c-1-1-2-1.9-3-2.9v0c-0.8-0.8-1.6-1.5-2.4-2.2
							c0,0,0,0,0,0c-1-0.9-2-1.8-2.9-2.6c-2.2-1.9-4.4-3.8-6.6-5.6c0,0,0,0,0,0c-1.2-1-2.3-1.9-3.5-2.8c-1.5-1.2-2.9-2.3-4.4-3.4
							c0,0,0,0,0,0h0c-1.3-0.9-2.5-1.9-3.8-2.8c0,0,0,0,0,0c-0.4-0.3-0.7-0.5-1.1-0.8c-0.5-0.3-1-0.7-1.5-1
							c-1.6-1.1-3.2-2.2-4.8-3.2c-13.5-8.5-27-14.5-39.9-17.6c-1.3-0.3-2.7-0.6-4-0.9c-11.8-2.3-28.1,6-42.4,17.5l0,0h0
							c-1.5,1.2-2.9,2.4-4.3,3.6c-0.4,0.4-0.8,0.7-1.2,1.1c-1.1,1-2.2,2-3.2,3c-1.3,1.2-2.5,2.5-3.8,3.8c-1.7,1.8-3.4,3.6-5,5.5
							c-0.7,0.8-1.3,1.6-2,2.4c0,0,0,0,0,0c-2.2,2.7-4.1,5.4-5.7,8c-0.2,0.4-0.4,0.7-0.6,1c-0.3,0.4-0.5,0.9-0.8,1.3
							c-1.6,2.8-2.8,5.5-3.5,7.9c-1.3,4.3-2.3,8.9-3,13.4c-0.3,2-0.6,4.1-0.8,6.1c-0.3,3-0.5,5.9-0.7,8.7
							c-0.5,9.8-0.2,17.5-0.1,19.1c-0.7,1.7-4.1,9.9-4.8,20.2c-0.1,0.7-0.1,1.5-0.1,2.2c0,0,0,0,0,0v0c0,0.7,0,1.4,0,2.1
							c0.1,10.3,3.3,21.9,14.4,31c13.4,11,20.9,14.4,32.4,14.4c6.1,0,13.2-1,23-2.2c6.6-0.9,14.9-2,24.8-3
							c53.1-5.6,89.1-21.2,96.3-41.8c0.2-0.6,0.4-1.1,0.5-1.7c0.1-0.4,0.3-0.8,0.4-1.3v0c0.1-0.4,0.2-0.8,0.3-1.3
							C663.6,928,663.3,918.7,660.7,909z M472,939.4c0-0.8,0.1-1.6,0.2-2.4v0c0.1-0.9,0.2-1.8,0.3-2.7c1.3-8.7,4.2-15.1,4.3-15.2
							c0.1-0.2,0.1-0.4,0.1-0.6c0-0.2-0.5-8.3,0-19c0.2-2.9,0.4-5.9,0.7-9.1c0.2-1.9,0.5-3.9,0.8-5.8c0.7-4.4,1.6-8.8,2.9-12.9
							c0.5-1.8,1.3-3.6,2.3-5.6c0.2-0.5,0.5-1,0.8-1.4c0.2-0.4,0.4-0.8,0.7-1.1c2-3.4,4.6-7,7.7-10.7c0,0,0,0,0,0
							c0.7-0.8,1.4-1.6,2.1-2.4c0.5-0.5,0.9-1,1.4-1.5c1.2-1.4,2.5-2.7,3.9-4.1c1-1,2.1-2.1,3.2-3.1c3.6-3.3,7.4-6.5,11.3-9.5
							c0,0,0,0,0,0c3.9-2.9,7.9-5.5,11.9-7.7c0,0,0,0,0,0c7.4-4.1,14.6-6.6,20.8-6.6h0c1.3,0,2.5,0.1,3.7,0.3
							c1.2,0.2,2.5,0.5,3.8,0.8c11.9,2.8,24.4,8.2,37,15.9h0c1,0.6,2,1.2,3,1.9c0,0,0,0,0,0h0c0.5,0.3,1,0.6,1.5,1
							c1,0.7,2,1.3,3.1,2.1l0,0c0,0,0,0,0,0c0.7,0.5,1.4,0.9,2.1,1.4c1.6,1.1,3.3,2.3,4.9,3.6c1.2,0.9,2.4,1.8,3.6,2.8c0,0,0,0,0,0
							c2.5,1.9,4.9,4,7.4,6.1c0.5,0.4,0.9,0.8,1.4,1.2l0,0c0,0,0,0,0,0c0,0,0,0,0,0c1.1,0.9,2.2,1.9,3.2,2.9v0c1.1,1,2.1,2,3.2,3
							c1.7,1.6,3.4,3.3,5.1,5c0.2,0.2,0.5,0.5,0.7,0.7c0.4,0.4,0.7,0.7,1.1,1.1c0.4,0.4,0.7,0.8,1.1,1.1c1.1,1.1,2.1,2.2,3.1,3.4
							c2.9,3.3,5.6,6.5,8,9.8c1.1,1.6,2.2,3.1,3.2,4.7c0.6,1,1.2,2,1.8,2.9c0,0,0,0,0,0c4.3,7.1,7.4,14.2,9.2,21.2
							c2.2,8.7,2.3,17.1,0.4,25.1c-0.1,0.4-0.2,0.8-0.3,1.3c0,0,0,0,0,0c-0.1,0.4-0.2,0.9-0.4,1.3c-0.2,0.6-0.4,1.1-0.6,1.7
							c-4.9,14-25.2,25.9-55.6,33.5c-11.5,2.9-24.4,5.1-38.5,6.6c-1.2,0.1-2.4,0.3-3.6,0.4c-8.3,0.9-15.4,1.9-21.2,2.6
							c-24.8,3.3-32.2,4.3-47.3-6.8c0,0,0,0,0,0c-1.9-1.4-3.9-3-6.1-4.8C473.8,962.3,471.4,949.8,472,939.4z M525.2,823.9
							c-0.6,0.3-1.3,0.7-1.9,1.1c-0.4,0.2-0.8,0.5-1.2,0.7c-0.2,0.2-0.5,0.3-0.7,0.5c-0.7,0.4-1.4,0.8-2,1.3
							c-0.6,0.4-1.2,0.8-1.7,1.2c-0.1,0-0.2,0.1-0.2,0.2c-0.4,0.3-0.9,0.6-1.3,0.9c-0.1,0.1-0.2,0.1-0.3,0.2
							c-0.3,0.2-0.6,0.4-0.8,0.6c-0.4,0.3-0.7,0.5-1.1,0.8c-0.6,0.5-1.2,0.9-1.8,1.4c0,0-0.1,0.1-0.1,0.1l0,0h0c0,0,0,0,0,0s0,0,0,0
							c-0.1,0.1-0.2,0.1-0.2,0.2c-0.5,0.4-1,0.8-1.4,1.1c-0.6,0.5-1.2,1-1.8,1.5c-0.5,0.4-1,0.8-1.4,1.2c-1.3,1.1-2.6,2.3-3.8,3.4
							c-0.5,0.4-0.9,0.9-1.4,1.3c0,0,0,0,0,0c-0.6,0.6-1.2,1.2-1.9,1.8c-0.4,0.4-0.8,0.8-1.1,1.1c-0.1,0.1-0.3,0.3-0.4,0.4
							c-0.2,0.2-0.5,0.5-0.7,0.7c-0.4,0.4-0.7,0.8-1.1,1.1c-0.2,0.2-0.4,0.4-0.5,0.6c-0.2,0.2-0.3,0.4-0.5,0.6
							c-0.2,0.3-0.5,0.5-0.7,0.8c-0.1,0.1-0.2,0.2-0.3,0.3c0,0-0.1,0.1-0.1,0.1c-0.1,0.1-0.2,0.2-0.3,0.3c-0.3,0.3-0.6,0.7-0.9,1
							c-0.1,0.1-0.2,0.2-0.3,0.3c-0.1,0.2-0.3,0.4-0.4,0.5c-0.1,0.1-0.2,0.2-0.3,0.3c-0.2,0.3-0.5,0.5-0.7,0.8c0,0,0,0,0,0
							c-0.1,0.1-0.2,0.3-0.4,0.4c0,0,0,0,0,0c-0.1,0.1-0.2,0.2-0.3,0.4c-0.2,0.2-0.4,0.4-0.5,0.7c-0.4,0.5-0.7,0.9-1.1,1.4
							c-0.3,0.4-0.6,0.8-0.9,1.2c0,0,0,0,0,0.1c-0.3,0.5-0.7,0.9-1,1.4c-0.2,0.3-0.5,0.7-0.7,1c-0.7,1.1-1.4,2.1-2.1,3.2
							c0,0,0,0.1-0.1,0.1h0c0,0,0,0,0,0v0c0,0.1-0.1,0.2-0.1,0.2c-0.1,0.1-0.1,0.2-0.2,0.3c-0.1,0.2-0.2,0.4-0.3,0.5v0
							c0,0,0,0,0,0.1c0,0,0,0,0,0c0,0,0,0.1-0.1,0.1c-0.1,0.2-0.2,0.3-0.3,0.5c-0.1,0.1-0.1,0.2-0.2,0.3l-0.2,0.3
							c0.2,0.5,0.4,1,0.6,1.6c0.2-0.5,0.5-1,0.8-1.4c0.2-0.4,0.4-0.8,0.7-1.1c2-3.4,4.6-7,7.7-10.7c0,0,0,0,0,0
							c0.7-0.8,1.4-1.6,2.1-2.4c0.5-0.5,0.9-1,1.4-1.5c1.2-1.4,2.5-2.7,3.9-4.1c1-1,2.1-2.1,3.2-3.1c3.6-3.3,7.4-6.5,11.3-9.5
							c0,0,0,0,0,0c3.9-2.9,7.9-5.5,11.9-7.7C526,824.3,525.6,824.1,525.2,823.9z M632.5,866.4c0.1-0.5,0.2-1,0.4-1.5
							c-0.2-0.2-0.5-0.5-0.7-0.7c-0.1-0.1-0.3-0.3-0.4-0.4c-0.8-0.8-1.5-1.5-2.3-2.2h0c-1-1-2-1.9-3-2.9v0c-0.8-0.8-1.6-1.5-2.4-2.2
							c0,0,0,0,0,0c-1-0.9-2-1.8-2.9-2.6c-2.2-1.9-4.4-3.8-6.6-5.6c0,0,0,0,0,0c-1.2-1-2.3-1.9-3.5-2.8c-0.8,0-1.5-0.1-2.3-0.2
							c-0.7-0.5-1.3-1-2-1.5c-0.4-0.3-0.9-0.7-1.3-1c0,0-0.1,0-0.1-0.1c-0.3-0.2-0.7-0.5-1.1-0.8c0,0-0.1-0.1-0.1-0.1l0,0h0
							c-1-0.7-2-1.4-3-2.1c0,0,0,0,0,0c-0.7-0.5-1.4-1-2.1-1.4c-0.9-0.1-1.8-0.2-2.7-0.2c1,0.7,2,1.3,3.1,2.1l0,0c0,0,0,0,0,0
							c0.7,0.5,1.4,0.9,2.1,1.4c1.6,1.1,3.3,2.3,4.9,3.6c1.2,0.9,2.4,1.8,3.6,2.8c0,0,0,0,0,0c2.5,1.9,4.9,4,7.4,6.1
							c0.5,0.4,0.9,0.8,1.4,1.2l0,0c0,0,0,0,0,0c0,0,0,0,0,0c1.1,0.9,2.2,1.9,3.2,2.9v0c1.1,1,2.1,2,3.2,3c1.7,1.6,3.4,3.3,5.1,5
							c0.2,0.2,0.5,0.5,0.7,0.7c0.4,0.4,0.7,0.7,1.1,1.1c0.4,0.4,0.7,0.8,1.1,1.1c0.1-0.5,0.2-1,0.4-1.5
							C633.2,867.1,632.9,866.7,632.5,866.4z M649.3,889.6c-0.1-0.5-0.1-0.9-0.2-1.4c-0.1-0.5-0.2-1-0.3-1.6c-0.1,0-0.2,0-0.3,0.1
							c-0.3,0-0.5,0.1-0.8,0.1c-0.1,0-0.2,0-0.2,0c0.6,1,1.2,2,1.8,2.9C649.3,889.7,649.3,889.6,649.3,889.6z M525.2,823.9
							c-0.6,0.3-1.3,0.7-1.9,1.1c-0.4,0.2-0.8,0.5-1.2,0.7c-0.2,0.2-0.5,0.3-0.7,0.5c-0.7,0.4-1.4,0.8-2,1.3
							c-0.3,0.2-0.5,0.4-0.8,0.5c0,0-0.1,0-0.1,0.1c-0.3,0.2-0.5,0.4-0.8,0.6c-0.1,0-0.2,0.1-0.2,0.2c-0.4,0.3-0.9,0.6-1.3,0.9
							c-0.1,0.1-0.2,0.1-0.3,0.2c-0.3,0.2-0.6,0.4-0.8,0.6c-0.4,0.3-0.7,0.5-1.1,0.8c-0.6,0.5-1.2,0.9-1.8,1.4c0,0-0.1,0.1-0.1,0.1
							l0,0h0c0,0,0,0,0,0s0,0,0,0c-0.1,0.1-0.2,0.1-0.2,0.2c-0.5,0.4-1,0.8-1.4,1.1c-0.6,0.5-1.2,1-1.8,1.5c-0.5,0.4-1,0.8-1.4,1.2
							c-1.3,1.1-2.6,2.3-3.8,3.4c-0.5,0.4-0.9,0.9-1.4,1.3c0,0,0,0,0,0c-0.6,0.6-1.2,1.2-1.9,1.8c-0.4,0.4-0.8,0.8-1.1,1.1
							c-0.1,0.1-0.3,0.3-0.4,0.4c-0.2,0.2-0.5,0.5-0.7,0.7c-0.4,0.4-0.7,0.8-1.1,1.1c-0.2,0.2-0.4,0.4-0.5,0.6
							c-0.2,0.2-0.3,0.4-0.5,0.6c-0.2,0.3-0.5,0.5-0.7,0.8c-0.1,0.1-0.2,0.2-0.3,0.3c0,0-0.1,0.1-0.1,0.1c-0.1,0.1-0.2,0.2-0.3,0.3
							c-0.3,0.3-0.6,0.7-0.9,1c-0.1,0.1-0.2,0.2-0.3,0.3c-0.1,0.2-0.3,0.4-0.4,0.5c-0.1,0.1-0.2,0.2-0.3,0.3
							c-0.2,0.3-0.5,0.5-0.7,0.8c0,0,0,0,0,0c-0.1,0.1-0.2,0.3-0.4,0.4c0,0,0,0,0,0c-0.1,0.1-0.2,0.2-0.3,0.4
							c-0.2,0.2-0.4,0.4-0.5,0.7c-0.4,0.5-0.7,0.9-1.1,1.4c-0.3,0.4-0.6,0.8-0.9,1.2c0,0,0,0,0,0.1c-0.3,0.5-0.7,0.9-1,1.4
							c-0.2,0.3-0.5,0.7-0.7,1c-0.7,1.1-1.4,2.1-2.1,3.2c0,0,0,0.1-0.1,0.1h0c0,0,0,0,0,0v0c0,0.1-0.1,0.2-0.1,0.2
							c-0.1,0.1-0.1,0.2-0.2,0.3c-0.1,0.2-0.2,0.4-0.3,0.5v0c0,0,0,0,0,0.1c0,0,0,0,0,0c0,0,0,0.1-0.1,0.1c-0.1,0.2-0.2,0.3-0.3,0.5
							c-0.1,0.1-0.1,0.2-0.2,0.3l-0.2,0.3c0.2,0.5,0.4,1,0.6,1.6c0.2-0.5,0.5-1,0.8-1.4c0.2-0.4,0.4-0.8,0.7-1.1
							c2-3.4,4.6-7,7.7-10.7c0,0,0,0,0,0c0.7-0.8,1.4-1.6,2.1-2.4c0.5-0.5,0.9-1,1.4-1.5c1.2-1.4,2.5-2.7,3.9-4.1
							c1-1,2.1-2.1,3.2-3.1c3.6-3.3,7.4-6.5,11.3-9.5c0,0,0,0,0,0c3.9-2.9,7.9-5.5,11.9-7.7C526,824.3,525.6,824.1,525.2,823.9z
							 M632.5,866.4c0.1-0.5,0.2-1,0.4-1.5c-0.2-0.2-0.5-0.5-0.7-0.7c-0.1-0.1-0.3-0.3-0.4-0.4c-0.8-0.8-1.5-1.5-2.3-2.2h0
							c-1-1-2-1.9-3-2.9v0c-0.8-0.8-1.6-1.5-2.4-2.2c0,0,0,0,0,0c-1-0.9-2-1.8-2.9-2.6c-2.2-1.9-4.4-3.8-6.6-5.6c0,0,0,0,0,0
							c-1.2-1-2.3-1.9-3.5-2.8c-0.8,0-1.5-0.1-2.3-0.2c-0.7-0.5-1.3-1-2-1.5c-0.4-0.3-0.9-0.7-1.3-1c0,0-0.1,0-0.1-0.1
							c-0.3-0.2-0.7-0.5-1.1-0.8c0,0-0.1-0.1-0.1-0.1l0,0h0c-1-0.7-2-1.4-3-2.1c0,0,0,0,0,0c-0.7-0.5-1.4-1-2.1-1.4
							c-0.9-0.1-1.8-0.2-2.7-0.2c1,0.7,2,1.3,3.1,2.1l0,0c0,0,0,0,0,0c0.7,0.5,1.4,0.9,2.1,1.4c1.6,1.1,3.3,2.3,4.9,3.6
							c1.2,0.9,2.4,1.8,3.6,2.8c0,0,0,0,0,0c2.5,1.9,4.9,4,7.4,6.1c0.5,0.4,0.9,0.8,1.4,1.2l0,0c0,0,0,0,0,0c0,0,0,0,0,0
							c1.1,0.9,2.2,1.9,3.2,2.9v0c1.1,1,2.1,2,3.2,3c1.7,1.6,3.4,3.3,5.1,5c0.2,0.2,0.5,0.5,0.7,0.7c0.4,0.4,0.7,0.7,1.1,1.1
							c0.4,0.4,0.7,0.8,1.1,1.1c0.1-0.5,0.2-1,0.4-1.5C633.2,867.1,632.9,866.7,632.5,866.4z M649.3,889.6c-0.1-0.5-0.1-0.9-0.2-1.4
							c-0.1-0.5-0.2-1-0.3-1.6c-0.1,0-0.2,0-0.3,0.1c-0.3,0-0.5,0.1-0.8,0.1c-0.1,0-0.2,0-0.2,0c0.6,1,1.2,2,1.8,2.9
							C649.3,889.7,649.3,889.6,649.3,889.6z"/>
					</g>
					<path class="st24" d="M578.3,955c4-10.7-8-54.7-14.7-70.7c-5.4-13-16.9-48.7-38.5-60.4c-20.1,11.3-40.9,33.5-45.2,47.5
						c-6.2,20.5-4.5,47.2-4.5,47.2s-16,33.8,8.9,54.3c24.9,20.5,28.5,14.2,79.2,8.9c14.6-1.5,28.1-3.9,40.1-7
						C588.5,966.5,576.9,958.9,578.3,955L578.3,955z"/>
					<path class="st32" d="M648.8,886.4c0.5,2.8,0.9,5.6,1.2,8.1c1.8,16.9-22.2,39.1-44.5,42.7s-28.5-5.3-30.2-21.3
						c-1.8-16-16-39.2-16-39.2s4.5,17.8,7.1,33.8c2.7,16-0.9,40.9-19.6,58.7c-17.1,13.8-42,10.8-58.5,6.6
						c21.6,16.7,27.4,10.9,75.3,5.8c50.7-5.3,88.1-20.5,95.2-40.9C664.1,925.5,662,906.7,648.8,886.4L648.8,886.4z"/>
				</g>
				<path class="st33" d="M127.7,657.8c0,0,14.2-11.6,21.4-13.3c7.1-1.8,9.8,1.8,9.8,1.8l43.6,17.8l-51.6-9.8l-38.3,20.5
					L127.7,657.8L127.7,657.8z"/>
				<path class="st27" d="M489.8,859.8c-8.7,10.8,11.6,7.1,23.1,7.1s16.9-37.8,12.5-37.4C515.6,830.4,504.1,842,489.8,859.8z"/>
			</g>
			<g class="st34">
				<path class="st35" d="M332.8,109.2c-63.4,50.7-105.8,117.7-130.2,195c-28.6,90.5-28.9,179.8-3,270.7c1.9,6.4,10.8-1.4,9.9-6
					c-17.2-84-20.3-164.8,0.9-248.3c20.3-80.1,62.1-153.8,123.6-209C335.5,110.1,334.9,107.5,332.8,109.2L332.8,109.2z"/>
				<path class="st35" d="M308.6,711.3c-20.1-46.1-45.7-86.6-58.3-136c-13.5-52.7-15.5-108.2-13-162.2c0.1-2.8-3.4-0.5-3.6,1.3
					c-9.6,107.4,3.1,214.4,65.6,305.1C302.8,724.5,310.5,715.7,308.6,711.3z"/>
				<path class="st35" d="M173.6,655.3C157.5,592,135,531.9,128.4,466.4c-3.5-35.1-1.6-69.8,3.4-104.6c4.5-31.6,9-69,21.8-98.3
					c1.9-4.3-3.9-3.1-5.3-0.4c-13.5,25.8-18.9,56.9-25.4,85.1c-8.3,36.1-12,72.8-10.8,109.8c2.2,68.1,18.7,144.6,52,204.4
					C166.8,667.3,174.6,659.1,173.6,655.3L173.6,655.3z"/>
				<path class="st35" d="M260.7,733.1c-20.1-32.7-43.7-66.2-58.1-101.8c-1.4-3.3-6.8,2.4-5.9,5.2c11.9,36.5,33.9,72.4,56,103.7
					C255.7,744.3,262.9,736.7,260.7,733.1L260.7,733.1z"/>
				<path class="st35" d="M291.4,30.8C203.6,70.4,137.7,140,92.5,224c-48.3,89.8-74.2,195.1-50.4,296c1.8,7.9,12.6-1.8,11.8-7.2
					c-26-187.1,64.8-390.1,237.4-476.6C293.4,35.2,294.9,29.2,291.4,30.8L291.4,30.8z"/>
				<path class="st35" d="M364.7,49.3c-62.1,9.3-129.1,53.4-156.4,110.9c-2.5,5.3,3.3,5.4,5.5,1.4c30.5-55.9,90.4-83.2,148.2-101.4
					C365.6,59.1,371.2,48.3,364.7,49.3L364.7,49.3z"/>
				<path class="st35" d="M399,101.4c-18.9,18.1-36.5,35.6-49.2,58.7c-3.3,6,3.6,6,6.3,1.6c13.1-21,28-38,45.4-55.4
					C404.5,103.3,403.2,97.4,399,101.4L399,101.4z"/>
				<path class="st35" d="M139.6,774.6c-5.8-4.2-11.4-8.8-17-13.7c-0.5-0.5-1.1-1-1.7-1.5c-0.5-0.5-1.1-1-1.6-1.5
					c-5.3-4.9-10.5-10.1-15.5-15.5c-0.3-0.4-0.7-0.7-1-1.1c-0.3-0.4-0.7-0.7-1-1.1c-1.3-1.4-2.6-2.9-3.9-4.3c0,0,0,0,0,0
					c-0.6-0.6-1.1-1.3-1.7-1.9c-0.6-0.6-1.1-1.3-1.7-1.9c-0.6-0.7-1.1-1.3-1.7-2c-24.7-29.4-45.1-63.8-59.8-96
					c-12.1-26.8-21.4-53.9-32.3-81c-0.3-0.8-0.6-1.6-0.9-2.4V339.9c2.4-13,5.1-25.9,8-38.5c15.1-64.9,45.2-121.6,79.5-178.2
					c1-1.7,3.7-1.6,2.4,0.6c-35.6,60.5-62.8,121.9-76.1,191.2c-9.9,51.9-9,101.4-8.5,153.7c0.8,84.5,39.3,163.9,88.6,233.1
					c0.3,0.5,0.6,0.9,1,1.3c0.3,0.5,0.6,0.9,1,1.4c6.7,9.3,13.6,18.4,20.6,27.3c0,0,0,0,0,0c0.7,0.9,1.5,1.9,2.2,2.8
					c0.3,0.4,0.6,0.7,0.9,1.1c0.3,0.4,0.6,0.7,0.9,1.1c6.2,7.8,12.5,15.5,18.9,23c0.4,0.5,0.8,0.9,1.2,1.4c0.4,0.5,0.8,1,1.2,1.4
					c1.3,1.5,2.6,3,3.9,4.5l0,0C148.1,770.1,142.9,777,139.6,774.6z"/>
				<path class="st35" d="M216.1,779.7c-38.2-37.5-75.6-80.1-98-129.1c-1.7-3.6-7.7,2.6-6.4,5.7c19.9,49,55.1,99.9,97.7,131.8
					C212.9,790.7,219.2,782.8,216.1,779.7L216.1,779.7z"/>
				<path class="st35" d="M238.6,0c-9,6.1-17.9,12.6-26.6,19.3c-3.4,2.6-4.5-1.6-1.9-3.7C216.5,10.2,223,5,229.5,0H238.6z"/>
				<path class="st35" d="M592.8,0c-1.2,1.2-2.6,2-3.9,1.7c-2.4-0.6-4.9-1.1-7.3-1.7H592.8z"/>
				<path class="st35" d="M708,105.3c-33.5-39.5-90.1-56.7-139.8-62.7c-24.7-3-50.6-1.4-75.4-0.3c-28.2,1.2-51.1,10.1-77.4,18.9
					c-3.1,1-5.9,8.6-1,7.1c22.3-6.9,42.7-14.1,66.3-15.9c26.5-2.1,54.5-0.7,80.9,1.9c24.1,2.4,48.2,9.4,70.6,18.3
					c25.5,10.2,46,27.2,70.1,39.7C705.7,113.9,710.4,108.2,708,105.3L708,105.3z"/>
				<path class="st35" d="M748.7,237.3c-21.8-30.8-48.1-58.3-78.5-80.6c-30.6-22.5-65.2-32.9-100.2-46c-2.6-0.9-6.4,4.8-3.4,6
					c34.1,14.1,66.3,26.9,95.7,49.8c29.3,22.9,53.2,51.1,74.4,81.5c47.5,68,62.4,146.4,74.4,226.6c0.7,4.5,6.9-0.7,7-3.4
					C821.1,388,796.7,305.2,748.7,237.3L748.7,237.3z"/>
				<path class="st35" d="M692.4,261.3c-1.5-1.7-5.5,2.6-4.2,4.4c15.4,20.1,29.4,40.4,38.1,64.4c11.2,30.9,17.2,62.5,25.8,94
					c1.3,4.9,7.4-1.2,7.2-4.4C754.6,360.5,732.4,305,692.4,261.3L692.4,261.3z"/>
				<path class="st35" d="M891.5,274.5c-1.2-4.8-8,1.1-7.3,4.5c7.7,39.8,15.7,78.1,19.8,118.6c4.6,45-4.7,92-14.2,135.8
					c-17.2,79.6-56.9,149.3-114.4,206.6c-2.8,2.8-3.5,11.2,2.1,7.2c64.1-46.3,102.2-119.8,122.5-194.7c11.8-43.3,17.6-89.8,18-134.5
					C918.3,368.4,903.1,321.9,891.5,274.5L891.5,274.5z"/>
				<path class="st35" d="M825.3,552.1c-7.3,33.5-18.8,65-34.8,95.4c-13.5,25.7-46,80.2-81.6,77.6c-6.1-0.5-14.2,12.8-7.6,13.3
					c34.7,3,62.6-32.3,80.3-58.5c26.4-38.9,42.5-84.7,51.2-130.6C834,543.6,826.1,548.5,825.3,552.1L825.3,552.1z"/>
				<path class="st35" d="M689.7,715.1c-15.3,19.7-33.4,30.5-55.8,40.5c-2.1,1-6.9,8.7-2,7.9c25-4,47.7-25.2,62.6-44.4
					C698.4,714.1,693.6,710.1,689.7,715.1L689.7,715.1z"/>
				<path class="st35" d="M865.1,415.6c-1.9-41-12-80.6-24-119.6c-0.7-2.3-5,1.4-4.5,3.3c18.6,73.9,24.1,150.3,7.9,225.1
					c-1.2,5.7,6.3,2,7.6-0.6C868.5,491.6,866.7,451,865.1,415.6L865.1,415.6z"/>
				<path class="st35" d="M989,434.6c0.1,3-6.2,8.4-6.6,4c-4.5-54.4-6-110-25.1-161.9c-16.2-44-40.3-84.6-68.6-121.9
					C841.6,92.5,778.8,33.9,706.3,0h25.3c64.7,31.3,121.4,81.7,164.3,137.5c32.2,41.9,59.5,87.1,75,137.9v0
					C986.5,326.3,987.3,381.7,989,434.6z"/>
				<path class="st35" d="M854.5,214.3c-19.8-38.4-44.4-74.8-70.5-109.1c-1.7-2.2-5.6,1.9-4.3,3.8c24.5,36.3,43.5,75.5,66.5,112.7
					C848.9,226.3,856.6,218.2,854.5,214.3L854.5,214.3z"/>
				<path class="st35" d="M954.4,439.6c-0.3-4-6.1,0.9-6,3.7c1.8,49.9-3,97.5-16.9,145.6c-13.8,47.5-32.3,94.2-68.8,128.6
					c-4.2,3.9-4.9,15.7,2.9,10.1c40.4-28.6,58.4-76.2,72.3-122C954.6,550.8,959,496.5,954.4,439.6L954.4,439.6z"/>
				<path class="st35" d="M927,743.3c-51.8,51.3-116.1,83-183.4,108.9c-5.9,2.3-10.9,17-1.8,13.5c69.4-26.8,136-62.5,188.4-116.2
					C934,745.6,932.3,738.1,927,743.3L927,743.3z"/>
				<path class="st35" d="M232,887.8c-39.5-13.8-75.5-32.5-109.8-56.5c-2.8-1.9-7.8,4.3-5.1,6.2c33.9,24.3,68.6,48.2,108.8,61
					C230.7,900,237.5,889.7,232,887.8L232,887.8z"/>
			</g>
		</g>
	</g>
</g>
</svg>
