<?xml version="1.0" encoding="utf-8"?>
<!-- Generator: Adobe Illustrator 26.4.1, SVG Export Plug-In . SVG Version: 6.00 Build 0)  -->
<svg version="1.1" id="Слой_1" xmlns="http://www.w3.org/2000/svg" xmlns:xlink="http://www.w3.org/1999/xlink" x="0px" y="0px"
	 viewBox="0 0 1000 1000" style="enable-background:new 0 0 1000 1000;" xml:space="preserve">
<style type="text/css">
	.st0{fill:#2F2F2C;}
	.st1{fill:#FFFFFF;}
</style>
<g id="a">
	<rect class="st0" width="1000" height="1000"/>
</g>
<g id="b">
	<g>
		<g>
			<path class="st1" d="M668,412L251.4,237.9c-22.7-9.5-46.9,10-42.5,34.2l80.5,444.3c4.2,23.2,31.7,33.4,50,18.7l114.9-92.4
				L659,897.1c13.6,16.9,38.2,19.5,55.1,6l45.1-36.3c16.9-13.6,19.5-38.2,6-55.1L560.6,557.2l114.9-92.4
				C693.9,450.1,689.8,421.1,668,412L668,412z"/>
			<path class="st1" d="M668,412L251.4,237.9c-22.7-9.5-46.9,10-42.5,34.2l80.5,444.3c4.2,23.2,31.7,33.4,50,18.7l114.9-92.4
				L659,897.1c13.6,16.9,38.2,19.5,55.1,6l45.1-36.3c16.9-13.6,19.5-38.2,6-55.1L560.6,557.2l114.9-92.4
				C693.9,450.1,689.8,421.1,668,412L668,412z"/>
		</g>
		<path class="st1" d="M50.5,177.9c27.2,13,54.5,25.9,81.7,38.9c12,5.7,23.1-12,11-17.8c-27.2-13-54.5-25.9-81.7-38.9
			C49.5,154.3,38.3,172.1,50.5,177.9L50.5,177.9L50.5,177.9z"/>
		<path class="st1" d="M54.8,355.5c28.1-10.8,56.3-21.6,84.5-32.4c12.6-4.8,2.7-23.3-9.7-18.6c-28.1,10.8-56.3,21.6-84.5,32.4
			C32.5,341.8,42.4,360.3,54.8,355.5L54.8,355.5L54.8,355.5z"/>
		<path class="st1" d="M179.2,70.2c7.4,29.2,14.8,58.5,22.2,87.7c3.3,13.1,23.7,8.5,20.4-4.6c-7.4-29.2-14.8-58.5-22.2-87.7
			C196.4,52.5,175.9,57.1,179.2,70.2L179.2,70.2z"/>
		<path class="st1" d="M343.4,97.4c-17.3,24.7-34.6,49.4-51.9,74.1c-7.7,11,10.1,22,17.8,11c17.3-24.7,34.6-49.4,51.9-74.1
			C369,97.3,351.1,86.3,343.4,97.4L343.4,97.4L343.4,97.4z"/>
	</g>
</g>
</svg>
