<?xml version="1.0" encoding="utf-8"?>
<!-- Generator: Adobe Illustrator 26.4.1, SVG Export Plug-In . SVG Version: 6.00 Build 0)  -->
<svg version="1.1" id="Слой_1" xmlns="http://www.w3.org/2000/svg" xmlns:xlink="http://www.w3.org/1999/xlink" x="0px" y="0px"
	 viewBox="0 0 1000 1000" style="enable-background:new 0 0 1000 1000;" xml:space="preserve">
<style type="text/css">
	.st0{fill:#348CB3;}
	.st1{opacity:0.59;fill:#FFFFFF;enable-background:new    ;}
	.st2{opacity:0.68;fill:#FFFFFF;enable-background:new    ;}
	.st3{opacity:0.54;fill:#FFFFFF;enable-background:new    ;}
	.st4{opacity:0.64;fill:#FFFFFF;enable-background:new    ;}
	.st5{opacity:0.42;fill:#FFFFFF;enable-background:new    ;}
	.st6{opacity:0.48;fill:#FFFFFF;enable-background:new    ;}
	.st7{opacity:0.58;fill:#FFFFFF;enable-background:new    ;}
	.st8{opacity:0.9;fill:#FFFFFF;enable-background:new    ;}
	.st9{opacity:0.75;fill:#FFFFFF;enable-background:new    ;}
	.st10{opacity:0.7;fill:#FFFFFF;enable-background:new    ;}
	.st11{opacity:0.6;fill:#FFFFFF;enable-background:new    ;}
	.st12{opacity:0.82;fill:#FFFFFF;enable-background:new    ;}
	.st13{opacity:0.5;fill:#FFFFFF;enable-background:new    ;}
	.st14{opacity:0.55;fill:#FFFFFF;enable-background:new    ;}
	.st15{opacity:0.99;fill:#FFFFFF;enable-background:new    ;}
	.st16{opacity:0.61;fill:#FFFFFF;enable-background:new    ;}
	.st17{opacity:0.95;fill:#FFFFFF;enable-background:new    ;}
	.st18{opacity:0.45;fill:#FFFFFF;enable-background:new    ;}
	.st19{opacity:0.77;fill:#FFFFFF;enable-background:new    ;}
	.st20{opacity:0.65;fill:#FFFFFF;enable-background:new    ;}
	.st21{opacity:0.62;fill:#FFFFFF;enable-background:new    ;}
	.st22{opacity:0.87;fill:#FFFFFF;enable-background:new    ;}
	.st23{opacity:0.83;fill:#FFFFFF;enable-background:new    ;}
	.st24{opacity:0.43;fill:#FFFFFF;enable-background:new    ;}
	.st25{opacity:0.66;fill:#FFFFFF;enable-background:new    ;}
	.st26{opacity:0.78;fill:#FFFFFF;enable-background:new    ;}
	.st27{opacity:0.88;fill:#FFFFFF;enable-background:new    ;}
	.st28{opacity:0.56;fill:#FFFFFF;enable-background:new    ;}
	.st29{fill:none;}
	.st30{fill:#121212;}
	.st31{fill:#565656;}
	.st32{fill:#171717;}
	.st33{fill:#9D9D9D;}
	.st34{fill:#666666;}
	.st35{fill:#FFFFFF;}
</style>
<g>
	<g id="a">
		<g>
			<path class="st0" d="M1000.4-3.3V999.1h-587c-1.4,0.6-3.1,0.7-4.7,0.2c-0.2-0.1-0.3-0.1-0.5-0.2H-2V-3.3H1000.4z"/>
			<g>
				<path class="st1" d="M719,301.8c-1,3-4.3,4.6-7.3,3.6c-3-1-4.6-4.3-3.6-7.3c1-3,14.7-25.5,14.7-25.5S720,298.8,719,301.8
					L719,301.8z"/>
				<path class="st2" d="M896.6,853.3c-1.2,3.5-5,5.4-8.5,4.2c-3.5-1.2-5.4-5-4.2-8.5c1.2-3.5,17.1-29.6,17.1-29.6
					S897.8,849.8,896.6,853.3L896.6,853.3z"/>
				<path class="st3" d="M213.9,163.1c-1.7,5.1-7.3,7.9-12.5,6.2c-5.1-1.7-7.9-7.3-6.2-12.5c1.7-5.1,25-43.5,25-43.5
					S215.6,158,213.9,163.1L213.9,163.1z"/>
				<path class="st4" d="M370.4,237.3c-0.8,2.5-3.6,3.9-6.1,3c-2.5-0.8-3.9-3.6-3-6.1c0.8-2.5,12.3-21.4,12.3-21.4
					S371.3,234.8,370.4,237.3L370.4,237.3z"/>
				<path class="st5" d="M581.9,474.9c-1.4,4.2-5.9,6.4-10.1,5c-4.2-1.4-6.4-5.9-5-10.1c1.4-4.2,20.3-35.3,20.3-35.3
					S583.3,470.7,581.9,474.9L581.9,474.9z"/>
				<path class="st6" d="M217.1,690.2c-0.9,2.7-3.8,4.1-6.5,3.2c-2.7-0.9-4.1-3.8-3.2-6.5c0.9-2.7,13.1-22.8,13.1-22.8
					S218,687.5,217.1,690.2L217.1,690.2z"/>
				<path class="st7" d="M553.2,664.8c-1.4,4.3-6.1,6.5-10.3,5.1c-4.3-1.4-6.5-6.1-5.1-10.3c1.4-4.3,20.8-36,20.8-36
					S554.6,660.5,553.2,664.8z"/>
				<path class="st8" d="M277.3,973.4c-1.3,3.9-5.5,5.9-9.4,4.6c-3.9-1.3-5.9-5.5-4.6-9.4c1.3-3.9,18.8-32.7,18.8-32.7
					S278.6,969.5,277.3,973.4L277.3,973.4z"/>
				<path class="st9" d="M996.8,64.6c-1,2.9-4.1,4.4-6.9,3.4c-2.9-1-4.4-4.1-3.4-6.9c1-2.9,14-24.3,14-24.3S997.8,61.8,996.8,64.6
					L996.8,64.6z"/>
				<path class="st10" d="M284.4,52c-1,3.1-4.4,4.7-7.4,3.7s-4.7-4.4-3.7-7.4c1-3.1,14.9-25.9,14.9-25.9S285.5,48.9,284.4,52
					L284.4,52z"/>
				<path class="st2" d="M417.1,995.1L417.1,995.1c-0.6,1.8-2,3.2-3.6,3.9c-1.4,0.6-3.1,0.7-4.7,0.2c-0.2-0.1-0.3-0.1-0.5-0.2
					c-3.1-1.3-4.8-4.9-3.6-8.2c1.2-3.5,24.8-53,24.8-53S418.2,991.7,417.1,995.1z"/>
				<path class="st7" d="M47.6,785.5c-0.9,2.7-3.9,4.2-6.6,3.3c-2.7-0.9-4.2-3.9-3.3-6.6c0.9-2.7,19.7-42.1,19.7-42.1
					S48.5,782.7,47.6,785.5z"/>
				<path class="st11" d="M74.7,140.9c-1.5,4.4-6.3,6.8-10.6,5.3c-4.4-1.5-6.8-6.3-5.3-10.6s31.7-67.6,31.7-67.6
					S76.2,136.5,74.7,140.9L74.7,140.9z"/>
				<path class="st12" d="M581.1,110.1c-1.2,3.5-5,5.5-8.6,4.3c-3.5-1.2-5.5-5-4.3-8.6c1.2-3.5,25.6-54.6,25.6-54.6
					S582.3,106.6,581.1,110.1L581.1,110.1z"/>
				<path class="st13" d="M74.8,985.5c-1.7,5-7.1,7.7-12.1,6c-5-1.7-7.7-7.1-6-12.1c1.7-5,36-76.9,36-76.9S76.5,980.5,74.8,985.5
					L74.8,985.5z"/>
				<path class="st14" d="M513.9,900.9c-1.3,3.8-5.4,5.9-9.3,4.6c-3.8-1.3-5.9-5.4-4.6-9.3c1.3-3.8,27.6-58.9,27.6-58.9
					S515.2,897,513.9,900.9L513.9,900.9z"/>
				<path class="st8" d="M823.7,992.8c-0.9,2.7-3.8,4.1-6.5,3.2c-2.7-0.9-4.1-3.8-3.2-6.5c0.9-2.7,19.4-41.4,19.4-41.4
					S824.6,990.1,823.7,992.8L823.7,992.8z"/>
				<path class="st15" d="M775.4,824.1c-1.3,4-5.6,6.1-9.6,4.8c-4-1.3-6.1-5.6-4.8-9.6c1.3-4,28.5-60.9,28.5-60.9
					S776.7,820.1,775.4,824.1L775.4,824.1z"/>
				<path class="st16" d="M32.9,321.4c-1.2,3.6-5.1,5.5-8.7,4.3c-3.6-1.2-5.5-5.1-4.3-8.7c1.2-3.6,25.9-55.3,25.9-55.3
					S34.1,317.8,32.9,321.4L32.9,321.4z"/>
				<path class="st17" d="M948.5,706.9c-1.5,4.5-6.4,6.9-10.8,5.4c-4.5-1.5-6.9-6.4-5.4-10.8c1.5-4.5,42.9-100.3,42.9-100.3
					S950,702.4,948.5,706.9L948.5,706.9z"/>
				<path class="st17" d="M227.8,365.3c-1.5,4.5-6.4,7-11,5.4c-4.5-1.5-7-6.4-5.4-11c1.5-4.5,43.4-101.6,43.4-101.6
					S229.3,360.8,227.8,365.3L227.8,365.3z"/>
				<path class="st18" d="M524.9,313.3c-1.6,4.6-6.6,7.1-11.2,5.6c-4.6-1.6-7.1-6.6-5.6-11.2c1.6-4.6,44.5-104.1,44.5-104.1
					S526.5,308.6,524.9,313.3L524.9,313.3z"/>
				<path class="st19" d="M734.7,136.7c-0.9,2.8-3.9,4.3-6.7,3.3c-2.8-0.9-4.3-3.9-3.3-6.7c0.9-2.8,26.6-62.3,26.6-62.3
					S735.7,133.9,734.7,136.7z"/>
				<path class="st20" d="M381.3,791.8c-0.8,2.5-3.6,3.9-6.1,3c-2.5-0.8-3.9-3.6-3-6.1c0.8-2.5,24-56.2,24-56.2
					S382.1,789.3,381.3,791.8z"/>
				<path class="st21" d="M732.4,486.1c-0.9,2.8-4,4.3-6.7,3.3c-2.8-0.9-4.3-4-3.3-6.7c0.9-2.8,26.7-62.4,26.7-62.4
					S733.3,483.3,732.4,486.1z"/>
				<path class="st8" d="M107.8,625.5c-1.2,3.5-5,5.4-8.5,4.2c-3.5-1.2-5.4-5-4.2-8.5c1.2-3.5,33.6-78.5,33.6-78.5
					S109,622,107.8,625.5L107.8,625.5z"/>
				<path class="st22" d="M894,172.1c-1.5,4.4-6.3,6.8-10.7,5.3c-4.4-1.5-6.8-6.3-5.3-10.7c1.5-4.4,42.4-99.2,42.4-99.2
					S895.5,167.7,894,172.1L894,172.1z"/>
				<path class="st18" d="M644.4,949.8c-1.7,5-7.2,7.7-12.2,6c-5-1.7-7.7-7.2-6-12.2c1.7-5,48.2-112.9,48.2-112.9
					S646.1,944.8,644.4,949.8z"/>
				<path class="st16" d="M411.1,122.9c-1.3,3.9-5.6,6-9.5,4.7s-6-5.6-4.7-9.5c1.3-3.9,37.4-87.6,37.4-87.6S412.4,119,411.1,122.9
					L411.1,122.9z"/>
				<path class="st23" d="M890.4,365c-1.6,4.7-6.7,7.3-11.5,5.7c-4.7-1.6-7.3-6.7-5.7-11.5c1.6-4.7,60.7-151.5,60.7-151.5
					S892,360.3,890.4,365L890.4,365z"/>
				<path class="st2" d="M1000.4,450.2v29.7c-0.5-0.1-0.9-0.2-1.4-0.3c-4.7-1.6-7.3-6.7-5.7-11.5
					C993.7,467.2,996.3,460.4,1000.4,450.2z"/>
				<path class="st24" d="M67.9,488.3c-1.1,3.4-4.8,5.2-8.2,4c-3.4-1.1-5.2-4.8-4-8.2c1.1-3.4,43.2-108,43.2-108
					S69.1,484.9,67.9,488.3L67.9,488.3z"/>
				<path class="st25" d="M189.9,882.9c-1.4,4.1-5.9,6.3-10,4.9c-4.1-1.4-6.3-5.9-4.9-10c1.4-4.1,52.8-131.9,52.8-131.9
					S191.3,878.8,189.9,882.9z"/>
				<path class="st26" d="M718.7,708.1c-1.6,4.8-6.8,7.4-11.7,5.8s-7.4-6.8-5.8-11.7c1.6-4.8,61.7-154.1,61.7-154.1
					S720.3,703.3,718.7,708.1z"/>
				<path class="st27" d="M413.9,599.9c-1,3.1-4.4,4.8-7.5,3.7s-4.8-4.4-3.7-7.5c1-3.1,39.7-99,39.7-99S414.9,596.9,413.9,599.9
					L413.9,599.9z"/>
				<path class="st21" d="M880.5,549.8c-0.8,2.5-3.5,3.8-6,2.9c-2.5-0.8-3.8-3.5-2.9-6c0.8-2.5,31.5-78.6,31.5-78.6
					S881.3,547.3,880.5,549.8L880.5,549.8z"/>
				<path class="st28" d="M365.6,464.3c-1.6,4.7-6.7,7.2-11.4,5.7c-4.7-1.6-7.2-6.7-5.7-11.4c1.6-4.7,60.3-150.6,60.3-150.6
					S367.2,459.6,365.6,464.3L365.6,464.3z"/>
				<path class="st5" d="M258.4,593.9c-0.9,2.6-3.7,4-6.3,3.1c-2.6-0.9-4-3.7-3.1-6.3c0.9-2.6,33.1-82.7,33.1-82.7
					S259.3,591.3,258.4,593.9L258.4,593.9z"/>
			</g>
			<path class="st29" d="M1000.4-3.3V999.1h-587c-1.4,0.6-3.1,0.7-4.7,0.2c-0.2-0.1-0.3-0.1-0.5-0.2H-2V-3.3H1000.4z"/>
			<g>
				<defs>
					<rect id="SVGID_1_" x="-300.9" y="-5.5" width="1601.8" height="1042.3"/>
				</defs>
				<clipPath id="SVGID_00000072238174263465677220000007144331741240781209_">
					<use xlink:href="#SVGID_1_"  style="overflow:visible;"/>
				</clipPath>
			</g>
		</g>
	</g>
</g>
<g>
	<path d="M521.1,359.2c14.1,5.7,28.7,8,42.8,7.1c-4.8,18.5,5,38.3,23.6,45.9c9.3,3.8,19.1,3.8,27.8,0.9
		c-0.9,20.5,11.4,40.5,31.9,48.9c26,10.6,55.5-1.4,65.9-26.8c0.6-1.6,1.2-3.1,1.6-4.7c6.5,6.1,14.2,11.2,22.9,14.7
		c37.2,15.1,79.3-2,94.1-38.3c2.9-7.2,4.6-14.6,5-22c27.5,8.2,57.1-5.1,67.9-31.7c11.5-28.2-2.6-60.7-31.6-72.5
		c-9.1-3.7-18.6-4.9-27.7-4c-3.5-18-16-34.1-34.5-41.7c-18.9-7.7-39.4-4.7-54.5,6.2c-10.5-17-26.3-31-46.3-39.1
		c-28.9-11.8-60.1-8.8-84.9,5.4c-9.1-9.3-20.3-17.1-33.2-22.3c-49.2-20.1-105,2.6-124.5,50.7C447.9,284,471.9,339.2,521.1,359.2
		L521.1,359.2z"/>
	<path d="M293.7,310.7c0,25.9-11.3,49.1-29.4,65.3c-3.4,3-7,5.8-10.9,8.4c-14.4,9.4-31.6,14.9-50.2,15c0,0.9-0.1,1.7-0.1,2.6
		c0,0.6-0.1,1.2-0.2,1.8c-2.8,27.3-26.4,48.6-55.1,48.6c-11.5,0-22.2-3.4-31.1-9.3c-6.4,12.4-19.5,20.9-34.7,20.9
		c-2.4,0-4.8-0.2-7.1-0.6c-3.4-0.6-6.7-1.7-9.7-3.1c-3.9-1.8-7.5-4.3-10.5-7.2C42.3,472.7,21.9,487.2-2,492.4V164.2
		c10.8,0.4,21.3,2.3,31.2,5.3c0.8,0.2,1.5,0.5,2.2,0.7c18.2,6,34.5,16.2,47.7,29.4c8.6-7,19.3-11.7,31-13.1c0.6-0.1,1.2-0.1,1.9-0.2
		c1.9-0.2,3.8-0.3,5.8-0.3c26.7,0,49.3,16.8,57.4,40.2c3.5-1.1,7-2,10.6-2.6c1.1-0.2,2.3-0.4,3.4-0.6c4.5-0.7,9.1-1,13.8-1
		c16.3,0,31.5,4.2,44.7,11.5c0.2,0.1,0.4,0.2,0.6,0.3c3.9,2.2,7.7,4.7,11.2,7.5c1.4,1,2.7,2.1,4,3.3c13.7,12,23.7,27.9,27.9,46
		c0.3,1.4,0.6,2.8,0.9,4.1c0.9,4.8,1.4,9.8,1.5,14.9C293.7,310,293.7,310.4,293.7,310.7z"/>
	<path d="M1000.4,165.7v239.6c-7.7-1-14.6-4.5-19.9-9.6c-14.1,22.4-39.5,37.4-68.4,37.4c-33.2,0-61.7-19.7-73.9-47.8
		c-0.3-0.8-0.7-1.6-1-2.5c-3.4-8.7-5.3-18.1-5.3-28c0-0.5,0-1,0-1.5v0c0.2-9.5,2.1-18.5,5.4-26.9c0.4-0.9,0.7-1.8,1.1-2.7
		c1.8-4.2,4-8.1,6.6-11.9v0c-0.3-0.3-0.6-0.6-0.8-0.9c-4.6-5-8.7-10.5-12.3-16.4c-0.7-1.1-1.3-2.2-1.9-3.3
		c-2.8-5.1-5.2-10.4-7.2-15.9c0,0,0-0.1-0.1-0.1c-3.8-10.7-5.8-22.2-5.8-34.2c0-0.3,0-0.6,0-1c0-0.7,0-1.4,0-2c0-0.7,0-1.4,0.1-2.1
		c0.2-4.2,0.7-8.4,1.4-12.4c0.1-0.9,0.3-1.7,0.5-2.6c6.2-31.1,26.3-57.3,53.8-72.1c0.1-0.1,0.3-0.1,0.4-0.2c3-1.6,6.2-3.1,9.4-4.4
		c0.7-0.3,1.3-0.5,2-0.8c1.3-0.5,2.5-1,3.8-1.4c4.7-1.6,9.5-3,14.4-4c7.1-1.5,14.5-2.2,22.1-2.2c4.2,0,8.4,0.2,12.4,0.7h0
		c1.5,0.2,3,0.4,4.5,0.6C964.5,140.4,984.8,150.8,1000.4,165.7z"/>
	<path d="M201.7,355.7c-2.1,7-3.2,14.4-3.2,22.1c0,43.7,36.3,79.1,81,79.1c13.6,0,26.4-3.3,37.7-9.1c8.5,12.8,23.2,21.3,40,21.3
		c23.3,0,42.7-16.4,46.8-38c8.4,7.2,19.4,11.6,31.5,11.6c26.3,0,47.6-20.8,47.6-46.5c0-2.1-0.2-4.1-0.4-6.1
		c7.5,2.2,15.4,3.4,23.6,3.4c44.8,0,81-35.4,81-79.1s-36.3-79.1-81-79.1c-30.5,0-57,16.4-70.9,40.7c-13.4-25.7-40.7-43.4-72.3-43.4
		c-19.5,0-37.5,6.8-51.5,18c-13.2-26.3-40.8-44.4-72.8-44.4c-44.8,0-81,35.4-81,79.1C158,316,175.7,342.5,201.7,355.7L201.7,355.7z"
		/>
</g>
<g>
	<path class="st30" d="M521.1,357c14.1,5.7,28.7,8,42.8,7.1c-4.8,18.5,5,38.3,23.6,45.9c9.3,3.8,19.1,3.8,27.8,0.9
		c-0.9,20.5,11.4,40.5,31.9,48.9c26,10.6,55.5-1.4,65.9-26.8c0.6-1.6,1.2-3.1,1.6-4.7c6.5,6.1,14.2,11.2,22.9,14.7
		c37.2,15.1,79.3-2,94.1-38.3c2.9-7.2,4.6-14.6,5-22c27.5,8.2,57.1-5.1,67.9-31.7c11.5-28.2-2.6-60.7-31.6-72.5
		c-9.1-3.7-18.6-4.9-27.7-4c-3.5-18-16-34.1-34.5-41.7c-18.9-7.7-39.4-4.7-54.5,6.2c-10.5-17-26.3-31-46.3-39.1
		c-28.9-11.8-60.1-8.8-84.9,5.4c-9.1-9.3-20.3-17.1-33.2-22.3c-49.2-20.1-105,2.6-124.5,50.7C447.9,281.8,471.9,337,521.1,357
		L521.1,357z"/>
	<path class="st30" d="M293.7,308.5c0,0.4,0,0.7,0,1.1c-0.4,27.9-13.9,52.6-34.8,68.6c0,0,0,0,0,0c-3.6,2.7-7.4,5.2-11.3,7.4
		c-13.1,7.3-28.3,11.5-44.4,11.5c0,1.5-0.1,2.9-0.3,4.3c0,0.6-0.1,1.1-0.2,1.7v0c-3.6,26.5-26.8,46.9-54.9,46.9
		c-11.5,0-22.2-3.4-31.1-9.3c-6.4,12.4-19.5,20.9-34.7,20.9c-2.2,0-4.4-0.2-6.5-0.5c-3.4-0.6-6.6-1.5-9.6-2.9
		c-4.2-1.9-8-4.5-11.2-7.6C42.3,470.5,21.9,485-2,490.2V162c11.3,0.4,22.1,2.4,32.4,5.7c0.7,0.2,1.4,0.5,2.1,0.7
		c17.8,6.1,33.7,16.1,46.6,29.1c8.8-7.1,19.7-11.9,31.7-13.2c0.5-0.1,1.1-0.1,1.7-0.2c1.7-0.1,3.5-0.2,5.3-0.2
		c26.7,0,49.3,16.8,57.4,40.2c4.5-1.4,9.2-2.5,14-3.2c1.2-0.2,2.5-0.3,3.7-0.5h0c3.3-0.4,6.6-0.5,10-0.5c16.2,0,31.3,4.1,44.5,11.4
		c0.2,0.1,0.3,0.2,0.5,0.3c5,2.8,9.7,6,14,9.7c1.3,1,2.5,2.1,3.7,3.2c13.2,12.3,22.6,28.4,26.4,46.5c0.3,1.3,0.5,2.7,0.8,4.1
		C293.4,299.4,293.7,303.9,293.7,308.5z"/>
	<path class="st30" d="M1000.4,163.5v239.6c-7.7-1-14.6-4.5-19.9-9.6c-14.1,22.4-39.5,37.4-68.4,37.4c-32.2,0-60-18.5-72.7-45.3
		c-0.4-0.8-0.8-1.7-1.1-2.5c-4-9.2-6.2-19.2-6.3-29.8v0c0-0.2,0-0.5,0-0.7c0-9.5,1.7-18.6,4.9-27c0.3-0.9,0.7-1.8,1.1-2.7
		c1.8-4.2,3.9-8.1,6.3-11.9c0.3-0.4,0.5-0.8,0.8-1.3v0c-4.4-4.8-8.4-9.9-11.9-15.5c-0.7-1.1-1.3-2.1-2-3.2
		c-3.3-5.7-6.1-11.6-8.3-17.9v0c0,0,0-0.1-0.1-0.1v0c-3.6-10.4-5.7-21.5-5.8-33c0-0.4,0-0.8,0-1.2c0-0.3,0-0.6,0-0.8
		c0-0.7,0-1.5,0-2.2c0.1-4.3,0.5-8.6,1.2-12.8c0.1-0.9,0.3-1.8,0.4-2.6c5.7-31.7,26-58.6,53.9-73.7c0.2-0.1,0.3-0.2,0.5-0.3
		c2.8-1.5,5.6-2.8,8.5-4.1c0.6-0.3,1.3-0.5,1.9-0.8c2-0.8,4-1.6,6.1-2.3h0c4.5-1.5,9.1-2.8,13.9-3.7c7-1.4,14.2-2.1,21.5-2.1
		c3.1,0,6.2,0.1,9.3,0.4c1.7,0.1,3.4,0.3,5.1,0.5C963,137.5,984.2,148,1000.4,163.5z"/>
	<path class="st30" d="M201.7,353.5c-2.1,7-3.2,14.4-3.2,22.1c0,43.7,36.3,79.1,81,79.1c13.6,0,26.4-3.3,37.7-9.1
		c8.5,12.8,23.2,21.3,40,21.3c23.3,0,42.7-16.4,46.8-38c8.4,7.2,19.4,11.6,31.5,11.6c26.3,0,47.6-20.8,47.6-46.5
		c0-2.1-0.2-4.1-0.4-6.1c7.5,2.2,15.4,3.4,23.6,3.4c44.8,0,81-35.4,81-79.1s-36.3-79.1-81-79.1c-30.5,0-57,16.4-70.9,40.7
		c-13.4-25.7-40.7-43.4-72.3-43.4c-19.5,0-37.5,6.8-51.5,18c-13.2-26.3-40.8-44.4-72.8-44.4c-44.8,0-81,35.4-81,79.1
		C158,313.8,175.7,340.3,201.7,353.5L201.7,353.5z"/>
</g>
<g>
	<path d="M453,232.5c-2.3,2-4.8,4-7.3,5.8c-7.8,5.8-16.5,10.7-25.9,14.6c-0.2,0.1-0.4,0.2-0.7,0.3l0,0c-0.3,0.1-0.6,0.3-1,0.4
		c-17,6.8-34.6,9.5-51.7,8.6c-0.3,0-0.6,0-0.9,0c0.1,0.2,0.1,0.4,0.2,0.6c0.4,1.8,0.8,3.6,1,5.3v0c0.1,1.2,0.3,2.5,0.3,3.7
		c0.3,6.6-0.8,13.1-3.1,19.2v0c-0.6,1.6-1.3,3.1-2.1,4.7c-5.2,10.4-14.1,19-25.9,23.8c-11.6,4.7-23.9,4.8-34.8,1.2c0,0,0,0,0,0
		c0,0.1,0,0.3,0,0.4v0.1c0.9,25.5-14.4,50.3-40,60.7c-2.6,1-5.2,1.9-7.8,2.6c-1.9,0.5-3.8,0.9-5.8,1.3c-17.6,3-35.4-1.4-49.1-11.7
		c0,0-0.1,0-0.1,0c-8.5-6.4-15.5-15.1-19.7-25.7c-0.8-2-1.5-3.9-2.1-5.9c-8.1,7.6-17.7,14-28.7,18.4c-36.6,14.9-77.1,4.8-101.7-22.3
		c-0.9-1-1.9-2.1-2.7-3.2c-3.9-4.8-7.4-10-10.3-15.7v0c-1.1-2.2-2.1-4.4-3.1-6.7c-1.5-3.6-2.7-7.2-3.6-10.8
		c-1.5-5.5-2.3-11.2-2.7-16.8c-0.6,0.2-1.2,0.3-1.7,0.5c-0.8,0.2-1.6,0.4-2.3,0.6c-7.3,1.7-14.8,2.3-22,1.7v-138
		c0.9-0.1,1.8-0.2,2.6-0.2c4.2-0.3,8.5-0.2,12.6,0.2c3.9-20,16.6-38.1,35.6-48.5c0,0,0,0,0.1,0c2.4-1.3,4.9-2.5,7.5-3.6
		c7.3-3,14.8-4.7,22.2-5.2h0c2.2-0.2,4.4-0.2,6.6-0.2c14.3,0.3,28,4.9,39.4,13.1c7.3-11.9,16.8-22.7,28.2-31.6
		c0.2-0.2,0.4-0.3,0.6-0.5c8.7-6.8,18.5-12.5,29.2-16.9c8.6-3.5,17.3-6,26.1-7.4c1-0.2,2.1-0.3,3.1-0.5c17.4-2.5,34.7-1.1,51,3.6
		c0,0,0,0,0,0c2.1,0.6,4.2,1.3,6.3,2c0,0,0,0,0,0c4.2,1.5,8.3,3.2,12.2,5.1c0.9,0.4,1.8,0.9,2.7,1.4c1.6,0.8,3.2,1.7,4.8,2.6
		c3.5-3.6,7.2-7,11.2-10.1c1.3-1,2.6-2,3.9-3c8-5.9,16.8-10.9,26.4-14.8c33.9-13.8,70.3-11.4,100.3,3.6c0.5,0.2,0.9,0.5,1.4,0.7
		c23.8,12.3,43.4,32.6,54.2,59.1c1.2,2.9,2.3,5.9,3.2,8.9c0.2,0.6,0.4,1.2,0.5,1.7c0.3,0.9,0.5,1.8,0.8,2.7c0.1,0.3,0.2,0.6,0.2,0.9
		c2.4,9,3.6,18,3.8,27v0.1C495.4,175.2,480,209.2,453,232.5z"/>
	<path d="M1000.4-3.3v348.8c-0.4,0.2-0.9,0.3-1.3,0.4c-18.2,5.4-36.9-0.1-49-12.7c-8.5,10.2-20.1,18.2-34,22.3
		c-4.6,1.4-9.1,2.2-13.7,2.7c-0.4,0-0.9,0.1-1.3,0.1c-2.9,0.2-5.9,0.2-8.8,0.1c-6-0.3-11.9-1.4-17.5-3.1
		c-15.4-4.9-28.8-15-37.4-28.9c-0.2-0.3-0.3-0.6-0.5-0.9c-2.5-4.2-4.6-8.8-6.2-13.7c-5.3,1.6-10.7,2.7-16.1,3.5
		c-0.7,0.1-1.5,0.2-2.2,0.3h0c-24.2,3.1-48.1-1.7-68.5-12.6c-1.1-0.6-2.1-1.2-3.1-1.8c-7-4.1-13.6-8.9-19.6-14.4
		c-1.5-1.4-3-2.8-4.5-4.3c-11.9-12.2-21.1-27.3-26.3-44.7c-2.1-7-3.4-14.1-4.1-21.1c-0.1-1.3-0.2-2.7-0.3-4
		c-0.2-2.8-0.2-5.6-0.1-8.3c0.1-2.9,0.2-5.8,0.5-8.7c0.1-0.7,0.1-1.5,0.2-2.2c3.7-30.1,19.8-57.8,44.6-76.3c3.2-2.4,6.6-4.6,10-6.7
		c8.1-4.8,16.8-8.7,26.2-11.5c11.6-3.5,23.4-5,34.9-4.9c0.1-3.1,0.5-6.2,1-9.2c0.2-1,0.3-1.9,0.5-2.9c1-4.8,2.5-9.4,4.4-13.8v0
		c0.5-1.2,1.1-2.5,1.7-3.7c9-18.2,25.5-32.8,46.7-39.2c9.5-2.8,19.1-3.8,28.4-3c0.9,0.1,1.8,0.2,2.6,0.3c7,0.8,13.8,2.6,20.1,5.2
		c6.1-11.3,13.6-21.8,22.4-31.3c0.2-0.3,0.5-0.6,0.8-0.8c0.1-0.1,0.2-0.2,0.3-0.4c0,0.4,0,0.8,0,1.2H1000.4z"/>
	<path d="M48.9,105.3c0,22.8-6,44.3-16.4,63c-0.3,0.6-0.7,1.2-1.1,1.8c-4.6,7.9-9.9,15.2-16,22c-0.5,0.6-1.1,1.2-1.7,1.8
		c6.7,10,11.6,21.3,14.2,33.4c0.3,1.4,0.6,2.8,0.8,4.2c0.8,4.6,1.2,9.2,1.3,14c0,0.7,0,1.4,0,2.1c0,11.9-2.2,23.2-6.1,33.8v0
		c-0.5,1.5-1.1,2.9-1.8,4.3C16.7,298.7,8.4,310.2-2,319.6V150.1c-0.1,0-0.3,0-0.4,0c0.1-0.2,0.3-0.3,0.4-0.5V2.2
		C1.5,5,4.9,7.9,8.2,11c1,1,2,1.9,3,2.9c21.6,21.9,35.5,51,37.5,83.3c0.1,1.4,0.2,2.8,0.2,4.3c0,0.6,0,1.1,0,1.7
		C48.9,103.9,48.9,104.6,48.9,105.3L48.9,105.3z"/>
	<path d="M873.6,160.9c0-54.7-45.4-99-101.4-99c-40,0-74.6,22.6-91.1,55.5c-17.5-14.1-39.9-22.5-64.4-22.5
		c-39.5,0-73.7,22.1-90.5,54.3c-17.3-30.4-50.5-51-88.7-51c-56,0-101.4,44.3-101.4,99s45.4,99,101.4,99c10.3,0,20.2-1.5,29.6-4.3
		c-0.3,2.5-0.5,5-0.5,7.6c0,32.1,26.7,58.2,59.6,58.2c15.1,0,28.9-5.5,39.4-14.6c5.1,27.1,29.4,47.6,58.6,47.6
		c21,0,39.5-10.6,50.1-26.7c14.1,7.3,30.1,11.4,47.2,11.4c56,0,101.4-44.3,101.4-99c0-9.6-1.4-18.8-4-27.6
		C851.3,232.3,873.6,199.1,873.6,160.9L873.6,160.9z"/>
</g>
<g>
	<path class="st31" d="M494.8,140.1v0.1c-0.7,36.5-18.8,71.6-49.4,93.9c-2.3,1.7-4.6,3.3-7.1,4.8c-6,3.8-12.4,7.1-19.2,9.8l0,0
		c-0.9,0.4-1.8,0.7-2.7,1.1h0c-0.6,0.2-1.2,0.5-1.8,0.7c-16.2,5.9-32.9,8.1-49,7.2c0.4,1.5,0.7,3,0.9,4.4c0.1,0.5,0.2,1,0.2,1.5
		c0.2,1.6,0.3,3.2,0.4,4.7v0c0,1.1,0,2.2,0,3.4c-0.3,7.1-2.3,14.1-5.6,20.4c-0.9,1.7-1.9,3.4-3,5v0c-5.3,7.8-13,14.1-22.4,18
		c-11.6,4.7-23.9,4.8-34.8,1.1c0.1,1.5,0.1,2.9,0,4.4c0,0.1,0,0.2,0,0.4v0.1c-0.9,22.9-14.6,44.5-36.8,55c-1,0.5-2.1,0.9-3.1,1.4
		c-0.7,0.3-1.5,0.6-2.2,0.8c0,0,0,0,0,0c-21,7.7-43.5,3.9-60.1-8.4c-0.1,0-0.1-0.1-0.2-0.1c-8.6-6.4-15.6-15.2-20-25.8
		c-0.8-2-1.5-3.9-2.1-5.9c-8.1,7.6-17.7,14-28.7,18.4c-35,14.2-73.4,5.7-98.2-18.7c-1-1-2-2-2.9-3c-5-5.4-9.3-11.4-12.8-18.1
		c-1.4-2.6-2.7-5.3-3.8-8.1c-1.1-2.7-2-5.4-2.8-8.1c-1.9-6.3-3-12.6-3.4-19v0c0-0.2,0-0.4,0-0.5c-0.6,0.2-1.2,0.3-1.7,0.5
		c-8.1,2.2-16.3,2.9-24.3,2.3V150.1c-0.1,0-0.3,0-0.4,0c0.1-0.2,0.3-0.3,0.4-0.5v-3.9c1-0.1,2.1-0.2,3.1-0.3
		c0.8-0.1,1.6-0.1,2.4-0.1c3.3-0.1,6.5,0,9.8,0.4c3.9-19.9,16.5-38,35.4-48.4c0.1,0,0.1-0.1,0.2-0.1c2.4-1.3,5-2.5,7.6-3.6
		c8-3.3,16.2-5,24.4-5.3c1.8-0.1,3.6-0.1,5.4,0c13.9,0.5,27.3,5.1,38.5,13c7.1-11.6,16.3-22,27.2-30.8c0.1-0.1,0.3-0.2,0.5-0.4
		c9-7.2,19.2-13.2,30.4-17.8c7.2-3,14.6-5.2,22-6.7c1.2-0.2,2.3-0.5,3.5-0.7c21.3-3.7,42.7-1.6,62.1,5.5h0c1,0.4,1.9,0.7,2.9,1.1h0
		c1.2,0.5,2.4,1,3.6,1.5c1.6,0.7,3.2,1.4,4.8,2.2c0.7,0.3,1.4,0.7,2.1,1c0.9,0.4,1.7,0.9,2.6,1.4c0.8,0.5,1.7,0.9,2.5,1.4
		c2.1-2.2,4.3-4.3,6.6-6.3c1.3-1.1,2.5-2.2,3.9-3.2c9.1-7.5,19.5-13.7,31.1-18.4C364.9,17,402,19.8,432.2,35.5
		c0.3,0.1,0.5,0.3,0.8,0.4c23.4,12.3,42.6,32.5,53.2,58.6c1.9,4.6,3.4,9.2,4.7,13.8c0,0.1,0.1,0.2,0.1,0.4c0.2,0.8,0.4,1.6,0.6,2.5
		c0.2,0.9,0.4,1.8,0.6,2.7C494.1,122.6,494.9,131.4,494.8,140.1z"/>
	<path class="st31" d="M1000.4-3.3v344.5c-0.4,0.2-0.9,0.3-1.3,0.4c-18.2,5.4-36.9-0.1-49-12.7c-8.5,10.2-20.1,18.2-34,22.4
		c-3.8,1.1-7.7,1.9-11.5,2.4c-0.3,0-0.7,0.1-1,0.1c-3.3,0.4-6.7,0.5-10,0.4c-5.9-0.2-11.7-1.1-17.2-2.7
		c-15.4-4.5-28.9-14.1-37.8-27.6c-0.2-0.3-0.4-0.6-0.6-0.9c-3-4.7-5.5-9.8-7.2-15.4c-4.7,1.4-9.4,2.5-14.1,3.2
		c-0.6,0.1-1.3,0.2-1.9,0.3h0c-23.6,3.5-47-0.5-67.2-10.5c-1-0.5-2-1-2.9-1.5c-8.3-4.4-16-9.7-22.9-16c-1.1-1-2.2-2-3.3-3.1
		c-12.7-12.5-22.5-28.2-27.9-46.4c-1.7-5.5-2.8-11.1-3.6-16.6c-0.2-1.4-0.3-2.7-0.5-4.1c-0.3-2.8-0.4-5.6-0.5-8.4
		c-0.1-2.9,0-5.9,0.2-8.8c0-0.7,0.1-1.5,0.1-2.2c2.7-32.8,20.3-63.3,47.8-82.6c2.8-1.9,5.6-3.8,8.6-5.5c7.7-4.5,16-8.1,25-10.7
		c11.6-3.5,23.4-5,34.9-4.9c0.1-1.9,0.2-3.7,0.5-5.6c0.1-1,0.3-2,0.4-3c0.7-4.6,1.9-9.1,3.5-13.4c0.5-1.3,1-2.5,1.5-3.8v0
		c8.6-19.9,25.8-36.1,48.4-42.9c10.6-3.1,21.2-3.9,31.5-2.7c0.9,0.1,1.8,0.2,2.8,0.4c5.8,0.9,11.5,2.5,16.9,4.8
		c5.1-9.6,11.3-18.6,18.5-27h3.9c0.2-0.3,0.5-0.6,0.8-0.8c0.1-0.1,0.2-0.2,0.3-0.4c0,0.4,0,0.8,0,1.2H1000.4z"/>
	<path class="st31" d="M48.9,101c0,0.2,0,0.3,0,0.5c0,0.6,0,1.1,0,1.7c-0.4,23.5-7.1,45.5-18.5,64.5c-0.4,0.6-0.7,1.2-1.1,1.8
		c-4.5,7.2-9.7,13.9-15.4,20.1c0.6,0.8,1.1,1.7,1.7,2.6c6.7,10.7,11.4,22.7,13.5,35.5c0.2,1.3,0.4,2.7,0.6,4.1
		c0.5,3.8,0.7,7.6,0.7,11.5c0,0.8,0,1.5,0,2.3c-0.3,12.7-3.1,24.8-7.9,35.8c-0.7,1.7-1.5,3.4-2.3,5C14.5,297.3,7,307-2,315.2V150.1
		c-0.1,0-0.3,0-0.4,0c0.1-0.2,0.3-0.3,0.4-0.5V-2.2c4.9,3.8,9.4,7.9,13.7,12.3c1,1,1.9,2,2.9,3c20.6,22.4,33.3,51.8,34.3,84
		C48.9,98.4,48.9,99.7,48.9,101L48.9,101z"/>
	<path class="st31" d="M873.6,156.5c0-54.7-45.4-99-101.4-99c-40,0-74.6,22.6-91.1,55.5c-17.5-14.1-39.9-22.5-64.4-22.5
		c-39.5,0-73.7,22.1-90.5,54.3c-17.3-30.4-50.5-51-88.7-51c-56,0-101.4,44.3-101.4,99s45.4,99,101.4,99c10.3,0,20.2-1.5,29.6-4.3
		c-0.3,2.5-0.5,5-0.5,7.6c0,32.1,26.7,58.2,59.6,58.2c15.1,0,28.9-5.5,39.4-14.6c5.1,27.1,29.4,47.6,58.6,47.6
		c21,0,39.5-10.6,50.1-26.7c14.1,7.3,30.1,11.4,47.2,11.4c56,0,101.4-44.3,101.4-99c0-9.6-1.4-18.8-4-27.6
		C851.3,227.9,873.6,194.7,873.6,156.5L873.6,156.5z"/>
</g>
<g>
	<path class="st32" d="M10.4,118.9c0,9.6-2.5,18.6-6.9,26.4c-0.9,1.6-1.8,3.1-2.8,4.5c-0.8,1.2-1.7,2.4-2.6,3.5v-3.2
		c-0.1,0-0.3,0-0.4,0c0.1-0.2,0.3-0.3,0.4-0.5V84.4c7.4,9,11.9,20.3,12.3,32.6C10.4,117.6,10.4,118.2,10.4,118.9z"/>
	<path class="st32" d="M569.7,205.3c14.1,5.7,28.7,8,42.8,7.1c-4.8,18.5,5,38.3,23.6,45.9c9.3,3.8,19.1,3.8,27.8,0.9
		c-0.9,20.5,11.4,40.5,31.9,48.9c26,10.6,55.5-1.4,65.9-26.8c0.6-1.6,1.2-3.1,1.6-4.7c6.5,6.1,14.2,11.2,22.9,14.7
		c37.2,15.1,79.3-2,94.1-38.3c2.9-7.2,4.6-14.6,5-22c27.5,8.2,57.1-5.1,67.9-31.7c11.5-28.2-2.6-60.7-31.6-72.5
		c-9.1-3.7-18.6-4.9-27.7-4c-3.5-18-16-34.1-34.5-41.7c-18.9-7.7-39.4-4.7-54.5,6.2c-10.5-17-26.3-31-46.3-39.1
		c-28.9-11.8-60.1-8.8-84.9,5.4c-9.1-9.3-20.3-17.1-33.2-22.3C591.3,11.3,535.5,34,516,82C496.4,130,520.5,185.2,569.7,205.3
		L569.7,205.3z"/>
	<path class="st32" d="M342.3,156.8c0,0.6,0,1.2,0,1.8v0c0,1.7-0.1,3.4-0.2,5c0,0,0,0,0,0c-0.7,8.6-2.6,16.8-5.6,24.5
		c-0.1,0.3-0.2,0.6-0.3,0.9c-1.7,4.3-3.8,8.4-6.1,12.3c-0.7,1.2-1.5,2.5-2.3,3.7c-7.1,10.6-16.4,19.7-27.3,26.5
		c-0.4,0.3-0.9,0.5-1.3,0.8c-10,6-21.4,10.2-33.5,12.1c-0.7,0.1-1.4,0.2-2.1,0.3c-3.8,0.5-7.7,0.8-11.7,0.8c0,0.4,0,0.9,0,1.3
		c0,0,0,0,0,0c0,1-0.1,2-0.2,3.1c-2.8,27.3-26.4,48.6-55.1,48.6c-11.5,0-22.2-3.4-31.1-9.3c-1.6,3.1-3.6,6-6,8.5
		c-0.1,0.1-0.2,0.2-0.3,0.3c-7.1,7.4-17.2,12.1-28.3,12.1c-10.7,0-20.3-4.2-27.4-11c-11.9,18.9-31,33-53.5,38.7
		c-1.1,0.3-2.3,0.6-3.4,0.8c-6.1,1.3-12.5,2-19.1,2c-10.3,0-20.1-1.7-29.3-4.8V150.1c-0.1,0-0.3,0-0.4,0c0.1-0.2,0.3-0.3,0.4-0.5
		V18.1c4.3-1.6,8.7-3,13.2-4.2c1.1-0.3,2.3-0.6,3.4-0.8c8.7-2,17.7-3,27-3c33.8,0,64.3,13.7,86.1,35.6c6-4.9,13-8.6,20.6-10.9
		c0.3-0.1,0.7-0.2,1-0.3c5.4-1.5,11.1-2.4,17-2.4c14.6,0,28,5,38.5,13.5c1.4,1.1,2.8,2.3,4.1,3.6c6.7,6.4,11.8,14.3,14.8,23.1
		c2.7-0.9,5.5-1.6,8.4-2.2c0,0,0,0,0,0c1.9-0.4,3.7-0.7,5.6-1h0c4.5-0.7,9.1-1,13.8-1c7,0,13.8,0.8,20.4,2.2
		c1.2,0.3,2.5,0.6,3.7,0.9c37.9,10.2,66,43.8,66.8,83.7C342.3,155.5,342.3,156.2,342.3,156.8z"/>
	<path class="st32" d="M1000.4-3.3v272.2c-11.7,6.5-25.3,10.3-39.8,10.3c-13.6,0-26.4-3.3-37.6-9.1c-1.8-1-3.6-2-5.4-3.1
		c-0.3-0.2-0.6-0.4-0.9-0.5c-1.7-1.1-3.4-2.3-5-3.5c-10.9-8.2-19.6-19-25-31.5c-0.5-1.2-1-2.4-1.4-3.5c-3.2-8.4-4.9-17.5-4.9-26.9
		c0-0.6,0-1.3,0-1.9c0.2-7.4,1.4-14.5,3.6-21.2v0c2.2-7,5.5-13.6,9.5-19.7v0c-0.5-0.5-0.9-1-1.4-1.5c-2.3-2.6-4.5-5.2-6.5-8
		c-1.1-1.4-2.1-2.9-3-4.3c-0.4-0.6-0.8-1.1-1.1-1.7c-10.2-16.1-16-35-16-55.2c0-0.6,0-1.1,0-1.7c0-0.5,0-0.9,0-1.4
		c0-1.2,0.1-2.4,0.2-3.6c1.4-21.6,9.4-41.5,22.2-57.7c1-1.3,2.1-2.7,3.2-3.9c7.6-8.8,16.7-16.3,26.8-22.2h12.5
		c0.2-0.3,0.5-0.6,0.8-0.8c0.1-0.1,0.2-0.2,0.3-0.4c0,0.4,0,0.8,0,1.2H1000.4z"/>
	<path class="st32" d="M250.2,201.7c-2.1,7-3.2,14.4-3.2,22.1c0,43.7,36.3,79.1,81,79.1c13.6,0,26.4-3.3,37.7-9.1
		c8.5,12.8,23.2,21.3,40,21.3c23.3,0,42.7-16.4,46.8-38c8.4,7.2,19.4,11.6,31.5,11.6c26.3,0,47.6-20.8,47.6-46.5
		c0-2.1-0.2-4.1-0.4-6.1c7.5,2.2,15.4,3.4,23.6,3.4c44.8,0,81-35.4,81-79.1s-36.3-79.1-81-79.1c-30.5,0-57,16.4-70.9,40.7
		c-13.4-25.7-40.7-43.4-72.3-43.4c-19.5,0-37.5,6.8-51.5,18c-13.2-26.3-40.8-44.4-72.8-44.4c-44.8,0-81,35.4-81,79.1
		C206.5,162,224.2,188.5,250.2,201.7L250.2,201.7z"/>
</g>
<g>
	<path class="st33" d="M10.4,115.1c0,0.6,0,1.2,0,1.8c-0.3,10.5-3.7,20.2-9.2,28.4c-1,1.5-2,2.9-3.1,4.2V80.7
		C5.7,90.1,10.4,102.1,10.4,115.1z"/>
	<path class="st33" d="M569.7,201.6c14.1,5.7,28.7,8,42.8,7.1c-4.8,18.5,5,38.3,23.6,45.9c9.3,3.8,19.1,3.8,27.8,0.9
		c-0.9,20.5,11.4,40.5,31.9,48.9c26,10.6,55.5-1.4,65.9-26.8c0.6-1.6,1.2-3.1,1.6-4.7c6.5,6.1,14.2,11.2,22.9,14.7
		c37.2,15.1,79.3-2,94.1-38.3c2.9-7.2,4.6-14.6,5-22c27.5,8.2,57.1-5.1,67.9-31.7c11.5-28.2-2.6-60.7-31.6-72.5
		c-9.1-3.7-18.6-4.9-27.7-4c-3.5-18-16-34.1-34.5-41.7c-18.9-7.7-39.4-4.7-54.5,6.2c-10.5-17-26.3-31-46.3-39.1
		c-28.9-11.8-60.1-8.8-84.9,5.4c-9.1-9.3-20.3-17.1-33.2-22.3c-49.2-20.1-105,2.6-124.5,50.7C496.4,126.3,520.5,181.5,569.7,201.6
		L569.7,201.6z"/>
	<path class="st33" d="M342.3,153.1c0,0.6,0,1.2,0,1.9c0,1.4-0.1,2.8-0.2,4.1c-0.1,2.1-0.3,4.1-0.6,6.2v0c-0.8,6-2.3,11.8-4.3,17.3
		v0c0,0,0,0,0,0c-0.2,0.7-0.5,1.3-0.7,2c0,0,0,0,0,0c-2.2,5.8-5.1,11.3-8.5,16.5c-0.8,1.2-1.6,2.4-2.5,3.5v0
		c-7.2,9.9-16.5,18.3-27.3,24.6c-0.5,0.3-0.9,0.5-1.4,0.8c-10.5,5.9-22.3,9.8-34.9,11.2c-0.8,0.1-1.6,0.2-2.4,0.2
		c-2.5,0.2-5.1,0.3-7.7,0.3c0,1.5-0.1,2.9-0.3,4.4c-0.1,0.9-0.2,1.8-0.3,2.7v0c-4.1,26-27,45.8-54.8,45.8c-11.5,0-22.2-3.4-31.1-9.3
		c-1.7,3.3-3.9,6.4-6.5,9c-0.1,0.1-0.2,0.2-0.3,0.3c-7,7.2-16.9,11.6-27.9,11.6c-10.7,0-20.3-4.2-27.4-11
		c-12.4,19.7-32.6,34.2-56.4,39.4c-1.1,0.2-2.2,0.5-3.2,0.6c-5.3,1-10.8,1.5-16.3,1.5c-10.3,0-20.1-1.7-29.3-4.8V150.1
		c-0.1,0-0.3,0-0.4,0c0.1-0.2,0.3-0.3,0.4-0.5V14.4C1.3,13.1,4.7,12,8.2,11c1.2-0.3,2.3-0.6,3.5-0.9c9.5-2.4,19.5-3.7,29.8-3.7
		c33.8,0,64.3,13.7,86.1,35.6c6.1-4.9,13.2-8.7,20.9-11c0.4-0.1,0.8-0.2,1.2-0.3c5.2-1.4,10.8-2.2,16.5-2.2c16.3,0,31.1,6.3,42,16.5
		c1.3,1.2,2.5,2.5,3.7,3.8c5.1,5.8,9.2,12.5,11.7,19.9c4.5-1.4,9.2-2.5,14-3.2c2.1-0.3,4.3-0.6,6.5-0.7c2.4-0.2,4.8-0.3,7.3-0.3
		c8,0,15.8,1,23.3,3c1.2,0.3,2.3,0.6,3.4,1C315.3,79.4,342.3,113.3,342.3,153.1z"/>
	<path class="st33" d="M1000.4-3.3v268.5c-11.7,6.5-25.3,10.3-39.8,10.3c-11.2,0-21.8-2.2-31.5-6.3c-2.3-1-4.6-2-6.9-3.2
		c-1.3-0.7-2.6-1.4-3.8-2.2c-1.9-1.2-3.8-2.4-5.6-3.7c-10.2-7.4-18.5-17-24.2-28.2c-0.7-1.4-1.4-2.8-2-4.2
		c-3.8-8.9-6.1-18.6-6.3-28.7c0-0.6,0-1.2,0-1.8c0-6.8,0.9-13.5,2.6-19.8c2-7.5,5.1-14.5,9.1-20.9c0.4-0.7,0.9-1.4,1.4-2.2v0
		c-2.4-2.6-4.8-5.4-6.9-8.2c-0.7-0.9-1.4-1.8-2-2.8c-0.4-0.6-0.8-1.1-1.2-1.7c-11-16.1-17.5-35.4-17.9-56.1c0-0.5,0-0.9,0-1.4
		c0-0.2,0-0.5,0-0.7c0-1,0-2,0-3c0.6-21.5,7.8-41.4,19.7-57.8c1-1.4,2-2.7,3.1-4.1c6.7-8.4,14.7-15.8,23.7-21.8h18.4
		c0.2-0.3,0.5-0.6,0.8-0.8c0.1-0.1,0.2-0.2,0.3-0.4c0,0.4,0,0.8,0,1.2H1000.4z"/>
	<path class="st33" d="M250.2,198c-2.1,7-3.2,14.4-3.2,22.1c0,43.7,36.3,79.1,81,79.1c13.6,0,26.4-3.3,37.7-9.1
		c8.5,12.8,23.2,21.3,40,21.3c23.3,0,42.7-16.4,46.8-38c8.4,7.2,19.4,11.6,31.5,11.6c26.3,0,47.6-20.8,47.6-46.5
		c0-2.1-0.2-4.1-0.4-6.1c7.5,2.2,15.4,3.4,23.6,3.4c44.8,0,81-35.4,81-79.1s-36.3-79.1-81-79.1c-30.5,0-57,16.4-70.9,40.7
		C470.7,92.7,443.4,75,411.8,75c-19.5,0-37.5,6.8-51.5,18c-13.2-26.3-40.8-44.4-72.8-44.4c-44.8,0-81,35.4-81,79.1
		C206.5,158.3,224.2,184.8,250.2,198L250.2,198z"/>
</g>
<g>
	<path class="st34" d="M1000.4-3.3V130c-4.6-8.9-7.7-18.7-9-29c-0.5-3.6-0.7-7.2-0.7-11c0-7.6,1-14.9,2.8-21.9c0.5-2,1.1-4,1.8-6
		c-0.6-0.1-1.2-0.1-1.8-0.2c-2.3-0.3-4.6-0.7-6.8-1.2c-28.9-6.4-51.1-30.1-54.6-59.3c-0.2-1.6-0.3-3.1-0.4-4.7H1000.4z"/>
	<path class="st34" d="M307.2-3.3c-1,18.3-6.3,36.2-15.3,52.1c-0.7,1.2-1.4,2.4-2.1,3.6c-1.1,1.8-2.2,3.5-3.4,5.3
		c-0.7,1.1-1.5,2.1-2.3,3.2c-1.9,2.5-3.8,5-5.9,7.4c-0.9,1-1.8,2-2.7,3c-11.8,12.7-26.5,23.2-43.8,30.2l0,0
		c-7.1,2.9-14.3,5.1-21.6,6.6c-0.4,0.1-0.8,0.2-1.1,0.2c-10.2,2-20.5,2.7-30.6,2.1c-0.1,0-0.2,0-0.2,0c0.1,0.6,0.3,1.2,0.4,1.8
		c0.1,0.3,0.1,0.6,0.2,1c0.2,1.1,0.4,2.2,0.5,3.2v0c2.7,21.3-9.4,42.8-30.7,51.4c-11.6,4.7-23.9,4.8-34.8,1.1
		c0.2,5.1-0.2,10.2-1.3,15.2c-0.1,0.8-0.3,1.5-0.5,2.2c-4.7,19-18.4,35.7-38.2,43.7c-14.7,6-30.4,6.2-44.3,1.7
		c-0.2-0.1-0.4-0.1-0.7-0.2c-12.3-4.2-23.2-12-30.8-22.8v-58.7c-0.1,0-0.3,0-0.4,0c0.1-0.2,0.3-0.3,0.4-0.5v-153H307.2z"/>
	<path class="st34" d="M1000.4-3.3V226c-16.8,22.4-42.1,38.3-71.2,43.1c-2,0.3-4.1,0.6-6.1,0.8c-2.1,0.2-4.2,0.4-6.4,0.5
		c-2.1,0.1-4.2,0.2-6.3,0.2c-0.6,0-1.2,0-1.8,0c-12-0.2-23.6-2.2-34.4-5.9c-0.7-0.2-1.4-0.5-2.1-0.7h0c-14.8-5.3-28.1-13.5-39.2-24
		c-0.9-0.8-1.8-1.7-2.6-2.5c-4.3-4.4-8.3-9.1-11.8-14.1c-0.1-0.1-0.2-0.3-0.3-0.4c-1-1.4-1.9-2.9-2.9-4.3
		c-4.8,4.6-10.5,8.3-16.9,10.7h0c-1.7,0.6-3.3,1.2-5.1,1.6c-3.9,1-8,1.5-12.2,1.5c-1.6,0-3.1-0.1-4.6-0.2h0
		c-1.7-0.2-3.5-0.4-5.1-0.8h0c-14.8-2.9-27-12.4-33.6-25.2c-2.5,1.7-5.2,3.2-7.9,4.5c-0.6,0.3-1.2,0.6-1.9,0.9
		c-8.9,4-18.8,6.3-29.2,6.3c-4.1,0-8.1-0.3-11.9-1c-0.2,0-0.3,0-0.5-0.1c-14.3-2.5-27.1-9.4-36.9-19.1c-0.6-0.6-1.2-1.2-1.7-1.8
		c-5.6-5.9-10.1-12.8-13.2-20.3c-0.2-0.4-0.3-0.9-0.5-1.3c-2-5.2-3.4-10.7-4.1-16.4c0-0.3-0.1-0.5-0.1-0.8c-0.2-1.6-0.3-3.3-0.3-5
		c0-0.2,0-0.3,0-0.5c-0.1,0-0.3,0-0.4,0c-31-0.2-59-12.5-79.4-32.3c-0.8-0.8-1.6-1.5-2.3-2.3c-8.7-8.9-15.9-19.3-21.1-30.7
		c-0.5-1-1-2.1-1.4-3.2c-1.6-3.7-2.9-7.5-4.1-11.3c-0.2-0.8-0.5-1.6-0.7-2.4v0c-1.3-4.8-2.3-9.8-3-14.8c-0.6-4.6-0.9-9.2-0.9-13.9
		c0-15.7,3.3-30.6,9.4-44.1h159.6c-0.1-1.3-0.2-2.6-0.4-3.9c0.2,1.3,0.4,2.6,0.6,3.9h245.1c0.2-0.3,0.5-0.6,0.8-0.8
		c0.1-0.1,0.2-0.2,0.3-0.4c0,0.4,0,0.8,0,1.2H1000.4z"/>
	<path class="st34" d="M686.2,9.2L686.2,9.2c0,13.6-2.8,26.6-7.9,38.4c-0.7,1.6-1.5,3.3-2.3,4.9v0C667.7,69,654.8,83,638.9,92.9h0
		c-1.9,1.2-3.8,2.3-5.7,3.3h0c-0.4,0.2-0.8,0.4-1.3,0.7c-0.1,0.1-0.3,0.1-0.4,0.2c1.1,3.6,1.9,7.2,2.6,11c1,5.4,1.5,11,1.5,16.6
		c0,5.2-0.4,10.4-1.2,15.4v0c-0.1,0.7-0.2,1.4-0.4,2.1v0c-0.9,5.2-2.3,10.2-4,15c0,0,0,0.1,0,0.1c-4.6,12.9-11.9,24.6-21.2,34.4
		c-0.4,0.5-0.9,0.9-1.3,1.4c-5.2,5.4-11.1,10.1-17.5,14.2h0c-1.5,1-3,1.9-4.6,2.8h0c-11.3,6.4-23.9,10.8-37.4,12.6
		c-1.2,0.2-2.5,0.3-3.7,0.4c-3.3,0.3-6.7,0.5-10.1,0.5c-17,0-33.1-4.1-47.2-11.4c-4.2,6.3-9.6,11.8-15.9,16.1
		c-0.5,0.4-1.1,0.7-1.6,1.1c-7,4.5-15,7.5-23.6,8.8c-2.4,0.4-4.9,0.6-7.4,0.6c-0.5,0-1,0-1.5,0c-29.2,0-53.5-20.5-58.6-47.6
		c-10.5,9.1-24.3,14.6-39.4,14.6c-0.6,0-1.2,0-1.8,0c-0.2,0-0.3,0-0.5,0c-3-0.1-5.9-0.4-8.7-0.9c-0.8-0.1-1.5-0.3-2.3-0.5v0
		c-24.4-5.4-43.1-25.5-45.9-50.2c-0.2-2.2-0.4-4.4-0.4-6.6c0-2.6,0.2-5.1,0.5-7.6c-0.4,0.1-0.7,0.2-1,0.3c-9,2.6-18.6,4-28.5,4
		c-11.4,0-22.4-1.8-32.6-5.2c-3.5-1.2-6.9-2.5-10.2-4c-0.1,0-0.3-0.1-0.4-0.2c-0.1,0-0.2-0.1-0.3-0.1c-10.1-4.7-19.4-11-27.3-18.6v0
		c-0.1-0.1-0.2-0.2-0.3-0.3c-12-11.5-21.1-26-26.1-42.1c-0.4-1.2-0.7-2.4-1-3.6c-1.1-4.1-1.9-8.3-2.5-12.6c-0.5-4-0.8-8.2-0.8-12.3
		c0-3.7,0.2-7.4,0.6-11c0.1-1.3,0.3-2.6,0.5-3.9c1.9-12.2,6-23.7,12-34h176.5c0.2,0.3,0.3,0.5,0.5,0.8c0.1-0.3,0.3-0.5,0.4-0.8h346
		c-0.1-1.3-0.2-2.6-0.4-3.9c0.2,1.3,0.4,2.6,0.6,3.9C685.9,0.8,686.2,4.9,686.2,9.2z"/>
</g>
<g>
	<path class="st35" d="M1000.4-3.3V127c-4.3-8-7.4-16.8-9-26.1c-0.9-4.9-1.3-9.9-1.3-15.1c0-6,0.6-11.9,1.8-17.5
		c0.4-2.2,1-4.3,1.6-6.5c0.4-1.3,0.8-2.6,1.2-3.9c-2.1-0.2-4.2-0.5-6.2-0.9c-28.7-5.3-51.3-27.6-56.4-55.7c-0.3-1.5-0.5-3.1-0.7-4.7
		c0-0.3-0.1-0.6-0.1-0.8c0.1-0.1,0.2-0.2,0.3-0.4c0,0.4,0,0.8,0,1.2H1000.4z"/>
	<path class="st35" d="M306.3-3.3c-1.6,18.4-7.6,36.2-17.4,52c-0.8,1.2-1.6,2.5-2.4,3.7c-0.9,1.3-1.8,2.7-2.8,3.9
		c-0.8,1.1-1.6,2.2-2.4,3.2c-2.1,2.7-4.3,5.3-6.7,7.8c-1,1-1.9,2-2.9,3c-11.2,11.3-24.9,20.6-40.7,27l0,0
		c-6.4,2.6-12.9,4.6-19.4,6.1c-0.5,0.1-1,0.2-1.4,0.3h0c-11,2.4-22,3.1-32.8,2.5c0.3,1.4,0.6,2.7,0.9,4.1c0.1,0.6,0.2,1.2,0.3,1.9v0
		c0,0.3,0.1,0.6,0.1,0.9c0.1,1,0.2,2,0.2,3c0.9,20-11,39.5-31,47.6c-11.6,4.7-23.9,4.8-34.8,1.1c0.3,6.6-0.5,13.2-2.3,19.5
		c-0.2,0.8-0.5,1.5-0.7,2.3c-5.6,17.2-18.6,32-36.9,39.4c-14.7,6-30.3,6.2-44.2,1.7c-0.3-0.1-0.6-0.2-0.9-0.3
		c-11.9-4-22.5-11.6-30-21.9v-55.4c-0.1,0-0.3,0-0.4,0c0.1-0.2,0.3-0.3,0.4-0.5v-153H306.3z"/>
	<path class="st35" d="M1000.4-3.3v224.5c-17.9,24.4-45.9,41.2-78.1,44.8c-1.5,0.2-3,0.3-4.5,0.4c-0.3,0-0.7,0.1-1,0.1
		c-2.2,0.1-4.3,0.2-6.5,0.2c-0.2,0-0.3,0-0.5,0c-11.7,0-23-1.8-33.6-5c-0.6-0.2-1.3-0.4-1.9-0.6c-14.7-4.8-28-12.5-39.2-22.5
		c-0.9-0.8-1.8-1.6-2.6-2.4c-4.9-4.7-9.5-9.8-13.4-15.2c-0.1-0.1-0.2-0.3-0.3-0.5c-1.4-1.9-2.7-3.8-3.9-5.8
		c-8.8,8.5-20.9,13.8-34.2,13.8c-19,0-35.4-10.7-43.4-26.2c-3.5,2.3-7.2,4.3-11.1,6h0c-0.7,0.3-1.4,0.6-2.1,0.9
		c-7.9,3.1-16.6,4.8-25.7,4.8c-4,0-7.9-0.3-11.8-1c-0.1,0-0.2,0-0.3,0c-12.7-2.2-24.2-7.8-33.6-15.8c-0.7-0.6-1.3-1.1-2-1.7
		c-6.6-6.1-11.9-13.4-15.7-21.5c-0.2-0.4-0.3-0.7-0.5-1.1v0c-2-4.7-3.6-9.6-4.5-14.7c0-0.2-0.1-0.5-0.1-0.7
		c-0.2-1.4-0.4-2.8-0.6-4.2c0-0.4-0.1-0.9-0.1-1.3c-0.1-1.4-0.2-2.7-0.2-4.1c-29.8-0.1-56.9-11.4-77.2-29.8
		c-0.8-0.8-1.7-1.5-2.5-2.3C540.4,107,533,97,527.4,86.1c-0.5-1-1-2.1-1.5-3.2c-1.8-3.8-3.4-7.7-4.7-11.7c-0.3-0.8-0.5-1.6-0.8-2.4
		c-1.4-4.6-2.5-9.3-3.3-14.1c-1-5.9-1.5-11.9-1.5-18c0-14.1,2.7-27.6,7.6-40h161.9c-0.1-1.3-0.2-2.6-0.4-3.9
		c0.2,1.3,0.4,2.6,0.6,3.9h245.1c0.2-0.3,0.5-0.6,0.8-0.8c0.1-0.1,0.2-0.2,0.3-0.4c0,0.4,0,0.8,0,1.2H1000.4z"/>
	<path class="st35" d="M685.5,5.1L685.5,5.1c0,15.9-3.9,30.9-10.7,44.2c-0.6,1.2-1.2,2.4-1.9,3.5c-9.3,16.4-23.1,29.9-39.9,38.9
		c-0.8,0.4-1.5,0.8-2.3,1.2c0.3,1,0.6,2,0.8,3c0.1,0.3,0.2,0.6,0.2,0.9c0.9,3.6,1.6,7.4,2.1,11.2c0.5,4.1,0.8,8.3,0.8,12.5
		c0,5.5-0.5,11-1.4,16.3c-0.1,0.8-0.3,1.5-0.4,2.2c-0.9,4.5-2.1,8.9-3.5,13.2c-0.1,0.3-0.2,0.5-0.3,0.8c-5,14-13.1,26.5-23.5,36.9
		c-0.5,0.5-0.9,0.9-1.4,1.4c-6,5.7-12.7,10.7-20,14.9c-1.5,0.9-3.1,1.7-4.7,2.5c-9.5,4.8-19.8,8.1-30.8,9.7c-1,0.1-1.9,0.3-2.9,0.4
		c-4.1,0.5-8.3,0.8-12.6,0.8c-17.1,0-33.1-4.1-47.2-11.4c-2.9,4.4-6.4,8.4-10.4,11.8l0,0l0,0c-0.9,0.8-1.8,1.5-2.7,2.2l0,0
		c-5.9,4.6-12.7,8.1-20.1,10.2c-2.5,0.7-5,1.3-7.6,1.7c-3,0.5-6.1,0.7-9.2,0.7c-29.2,0-53.5-20.5-58.6-47.6
		c-10.5,9.1-24.3,14.6-39.4,14.6c-0.5,0-1.1,0-1.6,0c-0.1,0-0.2,0-0.3,0c-2.1-0.1-4.1-0.2-6.1-0.5c-0.7-0.1-1.4-0.2-2.1-0.3
		c-24.5-4.1-43.9-22.9-48.4-46.7c-0.7-3.5-1-7-1-10.7c0-1.1,0-2.1,0.1-3.2c0.1-1.5,0.2-3,0.4-4.4c-9.4,2.8-19.3,4.3-29.6,4.3
		c-11,0-21.6-1.7-31.6-4.9c-3-1-6-2.1-8.8-3.3c-0.8-0.3-1.6-0.7-2.4-1.1c0,0,0,0-0.1,0c-10.4-4.7-19.8-11.1-27.9-18.8v0
		c0,0-0.1-0.1-0.1-0.1c-11.2-10.7-19.9-23.9-25.1-38.6c-0.4-1.2-0.8-2.3-1.2-3.5c-1.2-4-2.2-8.1-2.9-12.2
		c-0.9-5.3-1.4-10.8-1.4-16.4c0-2.2,0.1-4.4,0.2-6.5c0.1-1.3,0.2-2.6,0.3-3.8c1.3-12.2,4.9-23.8,10.4-34.3h526.3
		C685.4-0.6,685.5,2.2,685.5,5.1z"/>
</g>
</svg>
