<?xml version="1.0" encoding="UTF-8"?><svg id="a" xmlns="http://www.w3.org/2000/svg" viewBox="0 0 1000 1000"><defs><style>.d{fill:#fff;}.e{fill:#d4d0c4;}.f{fill:#ff9934;}.g{fill:#e37e2d;}.h{opacity:.53;}.i{fill:#2f2f2c;}.j{fill:#b96a41;}.k{fill:#ebe4d4;}.l{fill:#202020;}.m{opacity:.55;}.n{opacity:.67;}</style></defs><g id="b"><rect class="i" x="-36" y="-89.34" width="1072" height="1178.67"/></g><g id="c"><g><path class="f" d="M348.67,366.86c14.87,40.27-23.15,78.49-53.5,108.85-65,65.02-111.44,158.8-89.52,248.08,17.36,70.7,76,126.78,143.89,153.04,67.9,26.26,143.78,25.62,215.16,11.29,35.25-7.08,70.27-17.43,106.23-17.37,35.95,.06,74.28,12.65,94.67,42.26,4.17,6.05,7.77,12.95,14.09,16.71,17.8,10.57,38.13-11.82,41.63-32.22,11.11-64.63-50.79-123.33-115.54-133.72-64.75-10.38-129.52,13.65-190.7,37.27,31.48-27.43,70.32-62.2,75.54-103.62,6-47.58-30.68-96.53-78.04-104.14,29.46-31.3,35-84.82,30.78-127.6s-21.98-83.13-43.42-120.39l-151.28,21.56h0Z"/><path class="e" d="M513.51,594.95c12.09-78.12-42.99-167.2-116.42-196.51,36.9-8.7,89.5-13.51,126.4-22.2,5.89-1.39,12.39-2.71,17.76,.08,4.86,2.53,7.55,7.8,9.81,12.79,15.52,34.15,26.02,71.77,21.57,109.02s-24.71,81.89-59.12,96.82h0Z"/><g class="m"><path class="g" d="M551.06,389.11c5.81,12.78,10.91,26.05,14.79,39.61-32.69,20.73-74.86,32.8-116.84,29.17-40.6-3.51-77.03-21.2-103.44-45.29l205.48-23.49h.01Z"/></g><g><g class="n"><path class="d" d="M473.05,289.91c12.11,4.41-17.05,23.85-18.6,18.72-1.56-5.13,10.21-21.78,18.6-18.72Z"/></g><g><path class="k" d="M357.98,195.17c-12.83-27.04-31.77-51.17-54.99-70.06-14.04-11.42-32.53-21.34-49.59-15.27-12.33,58.07,2.58,145.17,39.67,212l64.91-126.68h0Z"/><g class="m"><path class="g" d="M316.06,207.76c-9.21-31.04-27.39-59.37-51.77-80.68-8.44,41.43-1.4,85.83,19.42,122.63l32.35-41.95h0Z"/></g></g><g><path class="f" d="M484.46,156.8c-4.36-29.61-2.01-60.19,6.8-88.8,5.33-17.3,15.19-35.82,32.75-40.25,42.51,41.43,78.51,122.14,84.8,198.31l-124.35-69.27h0Z"/><g class="m"><path class="g" d="M526.31,143.98c-9.59-30.93-10.21-64.58-1.78-95.85,30.03,29.76,48.85,70.58,51.98,112.75l-50.2-16.91h0Z"/></g></g><path class="k" d="M616.66,209.91c10.28,40.65,8.49,85.71-14.42,127.11-22.9,41.41-69.19,78.28-122.85,89.62-51.98,10.99-104.2-3.13-139.17-29.66-34.97-26.53-54.61-64.06-66.18-102.98-3.7-12.44-6.66-25.41-4.03-38.78,10.98-55.92,114.14-96.06,174.96-108.94,86.83-18.39,153.92-6.64,171.68,63.63h0Z"/><path class="f" d="M616.66,209.91c8.41,33.24,8.73,69.43-3.95,104.16-17.4-24.51-37.9-38.66-62.51-48.62-62.44-25.28-113.74-46.44-130.63-112.83,8.98-2.55,17.55-4.67,25.41-6.34,86.83-18.39,153.92-6.64,171.68,63.63h0Z"/><g><path class="l" d="M457.22,320.33c1.84,4.14,3.27,8.41,4.6,12.71,.64,2.16,1.27,4.32,1.81,6.51,.55,2.18,1.06,4.38,1.43,6.62-.94-2.07-1.74-4.18-2.49-6.3-.76-2.12-1.44-4.27-2.11-6.41-1.28-4.31-2.47-8.66-3.24-13.13h0Z"/><path class="l" d="M506.31,328.01c1.41,5.21,.12,11.16-2.92,15.94-3.03,4.8-7.92,8.66-13.7,10.15-5.78,1.5-11.92,.5-16.91-2.23-4.98-2.71-8.99-7.29-10.28-12.54,3.39,4.12,7.6,6.91,12.11,8.51,4.5,1.59,9.3,1.94,13.67,.81,4.37-1.12,8.4-3.76,11.57-7.33,3.17-3.58,5.5-8.06,6.46-13.31Z"/><path class="l" d="M464.95,343.87c.83,4.73-.81,9.89-3.9,13.88-3.09,4.01-7.74,7.04-12.99,7.94-5.25,.91-10.65-.4-14.89-3.16-4.24-2.74-7.5-7.07-8.29-11.8,2.94,3.72,6.52,6.3,10.38,7.91,3.85,1.6,7.99,2.17,11.85,1.52,3.86-.66,7.58-2.57,10.68-5.36,3.11-2.8,5.63-6.43,7.16-10.91v-.02Z"/></g><path class="j" d="M450.69,296.62s12.96-19.13,29.21-16.46c16.26,2.67-8.24,34.68-23.4,41.06-15.16,6.39-50-13.88-39.62-23.29,10.39-9.41,33.81-1.32,33.81-1.32h0Z"/><path class="l" d="M527.34,216.17c-25.9-8.31-49.54,17.32-43.93,39,1.41-17.48,15.4-31.81,30.5-33.69,15.01-1.9,32.18,8.46,37.86,25.15,.04-12.06-9.47-25.67-24.43-30.45h0Z"/><path class="l" d="M343.65,309.76c-11.57-17.18-1.11-49.55,28.38-51.43,15.77-.47,29.24,9.2,33.2,20.56-15.06-19.03-48.02-21.17-59.69,6.23-3.18,7.48-4.18,16.11-1.9,24.65h0Z"/></g><g class="m"><path class="g" d="M316.21,770.13s143.01,52.44,247.88-23.83c3.67-2.67,7.19-5.37,10.61-8.11-15.42,23.95-39.08,44.96-59.61,62.85,0,0-122.6,40.59-198.87-30.91h0Z"/></g><g class="m"><path class="g" d="M461.07,498.42c54.82,39.33,52.44,96.53,52.44,96.53,0,0,8.34-33.37-8.34-61.97-16.68-28.6-44.09-34.56-44.09-34.56h0Z"/></g><path class="k" d="M289.29,565.17c-12.45,1.67-23.29,10.22-29.81,20.96-6.51,10.74-9.11,23.45-9.71,36-1.32,28.01,7.11,56.39,23.53,79.12,2.73,3.78,5.86,7.56,10.18,9.35,9.21,3.83,19.2-2.68,27.05-8.83,17-13.33,34.1-26.76,48.37-42.97,14.27-16.21,25.71-35.54,29.38-56.83,1.9-11.02,.57-24.48-9.07-30.15-6.63-3.9-14.96-2.72-22.55-1.42-10.61,1.82-27.4,12.04-37.2,10.19-11.72-2.21-14.16-17.58-30.18-15.43h.01Z"/><g class="h"><path class="k" d="M423.74,302.19c-4.55,5.46,17.48,12.71,19.86,6.36,2.38-6.36-15.89-11.12-19.86-6.36Z"/></g></g></g></svg>