<?xml version="1.0" encoding="UTF-8"?><svg id="a" xmlns="http://www.w3.org/2000/svg" viewBox="0 0 1000 1000"><defs><style>.d{fill:#ffd57f;}.e{fill:#ffb69f;}.f{fill:#ff993f;}.g{fill:#b78029;}.h{fill:#2f2f2c;}.i{fill:#2b1806;}.j{fill:#a87129;}.k{fill:#512f07;}</style></defs><g id="b"><rect class="h" x="-105.84" y="-16" width="1211.69" height="1032"/></g><g id="c"><g><path class="k" d="M727.01,806.55l-36.3-11.25-26.85-81.55c-1.25-3.8-5.36-5.87-9.14-4.61-3.8,1.25-5.87,5.35-4.61,9.14l25.3,76.82-23.81,6.21c-3.87,1.01-6.19,4.97-5.18,8.84,.85,3.26,3.79,5.42,7,5.42,.6,0,1.22-.08,1.83-.24l27.78-7.25,39.7,12.3c.71,.22,1.44,.33,2.15,.33,3.09,0,5.95-2,6.91-5.1,1.19-3.82-.95-7.87-4.77-9.06h-.01Z"/><path class="j" d="M45.05,650.6c-1.25,.64-.37,1.93,2.63,2.72,17.2,4.53,76.52,19.36,160.25,16.52,80.12-2.72,127.28-15.86,127.28-15.86,0,0-33.94-35.12-51.69-60.64-14.35-20.64-27.65-49.35-27.65-49.35l-103.22,51.33-49.14,25.24-58.46,30.04Z"/><path class="d" d="M358.02,424.79c-48.01,35.64-101.92,119.33-101.92,119.33,0,0,29.43,118.73,189.93,170.08,68.26,21.84,162.96,19.26,215.92,6.84,102.08-23.92,164.66-81.49,203.25-154.15,4.92-9.26,14.26-33.76,14.26-33.76,0,0-56.46-107.16-95.33-135.43-46.23-33.62-171.57-69.25-249.69-52.09-80.66,17.73-94.84,18.62-176.43,79.18h.01Z"/><path class="k" d="M588.81,821.33l-37.23-6.44-39.06-98.83c-1.47-3.72-5.68-5.53-9.4-4.07-3.72,1.47-5.54,5.68-4.07,9.4l36.94,93.46-28.35,7.96c-3.85,1.08-6.09,5.08-5.01,8.93,.9,3.2,3.8,5.29,6.97,5.29,.65,0,1.31-.09,1.96-.27l31.05-8.72,43.73,7.56c.42,.07,.83,.11,1.24,.11,3.46,0,6.52-2.48,7.13-6.01,.68-3.94-1.96-7.69-5.9-8.37h0Z"/><g><path class="f" d="M900.7,362.03c-7.75-57.39-26.77-105.46-69.43-140.6-42.66-35.14-75.54-36.81-113.24-36.16-50,.87-117.83,31.51-155.67,84.05-43.24,60.06-53.75,92.97-60.09,131.8-10.04,61.56,1.2,109.96,27.16,143.46,37.6,48.52,85.58,70.61,150.06,78.5,81.6,9.98,167.99-17.49,194.31-76.83,26.71-60.21,34.65-126.84,26.9-184.23h0Z"/><path class="g" d="M842.89,231.89s-30.91,5.7-70.45,2.99c-31.64-2.17-38.41-5.67-58.67-9.21-18.66-3.26-20.29,21.41-56.85,69.13-54.62,71.3-97.19,86.15-97.19,86.15,0,0-8.66,4.75-26.78,24.89-18.12,20.13-31.36,47.21-31.36,47.21,0,0-8.81-49.53,13.57-100.07,19.53-44.09,28.19-69.5,76.77-116.8,31.23-30.78,92.11-62.29,152.25-53.72,68.33,11.01,98.7,49.42,98.7,49.42h0Z"/><g><path class="e" d="M729.83,342.17c1.34-14.04-11.84-26.78-29.44-28.46s-32.95,8.34-34.29,22.38c-1.34,14.04,11.84,26.78,29.43,28.46,17.6,1.68,32.95-8.34,34.29-22.38h.01Z"/><path class="i" d="M761.72,294.35c1.09-11.38-7.12-21.48-18.34-22.55-11.21-1.06-21.18,7.29-22.27,18.68-1.09,11.39,7.13,21.48,18.34,22.55,11.22,1.07,21.19-7.29,22.27-18.68Z"/><path class="k" d="M868.03,263.13l60.55,17.87-36.98,36.25s-12.12-3.06-22.55-9.54c-18.19-11.31-21.48-15.23-21.48-15.23,0,0,2.71-8.26,11.09-19.57,4.6-6.22,9.37-9.77,9.37-9.77h0Z"/></g><g><path class="k" d="M723.4,583.92c-.49,0-.99-.05-1.5-.15-3.94-.83-6.46-4.68-5.64-8.62l5.82-27.86c.83-3.94,4.67-6.47,8.62-5.64,3.94,.83,6.46,4.68,5.64,8.62l-5.82,27.86c-.72,3.44-3.75,5.8-7.13,5.8h.01Z"/><path class="k" d="M765.16,595.75c-.15,0-.3,0-.45-.01-4.02-.25-7.07-3.7-6.82-7.72l.93-15.01c.25-4.02,3.76-7.03,7.72-6.82,4.02,.25,7.07,3.7,6.82,7.72l-.93,15.01c-.24,3.86-3.45,6.84-7.26,6.84h0Z"/><path class="k" d="M857.13,529.71c-.15,0-.3,0-.45-.01-4.02-.25-7.08-3.7-6.83-7.72l1.02-16.86c.24-4.02,3.72-7.06,7.71-6.83,4.02,.25,7.08,3.7,6.83,7.72l-1.02,16.85c-.23,3.87-3.44,6.85-7.27,6.85h.01Z"/><path class="k" d="M663.45,533.58c-4.14-.07-7.35-3.38-7.29-7.4l.32-19.67c.06-3.98,3.31-7.17,7.28-7.17,4.14,.07,7.35,3.38,7.29,7.4l-.32,19.67c-.06,3.98-3.31,7.17-7.28,7.17Z"/><path class="k" d="M816.83,547.87c-4.23-.11-7.4-3.47-7.29-7.49l.41-14.48c.11-4.02,3.5-7.35,7.49-7.08,4.02,.11,7.19,3.46,7.08,7.49l-.41,14.48c-.11,3.95-3.35,7.08-7.28,7.08Z"/></g></g><path class="g" d="M474.4,333.66c33.8-17.5,60.66-21.43,60.66-21.43,0,0,50.32,36.04,44.28,101.44-5.95,58.2-36.05,99.86-92.41,124.86-146.47,64.99-284.2,31.94-284.2,31.94,0,0,77.03-90.56,143.54-147.71,71.02-60.98,91.55-70.17,128.14-89.12v.02Z"/></g></g></svg>