<?xml version="1.0" encoding="utf-8"?>
<!-- Generator: Adobe Illustrator 26.4.1, SVG Export Plug-In . SVG Version: 6.00 Build 0)  -->
<svg version="1.1" id="Слой_1" xmlns="http://www.w3.org/2000/svg" xmlns:xlink="http://www.w3.org/1999/xlink" x="0px" y="0px"
	 viewBox="0 0 1000 1000" style="enable-background:new 0 0 1000 1000;" xml:space="preserve">
<style type="text/css">
	.st0{fill:#2F2F2C;}
	.st1{fill:#FFFFFF;}
</style>
<g id="a">
	<rect class="st0" width="1000" height="1000"/>
</g>
<g id="b">
	<g>
		<path class="st1" d="M725.2,675.4c0,0-0.3,1.1-0.8,3.3c-0.6,2.2-1.2,5.4-1.9,9.7c-1.2,8.5-2,21.4,2.8,36.3
			c4.4,14.8,15.7,31,33.7,41.9c18,11.2,41.8,16.9,68.1,14.7c25.2-1.5,53-11.6,71.6-32.1c9.2-10.3,16.1-22.8,19.8-36.8
			c1.9-7,3-14.1,3.6-22.2c0.5-7.3,0.4-15.2-0.5-22.7c-3.3-30.3-21.1-57.5-47.8-77.1c-13.2-9.9-28.3-18.1-44.2-25
			c-8-3.5-16-6.5-24.6-9.4l-26.2-8.7c-34.5-11.8-69-21.1-103.7-26.6c-34.6-5.9-69.2-8.4-102.8-7.5c-33.6,0.4-66.2,3.4-96.9,8.5
			c-30.8,4.5-59.8,10.8-86.3,17.6c-26.6,6.6-50.9,13.8-72.3,20.5c-10.8,3.2-20.7,6.6-30,9.7c-9.2,3.1-17.8,5.9-25.4,8.6
			c-30.6,10.9-48.2,17.1-48.2,17.1s4-2.4,11.5-6.9c7.5-4.6,18.4-11.2,32.8-18.9c14.2-8,32-16.9,52.7-26.6
			c20.6-9.9,44.6-19.3,71-29.2c26.6-9.5,56.1-18.1,87.9-25.4c31.9-6.8,66.1-11.8,102-13.7c35.8-1.5,73.2,0.5,110.6,6.4
			c37.3,6.4,74.4,17.1,109.8,29.9l26.2,10c8.8,3.4,18.1,7,26.9,11.2c17.7,8.3,35,18.1,50.7,30.5c15.7,12.3,29.8,27.3,40.2,44.9
			c10.3,17.6,16.3,37.6,17.7,57.1c0.8,9.8,0.5,19.2-0.5,28.9c-1,8.9-2.9,18.5-5.8,27.5c-5.9,18-15.9,34.6-29,47.1
			c-13.2,12.5-28.6,21.1-44.2,26.4c-15.7,5.3-31.2,7.4-46.4,7.3c-29.3,0-56.8-9.4-75.9-24.1c-19.4-14.7-29.8-34.6-32.8-51.2
			c-3.2-16.8-0.2-30,2.1-38.3c1.2-4.2,2.4-7.4,3.2-9.5C724.8,676.5,725.2,675.4,725.2,675.4L725.2,675.4z"/>
		<g>
			<path class="st1" d="M678.1,595.7c0,0-2.2-0.6-6.4-1.7c-4.1-1.4-10.3-2.3-17.8-3.5c-7.7-0.8-16.9-1.3-27.5-0.5
				c-10.5,0.7-22.2,2.7-34.8,5.7c-25.2,6.1-54.2,16.7-85.6,28.6c-31.4,11.8-65.4,24.6-100.2,35.5c-17.5,5.4-35,10.5-52.6,14.8
				c-17.5,4.5-35,8.1-51.9,11.1c-17,3.1-33.5,5.1-49.2,6.8c-15.7,1.7-30.6,2.6-44.4,2.9c-13.7,0.7-26.4,0.1-37.6-0.1
				c-11.2-0.5-20.9-1.2-28.9-1.9c-16-1.7-25-3.2-25-3.2s9-2.1,24.6-4.8c7.8-1.5,17.2-3.6,28-5.4c10.7-2.2,22.8-4.8,36-7.5
				c13.1-2.8,27.2-6.2,42.1-9.6c14.9-3.6,30.5-7.7,46.5-12c32.1-8.7,66.2-18.7,100.2-29.5c34.1-10.6,68.3-21.8,101.2-31
				c16.4-4.7,32.8-8.4,48.4-11.6c15.6-3.3,30.8-5.2,45-5.9c14.1-1,27.4-0.2,38.8,1.8c11.5,1.5,21.2,5.1,28.8,8.1
				c7.7,3.3,13.2,6.6,16.6,9.1C676.2,594.4,678.1,595.7,678.1,595.7L678.1,595.7z"/>
			<path class="st1" d="M516.1,246.7c0,0-2,0.1-5.7,0.3c-1.9,0.1-4.2,0.2-6.9,0.4c-2.6,0.4-5.7,0.8-9.1,1.3
				c-6.7,1.1-15,2.8-24.1,5.6c-9.2,2.7-19.2,6.7-29.9,11.6c-42.9,20-93.1,59.1-146.6,95.1c-26.9,17.8-54.3,35.8-82.6,48.3
				c-14.1,6.2-28.2,11.3-41.9,15c-6.8,2.1-13.6,3.4-20.1,5c-6.5,1.4-13,2.2-19,3.3c-12.3,1.7-23.6,2.5-33.6,2.7
				c-10,0.5-18.7-0.4-25.8-0.7c-14.3-1.4-22.2-3-22.2-3c-0.8-0.1-1.3-0.9-1.1-1.6c0.1-0.6,0.6-1,1.1-1.1c0,0,8-1.7,21.7-4.1
				c6.8-1.7,15.1-2.9,24.4-5.4c9.3-2,19.7-5.1,30.9-8.2c22.4-6.7,47.6-16.3,74.2-28c13.4-5.7,27.1-11.9,41-18.6
				c13.9-6.6,27.7-14.3,41.5-22.1c27.4-15.8,54.4-33,80.4-48.4c25.9-15.5,51.2-28.5,74.1-37c11.5-4.2,22.2-7.5,31.9-9.5
				c9.7-2.2,18.3-3.2,25.4-3.6c7.2-0.5,12.7-0.4,16.4-0.1c3.8,0.1,5.7,0.2,5.7,0.2c0.8,0,1.4,0.7,1.3,1.4
				C517.4,246.1,516.8,246.6,516.1,246.7L516.1,246.7z"/>
			<path class="st1" d="M731.5,442c0,0-2.9,0.3-8.4,0.8c-5.7,0.3-14,0.4-24.4-1c-10.4-1.4-22.8-4.2-36.7-8
				c-13.8-3.7-29.2-8.1-45.9-11.4c-16.7-3.5-34.8-6.1-53.9-6c-19.1,0-39.1,2.4-59.4,7.3c-20.3,4.8-40.6,12.5-60.9,21.3
				c-10.2,4.2-20.5,8.5-31,12.7c-10.5,4.2-21.3,9.3-31.9,13.8c-42.8,18.5-85.8,37.4-127.5,52.5c-41.6,15.2-82.3,26.5-118.5,30
				c-36.1,3.9-66.8-1.3-86.5-8.1c-9.9-3.4-17.4-6.9-22.3-9.4c-4.9-2.6-7.5-4-7.5-4c-0.9-0.5-1.3-1.6-0.8-2.5
				c0.4-0.8,1.4-1.2,2.3-0.9l0.1,0c0,0,2.7,0.9,7.9,2.7c5.1,1.7,12.8,3.7,22.6,5.6c19.6,3.7,48.2,4.6,81.4-2.5
				c16.6-3.5,34.3-8.7,52.8-15.2c18.5-6.5,37.6-14.7,57.4-23.3c39.4-17.6,81.1-38.3,123.2-58.6c10.6-5,21.2-10.1,31.8-15.1
				c10.8-5.4,21.9-9.7,33.2-13.6c22.8-7.3,46.1-12,68.8-15.2c22.7-3.1,45.2-3.7,66.1-1.6c21,1.9,40.4,6.6,57.5,12
				c17.1,5.7,32,12.1,45.2,17.4c13.1,5.3,24.5,9.5,34.2,12c9.6,2.6,17.4,3.8,22.7,4.2c5.5,0.3,8.4,0.4,8.4,0.4c1,0,1.8,0.9,1.8,1.9
				C733.2,441.1,732.4,441.9,731.5,442L731.5,442z"/>
		</g>
		<path class="st1" d="M657.3,259.7c0,0,0-0.9,0-2.6c0.1-1.8-0.3-4.2,0.1-7.7c0.3-6.9,2-16.9,7.4-28.5c5.5-11.5,15.2-24.5,30.6-34.1
			c15.3-9.5,36.4-14.8,58.8-10.1c22.3,4.3,43.9,20.6,55.9,43.8c5.9,11.6,9.7,24.9,10.4,38.4c0.8,13.8-1.5,28.6-8.2,41.7
			c-6.6,13.1-17.1,24.7-29.9,32.5c-12.9,7.9-27.7,12.4-42.8,13.8c-15.5,1.2-29.1-0.1-43.4-0.5c-14.1-0.6-28.2-1-42.3-1.2
			c-28.1-0.3-56.1,0.9-83.3,4.1c-27.3,2.9-53.8,8.5-79.1,14.3c-25.3,6.1-49.5,13.1-72.3,20.5c-22.8,7.2-44,15.4-63.6,23.1
			c-19.4,8-37.2,15.7-52.7,23c-15.6,7.2-29.1,13.8-40.2,19.3c-11.2,5.4-19.8,10.1-25.7,13.1c-6,3-9.2,4.6-9.2,4.6
			c-0.7,0.4-1.5,0.1-1.9-0.6c-0.3-0.6-0.1-1.3,0.4-1.7c0,0,2.8-2.3,8-6.5c5.2-4.2,12.9-10.3,23.1-17.7c10-7.6,22.6-16.1,37.4-25.6
			c14.9-9.3,32-19.3,51.3-29.1c19.3-9.9,40.8-19.3,64.1-28.1c23.3-8.7,48.7-16.1,75.4-21.5c26.6-5.6,54.7-8.9,83.1-10.9
			c28.4-1.9,57.4-1.9,86.1-0.5c14.3,0.7,28.6,1.8,42.8,2.9c14,1,28.5,2.8,41,2.1c12.8-0.8,25.2-4.3,36-10.4
			c10.7-6.1,19.3-15.2,25-25.7c5.9-10.5,8-22.5,7.8-34.2c-0.2-12.1-2.9-23.5-7.6-33.9c-9.6-20.7-27.7-35.7-47.2-40.4
			c-19.4-5-39.2-1.2-53.5,7c-14.6,8.2-24.2,19.9-29.8,30.5c-5.6,10.7-7.6,20.4-8.2,26.7c-0.5,3.2-0.3,5.8-0.5,7.5
			c0,1.7-0.1,2.6-0.1,2.6c0,0.8-0.7,1.4-1.4,1.3C658,261,657.4,260.4,657.3,259.7L657.3,259.7z"/>
	</g>
</g>
</svg>
