<?xml version="1.0" encoding="utf-8"?>
<!-- Generator: Adobe Illustrator 26.4.1, SVG Export Plug-In . SVG Version: 6.00 Build 0)  -->
<svg version="1.1" id="Слой_1" xmlns:serif="http://www.serif.com/"
	 xmlns="http://www.w3.org/2000/svg" xmlns:xlink="http://www.w3.org/1999/xlink" x="0px" y="0px" viewBox="0 0 324 324"
	 style="enable-background:new 0 0 324 324;" xml:space="preserve">
<style type="text/css">
	.st0{fill:#FFC961;}
	.st1{fill:#EF6355;}
	.st2{fill:#4C4C4C;}
	.st3{fill:#FFAD61;}
	.st4{fill:#D9564F;}
	.st5{fill:#D2DDFF;}
</style>
<g>
	<g id="b">
		<circle class="st0" cx="162" cy="162" r="108"/>
	</g>
	<g id="d">
		<path class="st1" d="M162.9,228c-42.9,0-72.6-54-65.7-66.6c3.3-6,13.2-6.3,43.8-6.3c2.4,0,5.1,0,8.1,0c3.6,0,7.2,0,11.4,0
			c8.4,0,15.9,0,22.5,0c3,0,5.7,0,8.1,0c23.4,0.3,32.7,1.2,35.7,6.6C233.7,174.3,204.3,228,162.9,228z"/>
	</g>
	<g id="c">
		<g>
			<circle class="st2" cx="129.6" cy="111.6" r="9.6"/>
			
				<ellipse transform="matrix(0.1602 -0.9871 0.9871 0.1602 52.8055 285.8654)" class="st2" cx="194.4" cy="111.9" rx="9.6" ry="9.6"/>
		</g>
	</g>
	<g id="e">
		<path class="st3" d="M269.8,161.1c0-6.6-0.7-12.7-1.8-18.9l-0.3-1.7c-0.3-1.2-0.5-2.3-0.8-3.5c-1.2-0.3-2.1-0.5-3.3-0.5
			c-0.3,0-0.6,0-0.9,0s-0.6,0-0.9,0.3l0,0c-2.4,0.6-4.5,2.7-4.5,5.4c0,0.3,0,0.6,0,0.9l0,0c1.2,6.3,1.8,12.6,1.8,18.9v0.3
			c-0.3,53.4-43.8,96.6-97.2,96.3c-21.3,0-40.8-6.9-57-18.6c-5.1-3.6-9.6-7.8-13.8-12.3l-0.3-0.3c-0.9-0.9-2.4-1.8-3.9-1.8
			c-1.2,0-2.1,0.3-3,0.9l-0.3,0.3l-0.3,0.3l-0.3,0.3c-1.5,1.2-2.4,2.6-3.3,4.1c0.9,1,0.4,0.4,1.7,2c0.5,0.6,0.5,0.7,1.1,1.3
			c0.3,0.3,0.6,0.6,0.6,0.6l0.2,0.3c4.5,4.8,9.2,9.1,14.6,13c17.7,12.9,39.6,20.7,63.3,20.7c59.7,0.3,108.5-47.4,108.5-107.1
			c0-0.7,0-0.3,0-0.6L269.8,161.1z"/>
	</g>
	<path class="st4" d="M191.1,155.4v27c0,6-4.8,10.8-10.8,10.8h-20.4c-4.5,0-8.7-3-10.2-7.2c-0.3-1.2-0.6-2.4-0.6-3.6v-27
		c3.6,0,7.2,0,11.4,0c8.4,0,15.9,0,22.5,0C185.7,155.1,188.4,155.4,191.1,155.4z"/>
	<path class="st5" d="M183,155.1v20.4c0,6-4.8,10.8-10.8,10.8h-20.4c-0.6,0-1.5,0-1.8-0.3c-5.1-0.9-8.7-5.4-8.7-10.5v-20.4
		c2.4,0,5.1,0,8.1,0c3.6,0,7.2,0,11.4,0C168.9,155.4,176.4,155.1,183,155.1z"/>
</g>
</svg>
