<?xml version="1.0" encoding="utf-8"?>
<!-- Generator: Adobe Illustrator 26.4.1, SVG Export Plug-In . SVG Version: 6.00 Build 0)  -->
<svg version="1.1" id="Слой_1" xmlns:serif="http://www.serif.com/"
	 xmlns="http://www.w3.org/2000/svg" xmlns:xlink="http://www.w3.org/1999/xlink" x="0px" y="0px" viewBox="0 0 456 456"
	 style="enable-background:new 0 0 456 456;" xml:space="preserve">
<style type="text/css">
	.st0{fill:#FFC961;}
	.st1{fill:#EF6355;}
	.st2{fill:#4C4C4C;}
	.st3{fill:#FFAD61;}
	.st4{fill:#D9564F;}
	.st5{fill:#D2DDFF;}
</style>
<g id="b">
	<circle class="st0" cx="228" cy="228" r="228"/>
</g>
<g id="d">
	<path class="st1" d="M230.2,367.2c-90.9,0-153.7-114-139-140.5c7-12.7,28.1-13.2,92.6-13c5.4,0,11.1,0,17.2,0c7.5,0,15.5,0,24.1,0
		c17.7,0,33.4,0,47.2,0c6.1,0,11.8,0,17.2,0c49.2,0.4,69,2.6,75.4,13.9C379.6,253.9,317.1,367.2,230.2,367.2z"/>
</g>
<g id="c">
	<g>
		<circle class="st2" cx="159.8" cy="121.6" r="20.5"/>
		<circle class="st2" cx="296.6" cy="122" r="20.5"/>
	</g>
</g>
<g id="e">
	<path class="st3" d="M455.9,226.9c0-14-1.4-27.8-3.8-41.1l-0.7-3.5c-0.5-2.3-1-4.5-1.5-6.7c-2.4-0.7-5-1-7.6-1.1
		c-0.8,0-1.5,0-2.2,0s-1.4,0.1-2.1,0.3l0,0c-5.3,1.1-9.4,5.8-9.4,11.4c0,0.7,0,1.4,0.2,2.1l0,0c2.5,13,3.8,26.4,3.8,40.1
		c0,0.1,0,0.3,0,0.4c-0.6,112.8-92.4,203.9-205.3,203.5c-44.9-0.1-86.4-14.7-120-39.4C96.6,385.2,86.9,376.5,78,367
		c-0.1-0.1-0.3-0.3-0.4-0.5c-2.1-2.1-5.1-3.5-8.3-3.5c-2.4,0-4.7,0.7-6.6,2l-0.5,0.4l-0.6,0.5l-0.7,0.5c-2.8,2.5-5.1,5.5-6.7,9
		c1.8,2.1,3.6,4.1,5.4,6.2c1.2,1.3,1.2,1.4,0,0c-1.8-2,2.1,2.2,2.1,2.2l0,0c9.7,10.3,20.2,19.6,31.6,28
		c37.5,27.4,83.6,43.6,133.6,43.8c126,0.5,228.5-101.2,228.9-227.1C455.9,227.9,455.9,227.3,455.9,226.9L455.9,226.9z"/>
</g>
<path class="st4" d="M289.4,213.7v57.2c0,12.5-10.2,22.8-22.7,22.8h-43c-9.8,0-18.1-6.2-21.3-14.9c-0.9-2.4-1.4-5.1-1.4-7.8v-57.3
	c7.5,0,15.5,0,24.1,0c17.7,0,33.4,0,47.2,0C278.3,213.6,284,213.7,289.4,213.7z"/>
<path class="st5" d="M272.2,213.6v42.7c0,12.5-10.2,22.8-22.8,22.8h-43c-1.4,0-2.8-0.1-4.1-0.4c-10.6-2-18.6-11.2-18.6-22.3v-42.8
	c5.4,0,11.1,0,17.2,0c7.5,0,15.5,0,24.1,0C242.8,213.7,258.5,213.6,272.2,213.6z"/>
</svg>
