<?xml version="1.0" encoding="utf-8"?>
<!-- Svg Vector Icons : http://www.onlinewebfonts.com/icon -->
<!DOCTYPE svg PUBLIC "-//W3C//DTD SVG 1.1//EN" "http://www.w3.org/Graphics/SVG/1.1/DTD/svg11.dtd">
<svg version="1.1" xmlns="http://www.w3.org/2000/svg" xmlns:xlink="http://www.w3.org/1999/xlink" x="0px" y="0px" viewBox="0 0 1000 1000" enable-background="new 0 0 1000 1000" xml:space="preserve">
<metadata> Svg Vector Icons : http://www.onlinewebfonts.com/icon </metadata>
<g><path d="M499.5,10C229,10,10,229.5,10,500c0,270.5,219,490,489.5,490c271,0,490.5-219.5,490.5-490C990,229.5,770.5,10,499.5,10L499.5,10z M500,892c-216.6,0-392-175.4-392-392c0-216.6,175.4-392,392-392s392,175.4,392,392C892,716.6,716.6,892,500,892L500,892z M671.5,451c40.7,0,73.5-32.8,73.5-73.5S712.2,304,671.5,304S598,336.8,598,377.5S630.8,451,671.5,451L671.5,451z M328.5,451c40.7,0,73.5-32.8,73.5-73.5S369.2,304,328.5,304S255,336.8,255,377.5S287.8,451,328.5,451L328.5,451z M500,769.5c114.2,0,211.2-71.5,250.4-171.5H249.6C288.8,698,385.8,769.5,500,769.5L500,769.5z"/></g>
</svg>