<?xml version="1.0" encoding="utf-8"?>
<!-- Svg Vector Icons : http://www.onlinewebfonts.com/icon -->
<!DOCTYPE svg PUBLIC "-//W3C//DTD SVG 1.1//EN" "http://www.w3.org/Graphics/SVG/1.1/DTD/svg11.dtd">
<svg version="1.1" xmlns="http://www.w3.org/2000/svg" xmlns:xlink="http://www.w3.org/1999/xlink" x="0px" y="0px" viewBox="0 0 1000 1000" enable-background="new 0 0 1000 1000" xml:space="preserve">
<metadata> Svg Vector Icons : http://www.onlinewebfonts.com/icon </metadata>
<g><path d="M500,10C230.5,10,10,230.5,10,500s220.5,490,490,490s490-220.5,490-490S769.5,10,500,10L500,10z M671.5,304c39.2,0,73.5,34.3,73.5,73.5S710.7,451,671.5,451S598,416.7,598,377.5S632.3,304,671.5,304L671.5,304z M328.5,304c39.2,0,73.5,34.3,73.5,73.5S367.7,451,328.5,451c-39.2,0-73.5-34.3-73.5-73.5S289.3,304,328.5,304L328.5,304z M500,794c-127.4,0-235.2-83.3-274.4-196h548.8C735.2,710.7,627.4,794,500,794L500,794z"/></g>
</svg>