<?xml version="1.0" encoding="utf-8"?>
<!-- Svg Vector Icons : http://www.onlinewebfonts.com/icon -->
<!DOCTYPE svg PUBLIC "-//W3C//DTD SVG 1.1//EN" "http://www.w3.org/Graphics/SVG/1.1/DTD/svg11.dtd">
<svg version="1.1" xmlns="http://www.w3.org/2000/svg" xmlns:xlink="http://www.w3.org/1999/xlink" x="0px" y="0px" viewBox="0 0 1000 1000" enable-background="new 0 0 1000 1000" xml:space="preserve">
<metadata> Svg Vector Icons : http://www.onlinewebfonts.com/icon </metadata>
<g><path d="M393.1,833.2c-22.5,22.5-58.9,22.5-81.4,0L26.9,548.4C4.4,526,4.4,489.5,26.9,467c22.5-22.4,58.9-22.4,81.4,0l284.8,284.8C415.6,774.3,415.6,810.7,393.1,833.2z"/><path d="M312,831.5c22.5,22.5,58.9,22.5,81.4,0l579.7-583.3c22.5-22.5,22.5-58.9,0-81.4c-22.5-22.4-58.9-22.4-81.4,0L312,750.1C289.5,772.5,289.5,809,312,831.5L312,831.5z"/></g>
</svg>